<?xml version="1.0" encoding="utf-8" standalone="no"?>
<!DOCTYPE svg PUBLIC "-//W3C//DTD SVG 1.1//EN"
  "http://www.w3.org/Graphics/SVG/1.1/DTD/svg11.dtd">
<!-- Created with matplotlib (https://matplotlib.org/) -->
<svg height="423.674687pt" version="1.1" viewBox="0 0 640.433125 423.674687" width="640.433125pt" xmlns="http://www.w3.org/2000/svg" xmlns:xlink="http://www.w3.org/1999/xlink">
 <defs>
  <style type="text/css">
*{stroke-linecap:butt;stroke-linejoin:round;}
  </style>
 </defs>
 <g id="figure_1">
  <g id="patch_1">
   <path d="M 0 423.674687 
L 640.433125 423.674687 
L 640.433125 0 
L 0 0 
z
" style="fill:#ffffff;"/>
  </g>
  <g id="axes_1">
   <g id="patch_2">
    <path d="M 40.603125 175.518437 
L 202.133125 175.518437 
L 202.133125 20.798437 
L 40.603125 20.798437 
z
" style="fill:#ffffff;"/>
   </g>
   <g id="patch_3">
    <path clip-path="url(#p5d3ab39b33)" d="M 48.679625 175.518437 
L 54.553443 175.518437 
L 54.553443 163.239072 
L 48.679625 163.239072 
z
" style="fill:#808080;opacity:0.8;"/>
   </g>
   <g id="patch_4">
    <path clip-path="url(#p5d3ab39b33)" d="M 56.021898 175.518437 
L 61.895716 175.518437 
L 61.895716 175.518437 
L 56.021898 175.518437 
z
" style="fill:#808080;opacity:0.8;"/>
   </g>
   <g id="patch_5">
    <path clip-path="url(#p5d3ab39b33)" d="M 63.36417 175.518437 
L 69.237989 175.518437 
L 69.237989 150.959707 
L 63.36417 150.959707 
z
" style="fill:#808080;opacity:0.8;"/>
   </g>
   <g id="patch_6">
    <path clip-path="url(#p5d3ab39b33)" d="M 70.706443 175.518437 
L 76.580261 175.518437 
L 76.580261 150.959707 
L 70.706443 150.959707 
z
" style="fill:#808080;opacity:0.8;"/>
   </g>
   <g id="patch_7">
    <path clip-path="url(#p5d3ab39b33)" d="M 78.048716 175.518437 
L 83.922534 175.518437 
L 83.922534 114.121612 
L 78.048716 114.121612 
z
" style="fill:#808080;opacity:0.8;"/>
   </g>
   <g id="patch_8">
    <path clip-path="url(#p5d3ab39b33)" d="M 85.390989 175.518437 
L 91.264807 175.518437 
L 91.264807 101.842247 
L 85.390989 101.842247 
z
" style="fill:#808080;opacity:0.8;"/>
   </g>
   <g id="patch_9">
    <path clip-path="url(#p5d3ab39b33)" d="M 92.733261 175.518437 
L 98.60708 175.518437 
L 98.60708 77.283517 
L 92.733261 77.283517 
z
" style="fill:#808080;opacity:0.8;"/>
   </g>
   <g id="patch_10">
    <path clip-path="url(#p5d3ab39b33)" d="M 100.075534 175.518437 
L 105.949352 175.518437 
L 105.949352 114.121612 
L 100.075534 114.121612 
z
" style="fill:#808080;opacity:0.8;"/>
   </g>
   <g id="patch_11">
    <path clip-path="url(#p5d3ab39b33)" d="M 107.417807 175.518437 
L 113.291625 175.518437 
L 113.291625 52.724787 
L 107.417807 52.724787 
z
" style="fill:#808080;opacity:0.8;"/>
   </g>
   <g id="patch_12">
    <path clip-path="url(#p5d3ab39b33)" d="M 114.76008 175.518437 
L 120.633898 175.518437 
L 120.633898 65.004152 
L 114.76008 65.004152 
z
" style="fill:#808080;opacity:0.8;"/>
   </g>
   <g id="patch_13">
    <path clip-path="url(#p5d3ab39b33)" d="M 122.102352 175.518437 
L 127.97617 175.518437 
L 127.97617 28.166057 
L 122.102352 28.166057 
z
" style="fill:#808080;opacity:0.8;"/>
   </g>
   <g id="patch_14">
    <path clip-path="url(#p5d3ab39b33)" d="M 129.444625 175.518437 
L 135.318443 175.518437 
L 135.318443 77.283517 
L 129.444625 77.283517 
z
" style="fill:#808080;opacity:0.8;"/>
   </g>
   <g id="patch_15">
    <path clip-path="url(#p5d3ab39b33)" d="M 136.786898 175.518437 
L 142.660716 175.518437 
L 142.660716 89.562882 
L 136.786898 89.562882 
z
" style="fill:#808080;opacity:0.8;"/>
   </g>
   <g id="patch_16">
    <path clip-path="url(#p5d3ab39b33)" d="M 144.12917 175.518437 
L 150.002989 175.518437 
L 150.002989 114.121612 
L 144.12917 114.121612 
z
" style="fill:#808080;opacity:0.8;"/>
   </g>
   <g id="patch_17">
    <path clip-path="url(#p5d3ab39b33)" d="M 151.471443 175.518437 
L 157.345261 175.518437 
L 157.345261 114.121612 
L 151.471443 114.121612 
z
" style="fill:#808080;opacity:0.8;"/>
   </g>
   <g id="patch_18">
    <path clip-path="url(#p5d3ab39b33)" d="M 158.813716 175.518437 
L 164.687534 175.518437 
L 164.687534 114.121612 
L 158.813716 114.121612 
z
" style="fill:#808080;opacity:0.8;"/>
   </g>
   <g id="patch_19">
    <path clip-path="url(#p5d3ab39b33)" d="M 166.155989 175.518437 
L 172.029807 175.518437 
L 172.029807 126.400977 
L 166.155989 126.400977 
z
" style="fill:#808080;opacity:0.8;"/>
   </g>
   <g id="patch_20">
    <path clip-path="url(#p5d3ab39b33)" d="M 173.498261 175.518437 
L 179.37208 175.518437 
L 179.37208 138.680342 
L 173.498261 138.680342 
z
" style="fill:#808080;opacity:0.8;"/>
   </g>
   <g id="patch_21">
    <path clip-path="url(#p5d3ab39b33)" d="M 180.840534 175.518437 
L 186.714352 175.518437 
L 186.714352 175.518437 
L 180.840534 175.518437 
z
" style="fill:#808080;opacity:0.8;"/>
   </g>
   <g id="patch_22">
    <path clip-path="url(#p5d3ab39b33)" d="M 188.182807 175.518437 
L 194.056625 175.518437 
L 194.056625 138.680342 
L 188.182807 138.680342 
z
" style="fill:#808080;opacity:0.8;"/>
   </g>
   <g id="matplotlib.axis_1">
    <g id="xtick_1">
     <g id="line2d_1">
      <defs>
       <path d="M 0 0 
L 0 3.5 
" id="mcec78ed9bc" style="stroke:#000000;stroke-width:0.8;"/>
      </defs>
      <g>
       <use style="stroke:#000000;stroke-width:0.8;" x="70.612817" xlink:href="#mcec78ed9bc" y="175.518437"/>
      </g>
     </g>
     <g id="text_1">
      <!-- 67 -->
      <defs>
       <path d="M 33.015625 40.375 
Q 26.375 40.375 22.484375 35.828125 
Q 18.609375 31.296875 18.609375 23.390625 
Q 18.609375 15.53125 22.484375 10.953125 
Q 26.375 6.390625 33.015625 6.390625 
Q 39.65625 6.390625 43.53125 10.953125 
Q 47.40625 15.53125 47.40625 23.390625 
Q 47.40625 31.296875 43.53125 35.828125 
Q 39.65625 40.375 33.015625 40.375 
z
M 52.59375 71.296875 
L 52.59375 62.3125 
Q 48.875 64.0625 45.09375 64.984375 
Q 41.3125 65.921875 37.59375 65.921875 
Q 27.828125 65.921875 22.671875 59.328125 
Q 17.53125 52.734375 16.796875 39.40625 
Q 19.671875 43.65625 24.015625 45.921875 
Q 28.375 48.1875 33.59375 48.1875 
Q 44.578125 48.1875 50.953125 41.515625 
Q 57.328125 34.859375 57.328125 23.390625 
Q 57.328125 12.15625 50.6875 5.359375 
Q 44.046875 -1.421875 33.015625 -1.421875 
Q 20.359375 -1.421875 13.671875 8.265625 
Q 6.984375 17.96875 6.984375 36.375 
Q 6.984375 53.65625 15.1875 63.9375 
Q 23.390625 74.21875 37.203125 74.21875 
Q 40.921875 74.21875 44.703125 73.484375 
Q 48.484375 72.75 52.59375 71.296875 
z
" id="DejaVuSans-54"/>
       <path d="M 8.203125 72.90625 
L 55.078125 72.90625 
L 55.078125 68.703125 
L 28.609375 0 
L 18.3125 0 
L 43.21875 64.59375 
L 8.203125 64.59375 
z
" id="DejaVuSans-55"/>
      </defs>
      <g transform="translate(64.250317 190.116875)scale(0.1 -0.1)">
       <use xlink:href="#DejaVuSans-54"/>
       <use x="63.623047" xlink:href="#DejaVuSans-55"/>
      </g>
     </g>
    </g>
    <g id="xtick_2">
     <g id="line2d_2">
      <g>
       <use style="stroke:#000000;stroke-width:0.8;" x="103.464149" xlink:href="#mcec78ed9bc" y="175.518437"/>
      </g>
     </g>
     <g id="text_2">
      <!-- 68 -->
      <defs>
       <path d="M 31.78125 34.625 
Q 24.75 34.625 20.71875 30.859375 
Q 16.703125 27.09375 16.703125 20.515625 
Q 16.703125 13.921875 20.71875 10.15625 
Q 24.75 6.390625 31.78125 6.390625 
Q 38.8125 6.390625 42.859375 10.171875 
Q 46.921875 13.96875 46.921875 20.515625 
Q 46.921875 27.09375 42.890625 30.859375 
Q 38.875 34.625 31.78125 34.625 
z
M 21.921875 38.8125 
Q 15.578125 40.375 12.03125 44.71875 
Q 8.5 49.078125 8.5 55.328125 
Q 8.5 64.0625 14.71875 69.140625 
Q 20.953125 74.21875 31.78125 74.21875 
Q 42.671875 74.21875 48.875 69.140625 
Q 55.078125 64.0625 55.078125 55.328125 
Q 55.078125 49.078125 51.53125 44.71875 
Q 48 40.375 41.703125 38.8125 
Q 48.828125 37.15625 52.796875 32.3125 
Q 56.78125 27.484375 56.78125 20.515625 
Q 56.78125 9.90625 50.3125 4.234375 
Q 43.84375 -1.421875 31.78125 -1.421875 
Q 19.734375 -1.421875 13.25 4.234375 
Q 6.78125 9.90625 6.78125 20.515625 
Q 6.78125 27.484375 10.78125 32.3125 
Q 14.796875 37.15625 21.921875 38.8125 
z
M 18.3125 54.390625 
Q 18.3125 48.734375 21.84375 45.5625 
Q 25.390625 42.390625 31.78125 42.390625 
Q 38.140625 42.390625 41.71875 45.5625 
Q 45.3125 48.734375 45.3125 54.390625 
Q 45.3125 60.0625 41.71875 63.234375 
Q 38.140625 66.40625 31.78125 66.40625 
Q 25.390625 66.40625 21.84375 63.234375 
Q 18.3125 60.0625 18.3125 54.390625 
z
" id="DejaVuSans-56"/>
      </defs>
      <g transform="translate(97.101649 190.116875)scale(0.1 -0.1)">
       <use xlink:href="#DejaVuSans-54"/>
       <use x="63.623047" xlink:href="#DejaVuSans-56"/>
      </g>
     </g>
    </g>
    <g id="xtick_3">
     <g id="line2d_3">
      <g>
       <use style="stroke:#000000;stroke-width:0.8;" x="136.315481" xlink:href="#mcec78ed9bc" y="175.518437"/>
      </g>
     </g>
     <g id="text_3">
      <!-- 69 -->
      <defs>
       <path d="M 10.984375 1.515625 
L 10.984375 10.5 
Q 14.703125 8.734375 18.5 7.8125 
Q 22.3125 6.890625 25.984375 6.890625 
Q 35.75 6.890625 40.890625 13.453125 
Q 46.046875 20.015625 46.78125 33.40625 
Q 43.953125 29.203125 39.59375 26.953125 
Q 35.25 24.703125 29.984375 24.703125 
Q 19.046875 24.703125 12.671875 31.3125 
Q 6.296875 37.9375 6.296875 49.421875 
Q 6.296875 60.640625 12.9375 67.421875 
Q 19.578125 74.21875 30.609375 74.21875 
Q 43.265625 74.21875 49.921875 64.515625 
Q 56.59375 54.828125 56.59375 36.375 
Q 56.59375 19.140625 48.40625 8.859375 
Q 40.234375 -1.421875 26.421875 -1.421875 
Q 22.703125 -1.421875 18.890625 -0.6875 
Q 15.09375 0.046875 10.984375 1.515625 
z
M 30.609375 32.421875 
Q 37.25 32.421875 41.125 36.953125 
Q 45.015625 41.5 45.015625 49.421875 
Q 45.015625 57.28125 41.125 61.84375 
Q 37.25 66.40625 30.609375 66.40625 
Q 23.96875 66.40625 20.09375 61.84375 
Q 16.21875 57.28125 16.21875 49.421875 
Q 16.21875 41.5 20.09375 36.953125 
Q 23.96875 32.421875 30.609375 32.421875 
z
" id="DejaVuSans-57"/>
      </defs>
      <g transform="translate(129.952981 190.116875)scale(0.1 -0.1)">
       <use xlink:href="#DejaVuSans-54"/>
       <use x="63.623047" xlink:href="#DejaVuSans-57"/>
      </g>
     </g>
    </g>
    <g id="xtick_4">
     <g id="line2d_4">
      <g>
       <use style="stroke:#000000;stroke-width:0.8;" x="169.166813" xlink:href="#mcec78ed9bc" y="175.518437"/>
      </g>
     </g>
     <g id="text_4">
      <!-- 70 -->
      <defs>
       <path d="M 31.78125 66.40625 
Q 24.171875 66.40625 20.328125 58.90625 
Q 16.5 51.421875 16.5 36.375 
Q 16.5 21.390625 20.328125 13.890625 
Q 24.171875 6.390625 31.78125 6.390625 
Q 39.453125 6.390625 43.28125 13.890625 
Q 47.125 21.390625 47.125 36.375 
Q 47.125 51.421875 43.28125 58.90625 
Q 39.453125 66.40625 31.78125 66.40625 
z
M 31.78125 74.21875 
Q 44.046875 74.21875 50.515625 64.515625 
Q 56.984375 54.828125 56.984375 36.375 
Q 56.984375 17.96875 50.515625 8.265625 
Q 44.046875 -1.421875 31.78125 -1.421875 
Q 19.53125 -1.421875 13.0625 8.265625 
Q 6.59375 17.96875 6.59375 36.375 
Q 6.59375 54.828125 13.0625 64.515625 
Q 19.53125 74.21875 31.78125 74.21875 
z
" id="DejaVuSans-48"/>
      </defs>
      <g transform="translate(162.804313 190.116875)scale(0.1 -0.1)">
       <use xlink:href="#DejaVuSans-55"/>
       <use x="63.623047" xlink:href="#DejaVuSans-48"/>
      </g>
     </g>
    </g>
    <g id="xtick_5">
     <g id="line2d_5">
      <g>
       <use style="stroke:#000000;stroke-width:0.8;" x="202.018145" xlink:href="#mcec78ed9bc" y="175.518437"/>
      </g>
     </g>
     <g id="text_5">
      <!-- 71 -->
      <defs>
       <path d="M 12.40625 8.296875 
L 28.515625 8.296875 
L 28.515625 63.921875 
L 10.984375 60.40625 
L 10.984375 69.390625 
L 28.421875 72.90625 
L 38.28125 72.90625 
L 38.28125 8.296875 
L 54.390625 8.296875 
L 54.390625 0 
L 12.40625 0 
z
" id="DejaVuSans-49"/>
      </defs>
      <g transform="translate(195.655645 190.116875)scale(0.1 -0.1)">
       <use xlink:href="#DejaVuSans-55"/>
       <use x="63.623047" xlink:href="#DejaVuSans-49"/>
      </g>
     </g>
    </g>
    <g id="text_6">
     <!-- sDF -->
     <defs>
      <path d="M 44.28125 53.078125 
L 44.28125 44.578125 
Q 40.484375 46.53125 36.375 47.5 
Q 32.28125 48.484375 27.875 48.484375 
Q 21.1875 48.484375 17.84375 46.4375 
Q 14.5 44.390625 14.5 40.28125 
Q 14.5 37.15625 16.890625 35.375 
Q 19.28125 33.59375 26.515625 31.984375 
L 29.59375 31.296875 
Q 39.15625 29.25 43.1875 25.515625 
Q 47.21875 21.78125 47.21875 15.09375 
Q 47.21875 7.46875 41.1875 3.015625 
Q 35.15625 -1.421875 24.609375 -1.421875 
Q 20.21875 -1.421875 15.453125 -0.5625 
Q 10.6875 0.296875 5.421875 2 
L 5.421875 11.28125 
Q 10.40625 8.6875 15.234375 7.390625 
Q 20.0625 6.109375 24.8125 6.109375 
Q 31.15625 6.109375 34.5625 8.28125 
Q 37.984375 10.453125 37.984375 14.40625 
Q 37.984375 18.0625 35.515625 20.015625 
Q 33.0625 21.96875 24.703125 23.78125 
L 21.578125 24.515625 
Q 13.234375 26.265625 9.515625 29.90625 
Q 5.8125 33.546875 5.8125 39.890625 
Q 5.8125 47.609375 11.28125 51.796875 
Q 16.75 56 26.8125 56 
Q 31.78125 56 36.171875 55.265625 
Q 40.578125 54.546875 44.28125 53.078125 
z
" id="DejaVuSans-115"/>
      <path d="M 19.671875 64.796875 
L 19.671875 8.109375 
L 31.59375 8.109375 
Q 46.6875 8.109375 53.6875 14.9375 
Q 60.6875 21.78125 60.6875 36.53125 
Q 60.6875 51.171875 53.6875 57.984375 
Q 46.6875 64.796875 31.59375 64.796875 
z
M 9.8125 72.90625 
L 30.078125 72.90625 
Q 51.265625 72.90625 61.171875 64.09375 
Q 71.09375 55.28125 71.09375 36.53125 
Q 71.09375 17.671875 61.125 8.828125 
Q 51.171875 0 30.078125 0 
L 9.8125 0 
z
" id="DejaVuSans-68"/>
      <path d="M 9.8125 72.90625 
L 51.703125 72.90625 
L 51.703125 64.59375 
L 19.671875 64.59375 
L 19.671875 43.109375 
L 48.578125 43.109375 
L 48.578125 34.8125 
L 19.671875 34.8125 
L 19.671875 0 
L 9.8125 0 
z
" id="DejaVuSans-70"/>
     </defs>
     <g transform="translate(112.037656 203.795)scale(0.1 -0.1)">
      <use xlink:href="#DejaVuSans-115"/>
      <use x="52.099609" xlink:href="#DejaVuSans-68"/>
      <use x="129.101562" xlink:href="#DejaVuSans-70"/>
     </g>
    </g>
   </g>
   <g id="matplotlib.axis_2">
    <g id="ytick_1">
     <g id="line2d_6">
      <defs>
       <path d="M 0 0 
L -3.5 0 
" id="me07ed33745" style="stroke:#000000;stroke-width:0.8;"/>
      </defs>
      <g>
       <use style="stroke:#000000;stroke-width:0.8;" x="40.603125" xlink:href="#me07ed33745" y="175.518437"/>
      </g>
     </g>
     <g id="text_7">
      <!-- 0 -->
      <g transform="translate(27.240625 179.317656)scale(0.1 -0.1)">
       <use xlink:href="#DejaVuSans-48"/>
      </g>
     </g>
    </g>
    <g id="ytick_2">
     <g id="line2d_7">
      <g>
       <use style="stroke:#000000;stroke-width:0.8;" x="40.603125" xlink:href="#me07ed33745" y="150.959707"/>
      </g>
     </g>
     <g id="text_8">
      <!-- 2 -->
      <defs>
       <path d="M 19.1875 8.296875 
L 53.609375 8.296875 
L 53.609375 0 
L 7.328125 0 
L 7.328125 8.296875 
Q 12.9375 14.109375 22.625 23.890625 
Q 32.328125 33.6875 34.8125 36.53125 
Q 39.546875 41.84375 41.421875 45.53125 
Q 43.3125 49.21875 43.3125 52.78125 
Q 43.3125 58.59375 39.234375 62.25 
Q 35.15625 65.921875 28.609375 65.921875 
Q 23.96875 65.921875 18.8125 64.3125 
Q 13.671875 62.703125 7.8125 59.421875 
L 7.8125 69.390625 
Q 13.765625 71.78125 18.9375 73 
Q 24.125 74.21875 28.421875 74.21875 
Q 39.75 74.21875 46.484375 68.546875 
Q 53.21875 62.890625 53.21875 53.421875 
Q 53.21875 48.921875 51.53125 44.890625 
Q 49.859375 40.875 45.40625 35.40625 
Q 44.1875 33.984375 37.640625 27.21875 
Q 31.109375 20.453125 19.1875 8.296875 
z
" id="DejaVuSans-50"/>
      </defs>
      <g transform="translate(27.240625 154.758926)scale(0.1 -0.1)">
       <use xlink:href="#DejaVuSans-50"/>
      </g>
     </g>
    </g>
    <g id="ytick_3">
     <g id="line2d_8">
      <g>
       <use style="stroke:#000000;stroke-width:0.8;" x="40.603125" xlink:href="#me07ed33745" y="126.400977"/>
      </g>
     </g>
     <g id="text_9">
      <!-- 4 -->
      <defs>
       <path d="M 37.796875 64.3125 
L 12.890625 25.390625 
L 37.796875 25.390625 
z
M 35.203125 72.90625 
L 47.609375 72.90625 
L 47.609375 25.390625 
L 58.015625 25.390625 
L 58.015625 17.1875 
L 47.609375 17.1875 
L 47.609375 0 
L 37.796875 0 
L 37.796875 17.1875 
L 4.890625 17.1875 
L 4.890625 26.703125 
z
" id="DejaVuSans-52"/>
      </defs>
      <g transform="translate(27.240625 130.200196)scale(0.1 -0.1)">
       <use xlink:href="#DejaVuSans-52"/>
      </g>
     </g>
    </g>
    <g id="ytick_4">
     <g id="line2d_9">
      <g>
       <use style="stroke:#000000;stroke-width:0.8;" x="40.603125" xlink:href="#me07ed33745" y="101.842247"/>
      </g>
     </g>
     <g id="text_10">
      <!-- 6 -->
      <g transform="translate(27.240625 105.641466)scale(0.1 -0.1)">
       <use xlink:href="#DejaVuSans-54"/>
      </g>
     </g>
    </g>
    <g id="ytick_5">
     <g id="line2d_10">
      <g>
       <use style="stroke:#000000;stroke-width:0.8;" x="40.603125" xlink:href="#me07ed33745" y="77.283517"/>
      </g>
     </g>
     <g id="text_11">
      <!-- 8 -->
      <g transform="translate(27.240625 81.082736)scale(0.1 -0.1)">
       <use xlink:href="#DejaVuSans-56"/>
      </g>
     </g>
    </g>
    <g id="ytick_6">
     <g id="line2d_11">
      <g>
       <use style="stroke:#000000;stroke-width:0.8;" x="40.603125" xlink:href="#me07ed33745" y="52.724787"/>
      </g>
     </g>
     <g id="text_12">
      <!-- 10 -->
      <g transform="translate(20.878125 56.524005)scale(0.1 -0.1)">
       <use xlink:href="#DejaVuSans-49"/>
       <use x="63.623047" xlink:href="#DejaVuSans-48"/>
      </g>
     </g>
    </g>
    <g id="ytick_7">
     <g id="line2d_12">
      <g>
       <use style="stroke:#000000;stroke-width:0.8;" x="40.603125" xlink:href="#me07ed33745" y="28.166057"/>
      </g>
     </g>
     <g id="text_13">
      <!-- 12 -->
      <g transform="translate(20.878125 31.965275)scale(0.1 -0.1)">
       <use xlink:href="#DejaVuSans-49"/>
       <use x="63.623047" xlink:href="#DejaVuSans-50"/>
      </g>
     </g>
    </g>
    <g id="text_14">
     <!-- Number of simulated MSAs -->
     <defs>
      <path d="M 9.8125 72.90625 
L 23.09375 72.90625 
L 55.421875 11.921875 
L 55.421875 72.90625 
L 64.984375 72.90625 
L 64.984375 0 
L 51.703125 0 
L 19.390625 60.984375 
L 19.390625 0 
L 9.8125 0 
z
" id="DejaVuSans-78"/>
      <path d="M 8.5 21.578125 
L 8.5 54.6875 
L 17.484375 54.6875 
L 17.484375 21.921875 
Q 17.484375 14.15625 20.5 10.265625 
Q 23.53125 6.390625 29.59375 6.390625 
Q 36.859375 6.390625 41.078125 11.03125 
Q 45.3125 15.671875 45.3125 23.6875 
L 45.3125 54.6875 
L 54.296875 54.6875 
L 54.296875 0 
L 45.3125 0 
L 45.3125 8.40625 
Q 42.046875 3.421875 37.71875 1 
Q 33.40625 -1.421875 27.6875 -1.421875 
Q 18.265625 -1.421875 13.375 4.4375 
Q 8.5 10.296875 8.5 21.578125 
z
M 31.109375 56 
z
" id="DejaVuSans-117"/>
      <path d="M 52 44.1875 
Q 55.375 50.25 60.0625 53.125 
Q 64.75 56 71.09375 56 
Q 79.640625 56 84.28125 50.015625 
Q 88.921875 44.046875 88.921875 33.015625 
L 88.921875 0 
L 79.890625 0 
L 79.890625 32.71875 
Q 79.890625 40.578125 77.09375 44.375 
Q 74.3125 48.1875 68.609375 48.1875 
Q 61.625 48.1875 57.5625 43.546875 
Q 53.515625 38.921875 53.515625 30.90625 
L 53.515625 0 
L 44.484375 0 
L 44.484375 32.71875 
Q 44.484375 40.625 41.703125 44.40625 
Q 38.921875 48.1875 33.109375 48.1875 
Q 26.21875 48.1875 22.15625 43.53125 
Q 18.109375 38.875 18.109375 30.90625 
L 18.109375 0 
L 9.078125 0 
L 9.078125 54.6875 
L 18.109375 54.6875 
L 18.109375 46.1875 
Q 21.1875 51.21875 25.484375 53.609375 
Q 29.78125 56 35.6875 56 
Q 41.65625 56 45.828125 52.96875 
Q 50 49.953125 52 44.1875 
z
" id="DejaVuSans-109"/>
      <path d="M 48.6875 27.296875 
Q 48.6875 37.203125 44.609375 42.84375 
Q 40.53125 48.484375 33.40625 48.484375 
Q 26.265625 48.484375 22.1875 42.84375 
Q 18.109375 37.203125 18.109375 27.296875 
Q 18.109375 17.390625 22.1875 11.75 
Q 26.265625 6.109375 33.40625 6.109375 
Q 40.53125 6.109375 44.609375 11.75 
Q 48.6875 17.390625 48.6875 27.296875 
z
M 18.109375 46.390625 
Q 20.953125 51.265625 25.265625 53.625 
Q 29.59375 56 35.59375 56 
Q 45.5625 56 51.78125 48.09375 
Q 58.015625 40.1875 58.015625 27.296875 
Q 58.015625 14.40625 51.78125 6.484375 
Q 45.5625 -1.421875 35.59375 -1.421875 
Q 29.59375 -1.421875 25.265625 0.953125 
Q 20.953125 3.328125 18.109375 8.203125 
L 18.109375 0 
L 9.078125 0 
L 9.078125 75.984375 
L 18.109375 75.984375 
z
" id="DejaVuSans-98"/>
      <path d="M 56.203125 29.59375 
L 56.203125 25.203125 
L 14.890625 25.203125 
Q 15.484375 15.921875 20.484375 11.0625 
Q 25.484375 6.203125 34.421875 6.203125 
Q 39.59375 6.203125 44.453125 7.46875 
Q 49.3125 8.734375 54.109375 11.28125 
L 54.109375 2.78125 
Q 49.265625 0.734375 44.1875 -0.34375 
Q 39.109375 -1.421875 33.890625 -1.421875 
Q 20.796875 -1.421875 13.15625 6.1875 
Q 5.515625 13.8125 5.515625 26.8125 
Q 5.515625 40.234375 12.765625 48.109375 
Q 20.015625 56 32.328125 56 
Q 43.359375 56 49.78125 48.890625 
Q 56.203125 41.796875 56.203125 29.59375 
z
M 47.21875 32.234375 
Q 47.125 39.59375 43.09375 43.984375 
Q 39.0625 48.390625 32.421875 48.390625 
Q 24.90625 48.390625 20.390625 44.140625 
Q 15.875 39.890625 15.1875 32.171875 
z
" id="DejaVuSans-101"/>
      <path d="M 41.109375 46.296875 
Q 39.59375 47.171875 37.8125 47.578125 
Q 36.03125 48 33.890625 48 
Q 26.265625 48 22.1875 43.046875 
Q 18.109375 38.09375 18.109375 28.8125 
L 18.109375 0 
L 9.078125 0 
L 9.078125 54.6875 
L 18.109375 54.6875 
L 18.109375 46.1875 
Q 20.953125 51.171875 25.484375 53.578125 
Q 30.03125 56 36.53125 56 
Q 37.453125 56 38.578125 55.875 
Q 39.703125 55.765625 41.0625 55.515625 
z
" id="DejaVuSans-114"/>
      <path id="DejaVuSans-32"/>
      <path d="M 30.609375 48.390625 
Q 23.390625 48.390625 19.1875 42.75 
Q 14.984375 37.109375 14.984375 27.296875 
Q 14.984375 17.484375 19.15625 11.84375 
Q 23.34375 6.203125 30.609375 6.203125 
Q 37.796875 6.203125 41.984375 11.859375 
Q 46.1875 17.53125 46.1875 27.296875 
Q 46.1875 37.015625 41.984375 42.703125 
Q 37.796875 48.390625 30.609375 48.390625 
z
M 30.609375 56 
Q 42.328125 56 49.015625 48.375 
Q 55.71875 40.765625 55.71875 27.296875 
Q 55.71875 13.875 49.015625 6.21875 
Q 42.328125 -1.421875 30.609375 -1.421875 
Q 18.84375 -1.421875 12.171875 6.21875 
Q 5.515625 13.875 5.515625 27.296875 
Q 5.515625 40.765625 12.171875 48.375 
Q 18.84375 56 30.609375 56 
z
" id="DejaVuSans-111"/>
      <path d="M 37.109375 75.984375 
L 37.109375 68.5 
L 28.515625 68.5 
Q 23.6875 68.5 21.796875 66.546875 
Q 19.921875 64.59375 19.921875 59.515625 
L 19.921875 54.6875 
L 34.71875 54.6875 
L 34.71875 47.703125 
L 19.921875 47.703125 
L 19.921875 0 
L 10.890625 0 
L 10.890625 47.703125 
L 2.296875 47.703125 
L 2.296875 54.6875 
L 10.890625 54.6875 
L 10.890625 58.5 
Q 10.890625 67.625 15.140625 71.796875 
Q 19.390625 75.984375 28.609375 75.984375 
z
" id="DejaVuSans-102"/>
      <path d="M 9.421875 54.6875 
L 18.40625 54.6875 
L 18.40625 0 
L 9.421875 0 
z
M 9.421875 75.984375 
L 18.40625 75.984375 
L 18.40625 64.59375 
L 9.421875 64.59375 
z
" id="DejaVuSans-105"/>
      <path d="M 9.421875 75.984375 
L 18.40625 75.984375 
L 18.40625 0 
L 9.421875 0 
z
" id="DejaVuSans-108"/>
      <path d="M 34.28125 27.484375 
Q 23.390625 27.484375 19.1875 25 
Q 14.984375 22.515625 14.984375 16.5 
Q 14.984375 11.71875 18.140625 8.90625 
Q 21.296875 6.109375 26.703125 6.109375 
Q 34.1875 6.109375 38.703125 11.40625 
Q 43.21875 16.703125 43.21875 25.484375 
L 43.21875 27.484375 
z
M 52.203125 31.203125 
L 52.203125 0 
L 43.21875 0 
L 43.21875 8.296875 
Q 40.140625 3.328125 35.546875 0.953125 
Q 30.953125 -1.421875 24.3125 -1.421875 
Q 15.921875 -1.421875 10.953125 3.296875 
Q 6 8.015625 6 15.921875 
Q 6 25.140625 12.171875 29.828125 
Q 18.359375 34.515625 30.609375 34.515625 
L 43.21875 34.515625 
L 43.21875 35.40625 
Q 43.21875 41.609375 39.140625 45 
Q 35.0625 48.390625 27.6875 48.390625 
Q 23 48.390625 18.546875 47.265625 
Q 14.109375 46.140625 10.015625 43.890625 
L 10.015625 52.203125 
Q 14.9375 54.109375 19.578125 55.046875 
Q 24.21875 56 28.609375 56 
Q 40.484375 56 46.34375 49.84375 
Q 52.203125 43.703125 52.203125 31.203125 
z
" id="DejaVuSans-97"/>
      <path d="M 18.3125 70.21875 
L 18.3125 54.6875 
L 36.8125 54.6875 
L 36.8125 47.703125 
L 18.3125 47.703125 
L 18.3125 18.015625 
Q 18.3125 11.328125 20.140625 9.421875 
Q 21.96875 7.515625 27.59375 7.515625 
L 36.8125 7.515625 
L 36.8125 0 
L 27.59375 0 
Q 17.1875 0 13.234375 3.875 
Q 9.28125 7.765625 9.28125 18.015625 
L 9.28125 47.703125 
L 2.6875 47.703125 
L 2.6875 54.6875 
L 9.28125 54.6875 
L 9.28125 70.21875 
z
" id="DejaVuSans-116"/>
      <path d="M 45.40625 46.390625 
L 45.40625 75.984375 
L 54.390625 75.984375 
L 54.390625 0 
L 45.40625 0 
L 45.40625 8.203125 
Q 42.578125 3.328125 38.25 0.953125 
Q 33.9375 -1.421875 27.875 -1.421875 
Q 17.96875 -1.421875 11.734375 6.484375 
Q 5.515625 14.40625 5.515625 27.296875 
Q 5.515625 40.1875 11.734375 48.09375 
Q 17.96875 56 27.875 56 
Q 33.9375 56 38.25 53.625 
Q 42.578125 51.265625 45.40625 46.390625 
z
M 14.796875 27.296875 
Q 14.796875 17.390625 18.875 11.75 
Q 22.953125 6.109375 30.078125 6.109375 
Q 37.203125 6.109375 41.296875 11.75 
Q 45.40625 17.390625 45.40625 27.296875 
Q 45.40625 37.203125 41.296875 42.84375 
Q 37.203125 48.484375 30.078125 48.484375 
Q 22.953125 48.484375 18.875 42.84375 
Q 14.796875 37.203125 14.796875 27.296875 
z
" id="DejaVuSans-100"/>
      <path d="M 9.8125 72.90625 
L 24.515625 72.90625 
L 43.109375 23.296875 
L 61.8125 72.90625 
L 76.515625 72.90625 
L 76.515625 0 
L 66.890625 0 
L 66.890625 64.015625 
L 48.09375 14.015625 
L 38.1875 14.015625 
L 19.390625 64.015625 
L 19.390625 0 
L 9.8125 0 
z
" id="DejaVuSans-77"/>
      <path d="M 53.515625 70.515625 
L 53.515625 60.890625 
Q 47.90625 63.578125 42.921875 64.890625 
Q 37.9375 66.21875 33.296875 66.21875 
Q 25.25 66.21875 20.875 63.09375 
Q 16.5 59.96875 16.5 54.203125 
Q 16.5 49.359375 19.40625 46.890625 
Q 22.3125 44.4375 30.421875 42.921875 
L 36.375 41.703125 
Q 47.40625 39.59375 52.65625 34.296875 
Q 57.90625 29 57.90625 20.125 
Q 57.90625 9.515625 50.796875 4.046875 
Q 43.703125 -1.421875 29.984375 -1.421875 
Q 24.8125 -1.421875 18.96875 -0.25 
Q 13.140625 0.921875 6.890625 3.21875 
L 6.890625 13.375 
Q 12.890625 10.015625 18.65625 8.296875 
Q 24.421875 6.59375 29.984375 6.59375 
Q 38.421875 6.59375 43.015625 9.90625 
Q 47.609375 13.234375 47.609375 19.390625 
Q 47.609375 24.75 44.3125 27.78125 
Q 41.015625 30.8125 33.5 32.328125 
L 27.484375 33.5 
Q 16.453125 35.6875 11.515625 40.375 
Q 6.59375 45.0625 6.59375 53.421875 
Q 6.59375 63.09375 13.40625 68.65625 
Q 20.21875 74.21875 32.171875 74.21875 
Q 37.3125 74.21875 42.625 73.28125 
Q 47.953125 72.359375 53.515625 70.515625 
z
" id="DejaVuSans-83"/>
      <path d="M 34.1875 63.1875 
L 20.796875 26.90625 
L 47.609375 26.90625 
z
M 28.609375 72.90625 
L 39.796875 72.90625 
L 67.578125 0 
L 57.328125 0 
L 50.6875 18.703125 
L 17.828125 18.703125 
L 11.1875 0 
L 0.78125 0 
z
" id="DejaVuSans-65"/>
     </defs>
     <g transform="translate(14.798438 166.135)rotate(-90)scale(0.1 -0.1)">
      <use xlink:href="#DejaVuSans-78"/>
      <use x="74.804688" xlink:href="#DejaVuSans-117"/>
      <use x="138.183594" xlink:href="#DejaVuSans-109"/>
      <use x="235.595703" xlink:href="#DejaVuSans-98"/>
      <use x="299.072266" xlink:href="#DejaVuSans-101"/>
      <use x="360.595703" xlink:href="#DejaVuSans-114"/>
      <use x="401.708984" xlink:href="#DejaVuSans-32"/>
      <use x="433.496094" xlink:href="#DejaVuSans-111"/>
      <use x="494.677734" xlink:href="#DejaVuSans-102"/>
      <use x="529.882812" xlink:href="#DejaVuSans-32"/>
      <use x="561.669922" xlink:href="#DejaVuSans-115"/>
      <use x="613.769531" xlink:href="#DejaVuSans-105"/>
      <use x="641.552734" xlink:href="#DejaVuSans-109"/>
      <use x="738.964844" xlink:href="#DejaVuSans-117"/>
      <use x="802.34375" xlink:href="#DejaVuSans-108"/>
      <use x="830.126953" xlink:href="#DejaVuSans-97"/>
      <use x="891.40625" xlink:href="#DejaVuSans-116"/>
      <use x="930.615234" xlink:href="#DejaVuSans-101"/>
      <use x="992.138672" xlink:href="#DejaVuSans-100"/>
      <use x="1055.615234" xlink:href="#DejaVuSans-32"/>
      <use x="1087.402344" xlink:href="#DejaVuSans-77"/>
      <use x="1173.681641" xlink:href="#DejaVuSans-83"/>
      <use x="1239.033203" xlink:href="#DejaVuSans-65"/>
      <use x="1307.441406" xlink:href="#DejaVuSans-115"/>
     </g>
    </g>
   </g>
   <g id="LineCollection_1">
    <path clip-path="url(#p5d3ab39b33)" d="M 150.113041 175.518437 
L 150.113041 20.798437 
" style="fill:none;stroke:#ff0000;stroke-dasharray:5.55,2.4;stroke-dashoffset:0;stroke-opacity:0.8;stroke-width:1.5;"/>
   </g>
   <g id="LineCollection_2">
    <path clip-path="url(#p5d3ab39b33)" d="M 122.398103 175.518437 
L 122.398103 20.798437 
" style="fill:none;stroke:#000000;stroke-dasharray:5.55,2.4;stroke-dashoffset:0;stroke-opacity:0.8;stroke-width:1.5;"/>
   </g>
   <g id="line2d_13">
    <path clip-path="url(#p5d3ab39b33)" d="M 47.945398 166.418393 
L 50.593913 164.559415 
L 53.242428 162.408427 
L 55.890943 159.945043 
L 58.539459 157.155511 
L 61.187974 154.034741 
L 63.836489 150.587998 
L 66.779284 146.396714 
L 70.016358 141.393929 
L 73.841991 135.05535 
L 79.433301 125.287892 
L 87.967405 110.386975 
L 92.087318 103.642724 
L 95.912951 97.807537 
L 99.150025 93.246043 
L 102.387099 89.067998 
L 105.329894 85.636766 
L 107.978409 82.880914 
L 110.332645 80.725923 
L 112.686881 78.879883 
L 114.746837 77.544533 
L 116.806793 76.495023 
L 118.57247 75.840272 
L 120.338147 75.425403 
L 122.103824 75.261555 
L 123.8695 75.357205 
L 125.635177 75.717553 
L 127.400854 76.344048 
L 129.166531 77.234081 
L 130.932208 78.380873 
L 132.697885 79.773566 
L 134.757841 81.689419 
L 137.112077 84.226851 
L 139.760592 87.463845 
L 142.703386 91.44144 
L 146.52902 97.032924 
L 153.003168 106.995872 
L 160.654434 118.669485 
L 165.951464 126.360183 
L 170.954215 133.252518 
L 175.956966 139.760479 
L 180.371158 145.157933 
L 184.491071 149.87074 
L 188.316704 153.932433 
L 191.848058 157.384382 
L 194.790852 160.025469 
L 194.790852 160.025469 
" style="fill:none;stroke:#000000;stroke-linecap:square;stroke-width:1.5;"/>
   </g>
   <g id="patch_23">
    <path d="M 40.603125 175.518437 
L 40.603125 20.798437 
" style="fill:none;stroke:#000000;stroke-linecap:square;stroke-linejoin:miter;stroke-width:0.8;"/>
   </g>
   <g id="patch_24">
    <path d="M 202.133125 175.518437 
L 202.133125 20.798437 
" style="fill:none;stroke:#000000;stroke-linecap:square;stroke-linejoin:miter;stroke-width:0.8;"/>
   </g>
   <g id="patch_25">
    <path d="M 40.603125 175.518437 
L 202.133125 175.518437 
" style="fill:none;stroke:#000000;stroke-linecap:square;stroke-linejoin:miter;stroke-width:0.8;"/>
   </g>
   <g id="patch_26">
    <path d="M 40.603125 20.798437 
L 202.133125 20.798437 
" style="fill:none;stroke:#000000;stroke-linecap:square;stroke-linejoin:miter;stroke-width:0.8;"/>
   </g>
   <g id="text_15">
    <!-- Branch: ID_9 -->
    <defs>
     <path d="M 19.671875 34.8125 
L 19.671875 8.109375 
L 35.5 8.109375 
Q 43.453125 8.109375 47.28125 11.40625 
Q 51.125 14.703125 51.125 21.484375 
Q 51.125 28.328125 47.28125 31.5625 
Q 43.453125 34.8125 35.5 34.8125 
z
M 19.671875 64.796875 
L 19.671875 42.828125 
L 34.28125 42.828125 
Q 41.5 42.828125 45.03125 45.53125 
Q 48.578125 48.25 48.578125 53.8125 
Q 48.578125 59.328125 45.03125 62.0625 
Q 41.5 64.796875 34.28125 64.796875 
z
M 9.8125 72.90625 
L 35.015625 72.90625 
Q 46.296875 72.90625 52.390625 68.21875 
Q 58.5 63.53125 58.5 54.890625 
Q 58.5 48.1875 55.375 44.234375 
Q 52.25 40.28125 46.1875 39.3125 
Q 53.46875 37.75 57.5 32.78125 
Q 61.53125 27.828125 61.53125 20.40625 
Q 61.53125 10.640625 54.890625 5.3125 
Q 48.25 0 35.984375 0 
L 9.8125 0 
z
" id="DejaVuSans-66"/>
     <path d="M 54.890625 33.015625 
L 54.890625 0 
L 45.90625 0 
L 45.90625 32.71875 
Q 45.90625 40.484375 42.875 44.328125 
Q 39.84375 48.1875 33.796875 48.1875 
Q 26.515625 48.1875 22.3125 43.546875 
Q 18.109375 38.921875 18.109375 30.90625 
L 18.109375 0 
L 9.078125 0 
L 9.078125 54.6875 
L 18.109375 54.6875 
L 18.109375 46.1875 
Q 21.34375 51.125 25.703125 53.5625 
Q 30.078125 56 35.796875 56 
Q 45.21875 56 50.046875 50.171875 
Q 54.890625 44.34375 54.890625 33.015625 
z
" id="DejaVuSans-110"/>
     <path d="M 48.78125 52.59375 
L 48.78125 44.1875 
Q 44.96875 46.296875 41.140625 47.34375 
Q 37.3125 48.390625 33.40625 48.390625 
Q 24.65625 48.390625 19.8125 42.84375 
Q 14.984375 37.3125 14.984375 27.296875 
Q 14.984375 17.28125 19.8125 11.734375 
Q 24.65625 6.203125 33.40625 6.203125 
Q 37.3125 6.203125 41.140625 7.25 
Q 44.96875 8.296875 48.78125 10.40625 
L 48.78125 2.09375 
Q 45.015625 0.34375 40.984375 -0.53125 
Q 36.96875 -1.421875 32.421875 -1.421875 
Q 20.0625 -1.421875 12.78125 6.34375 
Q 5.515625 14.109375 5.515625 27.296875 
Q 5.515625 40.671875 12.859375 48.328125 
Q 20.21875 56 33.015625 56 
Q 37.15625 56 41.109375 55.140625 
Q 45.0625 54.296875 48.78125 52.59375 
z
" id="DejaVuSans-99"/>
     <path d="M 54.890625 33.015625 
L 54.890625 0 
L 45.90625 0 
L 45.90625 32.71875 
Q 45.90625 40.484375 42.875 44.328125 
Q 39.84375 48.1875 33.796875 48.1875 
Q 26.515625 48.1875 22.3125 43.546875 
Q 18.109375 38.921875 18.109375 30.90625 
L 18.109375 0 
L 9.078125 0 
L 9.078125 75.984375 
L 18.109375 75.984375 
L 18.109375 46.1875 
Q 21.34375 51.125 25.703125 53.5625 
Q 30.078125 56 35.796875 56 
Q 45.21875 56 50.046875 50.171875 
Q 54.890625 44.34375 54.890625 33.015625 
z
" id="DejaVuSans-104"/>
     <path d="M 11.71875 12.40625 
L 22.015625 12.40625 
L 22.015625 0 
L 11.71875 0 
z
M 11.71875 51.703125 
L 22.015625 51.703125 
L 22.015625 39.3125 
L 11.71875 39.3125 
z
" id="DejaVuSans-58"/>
     <path d="M 9.8125 72.90625 
L 19.671875 72.90625 
L 19.671875 0 
L 9.8125 0 
z
" id="DejaVuSans-73"/>
     <path d="M 50.984375 -16.609375 
L 50.984375 -23.578125 
L -0.984375 -23.578125 
L -0.984375 -16.609375 
z
" id="DejaVuSans-95"/>
    </defs>
    <g transform="translate(89.451719 14.798437)scale(0.1 -0.1)">
     <use xlink:href="#DejaVuSans-66"/>
     <use x="68.603516" xlink:href="#DejaVuSans-114"/>
     <use x="109.716797" xlink:href="#DejaVuSans-97"/>
     <use x="170.996094" xlink:href="#DejaVuSans-110"/>
     <use x="234.375" xlink:href="#DejaVuSans-99"/>
     <use x="289.355469" xlink:href="#DejaVuSans-104"/>
     <use x="352.734375" xlink:href="#DejaVuSans-58"/>
     <use x="386.425781" xlink:href="#DejaVuSans-32"/>
     <use x="418.212891" xlink:href="#DejaVuSans-73"/>
     <use x="447.705078" xlink:href="#DejaVuSans-68"/>
     <use x="524.707031" xlink:href="#DejaVuSans-95"/>
     <use x="574.707031" xlink:href="#DejaVuSans-57"/>
    </g>
   </g>
  </g>
  <g id="axes_2">
   <g id="patch_27">
    <path d="M 256.153125 175.518437 
L 417.683125 175.518437 
L 417.683125 20.798437 
L 256.153125 20.798437 
z
" style="fill:#ffffff;"/>
   </g>
   <g id="patch_28">
    <path clip-path="url(#p9e57cf1b82)" d="M 263.905933 175.518437 
L 267.190219 175.518437 
L 267.190219 168.150818 
L 263.905933 168.150818 
z
" style="fill:#808080;opacity:0.8;"/>
   </g>
   <g id="patch_29">
    <path clip-path="url(#p9e57cf1b82)" d="M 268.01129 175.518437 
L 271.295576 175.518437 
L 271.295576 175.518437 
L 268.01129 175.518437 
z
" style="fill:#808080;opacity:0.8;"/>
   </g>
   <g id="patch_30">
    <path clip-path="url(#p9e57cf1b82)" d="M 272.116647 175.518437 
L 275.400932 175.518437 
L 275.400932 175.518437 
L 272.116647 175.518437 
z
" style="fill:#808080;opacity:0.8;"/>
   </g>
   <g id="patch_31">
    <path clip-path="url(#p9e57cf1b82)" d="M 276.222004 175.518437 
L 279.506289 175.518437 
L 279.506289 175.518437 
L 276.222004 175.518437 
z
" style="fill:#808080;opacity:0.8;"/>
   </g>
   <g id="patch_32">
    <path clip-path="url(#p9e57cf1b82)" d="M 280.327361 175.518437 
L 283.611646 175.518437 
L 283.611646 175.518437 
L 280.327361 175.518437 
z
" style="fill:#808080;opacity:0.8;"/>
   </g>
   <g id="patch_33">
    <path clip-path="url(#p9e57cf1b82)" d="M 284.432717 175.518437 
L 287.717003 175.518437 
L 287.717003 146.047961 
L 284.432717 146.047961 
z
" style="fill:#808080;opacity:0.8;"/>
   </g>
   <g id="patch_34">
    <path clip-path="url(#p9e57cf1b82)" d="M 288.538074 175.518437 
L 291.82236 175.518437 
L 291.82236 138.680342 
L 288.538074 138.680342 
z
" style="fill:#808080;opacity:0.8;"/>
   </g>
   <g id="patch_35">
    <path clip-path="url(#p9e57cf1b82)" d="M 292.643431 175.518437 
L 295.927716 175.518437 
L 295.927716 138.680342 
L 292.643431 138.680342 
z
" style="fill:#808080;opacity:0.8;"/>
   </g>
   <g id="patch_36">
    <path clip-path="url(#p9e57cf1b82)" d="M 296.748788 175.518437 
L 300.033073 175.518437 
L 300.033073 87.107009 
L 296.748788 87.107009 
z
" style="fill:#808080;opacity:0.8;"/>
   </g>
   <g id="patch_37">
    <path clip-path="url(#p9e57cf1b82)" d="M 300.854145 175.518437 
L 304.13843 175.518437 
L 304.13843 65.004152 
L 300.854145 65.004152 
z
" style="fill:#808080;opacity:0.8;"/>
   </g>
   <g id="patch_38">
    <path clip-path="url(#p9e57cf1b82)" d="M 304.959501 175.518437 
L 308.243787 175.518437 
L 308.243787 116.577485 
L 304.959501 116.577485 
z
" style="fill:#808080;opacity:0.8;"/>
   </g>
   <g id="patch_39">
    <path clip-path="url(#p9e57cf1b82)" d="M 309.064858 175.518437 
L 312.349144 175.518437 
L 312.349144 28.166057 
L 309.064858 28.166057 
z
" style="fill:#808080;opacity:0.8;"/>
   </g>
   <g id="patch_40">
    <path clip-path="url(#p9e57cf1b82)" d="M 313.170215 175.518437 
L 316.4545 175.518437 
L 316.4545 101.842247 
L 313.170215 101.842247 
z
" style="fill:#808080;opacity:0.8;"/>
   </g>
   <g id="patch_41">
    <path clip-path="url(#p9e57cf1b82)" d="M 317.275572 175.518437 
L 320.559857 175.518437 
L 320.559857 138.680342 
L 317.275572 138.680342 
z
" style="fill:#808080;opacity:0.8;"/>
   </g>
   <g id="patch_42">
    <path clip-path="url(#p9e57cf1b82)" d="M 321.380929 175.518437 
L 324.665214 175.518437 
L 324.665214 131.312723 
L 321.380929 131.312723 
z
" style="fill:#808080;opacity:0.8;"/>
   </g>
   <g id="patch_43">
    <path clip-path="url(#p9e57cf1b82)" d="M 325.486285 175.518437 
L 328.770571 175.518437 
L 328.770571 146.047961 
L 325.486285 146.047961 
z
" style="fill:#808080;opacity:0.8;"/>
   </g>
   <g id="patch_44">
    <path clip-path="url(#p9e57cf1b82)" d="M 329.591642 175.518437 
L 332.875928 175.518437 
L 332.875928 160.783199 
L 329.591642 160.783199 
z
" style="fill:#808080;opacity:0.8;"/>
   </g>
   <g id="patch_45">
    <path clip-path="url(#p9e57cf1b82)" d="M 333.696999 175.518437 
L 336.981284 175.518437 
L 336.981284 168.150818 
L 333.696999 168.150818 
z
" style="fill:#808080;opacity:0.8;"/>
   </g>
   <g id="patch_46">
    <path clip-path="url(#p9e57cf1b82)" d="M 337.802356 175.518437 
L 341.086641 175.518437 
L 341.086641 168.150818 
L 337.802356 168.150818 
z
" style="fill:#808080;opacity:0.8;"/>
   </g>
   <g id="patch_47">
    <path clip-path="url(#p9e57cf1b82)" d="M 341.907712 175.518437 
L 345.191998 175.518437 
L 345.191998 168.150818 
L 341.907712 168.150818 
z
" style="fill:#808080;opacity:0.8;"/>
   </g>
   <g id="matplotlib.axis_3">
    <g id="xtick_6">
     <g id="line2d_14">
      <g>
       <use style="stroke:#000000;stroke-width:0.8;" x="269.134624" xlink:href="#mcec78ed9bc" y="175.518437"/>
      </g>
     </g>
     <g id="text_16">
      <!-- 50 -->
      <defs>
       <path d="M 10.796875 72.90625 
L 49.515625 72.90625 
L 49.515625 64.59375 
L 19.828125 64.59375 
L 19.828125 46.734375 
Q 21.96875 47.46875 24.109375 47.828125 
Q 26.265625 48.1875 28.421875 48.1875 
Q 40.625 48.1875 47.75 41.5 
Q 54.890625 34.8125 54.890625 23.390625 
Q 54.890625 11.625 47.5625 5.09375 
Q 40.234375 -1.421875 26.90625 -1.421875 
Q 22.3125 -1.421875 17.546875 -0.640625 
Q 12.796875 0.140625 7.71875 1.703125 
L 7.71875 11.625 
Q 12.109375 9.234375 16.796875 8.0625 
Q 21.484375 6.890625 26.703125 6.890625 
Q 35.15625 6.890625 40.078125 11.328125 
Q 45.015625 15.765625 45.015625 23.390625 
Q 45.015625 31 40.078125 35.4375 
Q 35.15625 39.890625 26.703125 39.890625 
Q 22.75 39.890625 18.8125 39.015625 
Q 14.890625 38.140625 10.796875 36.28125 
z
" id="DejaVuSans-53"/>
      </defs>
      <g transform="translate(262.772124 190.116875)scale(0.1 -0.1)">
       <use xlink:href="#DejaVuSans-53"/>
       <use x="63.623047" xlink:href="#DejaVuSans-48"/>
      </g>
     </g>
    </g>
    <g id="xtick_7">
     <g id="line2d_15">
      <g>
       <use style="stroke:#000000;stroke-width:0.8;" x="325.526888" xlink:href="#mcec78ed9bc" y="175.518437"/>
      </g>
     </g>
     <g id="text_17">
      <!-- 55 -->
      <g transform="translate(319.164388 190.116875)scale(0.1 -0.1)">
       <use xlink:href="#DejaVuSans-53"/>
       <use x="63.623047" xlink:href="#DejaVuSans-53"/>
      </g>
     </g>
    </g>
    <g id="xtick_8">
     <g id="line2d_16">
      <g>
       <use style="stroke:#000000;stroke-width:0.8;" x="381.919151" xlink:href="#mcec78ed9bc" y="175.518437"/>
      </g>
     </g>
     <g id="text_18">
      <!-- 60 -->
      <g transform="translate(375.556651 190.116875)scale(0.1 -0.1)">
       <use xlink:href="#DejaVuSans-54"/>
       <use x="63.623047" xlink:href="#DejaVuSans-48"/>
      </g>
     </g>
    </g>
    <g id="text_19">
     <!-- sDF -->
     <g transform="translate(327.587656 203.795)scale(0.1 -0.1)">
      <use xlink:href="#DejaVuSans-115"/>
      <use x="52.099609" xlink:href="#DejaVuSans-68"/>
      <use x="129.101562" xlink:href="#DejaVuSans-70"/>
     </g>
    </g>
   </g>
   <g id="matplotlib.axis_4">
    <g id="ytick_8">
     <g id="line2d_17">
      <g>
       <use style="stroke:#000000;stroke-width:0.8;" x="256.153125" xlink:href="#me07ed33745" y="175.518437"/>
      </g>
     </g>
     <g id="text_20">
      <!-- 0 -->
      <g transform="translate(242.790625 179.317656)scale(0.1 -0.1)">
       <use xlink:href="#DejaVuSans-48"/>
      </g>
     </g>
    </g>
    <g id="ytick_9">
     <g id="line2d_18">
      <g>
       <use style="stroke:#000000;stroke-width:0.8;" x="256.153125" xlink:href="#me07ed33745" y="138.680342"/>
      </g>
     </g>
     <g id="text_21">
      <!-- 5 -->
      <g transform="translate(242.790625 142.479561)scale(0.1 -0.1)">
       <use xlink:href="#DejaVuSans-53"/>
      </g>
     </g>
    </g>
    <g id="ytick_10">
     <g id="line2d_19">
      <g>
       <use style="stroke:#000000;stroke-width:0.8;" x="256.153125" xlink:href="#me07ed33745" y="101.842247"/>
      </g>
     </g>
     <g id="text_22">
      <!-- 10 -->
      <g transform="translate(236.428125 105.641466)scale(0.1 -0.1)">
       <use xlink:href="#DejaVuSans-49"/>
       <use x="63.623047" xlink:href="#DejaVuSans-48"/>
      </g>
     </g>
    </g>
    <g id="ytick_11">
     <g id="line2d_20">
      <g>
       <use style="stroke:#000000;stroke-width:0.8;" x="256.153125" xlink:href="#me07ed33745" y="65.004152"/>
      </g>
     </g>
     <g id="text_23">
      <!-- 15 -->
      <g transform="translate(236.428125 68.803371)scale(0.1 -0.1)">
       <use xlink:href="#DejaVuSans-49"/>
       <use x="63.623047" xlink:href="#DejaVuSans-53"/>
      </g>
     </g>
    </g>
    <g id="ytick_12">
     <g id="line2d_21">
      <g>
       <use style="stroke:#000000;stroke-width:0.8;" x="256.153125" xlink:href="#me07ed33745" y="28.166057"/>
      </g>
     </g>
     <g id="text_24">
      <!-- 20 -->
      <g transform="translate(236.428125 31.965275)scale(0.1 -0.1)">
       <use xlink:href="#DejaVuSans-50"/>
       <use x="63.623047" xlink:href="#DejaVuSans-48"/>
      </g>
     </g>
    </g>
    <g id="text_25">
     <!-- Number of simulated MSAs -->
     <g transform="translate(230.348438 166.135)rotate(-90)scale(0.1 -0.1)">
      <use xlink:href="#DejaVuSans-78"/>
      <use x="74.804688" xlink:href="#DejaVuSans-117"/>
      <use x="138.183594" xlink:href="#DejaVuSans-109"/>
      <use x="235.595703" xlink:href="#DejaVuSans-98"/>
      <use x="299.072266" xlink:href="#DejaVuSans-101"/>
      <use x="360.595703" xlink:href="#DejaVuSans-114"/>
      <use x="401.708984" xlink:href="#DejaVuSans-32"/>
      <use x="433.496094" xlink:href="#DejaVuSans-111"/>
      <use x="494.677734" xlink:href="#DejaVuSans-102"/>
      <use x="529.882812" xlink:href="#DejaVuSans-32"/>
      <use x="561.669922" xlink:href="#DejaVuSans-115"/>
      <use x="613.769531" xlink:href="#DejaVuSans-105"/>
      <use x="641.552734" xlink:href="#DejaVuSans-109"/>
      <use x="738.964844" xlink:href="#DejaVuSans-117"/>
      <use x="802.34375" xlink:href="#DejaVuSans-108"/>
      <use x="830.126953" xlink:href="#DejaVuSans-97"/>
      <use x="891.40625" xlink:href="#DejaVuSans-116"/>
      <use x="930.615234" xlink:href="#DejaVuSans-101"/>
      <use x="992.138672" xlink:href="#DejaVuSans-100"/>
      <use x="1055.615234" xlink:href="#DejaVuSans-32"/>
      <use x="1087.402344" xlink:href="#DejaVuSans-77"/>
      <use x="1173.681641" xlink:href="#DejaVuSans-83"/>
      <use x="1239.033203" xlink:href="#DejaVuSans-65"/>
      <use x="1307.441406" xlink:href="#DejaVuSans-115"/>
     </g>
    </g>
   </g>
   <g id="LineCollection_3">
    <path clip-path="url(#p9e57cf1b82)" d="M 410.340852 175.518437 
L 410.340852 20.798437 
" style="fill:none;stroke:#ff0000;stroke-dasharray:5.55,2.4;stroke-dashoffset:0;stroke-opacity:0.8;stroke-width:1.5;"/>
   </g>
   <g id="LineCollection_4">
    <path clip-path="url(#p9e57cf1b82)" d="M 307.099388 175.518437 
L 307.099388 20.798437 
" style="fill:none;stroke:#000000;stroke-dasharray:5.55,2.4;stroke-dashoffset:0;stroke-opacity:0.8;stroke-width:1.5;"/>
   </g>
   <g id="line2d_22">
    <path clip-path="url(#p9e57cf1b82)" d="M 263.495398 173.849954 
L 269.418959 173.524652 
L 271.228936 173.145524 
L 272.709826 172.602907 
L 274.026173 171.887474 
L 275.34252 170.906984 
L 276.658866 169.623229 
L 277.975213 168.005979 
L 279.29156 166.034614 
L 280.77245 163.38088 
L 282.253341 160.265273 
L 283.898774 156.27608 
L 285.708751 151.279408 
L 287.683271 145.157241 
L 289.986878 137.236281 
L 292.784116 126.76465 
L 298.37859 105.565222 
L 300.188567 99.653725 
L 301.669457 95.532484 
L 302.985804 92.547533 
L 303.973064 90.78983 
L 304.960324 89.483563 
L 305.783041 88.760306 
L 306.441214 88.429785 
L 307.099388 88.324471 
L 307.757561 88.446661 
L 308.415735 88.7966 
L 309.073908 89.372369 
L 309.896625 90.403098 
L 310.883885 92.078088 
L 311.871145 94.199425 
L 313.022949 97.179974 
L 314.503839 101.680619 
L 316.478359 108.516037 
L 324.211897 136.238024 
L 326.350961 142.660545 
L 328.325481 147.917759 
L 330.300001 152.537609 
L 332.109978 156.227163 
L 333.919955 159.412645 
L 335.565389 161.892279 
L 337.210822 164.005096 
L 339.020799 165.952982 
L 340.830776 167.569146 
L 342.805297 169.034087 
L 345.108904 170.453234 
L 345.602534 170.725701 
L 345.602534 170.725701 
" style="fill:none;stroke:#000000;stroke-linecap:square;stroke-width:1.5;"/>
   </g>
   <g id="patch_48">
    <path d="M 256.153125 175.518437 
L 256.153125 20.798437 
" style="fill:none;stroke:#000000;stroke-linecap:square;stroke-linejoin:miter;stroke-width:0.8;"/>
   </g>
   <g id="patch_49">
    <path d="M 417.683125 175.518437 
L 417.683125 20.798437 
" style="fill:none;stroke:#000000;stroke-linecap:square;stroke-linejoin:miter;stroke-width:0.8;"/>
   </g>
   <g id="patch_50">
    <path d="M 256.153125 175.518437 
L 417.683125 175.518437 
" style="fill:none;stroke:#000000;stroke-linecap:square;stroke-linejoin:miter;stroke-width:0.8;"/>
   </g>
   <g id="patch_51">
    <path d="M 256.153125 20.798437 
L 417.683125 20.798437 
" style="fill:none;stroke:#000000;stroke-linecap:square;stroke-linejoin:miter;stroke-width:0.8;"/>
   </g>
   <g id="text_26">
    <!-- Branch: ID_10 -->
    <g transform="translate(301.820469 14.798437)scale(0.1 -0.1)">
     <use xlink:href="#DejaVuSans-66"/>
     <use x="68.603516" xlink:href="#DejaVuSans-114"/>
     <use x="109.716797" xlink:href="#DejaVuSans-97"/>
     <use x="170.996094" xlink:href="#DejaVuSans-110"/>
     <use x="234.375" xlink:href="#DejaVuSans-99"/>
     <use x="289.355469" xlink:href="#DejaVuSans-104"/>
     <use x="352.734375" xlink:href="#DejaVuSans-58"/>
     <use x="386.425781" xlink:href="#DejaVuSans-32"/>
     <use x="418.212891" xlink:href="#DejaVuSans-73"/>
     <use x="447.705078" xlink:href="#DejaVuSans-68"/>
     <use x="524.707031" xlink:href="#DejaVuSans-95"/>
     <use x="574.707031" xlink:href="#DejaVuSans-49"/>
     <use x="638.330078" xlink:href="#DejaVuSans-48"/>
    </g>
   </g>
  </g>
  <g id="axes_3">
   <g id="patch_52">
    <path d="M 471.703125 175.518437 
L 633.233125 175.518437 
L 633.233125 20.798437 
L 471.703125 20.798437 
z
" style="fill:#ffffff;"/>
   </g>
   <g id="patch_53">
    <path clip-path="url(#pb788152b55)" d="M 479.779625 175.518437 
L 485.653443 175.518437 
L 485.653443 154.468097 
L 479.779625 154.468097 
z
" style="fill:#808080;opacity:0.8;"/>
   </g>
   <g id="patch_54">
    <path clip-path="url(#pb788152b55)" d="M 487.121898 175.518437 
L 492.995716 175.518437 
L 492.995716 175.518437 
L 487.121898 175.518437 
z
" style="fill:#808080;opacity:0.8;"/>
   </g>
   <g id="patch_55">
    <path clip-path="url(#pb788152b55)" d="M 494.46417 175.518437 
L 500.337989 175.518437 
L 500.337989 164.993267 
L 494.46417 164.993267 
z
" style="fill:#808080;opacity:0.8;"/>
   </g>
   <g id="patch_56">
    <path clip-path="url(#pb788152b55)" d="M 501.806443 175.518437 
L 507.680261 175.518437 
L 507.680261 133.417757 
L 501.806443 133.417757 
z
" style="fill:#808080;opacity:0.8;"/>
   </g>
   <g id="patch_57">
    <path clip-path="url(#pb788152b55)" d="M 509.148716 175.518437 
L 515.022534 175.518437 
L 515.022534 154.468097 
L 509.148716 154.468097 
z
" style="fill:#808080;opacity:0.8;"/>
   </g>
   <g id="patch_58">
    <path clip-path="url(#pb788152b55)" d="M 516.490989 175.518437 
L 522.364807 175.518437 
L 522.364807 101.842247 
L 516.490989 101.842247 
z
" style="fill:#808080;opacity:0.8;"/>
   </g>
   <g id="patch_59">
    <path clip-path="url(#pb788152b55)" d="M 523.833261 175.518437 
L 529.70708 175.518437 
L 529.70708 133.417757 
L 523.833261 133.417757 
z
" style="fill:#808080;opacity:0.8;"/>
   </g>
   <g id="patch_60">
    <path clip-path="url(#pb788152b55)" d="M 531.175534 175.518437 
L 537.049352 175.518437 
L 537.049352 154.468097 
L 531.175534 154.468097 
z
" style="fill:#808080;opacity:0.8;"/>
   </g>
   <g id="patch_61">
    <path clip-path="url(#pb788152b55)" d="M 538.517807 175.518437 
L 544.391625 175.518437 
L 544.391625 91.317077 
L 538.517807 91.317077 
z
" style="fill:#808080;opacity:0.8;"/>
   </g>
   <g id="patch_62">
    <path clip-path="url(#pb788152b55)" d="M 545.86008 175.518437 
L 551.733898 175.518437 
L 551.733898 101.842247 
L 545.86008 101.842247 
z
" style="fill:#808080;opacity:0.8;"/>
   </g>
   <g id="patch_63">
    <path clip-path="url(#pb788152b55)" d="M 553.202352 175.518437 
L 559.07617 175.518437 
L 559.07617 80.791907 
L 553.202352 80.791907 
z
" style="fill:#808080;opacity:0.8;"/>
   </g>
   <g id="patch_64">
    <path clip-path="url(#pb788152b55)" d="M 560.544625 175.518437 
L 566.418443 175.518437 
L 566.418443 28.166057 
L 560.544625 28.166057 
z
" style="fill:#808080;opacity:0.8;"/>
   </g>
   <g id="patch_65">
    <path clip-path="url(#pb788152b55)" d="M 567.886898 175.518437 
L 573.760716 175.518437 
L 573.760716 70.266737 
L 567.886898 70.266737 
z
" style="fill:#808080;opacity:0.8;"/>
   </g>
   <g id="patch_66">
    <path clip-path="url(#pb788152b55)" d="M 575.22917 175.518437 
L 581.102989 175.518437 
L 581.102989 80.791907 
L 575.22917 80.791907 
z
" style="fill:#808080;opacity:0.8;"/>
   </g>
   <g id="patch_67">
    <path clip-path="url(#pb788152b55)" d="M 582.571443 175.518437 
L 588.445261 175.518437 
L 588.445261 133.417757 
L 582.571443 133.417757 
z
" style="fill:#808080;opacity:0.8;"/>
   </g>
   <g id="patch_68">
    <path clip-path="url(#pb788152b55)" d="M 589.913716 175.518437 
L 595.787534 175.518437 
L 595.787534 133.417757 
L 589.913716 133.417757 
z
" style="fill:#808080;opacity:0.8;"/>
   </g>
   <g id="patch_69">
    <path clip-path="url(#pb788152b55)" d="M 597.255989 175.518437 
L 603.129807 175.518437 
L 603.129807 133.417757 
L 597.255989 133.417757 
z
" style="fill:#808080;opacity:0.8;"/>
   </g>
   <g id="patch_70">
    <path clip-path="url(#pb788152b55)" d="M 604.598261 175.518437 
L 610.47208 175.518437 
L 610.47208 154.468097 
L 604.598261 154.468097 
z
" style="fill:#808080;opacity:0.8;"/>
   </g>
   <g id="patch_71">
    <path clip-path="url(#pb788152b55)" d="M 611.940534 175.518437 
L 617.814352 175.518437 
L 617.814352 122.892587 
L 611.940534 122.892587 
z
" style="fill:#808080;opacity:0.8;"/>
   </g>
   <g id="patch_72">
    <path clip-path="url(#pb788152b55)" d="M 619.282807 175.518437 
L 625.156625 175.518437 
L 625.156625 154.468097 
L 619.282807 154.468097 
z
" style="fill:#808080;opacity:0.8;"/>
   </g>
   <g id="matplotlib.axis_5">
    <g id="xtick_9">
     <g id="line2d_23">
      <g>
       <use style="stroke:#000000;stroke-width:0.8;" x="495.809995" xlink:href="#mcec78ed9bc" y="175.518437"/>
      </g>
     </g>
     <g id="text_27">
      <!-- 64 -->
      <g transform="translate(489.447495 190.116875)scale(0.1 -0.1)">
       <use xlink:href="#DejaVuSans-54"/>
       <use x="63.623047" xlink:href="#DejaVuSans-52"/>
      </g>
     </g>
    </g>
    <g id="xtick_10">
     <g id="line2d_24">
      <g>
       <use style="stroke:#000000;stroke-width:0.8;" x="557.901096" xlink:href="#mcec78ed9bc" y="175.518437"/>
      </g>
     </g>
     <g id="text_28">
      <!-- 66 -->
      <g transform="translate(551.538596 190.116875)scale(0.1 -0.1)">
       <use xlink:href="#DejaVuSans-54"/>
       <use x="63.623047" xlink:href="#DejaVuSans-54"/>
      </g>
     </g>
    </g>
    <g id="xtick_11">
     <g id="line2d_25">
      <g>
       <use style="stroke:#000000;stroke-width:0.8;" x="619.992198" xlink:href="#mcec78ed9bc" y="175.518437"/>
      </g>
     </g>
     <g id="text_29">
      <!-- 68 -->
      <g transform="translate(613.629698 190.116875)scale(0.1 -0.1)">
       <use xlink:href="#DejaVuSans-54"/>
       <use x="63.623047" xlink:href="#DejaVuSans-56"/>
      </g>
     </g>
    </g>
    <g id="text_30">
     <!-- sDF -->
     <g transform="translate(543.137656 203.795)scale(0.1 -0.1)">
      <use xlink:href="#DejaVuSans-115"/>
      <use x="52.099609" xlink:href="#DejaVuSans-68"/>
      <use x="129.101562" xlink:href="#DejaVuSans-70"/>
     </g>
    </g>
   </g>
   <g id="matplotlib.axis_6">
    <g id="ytick_13">
     <g id="line2d_26">
      <g>
       <use style="stroke:#000000;stroke-width:0.8;" x="471.703125" xlink:href="#me07ed33745" y="175.518437"/>
      </g>
     </g>
     <g id="text_31">
      <!-- 0.0 -->
      <defs>
       <path d="M 10.6875 12.40625 
L 21 12.40625 
L 21 0 
L 10.6875 0 
z
" id="DejaVuSans-46"/>
      </defs>
      <g transform="translate(448.8 179.317656)scale(0.1 -0.1)">
       <use xlink:href="#DejaVuSans-48"/>
       <use x="63.623047" xlink:href="#DejaVuSans-46"/>
       <use x="95.410156" xlink:href="#DejaVuSans-48"/>
      </g>
     </g>
    </g>
    <g id="ytick_14">
     <g id="line2d_27">
      <g>
       <use style="stroke:#000000;stroke-width:0.8;" x="471.703125" xlink:href="#me07ed33745" y="149.205512"/>
      </g>
     </g>
     <g id="text_32">
      <!-- 2.5 -->
      <g transform="translate(448.8 153.004731)scale(0.1 -0.1)">
       <use xlink:href="#DejaVuSans-50"/>
       <use x="63.623047" xlink:href="#DejaVuSans-46"/>
       <use x="95.410156" xlink:href="#DejaVuSans-53"/>
      </g>
     </g>
    </g>
    <g id="ytick_15">
     <g id="line2d_28">
      <g>
       <use style="stroke:#000000;stroke-width:0.8;" x="471.703125" xlink:href="#me07ed33745" y="122.892587"/>
      </g>
     </g>
     <g id="text_33">
      <!-- 5.0 -->
      <g transform="translate(448.8 126.691806)scale(0.1 -0.1)">
       <use xlink:href="#DejaVuSans-53"/>
       <use x="63.623047" xlink:href="#DejaVuSans-46"/>
       <use x="95.410156" xlink:href="#DejaVuSans-48"/>
      </g>
     </g>
    </g>
    <g id="ytick_16">
     <g id="line2d_29">
      <g>
       <use style="stroke:#000000;stroke-width:0.8;" x="471.703125" xlink:href="#me07ed33745" y="96.579662"/>
      </g>
     </g>
     <g id="text_34">
      <!-- 7.5 -->
      <g transform="translate(448.8 100.378881)scale(0.1 -0.1)">
       <use xlink:href="#DejaVuSans-55"/>
       <use x="63.623047" xlink:href="#DejaVuSans-46"/>
       <use x="95.410156" xlink:href="#DejaVuSans-53"/>
      </g>
     </g>
    </g>
    <g id="ytick_17">
     <g id="line2d_30">
      <g>
       <use style="stroke:#000000;stroke-width:0.8;" x="471.703125" xlink:href="#me07ed33745" y="70.266737"/>
      </g>
     </g>
     <g id="text_35">
      <!-- 10.0 -->
      <g transform="translate(442.4375 74.065956)scale(0.1 -0.1)">
       <use xlink:href="#DejaVuSans-49"/>
       <use x="63.623047" xlink:href="#DejaVuSans-48"/>
       <use x="127.246094" xlink:href="#DejaVuSans-46"/>
       <use x="159.033203" xlink:href="#DejaVuSans-48"/>
      </g>
     </g>
    </g>
    <g id="ytick_18">
     <g id="line2d_31">
      <g>
       <use style="stroke:#000000;stroke-width:0.8;" x="471.703125" xlink:href="#me07ed33745" y="43.953812"/>
      </g>
     </g>
     <g id="text_36">
      <!-- 12.5 -->
      <g transform="translate(442.4375 47.75303)scale(0.1 -0.1)">
       <use xlink:href="#DejaVuSans-49"/>
       <use x="63.623047" xlink:href="#DejaVuSans-50"/>
       <use x="127.246094" xlink:href="#DejaVuSans-46"/>
       <use x="159.033203" xlink:href="#DejaVuSans-53"/>
      </g>
     </g>
    </g>
    <g id="text_37">
     <!-- Number of simulated MSAs -->
     <g transform="translate(436.357813 166.135)rotate(-90)scale(0.1 -0.1)">
      <use xlink:href="#DejaVuSans-78"/>
      <use x="74.804688" xlink:href="#DejaVuSans-117"/>
      <use x="138.183594" xlink:href="#DejaVuSans-109"/>
      <use x="235.595703" xlink:href="#DejaVuSans-98"/>
      <use x="299.072266" xlink:href="#DejaVuSans-101"/>
      <use x="360.595703" xlink:href="#DejaVuSans-114"/>
      <use x="401.708984" xlink:href="#DejaVuSans-32"/>
      <use x="433.496094" xlink:href="#DejaVuSans-111"/>
      <use x="494.677734" xlink:href="#DejaVuSans-102"/>
      <use x="529.882812" xlink:href="#DejaVuSans-32"/>
      <use x="561.669922" xlink:href="#DejaVuSans-115"/>
      <use x="613.769531" xlink:href="#DejaVuSans-105"/>
      <use x="641.552734" xlink:href="#DejaVuSans-109"/>
      <use x="738.964844" xlink:href="#DejaVuSans-117"/>
      <use x="802.34375" xlink:href="#DejaVuSans-108"/>
      <use x="830.126953" xlink:href="#DejaVuSans-97"/>
      <use x="891.40625" xlink:href="#DejaVuSans-116"/>
      <use x="930.615234" xlink:href="#DejaVuSans-101"/>
      <use x="992.138672" xlink:href="#DejaVuSans-100"/>
      <use x="1055.615234" xlink:href="#DejaVuSans-32"/>
      <use x="1087.402344" xlink:href="#DejaVuSans-77"/>
      <use x="1173.681641" xlink:href="#DejaVuSans-83"/>
      <use x="1239.033203" xlink:href="#DejaVuSans-65"/>
      <use x="1307.441406" xlink:href="#DejaVuSans-115"/>
     </g>
    </g>
   </g>
   <g id="LineCollection_5">
    <path clip-path="url(#pb788152b55)" d="M 573.113416 175.518437 
L 573.113416 20.798437 
" style="fill:none;stroke:#ff0000;stroke-dasharray:5.55,2.4;stroke-dashoffset:0;stroke-opacity:0.8;stroke-width:1.5;"/>
   </g>
   <g id="LineCollection_6">
    <path clip-path="url(#pb788152b55)" d="M 562.915046 175.518437 
L 562.915046 20.798437 
" style="fill:none;stroke:#000000;stroke-dasharray:5.55,2.4;stroke-dashoffset:0;stroke-opacity:0.8;stroke-width:1.5;"/>
   </g>
   <g id="line2d_32">
    <path clip-path="url(#pb788152b55)" d="M 479.045398 166.306537 
L 482.576751 164.376074 
L 486.108105 162.178656 
L 489.639459 159.714581 
L 493.465092 156.761919 
L 497.585004 153.296606 
L 502.587755 148.787146 
L 509.650462 142.085774 
L 517.890288 133.967525 
L 523.481597 128.159056 
L 527.895789 123.265464 
L 532.309981 118.030419 
L 537.312732 111.72163 
L 546.435396 100.119221 
L 549.378191 96.773031 
L 551.732426 94.394364 
L 553.792383 92.591469 
L 555.852339 91.094931 
L 557.618016 90.085689 
L 559.383692 89.350572 
L 560.85509 88.958876 
L 562.326487 88.774927 
L 563.797885 88.802428 
L 565.269282 89.042324 
L 566.740679 89.492788 
L 568.212077 90.149273 
L 569.977753 91.198781 
L 571.74343 92.517696 
L 573.803386 94.36845 
L 575.863343 96.517241 
L 578.217578 99.28093 
L 581.160373 103.094401 
L 585.280286 108.859081 
L 597.051464 125.575502 
L 601.465656 131.348612 
L 605.879848 136.767367 
L 610.58832 142.200406 
L 615.591071 147.63826 
L 620.593822 152.749155 
L 625.008014 156.951291 
L 625.890852 157.751435 
L 625.890852 157.751435 
" style="fill:none;stroke:#000000;stroke-linecap:square;stroke-width:1.5;"/>
   </g>
   <g id="patch_73">
    <path d="M 471.703125 175.518437 
L 471.703125 20.798437 
" style="fill:none;stroke:#000000;stroke-linecap:square;stroke-linejoin:miter;stroke-width:0.8;"/>
   </g>
   <g id="patch_74">
    <path d="M 633.233125 175.518437 
L 633.233125 20.798437 
" style="fill:none;stroke:#000000;stroke-linecap:square;stroke-linejoin:miter;stroke-width:0.8;"/>
   </g>
   <g id="patch_75">
    <path d="M 471.703125 175.518437 
L 633.233125 175.518437 
" style="fill:none;stroke:#000000;stroke-linecap:square;stroke-linejoin:miter;stroke-width:0.8;"/>
   </g>
   <g id="patch_76">
    <path d="M 471.703125 20.798437 
L 633.233125 20.798437 
" style="fill:none;stroke:#000000;stroke-linecap:square;stroke-linejoin:miter;stroke-width:0.8;"/>
   </g>
   <g id="text_38">
    <!-- Branch: ID_11 -->
    <g transform="translate(517.370469 14.798437)scale(0.1 -0.1)">
     <use xlink:href="#DejaVuSans-66"/>
     <use x="68.603516" xlink:href="#DejaVuSans-114"/>
     <use x="109.716797" xlink:href="#DejaVuSans-97"/>
     <use x="170.996094" xlink:href="#DejaVuSans-110"/>
     <use x="234.375" xlink:href="#DejaVuSans-99"/>
     <use x="289.355469" xlink:href="#DejaVuSans-104"/>
     <use x="352.734375" xlink:href="#DejaVuSans-58"/>
     <use x="386.425781" xlink:href="#DejaVuSans-32"/>
     <use x="418.212891" xlink:href="#DejaVuSans-73"/>
     <use x="447.705078" xlink:href="#DejaVuSans-68"/>
     <use x="524.707031" xlink:href="#DejaVuSans-95"/>
     <use x="574.707031" xlink:href="#DejaVuSans-49"/>
     <use x="638.330078" xlink:href="#DejaVuSans-49"/>
    </g>
   </g>
  </g>
  <g id="axes_4">
   <g id="patch_77">
    <path d="M 40.603125 386.118437 
L 202.133125 386.118437 
L 202.133125 231.398437 
L 40.603125 231.398437 
z
" style="fill:#ffffff;"/>
   </g>
   <g id="patch_78">
    <path clip-path="url(#p64205dcf64)" d="M 48.679625 386.118437 
L 54.553443 386.118437 
L 54.553443 363.44884 
L 48.679625 363.44884 
z
" style="fill:#808080;opacity:0.8;"/>
   </g>
   <g id="patch_79">
    <path clip-path="url(#p64205dcf64)" d="M 56.021898 386.118437 
L 61.895716 386.118437 
L 61.895716 374.783639 
L 56.021898 374.783639 
z
" style="fill:#808080;opacity:0.8;"/>
   </g>
   <g id="patch_80">
    <path clip-path="url(#p64205dcf64)" d="M 63.36417 386.118437 
L 69.237989 386.118437 
L 69.237989 363.44884 
L 63.36417 363.44884 
z
" style="fill:#808080;opacity:0.8;"/>
   </g>
   <g id="patch_81">
    <path clip-path="url(#p64205dcf64)" d="M 70.706443 386.118437 
L 76.580261 386.118437 
L 76.580261 352.114042 
L 70.706443 352.114042 
z
" style="fill:#808080;opacity:0.8;"/>
   </g>
   <g id="patch_82">
    <path clip-path="url(#p64205dcf64)" d="M 78.048716 386.118437 
L 83.922534 386.118437 
L 83.922534 340.779243 
L 78.048716 340.779243 
z
" style="fill:#808080;opacity:0.8;"/>
   </g>
   <g id="patch_83">
    <path clip-path="url(#p64205dcf64)" d="M 85.390989 386.118437 
L 91.264807 386.118437 
L 91.264807 318.109646 
L 85.390989 318.109646 
z
" style="fill:#808080;opacity:0.8;"/>
   </g>
   <g id="patch_84">
    <path clip-path="url(#p64205dcf64)" d="M 92.733261 386.118437 
L 98.60708 386.118437 
L 98.60708 306.774848 
L 92.733261 306.774848 
z
" style="fill:#808080;opacity:0.8;"/>
   </g>
   <g id="patch_85">
    <path clip-path="url(#p64205dcf64)" d="M 100.075534 386.118437 
L 105.949352 386.118437 
L 105.949352 238.766057 
L 100.075534 238.766057 
z
" style="fill:#808080;opacity:0.8;"/>
   </g>
   <g id="patch_86">
    <path clip-path="url(#p64205dcf64)" d="M 107.417807 386.118437 
L 113.291625 386.118437 
L 113.291625 272.770452 
L 107.417807 272.770452 
z
" style="fill:#808080;opacity:0.8;"/>
   </g>
   <g id="patch_87">
    <path clip-path="url(#p64205dcf64)" d="M 114.76008 386.118437 
L 120.633898 386.118437 
L 120.633898 306.774848 
L 114.76008 306.774848 
z
" style="fill:#808080;opacity:0.8;"/>
   </g>
   <g id="patch_88">
    <path clip-path="url(#p64205dcf64)" d="M 122.102352 386.118437 
L 127.97617 386.118437 
L 127.97617 284.105251 
L 122.102352 284.105251 
z
" style="fill:#808080;opacity:0.8;"/>
   </g>
   <g id="patch_89">
    <path clip-path="url(#p64205dcf64)" d="M 129.444625 386.118437 
L 135.318443 386.118437 
L 135.318443 272.770452 
L 129.444625 272.770452 
z
" style="fill:#808080;opacity:0.8;"/>
   </g>
   <g id="patch_90">
    <path clip-path="url(#p64205dcf64)" d="M 136.786898 386.118437 
L 142.660716 386.118437 
L 142.660716 272.770452 
L 136.786898 272.770452 
z
" style="fill:#808080;opacity:0.8;"/>
   </g>
   <g id="patch_91">
    <path clip-path="url(#p64205dcf64)" d="M 144.12917 386.118437 
L 150.002989 386.118437 
L 150.002989 352.114042 
L 144.12917 352.114042 
z
" style="fill:#808080;opacity:0.8;"/>
   </g>
   <g id="patch_92">
    <path clip-path="url(#p64205dcf64)" d="M 151.471443 386.118437 
L 157.345261 386.118437 
L 157.345261 318.109646 
L 151.471443 318.109646 
z
" style="fill:#808080;opacity:0.8;"/>
   </g>
   <g id="patch_93">
    <path clip-path="url(#p64205dcf64)" d="M 158.813716 386.118437 
L 164.687534 386.118437 
L 164.687534 363.44884 
L 158.813716 363.44884 
z
" style="fill:#808080;opacity:0.8;"/>
   </g>
   <g id="patch_94">
    <path clip-path="url(#p64205dcf64)" d="M 166.155989 386.118437 
L 172.029807 386.118437 
L 172.029807 363.44884 
L 166.155989 363.44884 
z
" style="fill:#808080;opacity:0.8;"/>
   </g>
   <g id="patch_95">
    <path clip-path="url(#p64205dcf64)" d="M 173.498261 386.118437 
L 179.37208 386.118437 
L 179.37208 363.44884 
L 173.498261 363.44884 
z
" style="fill:#808080;opacity:0.8;"/>
   </g>
   <g id="patch_96">
    <path clip-path="url(#p64205dcf64)" d="M 180.840534 386.118437 
L 186.714352 386.118437 
L 186.714352 386.118437 
L 180.840534 386.118437 
z
" style="fill:#808080;opacity:0.8;"/>
   </g>
   <g id="patch_97">
    <path clip-path="url(#p64205dcf64)" d="M 188.182807 386.118437 
L 194.056625 386.118437 
L 194.056625 374.783639 
L 188.182807 374.783639 
z
" style="fill:#808080;opacity:0.8;"/>
   </g>
   <g id="matplotlib.axis_7">
    <g id="xtick_12">
     <g id="line2d_33">
      <g>
       <use style="stroke:#000000;stroke-width:0.8;" x="83.818013" xlink:href="#mcec78ed9bc" y="386.118437"/>
      </g>
     </g>
     <g id="text_39">
      <!-- 60 -->
      <g transform="translate(77.455513 400.716875)scale(0.1 -0.1)">
       <use xlink:href="#DejaVuSans-54"/>
       <use x="63.623047" xlink:href="#DejaVuSans-48"/>
      </g>
     </g>
    </g>
    <g id="xtick_13">
     <g id="line2d_34">
      <g>
       <use style="stroke:#000000;stroke-width:0.8;" x="135.433287" xlink:href="#mcec78ed9bc" y="386.118437"/>
      </g>
     </g>
     <g id="text_40">
      <!-- 62 -->
      <g transform="translate(129.070787 400.716875)scale(0.1 -0.1)">
       <use xlink:href="#DejaVuSans-54"/>
       <use x="63.623047" xlink:href="#DejaVuSans-50"/>
      </g>
     </g>
    </g>
    <g id="xtick_14">
     <g id="line2d_35">
      <g>
       <use style="stroke:#000000;stroke-width:0.8;" x="187.048561" xlink:href="#mcec78ed9bc" y="386.118437"/>
      </g>
     </g>
     <g id="text_41">
      <!-- 64 -->
      <g transform="translate(180.686061 400.716875)scale(0.1 -0.1)">
       <use xlink:href="#DejaVuSans-54"/>
       <use x="63.623047" xlink:href="#DejaVuSans-52"/>
      </g>
     </g>
    </g>
    <g id="text_42">
     <!-- sDF -->
     <g transform="translate(112.037656 414.395)scale(0.1 -0.1)">
      <use xlink:href="#DejaVuSans-115"/>
      <use x="52.099609" xlink:href="#DejaVuSans-68"/>
      <use x="129.101562" xlink:href="#DejaVuSans-70"/>
     </g>
    </g>
   </g>
   <g id="matplotlib.axis_8">
    <g id="ytick_19">
     <g id="line2d_36">
      <g>
       <use style="stroke:#000000;stroke-width:0.8;" x="40.603125" xlink:href="#me07ed33745" y="386.118437"/>
      </g>
     </g>
     <g id="text_43">
      <!-- 0 -->
      <g transform="translate(27.240625 389.917656)scale(0.1 -0.1)">
       <use xlink:href="#DejaVuSans-48"/>
      </g>
     </g>
    </g>
    <g id="ytick_20">
     <g id="line2d_37">
      <g>
       <use style="stroke:#000000;stroke-width:0.8;" x="40.603125" xlink:href="#me07ed33745" y="363.44884"/>
      </g>
     </g>
     <g id="text_44">
      <!-- 2 -->
      <g transform="translate(27.240625 367.248059)scale(0.1 -0.1)">
       <use xlink:href="#DejaVuSans-50"/>
      </g>
     </g>
    </g>
    <g id="ytick_21">
     <g id="line2d_38">
      <g>
       <use style="stroke:#000000;stroke-width:0.8;" x="40.603125" xlink:href="#me07ed33745" y="340.779243"/>
      </g>
     </g>
     <g id="text_45">
      <!-- 4 -->
      <g transform="translate(27.240625 344.578462)scale(0.1 -0.1)">
       <use xlink:href="#DejaVuSans-52"/>
      </g>
     </g>
    </g>
    <g id="ytick_22">
     <g id="line2d_39">
      <g>
       <use style="stroke:#000000;stroke-width:0.8;" x="40.603125" xlink:href="#me07ed33745" y="318.109646"/>
      </g>
     </g>
     <g id="text_46">
      <!-- 6 -->
      <g transform="translate(27.240625 321.908865)scale(0.1 -0.1)">
       <use xlink:href="#DejaVuSans-54"/>
      </g>
     </g>
    </g>
    <g id="ytick_23">
     <g id="line2d_40">
      <g>
       <use style="stroke:#000000;stroke-width:0.8;" x="40.603125" xlink:href="#me07ed33745" y="295.440049"/>
      </g>
     </g>
     <g id="text_47">
      <!-- 8 -->
      <g transform="translate(27.240625 299.239268)scale(0.1 -0.1)">
       <use xlink:href="#DejaVuSans-56"/>
      </g>
     </g>
    </g>
    <g id="ytick_24">
     <g id="line2d_41">
      <g>
       <use style="stroke:#000000;stroke-width:0.8;" x="40.603125" xlink:href="#me07ed33745" y="272.770452"/>
      </g>
     </g>
     <g id="text_48">
      <!-- 10 -->
      <g transform="translate(20.878125 276.569671)scale(0.1 -0.1)">
       <use xlink:href="#DejaVuSans-49"/>
       <use x="63.623047" xlink:href="#DejaVuSans-48"/>
      </g>
     </g>
    </g>
    <g id="ytick_25">
     <g id="line2d_42">
      <g>
       <use style="stroke:#000000;stroke-width:0.8;" x="40.603125" xlink:href="#me07ed33745" y="250.100855"/>
      </g>
     </g>
     <g id="text_49">
      <!-- 12 -->
      <g transform="translate(20.878125 253.900074)scale(0.1 -0.1)">
       <use xlink:href="#DejaVuSans-49"/>
       <use x="63.623047" xlink:href="#DejaVuSans-50"/>
      </g>
     </g>
    </g>
    <g id="text_50">
     <!-- Number of simulated MSAs -->
     <g transform="translate(14.798438 376.735)rotate(-90)scale(0.1 -0.1)">
      <use xlink:href="#DejaVuSans-78"/>
      <use x="74.804688" xlink:href="#DejaVuSans-117"/>
      <use x="138.183594" xlink:href="#DejaVuSans-109"/>
      <use x="235.595703" xlink:href="#DejaVuSans-98"/>
      <use x="299.072266" xlink:href="#DejaVuSans-101"/>
      <use x="360.595703" xlink:href="#DejaVuSans-114"/>
      <use x="401.708984" xlink:href="#DejaVuSans-32"/>
      <use x="433.496094" xlink:href="#DejaVuSans-111"/>
      <use x="494.677734" xlink:href="#DejaVuSans-102"/>
      <use x="529.882812" xlink:href="#DejaVuSans-32"/>
      <use x="561.669922" xlink:href="#DejaVuSans-115"/>
      <use x="613.769531" xlink:href="#DejaVuSans-105"/>
      <use x="641.552734" xlink:href="#DejaVuSans-109"/>
      <use x="738.964844" xlink:href="#DejaVuSans-117"/>
      <use x="802.34375" xlink:href="#DejaVuSans-108"/>
      <use x="830.126953" xlink:href="#DejaVuSans-97"/>
      <use x="891.40625" xlink:href="#DejaVuSans-116"/>
      <use x="930.615234" xlink:href="#DejaVuSans-101"/>
      <use x="992.138672" xlink:href="#DejaVuSans-100"/>
      <use x="1055.615234" xlink:href="#DejaVuSans-32"/>
      <use x="1087.402344" xlink:href="#DejaVuSans-77"/>
      <use x="1173.681641" xlink:href="#DejaVuSans-83"/>
      <use x="1239.033203" xlink:href="#DejaVuSans-65"/>
      <use x="1307.441406" xlink:href="#DejaVuSans-115"/>
     </g>
    </g>
   </g>
   <g id="LineCollection_7">
    <path clip-path="url(#p64205dcf64)" d="M 193.758547 386.118437 
L 193.758547 231.398437 
" style="fill:none;stroke:#ff0000;stroke-dasharray:5.55,2.4;stroke-dashoffset:0;stroke-opacity:0.8;stroke-width:1.5;"/>
   </g>
   <g id="LineCollection_8">
    <path clip-path="url(#p64205dcf64)" d="M 116.512514 386.118437 
L 116.512514 231.398437 
" style="fill:none;stroke:#000000;stroke-dasharray:5.55,2.4;stroke-dashoffset:0;stroke-opacity:0.8;stroke-width:1.5;"/>
   </g>
   <g id="line2d_43">
    <path clip-path="url(#p64205dcf64)" d="M 47.945398 374.749163 
L 51.182472 372.5754 
L 54.125267 370.334549 
L 57.068061 367.802975 
L 59.716576 365.243046 
L 62.365092 362.387019 
L 65.013607 359.209928 
L 67.662122 355.692957 
L 70.310637 351.826343 
L 73.253432 347.123138 
L 76.490506 341.484239 
L 80.02186 334.856815 
L 84.730331 325.50019 
L 92.381597 310.264854 
L 95.618672 304.340384 
L 98.267187 299.924983 
L 100.621423 296.404433 
L 102.681379 293.677307 
L 104.741335 291.306369 
L 106.507012 289.570834 
L 108.272689 288.116247 
L 110.038365 286.945719 
L 111.804042 286.059535 
L 113.569719 285.455847 
L 115.041116 285.166224 
L 116.512514 285.068149 
L 117.983911 285.159077 
L 119.749588 285.514039 
L 121.515265 286.133073 
L 123.280942 287.011892 
L 125.046618 288.146106 
L 126.812295 289.530862 
L 128.872251 291.455253 
L 130.932208 293.700863 
L 133.286443 296.640232 
L 135.640679 299.94731 
L 138.289194 304.056889 
L 141.526269 309.538283 
L 145.646181 317.014841 
L 157.12308 338.145037 
L 160.948713 344.565901 
L 164.480067 350.035421 
L 167.717141 354.635675 
L 170.954215 358.837537 
L 174.19129 362.650202 
L 177.134084 365.790677 
L 180.076879 368.633409 
L 183.019674 371.190326 
L 185.962468 373.473435 
L 188.905263 375.495456 
L 191.848058 377.270523 
L 194.790852 378.814583 
L 194.790852 378.814583 
" style="fill:none;stroke:#000000;stroke-linecap:square;stroke-width:1.5;"/>
   </g>
   <g id="patch_98">
    <path d="M 40.603125 386.118437 
L 40.603125 231.398437 
" style="fill:none;stroke:#000000;stroke-linecap:square;stroke-linejoin:miter;stroke-width:0.8;"/>
   </g>
   <g id="patch_99">
    <path d="M 202.133125 386.118437 
L 202.133125 231.398437 
" style="fill:none;stroke:#000000;stroke-linecap:square;stroke-linejoin:miter;stroke-width:0.8;"/>
   </g>
   <g id="patch_100">
    <path d="M 40.603125 386.118437 
L 202.133125 386.118437 
" style="fill:none;stroke:#000000;stroke-linecap:square;stroke-linejoin:miter;stroke-width:0.8;"/>
   </g>
   <g id="patch_101">
    <path d="M 40.603125 231.398437 
L 202.133125 231.398437 
" style="fill:none;stroke:#000000;stroke-linecap:square;stroke-linejoin:miter;stroke-width:0.8;"/>
   </g>
   <g id="text_51">
    <!-- Branch: ID_12 -->
    <g transform="translate(86.270469 225.398437)scale(0.1 -0.1)">
     <use xlink:href="#DejaVuSans-66"/>
     <use x="68.603516" xlink:href="#DejaVuSans-114"/>
     <use x="109.716797" xlink:href="#DejaVuSans-97"/>
     <use x="170.996094" xlink:href="#DejaVuSans-110"/>
     <use x="234.375" xlink:href="#DejaVuSans-99"/>
     <use x="289.355469" xlink:href="#DejaVuSans-104"/>
     <use x="352.734375" xlink:href="#DejaVuSans-58"/>
     <use x="386.425781" xlink:href="#DejaVuSans-32"/>
     <use x="418.212891" xlink:href="#DejaVuSans-73"/>
     <use x="447.705078" xlink:href="#DejaVuSans-68"/>
     <use x="524.707031" xlink:href="#DejaVuSans-95"/>
     <use x="574.707031" xlink:href="#DejaVuSans-49"/>
     <use x="638.330078" xlink:href="#DejaVuSans-50"/>
    </g>
   </g>
  </g>
  <g id="axes_5">
   <g id="patch_102">
    <path d="M 256.153125 386.118437 
L 417.683125 386.118437 
L 417.683125 231.398437 
L 256.153125 231.398437 
z
" style="fill:#ffffff;"/>
   </g>
   <g id="patch_103">
    <path clip-path="url(#p69bb34505f)" d="M 263.78714 386.118437 
L 266.121077 386.118437 
L 266.121077 366.471453 
L 263.78714 366.471453 
z
" style="fill:#808080;opacity:0.8;"/>
   </g>
   <g id="patch_104">
    <path clip-path="url(#p69bb34505f)" d="M 266.704561 386.118437 
L 269.038498 386.118437 
L 269.038498 376.294945 
L 266.704561 376.294945 
z
" style="fill:#808080;opacity:0.8;"/>
   </g>
   <g id="patch_105">
    <path clip-path="url(#p69bb34505f)" d="M 269.621983 386.118437 
L 271.95592 386.118437 
L 271.95592 386.118437 
L 269.621983 386.118437 
z
" style="fill:#808080;opacity:0.8;"/>
   </g>
   <g id="patch_106">
    <path clip-path="url(#p69bb34505f)" d="M 272.539404 386.118437 
L 274.873341 386.118437 
L 274.873341 386.118437 
L 272.539404 386.118437 
z
" style="fill:#808080;opacity:0.8;"/>
   </g>
   <g id="patch_107">
    <path clip-path="url(#p69bb34505f)" d="M 275.456825 386.118437 
L 277.790763 386.118437 
L 277.790763 346.824469 
L 275.456825 346.824469 
z
" style="fill:#808080;opacity:0.8;"/>
   </g>
   <g id="patch_108">
    <path clip-path="url(#p69bb34505f)" d="M 278.374247 386.118437 
L 280.708184 386.118437 
L 280.708184 327.177485 
L 278.374247 327.177485 
z
" style="fill:#808080;opacity:0.8;"/>
   </g>
   <g id="patch_109">
    <path clip-path="url(#p69bb34505f)" d="M 281.291668 386.118437 
L 283.625605 386.118437 
L 283.625605 327.177485 
L 281.291668 327.177485 
z
" style="fill:#808080;opacity:0.8;"/>
   </g>
   <g id="patch_110">
    <path clip-path="url(#p69bb34505f)" d="M 284.20909 386.118437 
L 286.543027 386.118437 
L 286.543027 356.647961 
L 284.20909 356.647961 
z
" style="fill:#808080;opacity:0.8;"/>
   </g>
   <g id="patch_111">
    <path clip-path="url(#p69bb34505f)" d="M 287.126511 386.118437 
L 289.460448 386.118437 
L 289.460448 327.177485 
L 287.126511 327.177485 
z
" style="fill:#808080;opacity:0.8;"/>
   </g>
   <g id="patch_112">
    <path clip-path="url(#p69bb34505f)" d="M 290.043933 386.118437 
L 292.37787 386.118437 
L 292.37787 258.413041 
L 290.043933 258.413041 
z
" style="fill:#808080;opacity:0.8;"/>
   </g>
   <g id="patch_113">
    <path clip-path="url(#p69bb34505f)" d="M 292.961354 386.118437 
L 295.295291 386.118437 
L 295.295291 238.766057 
L 292.961354 238.766057 
z
" style="fill:#808080;opacity:0.8;"/>
   </g>
   <g id="patch_114">
    <path clip-path="url(#p69bb34505f)" d="M 295.878775 386.118437 
L 298.212712 386.118437 
L 298.212712 278.060025 
L 295.878775 278.060025 
z
" style="fill:#808080;opacity:0.8;"/>
   </g>
   <g id="patch_115">
    <path clip-path="url(#p69bb34505f)" d="M 298.796197 386.118437 
L 301.130134 386.118437 
L 301.130134 278.060025 
L 298.796197 278.060025 
z
" style="fill:#808080;opacity:0.8;"/>
   </g>
   <g id="patch_116">
    <path clip-path="url(#p69bb34505f)" d="M 301.713618 386.118437 
L 304.047555 386.118437 
L 304.047555 307.530501 
L 301.713618 307.530501 
z
" style="fill:#808080;opacity:0.8;"/>
   </g>
   <g id="patch_117">
    <path clip-path="url(#p69bb34505f)" d="M 304.63104 386.118437 
L 306.964977 386.118437 
L 306.964977 297.707009 
L 304.63104 297.707009 
z
" style="fill:#808080;opacity:0.8;"/>
   </g>
   <g id="patch_118">
    <path clip-path="url(#p69bb34505f)" d="M 307.548461 386.118437 
L 309.882398 386.118437 
L 309.882398 346.824469 
L 307.548461 346.824469 
z
" style="fill:#808080;opacity:0.8;"/>
   </g>
   <g id="patch_119">
    <path clip-path="url(#p69bb34505f)" d="M 310.465882 386.118437 
L 312.799819 386.118437 
L 312.799819 386.118437 
L 310.465882 386.118437 
z
" style="fill:#808080;opacity:0.8;"/>
   </g>
   <g id="patch_120">
    <path clip-path="url(#p69bb34505f)" d="M 313.383304 386.118437 
L 315.717241 386.118437 
L 315.717241 386.118437 
L 313.383304 386.118437 
z
" style="fill:#808080;opacity:0.8;"/>
   </g>
   <g id="patch_121">
    <path clip-path="url(#p69bb34505f)" d="M 316.300725 386.118437 
L 318.634662 386.118437 
L 318.634662 386.118437 
L 316.300725 386.118437 
z
" style="fill:#808080;opacity:0.8;"/>
   </g>
   <g id="patch_122">
    <path clip-path="url(#p69bb34505f)" d="M 319.218147 386.118437 
L 321.552084 386.118437 
L 321.552084 376.294945 
L 319.218147 376.294945 
z
" style="fill:#808080;opacity:0.8;"/>
   </g>
   <g id="matplotlib.axis_9">
    <g id="xtick_15">
     <g id="line2d_44">
      <g>
       <use style="stroke:#000000;stroke-width:0.8;" x="267.507569" xlink:href="#mcec78ed9bc" y="386.118437"/>
      </g>
     </g>
     <g id="text_52">
      <!-- 30 -->
      <defs>
       <path d="M 40.578125 39.3125 
Q 47.65625 37.796875 51.625 33 
Q 55.609375 28.21875 55.609375 21.1875 
Q 55.609375 10.40625 48.1875 4.484375 
Q 40.765625 -1.421875 27.09375 -1.421875 
Q 22.515625 -1.421875 17.65625 -0.515625 
Q 12.796875 0.390625 7.625 2.203125 
L 7.625 11.71875 
Q 11.71875 9.328125 16.59375 8.109375 
Q 21.484375 6.890625 26.8125 6.890625 
Q 36.078125 6.890625 40.9375 10.546875 
Q 45.796875 14.203125 45.796875 21.1875 
Q 45.796875 27.640625 41.28125 31.265625 
Q 36.765625 34.90625 28.71875 34.90625 
L 20.21875 34.90625 
L 20.21875 43.015625 
L 29.109375 43.015625 
Q 36.375 43.015625 40.234375 45.921875 
Q 44.09375 48.828125 44.09375 54.296875 
Q 44.09375 59.90625 40.109375 62.90625 
Q 36.140625 65.921875 28.71875 65.921875 
Q 24.65625 65.921875 20.015625 65.03125 
Q 15.375 64.15625 9.8125 62.3125 
L 9.8125 71.09375 
Q 15.4375 72.65625 20.34375 73.4375 
Q 25.25 74.21875 29.59375 74.21875 
Q 40.828125 74.21875 47.359375 69.109375 
Q 53.90625 64.015625 53.90625 55.328125 
Q 53.90625 49.265625 50.4375 45.09375 
Q 46.96875 40.921875 40.578125 39.3125 
z
" id="DejaVuSans-51"/>
      </defs>
      <g transform="translate(261.145069 400.716875)scale(0.1 -0.1)">
       <use xlink:href="#DejaVuSans-51"/>
       <use x="63.623047" xlink:href="#DejaVuSans-48"/>
      </g>
     </g>
    </g>
    <g id="xtick_16">
     <g id="line2d_45">
      <g>
       <use style="stroke:#000000;stroke-width:0.8;" x="324.824296" xlink:href="#mcec78ed9bc" y="386.118437"/>
      </g>
     </g>
     <g id="text_53">
      <!-- 35 -->
      <g transform="translate(318.461796 400.716875)scale(0.1 -0.1)">
       <use xlink:href="#DejaVuSans-51"/>
       <use x="63.623047" xlink:href="#DejaVuSans-53"/>
      </g>
     </g>
    </g>
    <g id="xtick_17">
     <g id="line2d_46">
      <g>
       <use style="stroke:#000000;stroke-width:0.8;" x="382.141023" xlink:href="#mcec78ed9bc" y="386.118437"/>
      </g>
     </g>
     <g id="text_54">
      <!-- 40 -->
      <g transform="translate(375.778523 400.716875)scale(0.1 -0.1)">
       <use xlink:href="#DejaVuSans-52"/>
       <use x="63.623047" xlink:href="#DejaVuSans-48"/>
      </g>
     </g>
    </g>
    <g id="text_55">
     <!-- sDF -->
     <g transform="translate(327.587656 414.395)scale(0.1 -0.1)">
      <use xlink:href="#DejaVuSans-115"/>
      <use x="52.099609" xlink:href="#DejaVuSans-68"/>
      <use x="129.101562" xlink:href="#DejaVuSans-70"/>
     </g>
    </g>
   </g>
   <g id="matplotlib.axis_10">
    <g id="ytick_26">
     <g id="line2d_47">
      <g>
       <use style="stroke:#000000;stroke-width:0.8;" x="256.153125" xlink:href="#me07ed33745" y="386.118437"/>
      </g>
     </g>
     <g id="text_56">
      <!-- 0.0 -->
      <g transform="translate(233.25 389.917656)scale(0.1 -0.1)">
       <use xlink:href="#DejaVuSans-48"/>
       <use x="63.623047" xlink:href="#DejaVuSans-46"/>
       <use x="95.410156" xlink:href="#DejaVuSans-48"/>
      </g>
     </g>
    </g>
    <g id="ytick_27">
     <g id="line2d_48">
      <g>
       <use style="stroke:#000000;stroke-width:0.8;" x="256.153125" xlink:href="#me07ed33745" y="361.559707"/>
      </g>
     </g>
     <g id="text_57">
      <!-- 2.5 -->
      <g transform="translate(233.25 365.358926)scale(0.1 -0.1)">
       <use xlink:href="#DejaVuSans-50"/>
       <use x="63.623047" xlink:href="#DejaVuSans-46"/>
       <use x="95.410156" xlink:href="#DejaVuSans-53"/>
      </g>
     </g>
    </g>
    <g id="ytick_28">
     <g id="line2d_49">
      <g>
       <use style="stroke:#000000;stroke-width:0.8;" x="256.153125" xlink:href="#me07ed33745" y="337.000977"/>
      </g>
     </g>
     <g id="text_58">
      <!-- 5.0 -->
      <g transform="translate(233.25 340.800196)scale(0.1 -0.1)">
       <use xlink:href="#DejaVuSans-53"/>
       <use x="63.623047" xlink:href="#DejaVuSans-46"/>
       <use x="95.410156" xlink:href="#DejaVuSans-48"/>
      </g>
     </g>
    </g>
    <g id="ytick_29">
     <g id="line2d_50">
      <g>
       <use style="stroke:#000000;stroke-width:0.8;" x="256.153125" xlink:href="#me07ed33745" y="312.442247"/>
      </g>
     </g>
     <g id="text_59">
      <!-- 7.5 -->
      <g transform="translate(233.25 316.241466)scale(0.1 -0.1)">
       <use xlink:href="#DejaVuSans-55"/>
       <use x="63.623047" xlink:href="#DejaVuSans-46"/>
       <use x="95.410156" xlink:href="#DejaVuSans-53"/>
      </g>
     </g>
    </g>
    <g id="ytick_30">
     <g id="line2d_51">
      <g>
       <use style="stroke:#000000;stroke-width:0.8;" x="256.153125" xlink:href="#me07ed33745" y="287.883517"/>
      </g>
     </g>
     <g id="text_60">
      <!-- 10.0 -->
      <g transform="translate(226.8875 291.682736)scale(0.1 -0.1)">
       <use xlink:href="#DejaVuSans-49"/>
       <use x="63.623047" xlink:href="#DejaVuSans-48"/>
       <use x="127.246094" xlink:href="#DejaVuSans-46"/>
       <use x="159.033203" xlink:href="#DejaVuSans-48"/>
      </g>
     </g>
    </g>
    <g id="ytick_31">
     <g id="line2d_52">
      <g>
       <use style="stroke:#000000;stroke-width:0.8;" x="256.153125" xlink:href="#me07ed33745" y="263.324787"/>
      </g>
     </g>
     <g id="text_61">
      <!-- 12.5 -->
      <g transform="translate(226.8875 267.124005)scale(0.1 -0.1)">
       <use xlink:href="#DejaVuSans-49"/>
       <use x="63.623047" xlink:href="#DejaVuSans-50"/>
       <use x="127.246094" xlink:href="#DejaVuSans-46"/>
       <use x="159.033203" xlink:href="#DejaVuSans-53"/>
      </g>
     </g>
    </g>
    <g id="ytick_32">
     <g id="line2d_53">
      <g>
       <use style="stroke:#000000;stroke-width:0.8;" x="256.153125" xlink:href="#me07ed33745" y="238.766057"/>
      </g>
     </g>
     <g id="text_62">
      <!-- 15.0 -->
      <g transform="translate(226.8875 242.565275)scale(0.1 -0.1)">
       <use xlink:href="#DejaVuSans-49"/>
       <use x="63.623047" xlink:href="#DejaVuSans-53"/>
       <use x="127.246094" xlink:href="#DejaVuSans-46"/>
       <use x="159.033203" xlink:href="#DejaVuSans-48"/>
      </g>
     </g>
    </g>
    <g id="text_63">
     <!-- Number of simulated MSAs -->
     <g transform="translate(220.807813 376.735)rotate(-90)scale(0.1 -0.1)">
      <use xlink:href="#DejaVuSans-78"/>
      <use x="74.804688" xlink:href="#DejaVuSans-117"/>
      <use x="138.183594" xlink:href="#DejaVuSans-109"/>
      <use x="235.595703" xlink:href="#DejaVuSans-98"/>
      <use x="299.072266" xlink:href="#DejaVuSans-101"/>
      <use x="360.595703" xlink:href="#DejaVuSans-114"/>
      <use x="401.708984" xlink:href="#DejaVuSans-32"/>
      <use x="433.496094" xlink:href="#DejaVuSans-111"/>
      <use x="494.677734" xlink:href="#DejaVuSans-102"/>
      <use x="529.882812" xlink:href="#DejaVuSans-32"/>
      <use x="561.669922" xlink:href="#DejaVuSans-115"/>
      <use x="613.769531" xlink:href="#DejaVuSans-105"/>
      <use x="641.552734" xlink:href="#DejaVuSans-109"/>
      <use x="738.964844" xlink:href="#DejaVuSans-117"/>
      <use x="802.34375" xlink:href="#DejaVuSans-108"/>
      <use x="830.126953" xlink:href="#DejaVuSans-97"/>
      <use x="891.40625" xlink:href="#DejaVuSans-116"/>
      <use x="930.615234" xlink:href="#DejaVuSans-101"/>
      <use x="992.138672" xlink:href="#DejaVuSans-100"/>
      <use x="1055.615234" xlink:href="#DejaVuSans-32"/>
      <use x="1087.402344" xlink:href="#DejaVuSans-77"/>
      <use x="1173.681641" xlink:href="#DejaVuSans-83"/>
      <use x="1239.033203" xlink:href="#DejaVuSans-65"/>
      <use x="1307.441406" xlink:href="#DejaVuSans-115"/>
     </g>
    </g>
   </g>
   <g id="LineCollection_9">
    <path clip-path="url(#p69bb34505f)" d="M 410.340852 386.118437 
L 410.340852 231.398437 
" style="fill:none;stroke:#ff0000;stroke-dasharray:5.55,2.4;stroke-dashoffset:0;stroke-opacity:0.8;stroke-width:1.5;"/>
   </g>
   <g id="LineCollection_10">
    <path clip-path="url(#p69bb34505f)" d="M 295.768276 386.118437 
L 295.768276 231.398437 
" style="fill:none;stroke:#000000;stroke-dasharray:5.55,2.4;stroke-dashoffset:0;stroke-opacity:0.8;stroke-width:1.5;"/>
   </g>
   <g id="line2d_54">
    <path clip-path="url(#p69bb34505f)" d="M 263.495398 379.654674 
L 266.067874 377.823038 
L 267.471042 376.563916 
L 268.640349 375.242531 
L 269.809656 373.581926 
L 270.978964 371.511713 
L 272.148271 368.989843 
L 273.434509 365.687971 
L 274.954608 361.132732 
L 276.8255 354.753355 
L 279.281045 345.520733 
L 282.087382 334.091901 
L 284.542927 323.160459 
L 287.933918 306.836577 
L 290.155601 296.646025 
L 291.55877 291.213341 
L 292.611146 287.941181 
L 293.546592 285.73855 
L 294.248176 284.570674 
L 294.83283 283.932822 
L 295.417484 283.608795 
L 295.885206 283.578514 
L 296.352929 283.752344 
L 296.937583 284.255113 
L 297.522237 285.070645 
L 298.223821 286.451641 
L 299.042336 288.595605 
L 299.977782 291.706665 
L 301.030158 295.977602 
L 302.316396 302.16922 
L 303.953426 311.29456 
L 306.17511 325.107141 
L 310.150754 349.919558 
L 311.787784 358.715662 
L 313.190953 365.14625 
L 314.477191 370.041458 
L 315.646498 373.657977 
L 316.698874 376.27319 
L 317.751251 378.344426 
L 318.803627 379.948087 
L 319.856004 381.168165 
L 321.025311 382.175466 
L 321.843826 382.716686 
L 321.843826 382.716686 
" style="fill:none;stroke:#000000;stroke-linecap:square;stroke-width:1.5;"/>
   </g>
   <g id="patch_123">
    <path d="M 256.153125 386.118437 
L 256.153125 231.398437 
" style="fill:none;stroke:#000000;stroke-linecap:square;stroke-linejoin:miter;stroke-width:0.8;"/>
   </g>
   <g id="patch_124">
    <path d="M 417.683125 386.118437 
L 417.683125 231.398437 
" style="fill:none;stroke:#000000;stroke-linecap:square;stroke-linejoin:miter;stroke-width:0.8;"/>
   </g>
   <g id="patch_125">
    <path d="M 256.153125 386.118437 
L 417.683125 386.118437 
" style="fill:none;stroke:#000000;stroke-linecap:square;stroke-linejoin:miter;stroke-width:0.8;"/>
   </g>
   <g id="patch_126">
    <path d="M 256.153125 231.398437 
L 417.683125 231.398437 
" style="fill:none;stroke:#000000;stroke-linecap:square;stroke-linejoin:miter;stroke-width:0.8;"/>
   </g>
   <g id="text_64">
    <!-- Branch: ID_13 -->
    <g transform="translate(301.820469 225.398437)scale(0.1 -0.1)">
     <use xlink:href="#DejaVuSans-66"/>
     <use x="68.603516" xlink:href="#DejaVuSans-114"/>
     <use x="109.716797" xlink:href="#DejaVuSans-97"/>
     <use x="170.996094" xlink:href="#DejaVuSans-110"/>
     <use x="234.375" xlink:href="#DejaVuSans-99"/>
     <use x="289.355469" xlink:href="#DejaVuSans-104"/>
     <use x="352.734375" xlink:href="#DejaVuSans-58"/>
     <use x="386.425781" xlink:href="#DejaVuSans-32"/>
     <use x="418.212891" xlink:href="#DejaVuSans-73"/>
     <use x="447.705078" xlink:href="#DejaVuSans-68"/>
     <use x="524.707031" xlink:href="#DejaVuSans-95"/>
     <use x="574.707031" xlink:href="#DejaVuSans-49"/>
     <use x="638.330078" xlink:href="#DejaVuSans-51"/>
    </g>
   </g>
   <g id="legend_1">
    <g id="patch_127">
     <path d="M 311.786875 244.677187 
L 327.786875 244.677187 
L 327.786875 239.077187 
L 311.786875 239.077187 
z
" style="fill:#808080;opacity:0.8;"/>
    </g>
    <g id="text_65">
     <!-- Simulation -->
     <g transform="translate(334.186875 244.677187)scale(0.08 -0.08)">
      <use xlink:href="#DejaVuSans-83"/>
      <use x="63.476562" xlink:href="#DejaVuSans-105"/>
      <use x="91.259766" xlink:href="#DejaVuSans-109"/>
      <use x="188.671875" xlink:href="#DejaVuSans-117"/>
      <use x="252.050781" xlink:href="#DejaVuSans-108"/>
      <use x="279.833984" xlink:href="#DejaVuSans-97"/>
      <use x="341.113281" xlink:href="#DejaVuSans-116"/>
      <use x="380.322266" xlink:href="#DejaVuSans-105"/>
      <use x="408.105469" xlink:href="#DejaVuSans-111"/>
      <use x="469.287109" xlink:href="#DejaVuSans-110"/>
     </g>
    </g>
    <g id="line2d_55">
     <path d="M 311.786875 253.619687 
L 327.786875 253.619687 
" style="fill:none;stroke:#ff0000;stroke-dasharray:5.55,2.4;stroke-dashoffset:0;stroke-opacity:0.8;stroke-width:1.5;"/>
    </g>
    <g id="text_66">
     <!-- Observation -->
     <defs>
      <path d="M 39.40625 66.21875 
Q 28.65625 66.21875 22.328125 58.203125 
Q 16.015625 50.203125 16.015625 36.375 
Q 16.015625 22.609375 22.328125 14.59375 
Q 28.65625 6.59375 39.40625 6.59375 
Q 50.140625 6.59375 56.421875 14.59375 
Q 62.703125 22.609375 62.703125 36.375 
Q 62.703125 50.203125 56.421875 58.203125 
Q 50.140625 66.21875 39.40625 66.21875 
z
M 39.40625 74.21875 
Q 54.734375 74.21875 63.90625 63.9375 
Q 73.09375 53.65625 73.09375 36.375 
Q 73.09375 19.140625 63.90625 8.859375 
Q 54.734375 -1.421875 39.40625 -1.421875 
Q 24.03125 -1.421875 14.8125 8.828125 
Q 5.609375 19.09375 5.609375 36.375 
Q 5.609375 53.65625 14.8125 63.9375 
Q 24.03125 74.21875 39.40625 74.21875 
z
" id="DejaVuSans-79"/>
      <path d="M 2.984375 54.6875 
L 12.5 54.6875 
L 29.59375 8.796875 
L 46.6875 54.6875 
L 56.203125 54.6875 
L 35.6875 0 
L 23.484375 0 
z
" id="DejaVuSans-118"/>
     </defs>
     <g transform="translate(334.186875 256.419687)scale(0.08 -0.08)">
      <use xlink:href="#DejaVuSans-79"/>
      <use x="78.710938" xlink:href="#DejaVuSans-98"/>
      <use x="142.1875" xlink:href="#DejaVuSans-115"/>
      <use x="194.287109" xlink:href="#DejaVuSans-101"/>
      <use x="255.810547" xlink:href="#DejaVuSans-114"/>
      <use x="296.923828" xlink:href="#DejaVuSans-118"/>
      <use x="356.103516" xlink:href="#DejaVuSans-97"/>
      <use x="417.382812" xlink:href="#DejaVuSans-116"/>
      <use x="456.591797" xlink:href="#DejaVuSans-105"/>
      <use x="484.375" xlink:href="#DejaVuSans-111"/>
      <use x="545.556641" xlink:href="#DejaVuSans-110"/>
     </g>
    </g>
    <g id="line2d_56">
     <path d="M 311.786875 265.362187 
L 327.786875 265.362187 
" style="fill:none;stroke:#000000;stroke-dasharray:5.55,2.4;stroke-dashoffset:0;stroke-opacity:0.8;stroke-width:1.5;"/>
    </g>
    <g id="text_67">
     <!-- Mode of simulation -->
     <g transform="translate(334.186875 268.162187)scale(0.08 -0.08)">
      <use xlink:href="#DejaVuSans-77"/>
      <use x="86.279297" xlink:href="#DejaVuSans-111"/>
      <use x="147.460938" xlink:href="#DejaVuSans-100"/>
      <use x="210.9375" xlink:href="#DejaVuSans-101"/>
      <use x="272.460938" xlink:href="#DejaVuSans-32"/>
      <use x="304.248047" xlink:href="#DejaVuSans-111"/>
      <use x="365.429688" xlink:href="#DejaVuSans-102"/>
      <use x="400.634766" xlink:href="#DejaVuSans-32"/>
      <use x="432.421875" xlink:href="#DejaVuSans-115"/>
      <use x="484.521484" xlink:href="#DejaVuSans-105"/>
      <use x="512.304688" xlink:href="#DejaVuSans-109"/>
      <use x="609.716797" xlink:href="#DejaVuSans-117"/>
      <use x="673.095703" xlink:href="#DejaVuSans-108"/>
      <use x="700.878906" xlink:href="#DejaVuSans-97"/>
      <use x="762.158203" xlink:href="#DejaVuSans-116"/>
      <use x="801.367188" xlink:href="#DejaVuSans-105"/>
      <use x="829.150391" xlink:href="#DejaVuSans-111"/>
      <use x="890.332031" xlink:href="#DejaVuSans-110"/>
     </g>
    </g>
   </g>
  </g>
 </g>
 <defs>
  <clipPath id="p5d3ab39b33">
   <rect height="154.72" width="161.53" x="40.603125" y="20.798437"/>
  </clipPath>
  <clipPath id="p9e57cf1b82">
   <rect height="154.72" width="161.53" x="256.153125" y="20.798437"/>
  </clipPath>
  <clipPath id="pb788152b55">
   <rect height="154.72" width="161.53" x="471.703125" y="20.798437"/>
  </clipPath>
  <clipPath id="p64205dcf64">
   <rect height="154.72" width="161.53" x="40.603125" y="231.398437"/>
  </clipPath>
  <clipPath id="p69bb34505f">
   <rect height="154.72" width="161.53" x="256.153125" y="231.398437"/>
  </clipPath>
 </defs>
</svg>
