<?xml version="1.0" encoding="utf-8" standalone="no"?>
<!DOCTYPE svg PUBLIC "-//W3C//DTD SVG 1.1//EN"
  "http://www.w3.org/Graphics/SVG/1.1/DTD/svg11.dtd">
<!-- Created with matplotlib (https://matplotlib.org/) -->
<svg height="337.59625pt" version="1.1" viewBox="0 0 453.420625 337.59625" width="453.420625pt" xmlns="http://www.w3.org/2000/svg" xmlns:xlink="http://www.w3.org/1999/xlink">
 <defs>
  <style type="text/css">
*{stroke-linecap:butt;stroke-linejoin:round;}
  </style>
 </defs>
 <g id="figure_1">
  <g id="patch_1">
   <path d="M 0 337.59625 
L 453.420625 337.59625 
L 453.420625 0 
L 0 0 
z
" style="fill:#ffffff;"/>
  </g>
  <g id="axes_1">
   <g id="patch_2">
    <path d="M 59.690625 300.04 
L 446.220625 300.04 
L 446.220625 7.2 
L 59.690625 7.2 
z
" style="fill:#ffffff;"/>
   </g>
   <g id="patch_3">
    <path clip-path="url(#p18099281c3)" d="M 77.579936 300.04 
L 80.13806 300.04 
L 80.13806 21.144762 
L 77.579936 21.144762 
z
" style="fill:#808080;"/>
   </g>
   <g id="patch_4">
    <path clip-path="url(#p18099281c3)" d="M 80.777591 300.04 
L 83.335715 300.04 
L 83.335715 217.824786 
L 80.777591 217.824786 
z
" style="fill:#808080;"/>
   </g>
   <g id="patch_5">
    <path clip-path="url(#p18099281c3)" d="M 83.975246 300.04 
L 86.53337 300.04 
L 86.53337 292.40538 
L 83.975246 292.40538 
z
" style="fill:#808080;"/>
   </g>
   <g id="patch_6">
    <path clip-path="url(#p18099281c3)" d="M 87.172901 300.04 
L 89.731025 300.04 
L 89.731025 299.522306 
L 87.172901 299.522306 
z
" style="fill:#808080;"/>
   </g>
   <g id="patch_7">
    <path clip-path="url(#p18099281c3)" d="M 90.370556 300.04 
L 92.92868 300.04 
L 92.92868 300.018202 
L 90.370556 300.018202 
z
" style="fill:#808080;"/>
   </g>
   <g id="patch_8">
    <path clip-path="url(#p18099281c3)" d="M 93.568211 300.04 
L 96.126335 300.04 
L 96.126335 300.029101 
L 93.568211 300.029101 
z
" style="fill:#808080;"/>
   </g>
   <g id="patch_9">
    <path clip-path="url(#p18099281c3)" d="M 96.765866 300.04 
L 99.32399 300.04 
L 99.32399 300.018202 
L 96.765866 300.018202 
z
" style="fill:#808080;"/>
   </g>
   <g id="patch_10">
    <path clip-path="url(#p18099281c3)" d="M 99.963521 300.04 
L 102.521645 300.04 
L 102.521645 300.029101 
L 99.963521 300.029101 
z
" style="fill:#808080;"/>
   </g>
   <g id="patch_11">
    <path clip-path="url(#p18099281c3)" d="M 103.161176 300.04 
L 105.7193 300.04 
L 105.7193 300.029101 
L 103.161176 300.029101 
z
" style="fill:#808080;"/>
   </g>
   <g id="patch_12">
    <path clip-path="url(#p18099281c3)" d="M 106.358831 300.04 
L 108.916955 300.04 
L 108.916955 300.034551 
L 106.358831 300.034551 
z
" style="fill:#808080;"/>
   </g>
   <g id="patch_13">
    <path clip-path="url(#p18099281c3)" d="M 109.556486 300.04 
L 112.11461 300.04 
L 112.11461 300.034551 
L 109.556486 300.034551 
z
" style="fill:#808080;"/>
   </g>
   <g id="patch_14">
    <path clip-path="url(#p18099281c3)" d="M 112.754141 300.04 
L 115.312265 300.04 
L 115.312265 300.034551 
L 112.754141 300.034551 
z
" style="fill:#808080;"/>
   </g>
   <g id="patch_15">
    <path clip-path="url(#p18099281c3)" d="M 115.951796 300.04 
L 118.50992 300.04 
L 118.50992 300.034551 
L 115.951796 300.034551 
z
" style="fill:#808080;"/>
   </g>
   <g id="patch_16">
    <path clip-path="url(#p18099281c3)" d="M 119.149451 300.04 
L 121.707575 300.04 
L 121.707575 300.029101 
L 119.149451 300.029101 
z
" style="fill:#808080;"/>
   </g>
   <g id="patch_17">
    <path clip-path="url(#p18099281c3)" d="M 122.347106 300.04 
L 124.90523 300.04 
L 124.90523 300.001854 
L 122.347106 300.001854 
z
" style="fill:#808080;"/>
   </g>
   <g id="patch_18">
    <path clip-path="url(#p18099281c3)" d="M 125.544761 300.04 
L 128.102885 300.04 
L 128.102885 300.007304 
L 125.544761 300.007304 
z
" style="fill:#808080;"/>
   </g>
   <g id="patch_19">
    <path clip-path="url(#p18099281c3)" d="M 128.742416 300.04 
L 131.30054 300.04 
L 131.30054 300.023652 
L 128.742416 300.023652 
z
" style="fill:#808080;"/>
   </g>
   <g id="patch_20">
    <path clip-path="url(#p18099281c3)" d="M 131.940071 300.04 
L 134.498195 300.04 
L 134.498195 299.876518 
L 131.940071 299.876518 
z
" style="fill:#808080;"/>
   </g>
   <g id="patch_21">
    <path clip-path="url(#p18099281c3)" d="M 135.137726 300.04 
L 137.695851 300.04 
L 137.695851 299.958259 
L 135.137726 299.958259 
z
" style="fill:#808080;"/>
   </g>
   <g id="patch_22">
    <path clip-path="url(#p18099281c3)" d="M 138.335382 300.04 
L 140.893506 300.04 
L 140.893506 299.963708 
L 138.335382 299.963708 
z
" style="fill:#808080;"/>
   </g>
   <g id="patch_23">
    <path clip-path="url(#p18099281c3)" d="M 141.533037 300.04 
L 144.091161 300.04 
L 144.091161 299.920113 
L 141.533037 299.920113 
z
" style="fill:#808080;"/>
   </g>
   <g id="patch_24">
    <path clip-path="url(#p18099281c3)" d="M 144.730692 300.04 
L 147.288816 300.04 
L 147.288816 300.007304 
L 144.730692 300.007304 
z
" style="fill:#808080;"/>
   </g>
   <g id="patch_25">
    <path clip-path="url(#p18099281c3)" d="M 147.928347 300.04 
L 150.486471 300.04 
L 150.486471 299.94736 
L 147.928347 299.94736 
z
" style="fill:#808080;"/>
   </g>
   <g id="patch_26">
    <path clip-path="url(#p18099281c3)" d="M 151.126002 300.04 
L 153.684126 300.04 
L 153.684126 299.985506 
L 151.126002 299.985506 
z
" style="fill:#808080;"/>
   </g>
   <g id="patch_27">
    <path clip-path="url(#p18099281c3)" d="M 154.323657 300.04 
L 156.881781 300.04 
L 156.881781 299.936461 
L 154.323657 299.936461 
z
" style="fill:#808080;"/>
   </g>
   <g id="patch_28">
    <path clip-path="url(#p18099281c3)" d="M 157.521312 300.04 
L 160.079436 300.04 
L 160.079436 299.909214 
L 157.521312 299.909214 
z
" style="fill:#808080;"/>
   </g>
   <g id="patch_29">
    <path clip-path="url(#p18099281c3)" d="M 160.718967 300.04 
L 163.277091 300.04 
L 163.277091 299.85472 
L 160.718967 299.85472 
z
" style="fill:#808080;"/>
   </g>
   <g id="patch_30">
    <path clip-path="url(#p18099281c3)" d="M 163.916622 300.04 
L 166.474746 300.04 
L 166.474746 299.849271 
L 163.916622 299.849271 
z
" style="fill:#808080;"/>
   </g>
   <g id="patch_31">
    <path clip-path="url(#p18099281c3)" d="M 167.114277 300.04 
L 169.672401 300.04 
L 169.672401 299.832923 
L 167.114277 299.832923 
z
" style="fill:#808080;"/>
   </g>
   <g id="patch_32">
    <path clip-path="url(#p18099281c3)" d="M 170.311932 300.04 
L 172.870056 300.04 
L 172.870056 299.909214 
L 170.311932 299.909214 
z
" style="fill:#808080;"/>
   </g>
   <g id="patch_33">
    <path clip-path="url(#p18099281c3)" d="M 173.509587 300.04 
L 176.067711 300.04 
L 176.067711 299.871068 
L 173.509587 299.871068 
z
" style="fill:#808080;"/>
   </g>
   <g id="patch_34">
    <path clip-path="url(#p18099281c3)" d="M 176.707242 300.04 
L 179.265366 300.04 
L 179.265366 299.642193 
L 176.707242 299.642193 
z
" style="fill:#808080;"/>
   </g>
   <g id="patch_35">
    <path clip-path="url(#p18099281c3)" d="M 179.904897 300.04 
L 182.463021 300.04 
L 182.463021 299.718485 
L 179.904897 299.718485 
z
" style="fill:#808080;"/>
   </g>
   <g id="patch_36">
    <path clip-path="url(#p18099281c3)" d="M 183.102552 300.04 
L 185.660676 300.04 
L 185.660676 299.729384 
L 183.102552 299.729384 
z
" style="fill:#808080;"/>
   </g>
   <g id="patch_37">
    <path clip-path="url(#p18099281c3)" d="M 186.300207 300.04 
L 188.858331 300.04 
L 188.858331 299.593149 
L 186.300207 299.593149 
z
" style="fill:#808080;"/>
   </g>
   <g id="patch_38">
    <path clip-path="url(#p18099281c3)" d="M 189.497862 300.04 
L 192.055986 300.04 
L 192.055986 299.451464 
L 189.497862 299.451464 
z
" style="fill:#808080;"/>
   </g>
   <g id="patch_39">
    <path clip-path="url(#p18099281c3)" d="M 192.695517 300.04 
L 195.253641 300.04 
L 195.253641 299.462363 
L 192.695517 299.462363 
z
" style="fill:#808080;"/>
   </g>
   <g id="patch_40">
    <path clip-path="url(#p18099281c3)" d="M 195.893172 300.04 
L 198.451296 300.04 
L 198.451296 299.39697 
L 195.893172 299.39697 
z
" style="fill:#808080;"/>
   </g>
   <g id="patch_41">
    <path clip-path="url(#p18099281c3)" d="M 199.090827 300.04 
L 201.648951 300.04 
L 201.648951 299.462363 
L 199.090827 299.462363 
z
" style="fill:#808080;"/>
   </g>
   <g id="patch_42">
    <path clip-path="url(#p18099281c3)" d="M 202.288482 300.04 
L 204.846606 300.04 
L 204.846606 299.413318 
L 202.288482 299.413318 
z
" style="fill:#808080;"/>
   </g>
   <g id="patch_43">
    <path clip-path="url(#p18099281c3)" d="M 205.486137 300.04 
L 208.044261 300.04 
L 208.044261 299.544104 
L 205.486137 299.544104 
z
" style="fill:#808080;"/>
   </g>
   <g id="patch_44">
    <path clip-path="url(#p18099281c3)" d="M 208.683792 300.04 
L 211.241916 300.04 
L 211.241916 299.369723 
L 208.683792 299.369723 
z
" style="fill:#808080;"/>
   </g>
   <g id="patch_45">
    <path clip-path="url(#p18099281c3)" d="M 211.881447 300.04 
L 214.439571 300.04 
L 214.439571 299.402419 
L 211.881447 299.402419 
z
" style="fill:#808080;"/>
   </g>
   <g id="patch_46">
    <path clip-path="url(#p18099281c3)" d="M 215.079102 300.04 
L 217.637226 300.04 
L 217.637226 299.39697 
L 215.079102 299.39697 
z
" style="fill:#808080;"/>
   </g>
   <g id="patch_47">
    <path clip-path="url(#p18099281c3)" d="M 218.276757 300.04 
L 220.834881 300.04 
L 220.834881 299.451464 
L 218.276757 299.451464 
z
" style="fill:#808080;"/>
   </g>
   <g id="patch_48">
    <path clip-path="url(#p18099281c3)" d="M 221.474412 300.04 
L 224.032536 300.04 
L 224.032536 299.309779 
L 221.474412 299.309779 
z
" style="fill:#808080;"/>
   </g>
   <g id="patch_49">
    <path clip-path="url(#p18099281c3)" d="M 224.672067 300.04 
L 227.230191 300.04 
L 227.230191 299.293431 
L 224.672067 299.293431 
z
" style="fill:#808080;"/>
   </g>
   <g id="patch_50">
    <path clip-path="url(#p18099281c3)" d="M 227.869722 300.04 
L 230.427846 300.04 
L 230.427846 299.195342 
L 227.869722 299.195342 
z
" style="fill:#808080;"/>
   </g>
   <g id="patch_51">
    <path clip-path="url(#p18099281c3)" d="M 231.067377 300.04 
L 233.625501 300.04 
L 233.625501 299.266184 
L 231.067377 299.266184 
z
" style="fill:#808080;"/>
   </g>
   <g id="patch_52">
    <path clip-path="url(#p18099281c3)" d="M 234.265032 300.04 
L 236.823156 300.04 
L 236.823156 299.113601 
L 234.265032 299.113601 
z
" style="fill:#808080;"/>
   </g>
   <g id="patch_53">
    <path clip-path="url(#p18099281c3)" d="M 237.462687 300.04 
L 240.020811 300.04 
L 240.020811 299.086354 
L 237.462687 299.086354 
z
" style="fill:#808080;"/>
   </g>
   <g id="patch_54">
    <path clip-path="url(#p18099281c3)" d="M 240.660342 300.04 
L 243.218466 300.04 
L 243.218466 299.184443 
L 240.660342 299.184443 
z
" style="fill:#808080;"/>
   </g>
   <g id="patch_55">
    <path clip-path="url(#p18099281c3)" d="M 243.857997 300.04 
L 246.416121 300.04 
L 246.416121 299.30433 
L 243.857997 299.30433 
z
" style="fill:#808080;"/>
   </g>
   <g id="patch_56">
    <path clip-path="url(#p18099281c3)" d="M 247.055652 300.04 
L 249.613777 300.04 
L 249.613777 299.309779 
L 247.055652 299.309779 
z
" style="fill:#808080;"/>
   </g>
   <g id="patch_57">
    <path clip-path="url(#p18099281c3)" d="M 250.253308 300.04 
L 252.811432 300.04 
L 252.811432 299.228038 
L 250.253308 299.228038 
z
" style="fill:#808080;"/>
   </g>
   <g id="patch_58">
    <path clip-path="url(#p18099281c3)" d="M 253.450963 300.04 
L 256.009087 300.04 
L 256.009087 299.320678 
L 253.450963 299.320678 
z
" style="fill:#808080;"/>
   </g>
   <g id="patch_59">
    <path clip-path="url(#p18099281c3)" d="M 256.648618 300.04 
L 259.206742 300.04 
L 259.206742 299.435116 
L 256.648618 299.435116 
z
" style="fill:#808080;"/>
   </g>
   <g id="patch_60">
    <path clip-path="url(#p18099281c3)" d="M 259.846273 300.04 
L 262.404397 300.04 
L 262.404397 299.440565 
L 259.846273 299.440565 
z
" style="fill:#808080;"/>
   </g>
   <g id="patch_61">
    <path clip-path="url(#p18099281c3)" d="M 263.043928 300.04 
L 265.602052 300.04 
L 265.602052 299.407869 
L 263.043928 299.407869 
z
" style="fill:#808080;"/>
   </g>
   <g id="patch_62">
    <path clip-path="url(#p18099281c3)" d="M 266.241583 300.04 
L 268.799707 300.04 
L 268.799707 299.418768 
L 266.241583 299.418768 
z
" style="fill:#808080;"/>
   </g>
   <g id="patch_63">
    <path clip-path="url(#p18099281c3)" d="M 269.439238 300.04 
L 271.997362 300.04 
L 271.997362 299.315229 
L 269.439238 299.315229 
z
" style="fill:#808080;"/>
   </g>
   <g id="patch_64">
    <path clip-path="url(#p18099281c3)" d="M 272.636893 300.04 
L 275.195017 300.04 
L 275.195017 299.435116 
L 272.636893 299.435116 
z
" style="fill:#808080;"/>
   </g>
   <g id="patch_65">
    <path clip-path="url(#p18099281c3)" d="M 275.834548 300.04 
L 278.392672 300.04 
L 278.392672 299.500509 
L 275.834548 299.500509 
z
" style="fill:#808080;"/>
   </g>
   <g id="patch_66">
    <path clip-path="url(#p18099281c3)" d="M 279.032203 300.04 
L 281.590327 300.04 
L 281.590327 299.337026 
L 279.032203 299.337026 
z
" style="fill:#808080;"/>
   </g>
   <g id="patch_67">
    <path clip-path="url(#p18099281c3)" d="M 282.229858 300.04 
L 284.787982 300.04 
L 284.787982 299.386071 
L 282.229858 299.386071 
z
" style="fill:#808080;"/>
   </g>
   <g id="patch_68">
    <path clip-path="url(#p18099281c3)" d="M 285.427513 300.04 
L 287.985637 300.04 
L 287.985637 299.505958 
L 285.427513 299.505958 
z
" style="fill:#808080;"/>
   </g>
   <g id="patch_69">
    <path clip-path="url(#p18099281c3)" d="M 288.625168 300.04 
L 291.183292 300.04 
L 291.183292 299.39697 
L 288.625168 299.39697 
z
" style="fill:#808080;"/>
   </g>
   <g id="patch_70">
    <path clip-path="url(#p18099281c3)" d="M 291.822823 300.04 
L 294.380947 300.04 
L 294.380947 299.58225 
L 291.822823 299.58225 
z
" style="fill:#808080;"/>
   </g>
   <g id="patch_71">
    <path clip-path="url(#p18099281c3)" d="M 295.020478 300.04 
L 297.578602 300.04 
L 297.578602 299.533205 
L 295.020478 299.533205 
z
" style="fill:#808080;"/>
   </g>
   <g id="patch_72">
    <path clip-path="url(#p18099281c3)" d="M 298.218133 300.04 
L 300.776257 300.04 
L 300.776257 299.571351 
L 298.218133 299.571351 
z
" style="fill:#808080;"/>
   </g>
   <g id="patch_73">
    <path clip-path="url(#p18099281c3)" d="M 301.415788 300.04 
L 303.973912 300.04 
L 303.973912 299.593149 
L 301.415788 299.593149 
z
" style="fill:#808080;"/>
   </g>
   <g id="patch_74">
    <path clip-path="url(#p18099281c3)" d="M 304.613443 300.04 
L 307.171567 300.04 
L 307.171567 299.511407 
L 304.613443 299.511407 
z
" style="fill:#808080;"/>
   </g>
   <g id="patch_75">
    <path clip-path="url(#p18099281c3)" d="M 307.811098 300.04 
L 310.369222 300.04 
L 310.369222 299.691238 
L 307.811098 299.691238 
z
" style="fill:#808080;"/>
   </g>
   <g id="patch_76">
    <path clip-path="url(#p18099281c3)" d="M 311.008753 300.04 
L 313.566877 300.04 
L 313.566877 299.555003 
L 311.008753 299.555003 
z
" style="fill:#808080;"/>
   </g>
   <g id="patch_77">
    <path clip-path="url(#p18099281c3)" d="M 314.206408 300.04 
L 316.764532 300.04 
L 316.764532 299.642193 
L 314.206408 299.642193 
z
" style="fill:#808080;"/>
   </g>
   <g id="patch_78">
    <path clip-path="url(#p18099281c3)" d="M 317.404063 300.04 
L 319.962187 300.04 
L 319.962187 299.631294 
L 317.404063 299.631294 
z
" style="fill:#808080;"/>
   </g>
   <g id="patch_79">
    <path clip-path="url(#p18099281c3)" d="M 320.601718 300.04 
L 323.159842 300.04 
L 323.159842 299.446015 
L 320.601718 299.446015 
z
" style="fill:#808080;"/>
   </g>
   <g id="patch_80">
    <path clip-path="url(#p18099281c3)" d="M 323.799373 300.04 
L 326.357497 300.04 
L 326.357497 299.647643 
L 323.799373 299.647643 
z
" style="fill:#808080;"/>
   </g>
   <g id="patch_81">
    <path clip-path="url(#p18099281c3)" d="M 326.997028 300.04 
L 329.555152 300.04 
L 329.555152 299.66944 
L 326.997028 299.66944 
z
" style="fill:#808080;"/>
   </g>
   <g id="patch_82">
    <path clip-path="url(#p18099281c3)" d="M 330.194683 300.04 
L 332.752807 300.04 
L 332.752807 299.522306 
L 330.194683 299.522306 
z
" style="fill:#808080;"/>
   </g>
   <g id="patch_83">
    <path clip-path="url(#p18099281c3)" d="M 333.392338 300.04 
L 335.950462 300.04 
L 335.950462 299.734833 
L 333.392338 299.734833 
z
" style="fill:#808080;"/>
   </g>
   <g id="patch_84">
    <path clip-path="url(#p18099281c3)" d="M 336.589993 300.04 
L 339.148117 300.04 
L 339.148117 299.642193 
L 336.589993 299.642193 
z
" style="fill:#808080;"/>
   </g>
   <g id="patch_85">
    <path clip-path="url(#p18099281c3)" d="M 339.787648 300.04 
L 342.345772 300.04 
L 342.345772 299.772979 
L 339.787648 299.772979 
z
" style="fill:#808080;"/>
   </g>
   <g id="patch_86">
    <path clip-path="url(#p18099281c3)" d="M 342.985303 300.04 
L 345.543427 300.04 
L 345.543427 299.794777 
L 342.985303 299.794777 
z
" style="fill:#808080;"/>
   </g>
   <g id="patch_87">
    <path clip-path="url(#p18099281c3)" d="M 346.182958 300.04 
L 348.741082 300.04 
L 348.741082 299.734833 
L 346.182958 299.734833 
z
" style="fill:#808080;"/>
   </g>
   <g id="patch_88">
    <path clip-path="url(#p18099281c3)" d="M 349.380613 300.04 
L 351.938737 300.04 
L 351.938737 299.772979 
L 349.380613 299.772979 
z
" style="fill:#808080;"/>
   </g>
   <g id="patch_89">
    <path clip-path="url(#p18099281c3)" d="M 352.578268 300.04 
L 355.136392 300.04 
L 355.136392 299.778428 
L 352.578268 299.778428 
z
" style="fill:#808080;"/>
   </g>
   <g id="patch_90">
    <path clip-path="url(#p18099281c3)" d="M 355.775923 300.04 
L 358.334047 300.04 
L 358.334047 299.702137 
L 355.775923 299.702137 
z
" style="fill:#808080;"/>
   </g>
   <g id="patch_91">
    <path clip-path="url(#p18099281c3)" d="M 358.973579 300.04 
L 361.531703 300.04 
L 361.531703 299.707586 
L 358.973579 299.707586 
z
" style="fill:#808080;"/>
   </g>
   <g id="patch_92">
    <path clip-path="url(#p18099281c3)" d="M 362.171234 300.04 
L 364.729358 300.04 
L 364.729358 299.827473 
L 362.171234 299.827473 
z
" style="fill:#808080;"/>
   </g>
   <g id="patch_93">
    <path clip-path="url(#p18099281c3)" d="M 365.368889 300.04 
L 367.927013 300.04 
L 367.927013 299.794777 
L 365.368889 299.794777 
z
" style="fill:#808080;"/>
   </g>
   <g id="patch_94">
    <path clip-path="url(#p18099281c3)" d="M 368.566544 300.04 
L 371.124668 300.04 
L 371.124668 299.822024 
L 368.566544 299.822024 
z
" style="fill:#808080;"/>
   </g>
   <g id="patch_95">
    <path clip-path="url(#p18099281c3)" d="M 371.764199 300.04 
L 374.322323 300.04 
L 374.322323 299.76208 
L 371.764199 299.76208 
z
" style="fill:#808080;"/>
   </g>
   <g id="patch_96">
    <path clip-path="url(#p18099281c3)" d="M 374.961854 300.04 
L 377.519978 300.04 
L 377.519978 299.816574 
L 374.961854 299.816574 
z
" style="fill:#808080;"/>
   </g>
   <g id="patch_97">
    <path clip-path="url(#p18099281c3)" d="M 378.159509 300.04 
L 380.717633 300.04 
L 380.717633 299.86017 
L 378.159509 299.86017 
z
" style="fill:#808080;"/>
   </g>
   <g id="patch_98">
    <path clip-path="url(#p18099281c3)" d="M 381.357164 300.04 
L 383.915288 300.04 
L 383.915288 299.794777 
L 381.357164 299.794777 
z
" style="fill:#808080;"/>
   </g>
   <g id="patch_99">
    <path clip-path="url(#p18099281c3)" d="M 384.554819 300.04 
L 387.112943 300.04 
L 387.112943 299.827473 
L 384.554819 299.827473 
z
" style="fill:#808080;"/>
   </g>
   <g id="patch_100">
    <path clip-path="url(#p18099281c3)" d="M 387.752474 300.04 
L 390.310598 300.04 
L 390.310598 299.811125 
L 387.752474 299.811125 
z
" style="fill:#808080;"/>
   </g>
   <g id="patch_101">
    <path clip-path="url(#p18099281c3)" d="M 390.950129 300.04 
L 393.508253 300.04 
L 393.508253 299.037309 
L 390.950129 299.037309 
z
" style="fill:#808080;"/>
   </g>
   <g id="patch_102">
    <path clip-path="url(#p18099281c3)" d="M 394.147784 300.04 
L 396.705908 300.04 
L 396.705908 227.601023 
L 394.147784 227.601023 
z
" style="fill:#808080;"/>
   </g>
   <g id="patch_103">
    <path clip-path="url(#p18099281c3)" d="M 397.345439 300.04 
L 399.903563 300.04 
L 399.903563 300.04 
L 397.345439 300.04 
z
" style="fill:#808080;"/>
   </g>
   <g id="patch_104">
    <path clip-path="url(#p18099281c3)" d="M 400.543094 300.04 
L 403.101218 300.04 
L 403.101218 300.04 
L 400.543094 300.04 
z
" style="fill:#808080;"/>
   </g>
   <g id="patch_105">
    <path clip-path="url(#p18099281c3)" d="M 403.740749 300.04 
L 406.298873 300.04 
L 406.298873 300.04 
L 403.740749 300.04 
z
" style="fill:#808080;"/>
   </g>
   <g id="patch_106">
    <path clip-path="url(#p18099281c3)" d="M 406.938404 300.04 
L 409.496528 300.04 
L 409.496528 300.04 
L 406.938404 300.04 
z
" style="fill:#808080;"/>
   </g>
   <g id="patch_107">
    <path clip-path="url(#p18099281c3)" d="M 410.136059 300.04 
L 412.694183 300.04 
L 412.694183 300.04 
L 410.136059 300.04 
z
" style="fill:#808080;"/>
   </g>
   <g id="patch_108">
    <path clip-path="url(#p18099281c3)" d="M 413.333714 300.04 
L 415.891838 300.04 
L 415.891838 300.04 
L 413.333714 300.04 
z
" style="fill:#808080;"/>
   </g>
   <g id="patch_109">
    <path clip-path="url(#p18099281c3)" d="M 416.531369 300.04 
L 419.089493 300.04 
L 419.089493 300.04 
L 416.531369 300.04 
z
" style="fill:#808080;"/>
   </g>
   <g id="patch_110">
    <path clip-path="url(#p18099281c3)" d="M 419.729024 300.04 
L 422.287148 300.04 
L 422.287148 300.04 
L 419.729024 300.04 
z
" style="fill:#808080;"/>
   </g>
   <g id="patch_111">
    <path clip-path="url(#p18099281c3)" d="M 422.926679 300.04 
L 425.484803 300.04 
L 425.484803 300.04 
L 422.926679 300.04 
z
" style="fill:#808080;"/>
   </g>
   <g id="matplotlib.axis_1">
    <g id="xtick_1">
     <g id="line2d_1">
      <defs>
       <path d="M 0 0 
L 0 3.5 
" id="mef4d95d8d8" style="stroke:#000000;stroke-width:0.8;"/>
      </defs>
      <g>
       <use style="stroke:#000000;stroke-width:0.8;" x="77.26017" xlink:href="#mef4d95d8d8" y="300.04"/>
      </g>
     </g>
     <g id="text_1">
      <!-- 0 -->
      <defs>
       <path d="M 31.78125 66.40625 
Q 24.171875 66.40625 20.328125 58.90625 
Q 16.5 51.421875 16.5 36.375 
Q 16.5 21.390625 20.328125 13.890625 
Q 24.171875 6.390625 31.78125 6.390625 
Q 39.453125 6.390625 43.28125 13.890625 
Q 47.125 21.390625 47.125 36.375 
Q 47.125 51.421875 43.28125 58.90625 
Q 39.453125 66.40625 31.78125 66.40625 
z
M 31.78125 74.21875 
Q 44.046875 74.21875 50.515625 64.515625 
Q 56.984375 54.828125 56.984375 36.375 
Q 56.984375 17.96875 50.515625 8.265625 
Q 44.046875 -1.421875 31.78125 -1.421875 
Q 19.53125 -1.421875 13.0625 8.265625 
Q 6.59375 17.96875 6.59375 36.375 
Q 6.59375 54.828125 13.0625 64.515625 
Q 19.53125 74.21875 31.78125 74.21875 
z
" id="DejaVuSans-48"/>
      </defs>
      <g transform="translate(74.07892 314.638437)scale(0.1 -0.1)">
       <use xlink:href="#DejaVuSans-48"/>
      </g>
     </g>
    </g>
    <g id="xtick_2">
     <g id="line2d_2">
      <g>
       <use style="stroke:#000000;stroke-width:0.8;" x="141.213271" xlink:href="#mef4d95d8d8" y="300.04"/>
      </g>
     </g>
     <g id="text_2">
      <!-- 20 -->
      <defs>
       <path d="M 19.1875 8.296875 
L 53.609375 8.296875 
L 53.609375 0 
L 7.328125 0 
L 7.328125 8.296875 
Q 12.9375 14.109375 22.625 23.890625 
Q 32.328125 33.6875 34.8125 36.53125 
Q 39.546875 41.84375 41.421875 45.53125 
Q 43.3125 49.21875 43.3125 52.78125 
Q 43.3125 58.59375 39.234375 62.25 
Q 35.15625 65.921875 28.609375 65.921875 
Q 23.96875 65.921875 18.8125 64.3125 
Q 13.671875 62.703125 7.8125 59.421875 
L 7.8125 69.390625 
Q 13.765625 71.78125 18.9375 73 
Q 24.125 74.21875 28.421875 74.21875 
Q 39.75 74.21875 46.484375 68.546875 
Q 53.21875 62.890625 53.21875 53.421875 
Q 53.21875 48.921875 51.53125 44.890625 
Q 49.859375 40.875 45.40625 35.40625 
Q 44.1875 33.984375 37.640625 27.21875 
Q 31.109375 20.453125 19.1875 8.296875 
z
" id="DejaVuSans-50"/>
      </defs>
      <g transform="translate(134.850771 314.638437)scale(0.1 -0.1)">
       <use xlink:href="#DejaVuSans-50"/>
       <use x="63.623047" xlink:href="#DejaVuSans-48"/>
      </g>
     </g>
    </g>
    <g id="xtick_3">
     <g id="line2d_3">
      <g>
       <use style="stroke:#000000;stroke-width:0.8;" x="205.166372" xlink:href="#mef4d95d8d8" y="300.04"/>
      </g>
     </g>
     <g id="text_3">
      <!-- 40 -->
      <defs>
       <path d="M 37.796875 64.3125 
L 12.890625 25.390625 
L 37.796875 25.390625 
z
M 35.203125 72.90625 
L 47.609375 72.90625 
L 47.609375 25.390625 
L 58.015625 25.390625 
L 58.015625 17.1875 
L 47.609375 17.1875 
L 47.609375 0 
L 37.796875 0 
L 37.796875 17.1875 
L 4.890625 17.1875 
L 4.890625 26.703125 
z
" id="DejaVuSans-52"/>
      </defs>
      <g transform="translate(198.803872 314.638437)scale(0.1 -0.1)">
       <use xlink:href="#DejaVuSans-52"/>
       <use x="63.623047" xlink:href="#DejaVuSans-48"/>
      </g>
     </g>
    </g>
    <g id="xtick_4">
     <g id="line2d_4">
      <g>
       <use style="stroke:#000000;stroke-width:0.8;" x="269.119472" xlink:href="#mef4d95d8d8" y="300.04"/>
      </g>
     </g>
     <g id="text_4">
      <!-- 60 -->
      <defs>
       <path d="M 33.015625 40.375 
Q 26.375 40.375 22.484375 35.828125 
Q 18.609375 31.296875 18.609375 23.390625 
Q 18.609375 15.53125 22.484375 10.953125 
Q 26.375 6.390625 33.015625 6.390625 
Q 39.65625 6.390625 43.53125 10.953125 
Q 47.40625 15.53125 47.40625 23.390625 
Q 47.40625 31.296875 43.53125 35.828125 
Q 39.65625 40.375 33.015625 40.375 
z
M 52.59375 71.296875 
L 52.59375 62.3125 
Q 48.875 64.0625 45.09375 64.984375 
Q 41.3125 65.921875 37.59375 65.921875 
Q 27.828125 65.921875 22.671875 59.328125 
Q 17.53125 52.734375 16.796875 39.40625 
Q 19.671875 43.65625 24.015625 45.921875 
Q 28.375 48.1875 33.59375 48.1875 
Q 44.578125 48.1875 50.953125 41.515625 
Q 57.328125 34.859375 57.328125 23.390625 
Q 57.328125 12.15625 50.6875 5.359375 
Q 44.046875 -1.421875 33.015625 -1.421875 
Q 20.359375 -1.421875 13.671875 8.265625 
Q 6.984375 17.96875 6.984375 36.375 
Q 6.984375 53.65625 15.1875 63.9375 
Q 23.390625 74.21875 37.203125 74.21875 
Q 40.921875 74.21875 44.703125 73.484375 
Q 48.484375 72.75 52.59375 71.296875 
z
" id="DejaVuSans-54"/>
      </defs>
      <g transform="translate(262.756972 314.638437)scale(0.1 -0.1)">
       <use xlink:href="#DejaVuSans-54"/>
       <use x="63.623047" xlink:href="#DejaVuSans-48"/>
      </g>
     </g>
    </g>
    <g id="xtick_5">
     <g id="line2d_5">
      <g>
       <use style="stroke:#000000;stroke-width:0.8;" x="333.072573" xlink:href="#mef4d95d8d8" y="300.04"/>
      </g>
     </g>
     <g id="text_5">
      <!-- 80 -->
      <defs>
       <path d="M 31.78125 34.625 
Q 24.75 34.625 20.71875 30.859375 
Q 16.703125 27.09375 16.703125 20.515625 
Q 16.703125 13.921875 20.71875 10.15625 
Q 24.75 6.390625 31.78125 6.390625 
Q 38.8125 6.390625 42.859375 10.171875 
Q 46.921875 13.96875 46.921875 20.515625 
Q 46.921875 27.09375 42.890625 30.859375 
Q 38.875 34.625 31.78125 34.625 
z
M 21.921875 38.8125 
Q 15.578125 40.375 12.03125 44.71875 
Q 8.5 49.078125 8.5 55.328125 
Q 8.5 64.0625 14.71875 69.140625 
Q 20.953125 74.21875 31.78125 74.21875 
Q 42.671875 74.21875 48.875 69.140625 
Q 55.078125 64.0625 55.078125 55.328125 
Q 55.078125 49.078125 51.53125 44.71875 
Q 48 40.375 41.703125 38.8125 
Q 48.828125 37.15625 52.796875 32.3125 
Q 56.78125 27.484375 56.78125 20.515625 
Q 56.78125 9.90625 50.3125 4.234375 
Q 43.84375 -1.421875 31.78125 -1.421875 
Q 19.734375 -1.421875 13.25 4.234375 
Q 6.78125 9.90625 6.78125 20.515625 
Q 6.78125 27.484375 10.78125 32.3125 
Q 14.796875 37.15625 21.921875 38.8125 
z
M 18.3125 54.390625 
Q 18.3125 48.734375 21.84375 45.5625 
Q 25.390625 42.390625 31.78125 42.390625 
Q 38.140625 42.390625 41.71875 45.5625 
Q 45.3125 48.734375 45.3125 54.390625 
Q 45.3125 60.0625 41.71875 63.234375 
Q 38.140625 66.40625 31.78125 66.40625 
Q 25.390625 66.40625 21.84375 63.234375 
Q 18.3125 60.0625 18.3125 54.390625 
z
" id="DejaVuSans-56"/>
      </defs>
      <g transform="translate(326.710073 314.638437)scale(0.1 -0.1)">
       <use xlink:href="#DejaVuSans-56"/>
       <use x="63.623047" xlink:href="#DejaVuSans-48"/>
      </g>
     </g>
    </g>
    <g id="xtick_6">
     <g id="line2d_6">
      <g>
       <use style="stroke:#000000;stroke-width:0.8;" x="397.025673" xlink:href="#mef4d95d8d8" y="300.04"/>
      </g>
     </g>
     <g id="text_6">
      <!-- 100 -->
      <defs>
       <path d="M 12.40625 8.296875 
L 28.515625 8.296875 
L 28.515625 63.921875 
L 10.984375 60.40625 
L 10.984375 69.390625 
L 28.421875 72.90625 
L 38.28125 72.90625 
L 38.28125 8.296875 
L 54.390625 8.296875 
L 54.390625 0 
L 12.40625 0 
z
" id="DejaVuSans-49"/>
      </defs>
      <g transform="translate(387.481923 314.638437)scale(0.1 -0.1)">
       <use xlink:href="#DejaVuSans-49"/>
       <use x="63.623047" xlink:href="#DejaVuSans-48"/>
       <use x="127.246094" xlink:href="#DejaVuSans-48"/>
      </g>
     </g>
    </g>
    <g id="text_7">
     <!-- MLE site rate -->
     <defs>
      <path d="M 9.8125 72.90625 
L 24.515625 72.90625 
L 43.109375 23.296875 
L 61.8125 72.90625 
L 76.515625 72.90625 
L 76.515625 0 
L 66.890625 0 
L 66.890625 64.015625 
L 48.09375 14.015625 
L 38.1875 14.015625 
L 19.390625 64.015625 
L 19.390625 0 
L 9.8125 0 
z
" id="DejaVuSans-77"/>
      <path d="M 9.8125 72.90625 
L 19.671875 72.90625 
L 19.671875 8.296875 
L 55.171875 8.296875 
L 55.171875 0 
L 9.8125 0 
z
" id="DejaVuSans-76"/>
      <path d="M 9.8125 72.90625 
L 55.90625 72.90625 
L 55.90625 64.59375 
L 19.671875 64.59375 
L 19.671875 43.015625 
L 54.390625 43.015625 
L 54.390625 34.71875 
L 19.671875 34.71875 
L 19.671875 8.296875 
L 56.78125 8.296875 
L 56.78125 0 
L 9.8125 0 
z
" id="DejaVuSans-69"/>
      <path id="DejaVuSans-32"/>
      <path d="M 44.28125 53.078125 
L 44.28125 44.578125 
Q 40.484375 46.53125 36.375 47.5 
Q 32.28125 48.484375 27.875 48.484375 
Q 21.1875 48.484375 17.84375 46.4375 
Q 14.5 44.390625 14.5 40.28125 
Q 14.5 37.15625 16.890625 35.375 
Q 19.28125 33.59375 26.515625 31.984375 
L 29.59375 31.296875 
Q 39.15625 29.25 43.1875 25.515625 
Q 47.21875 21.78125 47.21875 15.09375 
Q 47.21875 7.46875 41.1875 3.015625 
Q 35.15625 -1.421875 24.609375 -1.421875 
Q 20.21875 -1.421875 15.453125 -0.5625 
Q 10.6875 0.296875 5.421875 2 
L 5.421875 11.28125 
Q 10.40625 8.6875 15.234375 7.390625 
Q 20.0625 6.109375 24.8125 6.109375 
Q 31.15625 6.109375 34.5625 8.28125 
Q 37.984375 10.453125 37.984375 14.40625 
Q 37.984375 18.0625 35.515625 20.015625 
Q 33.0625 21.96875 24.703125 23.78125 
L 21.578125 24.515625 
Q 13.234375 26.265625 9.515625 29.90625 
Q 5.8125 33.546875 5.8125 39.890625 
Q 5.8125 47.609375 11.28125 51.796875 
Q 16.75 56 26.8125 56 
Q 31.78125 56 36.171875 55.265625 
Q 40.578125 54.546875 44.28125 53.078125 
z
" id="DejaVuSans-115"/>
      <path d="M 9.421875 54.6875 
L 18.40625 54.6875 
L 18.40625 0 
L 9.421875 0 
z
M 9.421875 75.984375 
L 18.40625 75.984375 
L 18.40625 64.59375 
L 9.421875 64.59375 
z
" id="DejaVuSans-105"/>
      <path d="M 18.3125 70.21875 
L 18.3125 54.6875 
L 36.8125 54.6875 
L 36.8125 47.703125 
L 18.3125 47.703125 
L 18.3125 18.015625 
Q 18.3125 11.328125 20.140625 9.421875 
Q 21.96875 7.515625 27.59375 7.515625 
L 36.8125 7.515625 
L 36.8125 0 
L 27.59375 0 
Q 17.1875 0 13.234375 3.875 
Q 9.28125 7.765625 9.28125 18.015625 
L 9.28125 47.703125 
L 2.6875 47.703125 
L 2.6875 54.6875 
L 9.28125 54.6875 
L 9.28125 70.21875 
z
" id="DejaVuSans-116"/>
      <path d="M 56.203125 29.59375 
L 56.203125 25.203125 
L 14.890625 25.203125 
Q 15.484375 15.921875 20.484375 11.0625 
Q 25.484375 6.203125 34.421875 6.203125 
Q 39.59375 6.203125 44.453125 7.46875 
Q 49.3125 8.734375 54.109375 11.28125 
L 54.109375 2.78125 
Q 49.265625 0.734375 44.1875 -0.34375 
Q 39.109375 -1.421875 33.890625 -1.421875 
Q 20.796875 -1.421875 13.15625 6.1875 
Q 5.515625 13.8125 5.515625 26.8125 
Q 5.515625 40.234375 12.765625 48.109375 
Q 20.015625 56 32.328125 56 
Q 43.359375 56 49.78125 48.890625 
Q 56.203125 41.796875 56.203125 29.59375 
z
M 47.21875 32.234375 
Q 47.125 39.59375 43.09375 43.984375 
Q 39.0625 48.390625 32.421875 48.390625 
Q 24.90625 48.390625 20.390625 44.140625 
Q 15.875 39.890625 15.1875 32.171875 
z
" id="DejaVuSans-101"/>
      <path d="M 41.109375 46.296875 
Q 39.59375 47.171875 37.8125 47.578125 
Q 36.03125 48 33.890625 48 
Q 26.265625 48 22.1875 43.046875 
Q 18.109375 38.09375 18.109375 28.8125 
L 18.109375 0 
L 9.078125 0 
L 9.078125 54.6875 
L 18.109375 54.6875 
L 18.109375 46.1875 
Q 20.953125 51.171875 25.484375 53.578125 
Q 30.03125 56 36.53125 56 
Q 37.453125 56 38.578125 55.875 
Q 39.703125 55.765625 41.0625 55.515625 
z
" id="DejaVuSans-114"/>
      <path d="M 34.28125 27.484375 
Q 23.390625 27.484375 19.1875 25 
Q 14.984375 22.515625 14.984375 16.5 
Q 14.984375 11.71875 18.140625 8.90625 
Q 21.296875 6.109375 26.703125 6.109375 
Q 34.1875 6.109375 38.703125 11.40625 
Q 43.21875 16.703125 43.21875 25.484375 
L 43.21875 27.484375 
z
M 52.203125 31.203125 
L 52.203125 0 
L 43.21875 0 
L 43.21875 8.296875 
Q 40.140625 3.328125 35.546875 0.953125 
Q 30.953125 -1.421875 24.3125 -1.421875 
Q 15.921875 -1.421875 10.953125 3.296875 
Q 6 8.015625 6 15.921875 
Q 6 25.140625 12.171875 29.828125 
Q 18.359375 34.515625 30.609375 34.515625 
L 43.21875 34.515625 
L 43.21875 35.40625 
Q 43.21875 41.609375 39.140625 45 
Q 35.0625 48.390625 27.6875 48.390625 
Q 23 48.390625 18.546875 47.265625 
Q 14.109375 46.140625 10.015625 43.890625 
L 10.015625 52.203125 
Q 14.9375 54.109375 19.578125 55.046875 
Q 24.21875 56 28.609375 56 
Q 40.484375 56 46.34375 49.84375 
Q 52.203125 43.703125 52.203125 31.203125 
z
" id="DejaVuSans-97"/>
     </defs>
     <g transform="translate(220.331406 328.316562)scale(0.1 -0.1)">
      <use xlink:href="#DejaVuSans-77"/>
      <use x="86.279297" xlink:href="#DejaVuSans-76"/>
      <use x="141.992188" xlink:href="#DejaVuSans-69"/>
      <use x="205.175781" xlink:href="#DejaVuSans-32"/>
      <use x="236.962891" xlink:href="#DejaVuSans-115"/>
      <use x="289.0625" xlink:href="#DejaVuSans-105"/>
      <use x="316.845703" xlink:href="#DejaVuSans-116"/>
      <use x="356.054688" xlink:href="#DejaVuSans-101"/>
      <use x="417.578125" xlink:href="#DejaVuSans-32"/>
      <use x="449.365234" xlink:href="#DejaVuSans-114"/>
      <use x="490.478516" xlink:href="#DejaVuSans-97"/>
      <use x="551.757812" xlink:href="#DejaVuSans-116"/>
      <use x="590.966797" xlink:href="#DejaVuSans-101"/>
     </g>
    </g>
   </g>
   <g id="matplotlib.axis_2">
    <g id="ytick_1">
     <g id="line2d_7">
      <defs>
       <path d="M 0 0 
L -3.5 0 
" id="m9d803595c8" style="stroke:#000000;stroke-width:0.8;"/>
      </defs>
      <g>
       <use style="stroke:#000000;stroke-width:0.8;" x="59.690625" xlink:href="#m9d803595c8" y="300.04"/>
      </g>
     </g>
     <g id="text_8">
      <!-- 0 -->
      <g transform="translate(46.328125 303.839219)scale(0.1 -0.1)">
       <use xlink:href="#DejaVuSans-48"/>
      </g>
     </g>
    </g>
    <g id="ytick_2">
     <g id="line2d_8">
      <g>
       <use style="stroke:#000000;stroke-width:0.8;" x="59.690625" xlink:href="#m9d803595c8" y="245.545923"/>
      </g>
     </g>
     <g id="text_9">
      <!-- 10000 -->
      <g transform="translate(20.878125 249.345141)scale(0.1 -0.1)">
       <use xlink:href="#DejaVuSans-49"/>
       <use x="63.623047" xlink:href="#DejaVuSans-48"/>
       <use x="127.246094" xlink:href="#DejaVuSans-48"/>
       <use x="190.869141" xlink:href="#DejaVuSans-48"/>
       <use x="254.492188" xlink:href="#DejaVuSans-48"/>
      </g>
     </g>
    </g>
    <g id="ytick_3">
     <g id="line2d_9">
      <g>
       <use style="stroke:#000000;stroke-width:0.8;" x="59.690625" xlink:href="#m9d803595c8" y="191.051845"/>
      </g>
     </g>
     <g id="text_10">
      <!-- 20000 -->
      <g transform="translate(20.878125 194.851064)scale(0.1 -0.1)">
       <use xlink:href="#DejaVuSans-50"/>
       <use x="63.623047" xlink:href="#DejaVuSans-48"/>
       <use x="127.246094" xlink:href="#DejaVuSans-48"/>
       <use x="190.869141" xlink:href="#DejaVuSans-48"/>
       <use x="254.492188" xlink:href="#DejaVuSans-48"/>
      </g>
     </g>
    </g>
    <g id="ytick_4">
     <g id="line2d_10">
      <g>
       <use style="stroke:#000000;stroke-width:0.8;" x="59.690625" xlink:href="#m9d803595c8" y="136.557768"/>
      </g>
     </g>
     <g id="text_11">
      <!-- 30000 -->
      <defs>
       <path d="M 40.578125 39.3125 
Q 47.65625 37.796875 51.625 33 
Q 55.609375 28.21875 55.609375 21.1875 
Q 55.609375 10.40625 48.1875 4.484375 
Q 40.765625 -1.421875 27.09375 -1.421875 
Q 22.515625 -1.421875 17.65625 -0.515625 
Q 12.796875 0.390625 7.625 2.203125 
L 7.625 11.71875 
Q 11.71875 9.328125 16.59375 8.109375 
Q 21.484375 6.890625 26.8125 6.890625 
Q 36.078125 6.890625 40.9375 10.546875 
Q 45.796875 14.203125 45.796875 21.1875 
Q 45.796875 27.640625 41.28125 31.265625 
Q 36.765625 34.90625 28.71875 34.90625 
L 20.21875 34.90625 
L 20.21875 43.015625 
L 29.109375 43.015625 
Q 36.375 43.015625 40.234375 45.921875 
Q 44.09375 48.828125 44.09375 54.296875 
Q 44.09375 59.90625 40.109375 62.90625 
Q 36.140625 65.921875 28.71875 65.921875 
Q 24.65625 65.921875 20.015625 65.03125 
Q 15.375 64.15625 9.8125 62.3125 
L 9.8125 71.09375 
Q 15.4375 72.65625 20.34375 73.4375 
Q 25.25 74.21875 29.59375 74.21875 
Q 40.828125 74.21875 47.359375 69.109375 
Q 53.90625 64.015625 53.90625 55.328125 
Q 53.90625 49.265625 50.4375 45.09375 
Q 46.96875 40.921875 40.578125 39.3125 
z
" id="DejaVuSans-51"/>
      </defs>
      <g transform="translate(20.878125 140.356987)scale(0.1 -0.1)">
       <use xlink:href="#DejaVuSans-51"/>
       <use x="63.623047" xlink:href="#DejaVuSans-48"/>
       <use x="127.246094" xlink:href="#DejaVuSans-48"/>
       <use x="190.869141" xlink:href="#DejaVuSans-48"/>
       <use x="254.492188" xlink:href="#DejaVuSans-48"/>
      </g>
     </g>
    </g>
    <g id="ytick_5">
     <g id="line2d_11">
      <g>
       <use style="stroke:#000000;stroke-width:0.8;" x="59.690625" xlink:href="#m9d803595c8" y="82.063691"/>
      </g>
     </g>
     <g id="text_12">
      <!-- 40000 -->
      <g transform="translate(20.878125 85.86291)scale(0.1 -0.1)">
       <use xlink:href="#DejaVuSans-52"/>
       <use x="63.623047" xlink:href="#DejaVuSans-48"/>
       <use x="127.246094" xlink:href="#DejaVuSans-48"/>
       <use x="190.869141" xlink:href="#DejaVuSans-48"/>
       <use x="254.492188" xlink:href="#DejaVuSans-48"/>
      </g>
     </g>
    </g>
    <g id="ytick_6">
     <g id="line2d_12">
      <g>
       <use style="stroke:#000000;stroke-width:0.8;" x="59.690625" xlink:href="#m9d803595c8" y="27.569614"/>
      </g>
     </g>
     <g id="text_13">
      <!-- 50000 -->
      <defs>
       <path d="M 10.796875 72.90625 
L 49.515625 72.90625 
L 49.515625 64.59375 
L 19.828125 64.59375 
L 19.828125 46.734375 
Q 21.96875 47.46875 24.109375 47.828125 
Q 26.265625 48.1875 28.421875 48.1875 
Q 40.625 48.1875 47.75 41.5 
Q 54.890625 34.8125 54.890625 23.390625 
Q 54.890625 11.625 47.5625 5.09375 
Q 40.234375 -1.421875 26.90625 -1.421875 
Q 22.3125 -1.421875 17.546875 -0.640625 
Q 12.796875 0.140625 7.71875 1.703125 
L 7.71875 11.625 
Q 12.109375 9.234375 16.796875 8.0625 
Q 21.484375 6.890625 26.703125 6.890625 
Q 35.15625 6.890625 40.078125 11.328125 
Q 45.015625 15.765625 45.015625 23.390625 
Q 45.015625 31 40.078125 35.4375 
Q 35.15625 39.890625 26.703125 39.890625 
Q 22.75 39.890625 18.8125 39.015625 
Q 14.890625 38.140625 10.796875 36.28125 
z
" id="DejaVuSans-53"/>
      </defs>
      <g transform="translate(20.878125 31.368832)scale(0.1 -0.1)">
       <use xlink:href="#DejaVuSans-53"/>
       <use x="63.623047" xlink:href="#DejaVuSans-48"/>
       <use x="127.246094" xlink:href="#DejaVuSans-48"/>
       <use x="190.869141" xlink:href="#DejaVuSans-48"/>
       <use x="254.492188" xlink:href="#DejaVuSans-48"/>
      </g>
     </g>
    </g>
    <g id="text_14">
     <!-- Number of sites -->
     <defs>
      <path d="M 9.8125 72.90625 
L 23.09375 72.90625 
L 55.421875 11.921875 
L 55.421875 72.90625 
L 64.984375 72.90625 
L 64.984375 0 
L 51.703125 0 
L 19.390625 60.984375 
L 19.390625 0 
L 9.8125 0 
z
" id="DejaVuSans-78"/>
      <path d="M 8.5 21.578125 
L 8.5 54.6875 
L 17.484375 54.6875 
L 17.484375 21.921875 
Q 17.484375 14.15625 20.5 10.265625 
Q 23.53125 6.390625 29.59375 6.390625 
Q 36.859375 6.390625 41.078125 11.03125 
Q 45.3125 15.671875 45.3125 23.6875 
L 45.3125 54.6875 
L 54.296875 54.6875 
L 54.296875 0 
L 45.3125 0 
L 45.3125 8.40625 
Q 42.046875 3.421875 37.71875 1 
Q 33.40625 -1.421875 27.6875 -1.421875 
Q 18.265625 -1.421875 13.375 4.4375 
Q 8.5 10.296875 8.5 21.578125 
z
M 31.109375 56 
z
" id="DejaVuSans-117"/>
      <path d="M 52 44.1875 
Q 55.375 50.25 60.0625 53.125 
Q 64.75 56 71.09375 56 
Q 79.640625 56 84.28125 50.015625 
Q 88.921875 44.046875 88.921875 33.015625 
L 88.921875 0 
L 79.890625 0 
L 79.890625 32.71875 
Q 79.890625 40.578125 77.09375 44.375 
Q 74.3125 48.1875 68.609375 48.1875 
Q 61.625 48.1875 57.5625 43.546875 
Q 53.515625 38.921875 53.515625 30.90625 
L 53.515625 0 
L 44.484375 0 
L 44.484375 32.71875 
Q 44.484375 40.625 41.703125 44.40625 
Q 38.921875 48.1875 33.109375 48.1875 
Q 26.21875 48.1875 22.15625 43.53125 
Q 18.109375 38.875 18.109375 30.90625 
L 18.109375 0 
L 9.078125 0 
L 9.078125 54.6875 
L 18.109375 54.6875 
L 18.109375 46.1875 
Q 21.1875 51.21875 25.484375 53.609375 
Q 29.78125 56 35.6875 56 
Q 41.65625 56 45.828125 52.96875 
Q 50 49.953125 52 44.1875 
z
" id="DejaVuSans-109"/>
      <path d="M 48.6875 27.296875 
Q 48.6875 37.203125 44.609375 42.84375 
Q 40.53125 48.484375 33.40625 48.484375 
Q 26.265625 48.484375 22.1875 42.84375 
Q 18.109375 37.203125 18.109375 27.296875 
Q 18.109375 17.390625 22.1875 11.75 
Q 26.265625 6.109375 33.40625 6.109375 
Q 40.53125 6.109375 44.609375 11.75 
Q 48.6875 17.390625 48.6875 27.296875 
z
M 18.109375 46.390625 
Q 20.953125 51.265625 25.265625 53.625 
Q 29.59375 56 35.59375 56 
Q 45.5625 56 51.78125 48.09375 
Q 58.015625 40.1875 58.015625 27.296875 
Q 58.015625 14.40625 51.78125 6.484375 
Q 45.5625 -1.421875 35.59375 -1.421875 
Q 29.59375 -1.421875 25.265625 0.953125 
Q 20.953125 3.328125 18.109375 8.203125 
L 18.109375 0 
L 9.078125 0 
L 9.078125 75.984375 
L 18.109375 75.984375 
z
" id="DejaVuSans-98"/>
      <path d="M 30.609375 48.390625 
Q 23.390625 48.390625 19.1875 42.75 
Q 14.984375 37.109375 14.984375 27.296875 
Q 14.984375 17.484375 19.15625 11.84375 
Q 23.34375 6.203125 30.609375 6.203125 
Q 37.796875 6.203125 41.984375 11.859375 
Q 46.1875 17.53125 46.1875 27.296875 
Q 46.1875 37.015625 41.984375 42.703125 
Q 37.796875 48.390625 30.609375 48.390625 
z
M 30.609375 56 
Q 42.328125 56 49.015625 48.375 
Q 55.71875 40.765625 55.71875 27.296875 
Q 55.71875 13.875 49.015625 6.21875 
Q 42.328125 -1.421875 30.609375 -1.421875 
Q 18.84375 -1.421875 12.171875 6.21875 
Q 5.515625 13.875 5.515625 27.296875 
Q 5.515625 40.765625 12.171875 48.375 
Q 18.84375 56 30.609375 56 
z
" id="DejaVuSans-111"/>
      <path d="M 37.109375 75.984375 
L 37.109375 68.5 
L 28.515625 68.5 
Q 23.6875 68.5 21.796875 66.546875 
Q 19.921875 64.59375 19.921875 59.515625 
L 19.921875 54.6875 
L 34.71875 54.6875 
L 34.71875 47.703125 
L 19.921875 47.703125 
L 19.921875 0 
L 10.890625 0 
L 10.890625 47.703125 
L 2.296875 47.703125 
L 2.296875 54.6875 
L 10.890625 54.6875 
L 10.890625 58.5 
Q 10.890625 67.625 15.140625 71.796875 
Q 19.390625 75.984375 28.609375 75.984375 
z
" id="DejaVuSans-102"/>
     </defs>
     <g transform="translate(14.798438 193.33875)rotate(-90)scale(0.1 -0.1)">
      <use xlink:href="#DejaVuSans-78"/>
      <use x="74.804688" xlink:href="#DejaVuSans-117"/>
      <use x="138.183594" xlink:href="#DejaVuSans-109"/>
      <use x="235.595703" xlink:href="#DejaVuSans-98"/>
      <use x="299.072266" xlink:href="#DejaVuSans-101"/>
      <use x="360.595703" xlink:href="#DejaVuSans-114"/>
      <use x="401.708984" xlink:href="#DejaVuSans-32"/>
      <use x="433.496094" xlink:href="#DejaVuSans-111"/>
      <use x="494.677734" xlink:href="#DejaVuSans-102"/>
      <use x="529.882812" xlink:href="#DejaVuSans-32"/>
      <use x="561.669922" xlink:href="#DejaVuSans-115"/>
      <use x="613.769531" xlink:href="#DejaVuSans-105"/>
      <use x="641.552734" xlink:href="#DejaVuSans-116"/>
      <use x="680.761719" xlink:href="#DejaVuSans-101"/>
      <use x="742.285156" xlink:href="#DejaVuSans-115"/>
     </g>
    </g>
   </g>
   <g id="line2d_13">
    <path clip-path="url(#p18099281c3)" d="M 77.26017 262.589715 
L 78.668551 262.082862 
L 79.372741 262.01165 
L 80.076931 262.063209 
L 80.781121 262.237026 
L 82.189502 262.943512 
L 83.597882 264.104038 
L 85.006263 265.674964 
L 86.414643 267.598801 
L 88.527214 270.995985 
L 91.343974 276.08515 
L 95.569116 283.750124 
L 97.681686 287.17783 
L 99.794257 290.173589 
L 101.906827 292.686638 
L 104.019398 294.714615 
L 106.131969 296.291514 
L 108.244539 297.474392 
L 110.35711 298.331091 
L 112.46968 298.930421 
L 115.286441 299.436792 
L 118.807392 299.765633 
L 123.736724 299.935897 
L 133.595386 299.97252 
L 170.917467 299.802625 
L 237.111346 299.252922 
L 259.645432 299.356165 
L 353.302728 299.735533 
L 362.457201 299.608616 
L 367.386532 299.32115 
L 370.907483 298.915275 
L 374.428434 298.272369 
L 377.949385 297.358374 
L 381.470336 296.200197 
L 389.920619 293.266613 
L 392.737379 292.632353 
L 394.84995 292.380505 
L 396.962521 292.347261 
L 399.075091 292.536492 
L 401.187662 292.93265 
L 404.004423 293.724199 
L 407.525374 294.977979 
L 413.863085 297.276041 
L 417.384036 298.279746 
L 420.904987 299.007471 
L 424.425938 299.482178 
L 428.65108 299.800986 
L 428.65108 299.800986 
" style="fill:none;stroke:#000000;stroke-dasharray:3.7,1.6;stroke-dashoffset:0;stroke-opacity:0.8;"/>
   </g>
   <g id="patch_112">
    <path d="M 59.690625 300.04 
L 59.690625 7.2 
" style="fill:none;stroke:#000000;stroke-linecap:square;stroke-linejoin:miter;stroke-width:0.8;"/>
   </g>
   <g id="patch_113">
    <path d="M 446.220625 300.04 
L 446.220625 7.2 
" style="fill:none;stroke:#000000;stroke-linecap:square;stroke-linejoin:miter;stroke-width:0.8;"/>
   </g>
   <g id="patch_114">
    <path d="M 59.690625 300.04 
L 446.220625 300.04 
" style="fill:none;stroke:#000000;stroke-linecap:square;stroke-linejoin:miter;stroke-width:0.8;"/>
   </g>
   <g id="patch_115">
    <path d="M 59.690625 7.2 
L 446.220625 7.2 
" style="fill:none;stroke:#000000;stroke-linecap:square;stroke-linejoin:miter;stroke-width:0.8;"/>
   </g>
   <g id="legend_1">
    <g id="line2d_14">
     <path d="M 357.447187 20.298438 
L 377.447187 20.298438 
" style="fill:none;stroke:#000000;stroke-dasharray:3.7,1.6;stroke-dashoffset:0;stroke-opacity:0.8;"/>
    </g>
    <g id="line2d_15"/>
    <g id="text_15">
     <!-- KDE curve -->
     <defs>
      <path d="M 9.8125 72.90625 
L 19.671875 72.90625 
L 19.671875 42.09375 
L 52.390625 72.90625 
L 65.09375 72.90625 
L 28.90625 38.921875 
L 67.671875 0 
L 54.6875 0 
L 19.671875 35.109375 
L 19.671875 0 
L 9.8125 0 
z
" id="DejaVuSans-75"/>
      <path d="M 19.671875 64.796875 
L 19.671875 8.109375 
L 31.59375 8.109375 
Q 46.6875 8.109375 53.6875 14.9375 
Q 60.6875 21.78125 60.6875 36.53125 
Q 60.6875 51.171875 53.6875 57.984375 
Q 46.6875 64.796875 31.59375 64.796875 
z
M 9.8125 72.90625 
L 30.078125 72.90625 
Q 51.265625 72.90625 61.171875 64.09375 
Q 71.09375 55.28125 71.09375 36.53125 
Q 71.09375 17.671875 61.125 8.828125 
Q 51.171875 0 30.078125 0 
L 9.8125 0 
z
" id="DejaVuSans-68"/>
      <path d="M 48.78125 52.59375 
L 48.78125 44.1875 
Q 44.96875 46.296875 41.140625 47.34375 
Q 37.3125 48.390625 33.40625 48.390625 
Q 24.65625 48.390625 19.8125 42.84375 
Q 14.984375 37.3125 14.984375 27.296875 
Q 14.984375 17.28125 19.8125 11.734375 
Q 24.65625 6.203125 33.40625 6.203125 
Q 37.3125 6.203125 41.140625 7.25 
Q 44.96875 8.296875 48.78125 10.40625 
L 48.78125 2.09375 
Q 45.015625 0.34375 40.984375 -0.53125 
Q 36.96875 -1.421875 32.421875 -1.421875 
Q 20.0625 -1.421875 12.78125 6.34375 
Q 5.515625 14.109375 5.515625 27.296875 
Q 5.515625 40.671875 12.859375 48.328125 
Q 20.21875 56 33.015625 56 
Q 37.15625 56 41.109375 55.140625 
Q 45.0625 54.296875 48.78125 52.59375 
z
" id="DejaVuSans-99"/>
      <path d="M 2.984375 54.6875 
L 12.5 54.6875 
L 29.59375 8.796875 
L 46.6875 54.6875 
L 56.203125 54.6875 
L 35.6875 0 
L 23.484375 0 
z
" id="DejaVuSans-118"/>
     </defs>
     <g transform="translate(385.447187 23.798438)scale(0.1 -0.1)">
      <use xlink:href="#DejaVuSans-75"/>
      <use x="65.576172" xlink:href="#DejaVuSans-68"/>
      <use x="142.578125" xlink:href="#DejaVuSans-69"/>
      <use x="205.761719" xlink:href="#DejaVuSans-32"/>
      <use x="237.548828" xlink:href="#DejaVuSans-99"/>
      <use x="292.529297" xlink:href="#DejaVuSans-117"/>
      <use x="355.908203" xlink:href="#DejaVuSans-114"/>
      <use x="397.021484" xlink:href="#DejaVuSans-118"/>
      <use x="456.201172" xlink:href="#DejaVuSans-101"/>
     </g>
    </g>
   </g>
  </g>
  <g id="axes_2">
   <g id="patch_116">
    <path d="M 180.540625 203.76 
L 410.940625 203.76 
L 410.940625 30.96 
L 180.540625 30.96 
z
" style="fill:#ffffff;"/>
   </g>
   <g id="patch_117">
    <path clip-path="url(#p0fc8a698f4)" d="M 191.013352 203.76 
L 194.518868 203.76 
L 194.518868 39.188571 
L 191.013352 39.188571 
z
" style="fill:#808080;"/>
   </g>
   <g id="patch_118">
    <path clip-path="url(#p0fc8a698f4)" d="M 195.395247 203.76 
L 198.900762 203.76 
L 198.900762 193.005937 
L 195.395247 193.005937 
z
" style="fill:#808080;"/>
   </g>
   <g id="patch_119">
    <path clip-path="url(#p0fc8a698f4)" d="M 199.777141 203.76 
L 203.282656 203.76 
L 203.282656 175.499324 
L 199.777141 175.499324 
z
" style="fill:#808080;"/>
   </g>
   <g id="patch_120">
    <path clip-path="url(#p0fc8a698f4)" d="M 204.159035 203.76 
L 207.66455 203.76 
L 207.66455 176.79611 
L 204.159035 176.79611 
z
" style="fill:#808080;"/>
   </g>
   <g id="patch_121">
    <path clip-path="url(#p0fc8a698f4)" d="M 208.540929 203.76 
L 212.046445 203.76 
L 212.046445 183.187414 
L 208.540929 183.187414 
z
" style="fill:#808080;"/>
   </g>
   <g id="patch_122">
    <path clip-path="url(#p0fc8a698f4)" d="M 212.922824 203.76 
L 216.428339 203.76 
L 216.428339 185.373425 
L 212.922824 185.373425 
z
" style="fill:#808080;"/>
   </g>
   <g id="patch_123">
    <path clip-path="url(#p0fc8a698f4)" d="M 217.304718 203.76 
L 220.810233 203.76 
L 220.810233 185.197432 
L 217.304718 185.197432 
z
" style="fill:#808080;"/>
   </g>
   <g id="patch_124">
    <path clip-path="url(#p0fc8a698f4)" d="M 221.686612 203.76 
L 225.192127 203.76 
L 225.192127 187.624275 
L 221.686612 187.624275 
z
" style="fill:#808080;"/>
   </g>
   <g id="patch_125">
    <path clip-path="url(#p0fc8a698f4)" d="M 226.068506 203.76 
L 229.574022 203.76 
L 229.574022 189.384199 
L 226.068506 189.384199 
z
" style="fill:#808080;"/>
   </g>
   <g id="patch_126">
    <path clip-path="url(#p0fc8a698f4)" d="M 230.450401 203.76 
L 233.955916 203.76 
L 233.955916 48.2846 
L 230.450401 48.2846 
z
" style="fill:#808080;"/>
   </g>
   <g id="patch_127">
    <path clip-path="url(#p0fc8a698f4)" d="M 234.832295 203.76 
L 238.33781 203.76 
L 238.33781 125.387801 
L 234.832295 125.387801 
z
" style="fill:#808080;"/>
   </g>
   <g id="patch_128">
    <path clip-path="url(#p0fc8a698f4)" d="M 239.214189 203.76 
L 242.719704 203.76 
L 242.719704 192.792894 
L 239.214189 192.792894 
z
" style="fill:#808080;"/>
   </g>
   <g id="patch_129">
    <path clip-path="url(#p0fc8a698f4)" d="M 243.596083 203.76 
L 247.101599 203.76 
L 247.101599 193.950739 
L 243.596083 193.950739 
z
" style="fill:#808080;"/>
   </g>
   <g id="patch_130">
    <path clip-path="url(#p0fc8a698f4)" d="M 247.977978 203.76 
L 251.483493 203.76 
L 251.483493 195.469831 
L 247.977978 195.469831 
z
" style="fill:#808080;"/>
   </g>
   <g id="patch_131">
    <path clip-path="url(#p0fc8a698f4)" d="M 252.359872 203.76 
L 255.865387 203.76 
L 255.865387 196.247903 
L 252.359872 196.247903 
z
" style="fill:#808080;"/>
   </g>
   <g id="patch_132">
    <path clip-path="url(#p0fc8a698f4)" d="M 256.741766 203.76 
L 260.247282 203.76 
L 260.247282 197.229755 
L 256.741766 197.229755 
z
" style="fill:#808080;"/>
   </g>
   <g id="patch_133">
    <path clip-path="url(#p0fc8a698f4)" d="M 261.12366 203.76 
L 264.629176 203.76 
L 264.629176 198.165294 
L 261.12366 198.165294 
z
" style="fill:#808080;"/>
   </g>
   <g id="patch_134">
    <path clip-path="url(#p0fc8a698f4)" d="M 265.505555 203.76 
L 269.01107 203.76 
L 269.01107 199.100833 
L 265.505555 199.100833 
z
" style="fill:#808080;"/>
   </g>
   <g id="patch_135">
    <path clip-path="url(#p0fc8a698f4)" d="M 269.887449 203.76 
L 273.392964 203.76 
L 273.392964 199.554708 
L 269.887449 199.554708 
z
" style="fill:#808080;"/>
   </g>
   <g id="patch_136">
    <path clip-path="url(#p0fc8a698f4)" d="M 274.269343 203.76 
L 277.774859 203.76 
L 277.774859 199.953006 
L 274.269343 199.953006 
z
" style="fill:#808080;"/>
   </g>
   <g id="patch_137">
    <path clip-path="url(#p0fc8a698f4)" d="M 278.651237 203.76 
L 282.156753 203.76 
L 282.156753 201.147902 
L 278.651237 201.147902 
z
" style="fill:#808080;"/>
   </g>
   <g id="patch_138">
    <path clip-path="url(#p0fc8a698f4)" d="M 283.033132 203.76 
L 286.538647 203.76 
L 286.538647 201.286844 
L 283.033132 201.286844 
z
" style="fill:#808080;"/>
   </g>
   <g id="patch_139">
    <path clip-path="url(#p0fc8a698f4)" d="M 287.415026 203.76 
L 290.920541 203.76 
L 290.920541 201.888923 
L 287.415026 201.888923 
z
" style="fill:#808080;"/>
   </g>
   <g id="patch_140">
    <path clip-path="url(#p0fc8a698f4)" d="M 291.79692 203.76 
L 295.302436 203.76 
L 295.302436 201.990813 
L 291.79692 201.990813 
z
" style="fill:#808080;"/>
   </g>
   <g id="patch_141">
    <path clip-path="url(#p0fc8a698f4)" d="M 296.178814 203.76 
L 299.68433 203.76 
L 299.68433 202.833724 
L 296.178814 202.833724 
z
" style="fill:#808080;"/>
   </g>
   <g id="patch_142">
    <path clip-path="url(#p0fc8a698f4)" d="M 300.560709 203.76 
L 304.066224 203.76 
L 304.066224 202.58363 
L 300.560709 202.58363 
z
" style="fill:#808080;"/>
   </g>
   <g id="patch_143">
    <path clip-path="url(#p0fc8a698f4)" d="M 304.942603 203.76 
L 308.448118 203.76 
L 308.448118 202.870775 
L 304.942603 202.870775 
z
" style="fill:#808080;"/>
   </g>
   <g id="patch_144">
    <path clip-path="url(#p0fc8a698f4)" d="M 309.324497 203.76 
L 312.830013 203.76 
L 312.830013 203.250548 
L 309.324497 203.250548 
z
" style="fill:#808080;"/>
   </g>
   <g id="patch_145">
    <path clip-path="url(#p0fc8a698f4)" d="M 313.706391 203.76 
L 317.211907 203.76 
L 317.211907 203.352439 
L 313.706391 203.352439 
z
" style="fill:#808080;"/>
   </g>
   <g id="patch_146">
    <path clip-path="url(#p0fc8a698f4)" d="M 318.088286 203.76 
L 321.593801 203.76 
L 321.593801 203.417278 
L 318.088286 203.417278 
z
" style="fill:#808080;"/>
   </g>
   <g id="patch_147">
    <path clip-path="url(#p0fc8a698f4)" d="M 322.47018 203.76 
L 325.975695 203.76 
L 325.975695 203.472854 
L 322.47018 203.472854 
z
" style="fill:#808080;"/>
   </g>
   <g id="patch_148">
    <path clip-path="url(#p0fc8a698f4)" d="M 326.852074 203.76 
L 330.35759 203.76 
L 330.35759 203.565482 
L 326.852074 203.565482 
z
" style="fill:#808080;"/>
   </g>
   <g id="patch_149">
    <path clip-path="url(#p0fc8a698f4)" d="M 331.233968 203.76 
L 334.739484 203.76 
L 334.739484 203.648847 
L 331.233968 203.648847 
z
" style="fill:#808080;"/>
   </g>
   <g id="patch_150">
    <path clip-path="url(#p0fc8a698f4)" d="M 335.615863 203.76 
L 339.121378 203.76 
L 339.121378 203.676635 
L 335.615863 203.676635 
z
" style="fill:#808080;"/>
   </g>
   <g id="patch_151">
    <path clip-path="url(#p0fc8a698f4)" d="M 339.997757 203.76 
L 343.503272 203.76 
L 343.503272 203.676635 
L 339.997757 203.676635 
z
" style="fill:#808080;"/>
   </g>
   <g id="patch_152">
    <path clip-path="url(#p0fc8a698f4)" d="M 344.379651 203.76 
L 347.885167 203.76 
L 347.885167 203.732212 
L 344.379651 203.732212 
z
" style="fill:#808080;"/>
   </g>
   <g id="patch_153">
    <path clip-path="url(#p0fc8a698f4)" d="M 348.761546 203.76 
L 352.267061 203.76 
L 352.267061 203.722949 
L 348.761546 203.722949 
z
" style="fill:#808080;"/>
   </g>
   <g id="patch_154">
    <path clip-path="url(#p0fc8a698f4)" d="M 353.14344 203.76 
L 356.648955 203.76 
L 356.648955 203.722949 
L 353.14344 203.722949 
z
" style="fill:#808080;"/>
   </g>
   <g id="patch_155">
    <path clip-path="url(#p0fc8a698f4)" d="M 357.525334 203.76 
L 361.030849 203.76 
L 361.030849 203.750737 
L 357.525334 203.750737 
z
" style="fill:#808080;"/>
   </g>
   <g id="patch_156">
    <path clip-path="url(#p0fc8a698f4)" d="M 361.907228 203.76 
L 365.412744 203.76 
L 365.412744 203.750737 
L 361.907228 203.750737 
z
" style="fill:#808080;"/>
   </g>
   <g id="patch_157">
    <path clip-path="url(#p0fc8a698f4)" d="M 366.289123 203.76 
L 369.794638 203.76 
L 369.794638 203.741474 
L 366.289123 203.741474 
z
" style="fill:#808080;"/>
   </g>
   <g id="patch_158">
    <path clip-path="url(#p0fc8a698f4)" d="M 370.671017 203.76 
L 374.176532 203.76 
L 374.176532 203.76 
L 370.671017 203.76 
z
" style="fill:#808080;"/>
   </g>
   <g id="patch_159">
    <path clip-path="url(#p0fc8a698f4)" d="M 375.052911 203.76 
L 378.558426 203.76 
L 378.558426 203.750737 
L 375.052911 203.750737 
z
" style="fill:#808080;"/>
   </g>
   <g id="patch_160">
    <path clip-path="url(#p0fc8a698f4)" d="M 379.434805 203.76 
L 382.940321 203.76 
L 382.940321 203.750737 
L 379.434805 203.750737 
z
" style="fill:#808080;"/>
   </g>
   <g id="patch_161">
    <path clip-path="url(#p0fc8a698f4)" d="M 383.8167 203.76 
L 387.322215 203.76 
L 387.322215 203.76 
L 383.8167 203.76 
z
" style="fill:#808080;"/>
   </g>
   <g id="patch_162">
    <path clip-path="url(#p0fc8a698f4)" d="M 388.198594 203.76 
L 391.704109 203.76 
L 391.704109 203.76 
L 388.198594 203.76 
z
" style="fill:#808080;"/>
   </g>
   <g id="patch_163">
    <path clip-path="url(#p0fc8a698f4)" d="M 392.580488 203.76 
L 396.086003 203.76 
L 396.086003 203.76 
L 392.580488 203.76 
z
" style="fill:#808080;"/>
   </g>
   <g id="patch_164">
    <path clip-path="url(#p0fc8a698f4)" d="M 396.962382 203.76 
L 400.467898 203.76 
L 400.467898 203.76 
L 396.962382 203.76 
z
" style="fill:#808080;"/>
   </g>
   <g id="matplotlib.axis_3">
    <g id="xtick_7">
     <g id="line2d_16">
      <g>
       <use style="stroke:#000000;stroke-width:0.8;" x="190.575163" xlink:href="#mef4d95d8d8" y="203.76"/>
      </g>
     </g>
     <g id="text_16">
      <!-- 0 -->
      <g transform="translate(187.393913 218.358437)scale(0.1 -0.1)">
       <use xlink:href="#DejaVuSans-48"/>
      </g>
     </g>
    </g>
    <g id="xtick_8">
     <g id="line2d_17">
      <g>
       <use style="stroke:#000000;stroke-width:0.8;" x="234.394105" xlink:href="#mef4d95d8d8" y="203.76"/>
      </g>
     </g>
     <g id="text_17">
      <!-- 1 -->
      <g transform="translate(231.212855 218.358437)scale(0.1 -0.1)">
       <use xlink:href="#DejaVuSans-49"/>
      </g>
     </g>
    </g>
    <g id="xtick_9">
     <g id="line2d_18">
      <g>
       <use style="stroke:#000000;stroke-width:0.8;" x="278.213048" xlink:href="#mef4d95d8d8" y="203.76"/>
      </g>
     </g>
     <g id="text_18">
      <!-- 2 -->
      <g transform="translate(275.031798 218.358437)scale(0.1 -0.1)">
       <use xlink:href="#DejaVuSans-50"/>
      </g>
     </g>
    </g>
    <g id="xtick_10">
     <g id="line2d_19">
      <g>
       <use style="stroke:#000000;stroke-width:0.8;" x="322.031991" xlink:href="#mef4d95d8d8" y="203.76"/>
      </g>
     </g>
     <g id="text_19">
      <!-- 3 -->
      <g transform="translate(318.850741 218.358437)scale(0.1 -0.1)">
       <use xlink:href="#DejaVuSans-51"/>
      </g>
     </g>
    </g>
    <g id="xtick_11">
     <g id="line2d_20">
      <g>
       <use style="stroke:#000000;stroke-width:0.8;" x="365.850933" xlink:href="#mef4d95d8d8" y="203.76"/>
      </g>
     </g>
     <g id="text_20">
      <!-- 4 -->
      <g transform="translate(362.669683 218.358437)scale(0.1 -0.1)">
       <use xlink:href="#DejaVuSans-52"/>
      </g>
     </g>
    </g>
    <g id="xtick_12">
     <g id="line2d_21">
      <g>
       <use style="stroke:#000000;stroke-width:0.8;" x="409.669876" xlink:href="#mef4d95d8d8" y="203.76"/>
      </g>
     </g>
     <g id="text_21">
      <!-- 5 -->
      <g transform="translate(406.488626 218.358437)scale(0.1 -0.1)">
       <use xlink:href="#DejaVuSans-53"/>
      </g>
     </g>
    </g>
    <g id="text_22">
     <!-- MLE site rate -->
     <g transform="translate(263.116406 232.036562)scale(0.1 -0.1)">
      <use xlink:href="#DejaVuSans-77"/>
      <use x="86.279297" xlink:href="#DejaVuSans-76"/>
      <use x="141.992188" xlink:href="#DejaVuSans-69"/>
      <use x="205.175781" xlink:href="#DejaVuSans-32"/>
      <use x="236.962891" xlink:href="#DejaVuSans-115"/>
      <use x="289.0625" xlink:href="#DejaVuSans-105"/>
      <use x="316.845703" xlink:href="#DejaVuSans-116"/>
      <use x="356.054688" xlink:href="#DejaVuSans-101"/>
      <use x="417.578125" xlink:href="#DejaVuSans-32"/>
      <use x="449.365234" xlink:href="#DejaVuSans-114"/>
      <use x="490.478516" xlink:href="#DejaVuSans-97"/>
      <use x="551.757812" xlink:href="#DejaVuSans-116"/>
      <use x="590.966797" xlink:href="#DejaVuSans-101"/>
     </g>
    </g>
   </g>
   <g id="matplotlib.axis_4">
    <g id="ytick_7">
     <g id="line2d_22">
      <g>
       <use style="stroke:#000000;stroke-width:0.8;" x="180.540625" xlink:href="#m9d803595c8" y="203.76"/>
      </g>
     </g>
     <g id="text_23">
      <!-- 0 -->
      <g transform="translate(167.178125 207.559219)scale(0.1 -0.1)">
       <use xlink:href="#DejaVuSans-48"/>
      </g>
     </g>
    </g>
    <g id="ytick_8">
     <g id="line2d_23">
      <g>
       <use style="stroke:#000000;stroke-width:0.8;" x="180.540625" xlink:href="#m9d803595c8" y="180.603104"/>
      </g>
     </g>
     <g id="text_24">
      <!-- 2500 -->
      <g transform="translate(148.090625 184.402323)scale(0.1 -0.1)">
       <use xlink:href="#DejaVuSans-50"/>
       <use x="63.623047" xlink:href="#DejaVuSans-53"/>
       <use x="127.246094" xlink:href="#DejaVuSans-48"/>
       <use x="190.869141" xlink:href="#DejaVuSans-48"/>
      </g>
     </g>
    </g>
    <g id="ytick_9">
     <g id="line2d_24">
      <g>
       <use style="stroke:#000000;stroke-width:0.8;" x="180.540625" xlink:href="#m9d803595c8" y="157.446208"/>
      </g>
     </g>
     <g id="text_25">
      <!-- 5000 -->
      <g transform="translate(148.090625 161.245427)scale(0.1 -0.1)">
       <use xlink:href="#DejaVuSans-53"/>
       <use x="63.623047" xlink:href="#DejaVuSans-48"/>
       <use x="127.246094" xlink:href="#DejaVuSans-48"/>
       <use x="190.869141" xlink:href="#DejaVuSans-48"/>
      </g>
     </g>
    </g>
    <g id="ytick_10">
     <g id="line2d_25">
      <g>
       <use style="stroke:#000000;stroke-width:0.8;" x="180.540625" xlink:href="#m9d803595c8" y="134.289312"/>
      </g>
     </g>
     <g id="text_26">
      <!-- 7500 -->
      <defs>
       <path d="M 8.203125 72.90625 
L 55.078125 72.90625 
L 55.078125 68.703125 
L 28.609375 0 
L 18.3125 0 
L 43.21875 64.59375 
L 8.203125 64.59375 
z
" id="DejaVuSans-55"/>
      </defs>
      <g transform="translate(148.090625 138.088531)scale(0.1 -0.1)">
       <use xlink:href="#DejaVuSans-55"/>
       <use x="63.623047" xlink:href="#DejaVuSans-53"/>
       <use x="127.246094" xlink:href="#DejaVuSans-48"/>
       <use x="190.869141" xlink:href="#DejaVuSans-48"/>
      </g>
     </g>
    </g>
    <g id="ytick_11">
     <g id="line2d_26">
      <g>
       <use style="stroke:#000000;stroke-width:0.8;" x="180.540625" xlink:href="#m9d803595c8" y="111.132416"/>
      </g>
     </g>
     <g id="text_27">
      <!-- 10000 -->
      <g transform="translate(141.728125 114.931635)scale(0.1 -0.1)">
       <use xlink:href="#DejaVuSans-49"/>
       <use x="63.623047" xlink:href="#DejaVuSans-48"/>
       <use x="127.246094" xlink:href="#DejaVuSans-48"/>
       <use x="190.869141" xlink:href="#DejaVuSans-48"/>
       <use x="254.492188" xlink:href="#DejaVuSans-48"/>
      </g>
     </g>
    </g>
    <g id="ytick_12">
     <g id="line2d_27">
      <g>
       <use style="stroke:#000000;stroke-width:0.8;" x="180.540625" xlink:href="#m9d803595c8" y="87.97552"/>
      </g>
     </g>
     <g id="text_28">
      <!-- 12500 -->
      <g transform="translate(141.728125 91.774739)scale(0.1 -0.1)">
       <use xlink:href="#DejaVuSans-49"/>
       <use x="63.623047" xlink:href="#DejaVuSans-50"/>
       <use x="127.246094" xlink:href="#DejaVuSans-53"/>
       <use x="190.869141" xlink:href="#DejaVuSans-48"/>
       <use x="254.492188" xlink:href="#DejaVuSans-48"/>
      </g>
     </g>
    </g>
    <g id="ytick_13">
     <g id="line2d_28">
      <g>
       <use style="stroke:#000000;stroke-width:0.8;" x="180.540625" xlink:href="#m9d803595c8" y="64.818624"/>
      </g>
     </g>
     <g id="text_29">
      <!-- 15000 -->
      <g transform="translate(141.728125 68.617843)scale(0.1 -0.1)">
       <use xlink:href="#DejaVuSans-49"/>
       <use x="63.623047" xlink:href="#DejaVuSans-53"/>
       <use x="127.246094" xlink:href="#DejaVuSans-48"/>
       <use x="190.869141" xlink:href="#DejaVuSans-48"/>
       <use x="254.492188" xlink:href="#DejaVuSans-48"/>
      </g>
     </g>
    </g>
    <g id="ytick_14">
     <g id="line2d_29">
      <g>
       <use style="stroke:#000000;stroke-width:0.8;" x="180.540625" xlink:href="#m9d803595c8" y="41.661728"/>
      </g>
     </g>
     <g id="text_30">
      <!-- 17500 -->
      <g transform="translate(141.728125 45.460947)scale(0.1 -0.1)">
       <use xlink:href="#DejaVuSans-49"/>
       <use x="63.623047" xlink:href="#DejaVuSans-55"/>
       <use x="127.246094" xlink:href="#DejaVuSans-53"/>
       <use x="190.869141" xlink:href="#DejaVuSans-48"/>
       <use x="254.492188" xlink:href="#DejaVuSans-48"/>
      </g>
     </g>
    </g>
    <g id="text_31">
     <!-- Number of sites -->
     <g transform="translate(135.648438 157.07875)rotate(-90)scale(0.1 -0.1)">
      <use xlink:href="#DejaVuSans-78"/>
      <use x="74.804688" xlink:href="#DejaVuSans-117"/>
      <use x="138.183594" xlink:href="#DejaVuSans-109"/>
      <use x="235.595703" xlink:href="#DejaVuSans-98"/>
      <use x="299.072266" xlink:href="#DejaVuSans-101"/>
      <use x="360.595703" xlink:href="#DejaVuSans-114"/>
      <use x="401.708984" xlink:href="#DejaVuSans-32"/>
      <use x="433.496094" xlink:href="#DejaVuSans-111"/>
      <use x="494.677734" xlink:href="#DejaVuSans-102"/>
      <use x="529.882812" xlink:href="#DejaVuSans-32"/>
      <use x="561.669922" xlink:href="#DejaVuSans-115"/>
      <use x="613.769531" xlink:href="#DejaVuSans-105"/>
      <use x="641.552734" xlink:href="#DejaVuSans-116"/>
      <use x="680.761719" xlink:href="#DejaVuSans-101"/>
      <use x="742.285156" xlink:href="#DejaVuSans-115"/>
     </g>
    </g>
   </g>
   <g id="patch_165">
    <path d="M 180.540625 203.76 
L 180.540625 30.96 
" style="fill:none;stroke:#000000;stroke-linecap:square;stroke-linejoin:miter;stroke-width:0.8;"/>
   </g>
   <g id="patch_166">
    <path d="M 410.940625 203.76 
L 410.940625 30.96 
" style="fill:none;stroke:#000000;stroke-linecap:square;stroke-linejoin:miter;stroke-width:0.8;"/>
   </g>
   <g id="patch_167">
    <path d="M 180.540625 203.76 
L 410.940625 203.76 
" style="fill:none;stroke:#000000;stroke-linecap:square;stroke-linejoin:miter;stroke-width:0.8;"/>
   </g>
   <g id="patch_168">
    <path d="M 180.540625 30.96 
L 410.940625 30.96 
" style="fill:none;stroke:#000000;stroke-linecap:square;stroke-linejoin:miter;stroke-width:0.8;"/>
   </g>
  </g>
 </g>
 <defs>
  <clipPath id="p18099281c3">
   <rect height="292.84" width="386.53" x="59.690625" y="7.2"/>
  </clipPath>
  <clipPath id="p0fc8a698f4">
   <rect height="172.8" width="230.4" x="180.540625" y="30.96"/>
  </clipPath>
 </defs>
</svg>
