<?xml version="1.0" encoding="utf-8" standalone="no"?>
<!DOCTYPE svg PUBLIC "-//W3C//DTD SVG 1.1//EN"
  "http://www.w3.org/Graphics/SVG/1.1/DTD/svg11.dtd">
<svg xmlns:xlink="http://www.w3.org/1999/xlink" width="417.248pt" height="279.99625pt" viewBox="0 0 417.248 279.99625" xmlns="http://www.w3.org/2000/svg" version="1.1">
 <metadata>
  <rdf:RDF xmlns:dc="http://purl.org/dc/elements/1.1/" xmlns:cc="http://creativecommons.org/ns#" xmlns:rdf="http://www.w3.org/1999/02/22-rdf-syntax-ns#">
   <cc:Work>
    <dc:type rdf:resource="http://purl.org/dc/dcmitype/StillImage"/>
    <dc:date>2025-12-09T19:16:02.505308</dc:date>
    <dc:format>image/svg+xml</dc:format>
    <dc:creator>
     <cc:Agent>
      <dc:title>Matplotlib v3.7.5, https://matplotlib.org/</dc:title>
     </cc:Agent>
    </dc:creator>
   </cc:Work>
  </rdf:RDF>
 </metadata>
 <defs>
  <style type="text/css">*{stroke-linejoin: round; stroke-linecap: butt}</style>
 </defs>
 <g id="figure_1">
  <g id="patch_1">
   <path d="M 0 279.99625 
L 417.248 279.99625 
L 417.248 0 
L 0 0 
z
" style="fill: #ffffff"/>
  </g>
  <g id="axes_1">
   <g id="patch_2">
    <path d="M 40.603125 242.44 
L 235.613125 242.44 
L 235.613125 7.2 
L 40.603125 7.2 
z
" style="fill: #ffffff"/>
   </g>
   <g id="PathCollection_1">
    <defs>
     <path id="m7a1e340e57" d="M 0 2.236068 
C 0.593012 2.236068 1.161816 2.000462 1.581139 1.581139 
C 2.000462 1.161816 2.236068 0.593012 2.236068 0 
C 2.236068 -0.593012 2.000462 -1.161816 1.581139 -1.581139 
C 1.161816 -2.000462 0.593012 -2.236068 0 -2.236068 
C -0.593012 -2.236068 -1.161816 -2.000462 -1.581139 -1.581139 
C -2.000462 -1.161816 -2.236068 -0.593012 -2.236068 0 
C -2.236068 0.593012 -2.000462 1.161816 -1.581139 1.581139 
C -1.161816 2.000462 -0.593012 2.236068 0 2.236068 
z
" style="stroke: #ff0000"/>
    </defs>
    <g clip-path="url(#p7991aec6f5)">
     <use xlink:href="#m7a1e340e57" x="94.378964" y="55.123575" style="fill: #ff0000; stroke: #ff0000"/>
     <use xlink:href="#m7a1e340e57" x="66.209465" y="117.629197" style="fill: #ff0000; stroke: #ff0000"/>
     <use xlink:href="#m7a1e340e57" x="74.660315" y="77.661002" style="fill: #ff0000; stroke: #ff0000"/>
     <use xlink:href="#m7a1e340e57" x="55.074541" y="46.618764" style="fill: #ff0000; stroke: #ff0000"/>
     <use xlink:href="#m7a1e340e57" x="89.675189" y="56.134083" style="fill: #ff0000; stroke: #ff0000"/>
     <use xlink:href="#m7a1e340e57" x="51.327466" y="81.070842" style="fill: #ff0000; stroke: #ff0000"/>
     <use xlink:href="#m7a1e340e57" x="59.618866" y="138.836333" style="fill: #ff0000; stroke: #ff0000"/>
     <use xlink:href="#m7a1e340e57" x="60.894465" y="95.867549" style="fill: #ff0000; stroke: #ff0000"/>
     <use xlink:href="#m7a1e340e57" x="60.70844" y="212.447728" style="fill: #ff0000; stroke: #ff0000"/>
     <use xlink:href="#m7a1e340e57" x="60.628715" y="82.151052" style="fill: #ff0000; stroke: #ff0000"/>
     <use xlink:href="#m7a1e340e57" x="75.74989" y="85.903757" style="fill: #ff0000; stroke: #ff0000"/>
     <use xlink:href="#m7a1e340e57" x="61.18679" y="56.391734" style="fill: #ff0000; stroke: #ff0000"/>
     <use xlink:href="#m7a1e340e57" x="67.13959" y="176.154476" style="fill: #ff0000; stroke: #ff0000"/>
     <use xlink:href="#m7a1e340e57" x="58.555866" y="152.052066" style="fill: #ff0000; stroke: #ff0000"/>
     <use xlink:href="#m7a1e340e57" x="70.48804" y="78.548887" style="fill: #ff0000; stroke: #ff0000"/>
     <use xlink:href="#m7a1e340e57" x="59.725166" y="63.558422" style="fill: #ff0000; stroke: #ff0000"/>
     <use xlink:href="#m7a1e340e57" x="62.116915" y="212.305269" style="fill: #ff0000; stroke: #ff0000"/>
     <use xlink:href="#m7a1e340e57" x="50.689666" y="132.162953" style="fill: #ff0000; stroke: #ff0000"/>
     <use xlink:href="#m7a1e340e57" x="54.436741" y="51.361972" style="fill: #ff0000; stroke: #ff0000"/>
     <use xlink:href="#m7a1e340e57" x="55.951516" y="85.570203" style="fill: #ff0000; stroke: #ff0000"/>
     <use xlink:href="#m7a1e340e57" x="56.695616" y="224.102696" style="fill: #ff0000; stroke: #ff0000"/>
     <use xlink:href="#m7a1e340e57" x="72.82664" y="42.179085" style="fill: #ff0000; stroke: #ff0000"/>
     <use xlink:href="#m7a1e340e57" x="55.845216" y="45.02126" style="fill: #ff0000; stroke: #ff0000"/>
     <use xlink:href="#m7a1e340e57" x="59.698591" y="111.690451" style="fill: #ff0000; stroke: #ff0000"/>
     <use xlink:href="#m7a1e340e57" x="63.764565" y="93.624213" style="fill: #ff0000; stroke: #ff0000"/>
     <use xlink:href="#m7a1e340e57" x="71.28529" y="102.764881" style="fill: #ff0000; stroke: #ff0000"/>
     <use xlink:href="#m7a1e340e57" x="52.921966" y="93.676343" style="fill: #ff0000; stroke: #ff0000"/>
     <use xlink:href="#m7a1e340e57" x="64.80099" y="56.391734" style="fill: #ff0000; stroke: #ff0000"/>
     <use xlink:href="#m7a1e340e57" x="52.629641" y="175.182938" style="fill: #ff0000; stroke: #ff0000"/>
     <use xlink:href="#m7a1e340e57" x="82.048165" y="38.753603" style="fill: #ff0000; stroke: #ff0000"/>
     <use xlink:href="#m7a1e340e57" x="67.56479" y="145.470317" style="fill: #ff0000; stroke: #ff0000"/>
     <use xlink:href="#m7a1e340e57" x="61.45254" y="115.123456" style="fill: #ff0000; stroke: #ff0000"/>
     <use xlink:href="#m7a1e340e57" x="55.978091" y="129.471542" style="fill: #ff0000; stroke: #ff0000"/>
     <use xlink:href="#m7a1e340e57" x="59.220241" y="102.559318" style="fill: #ff0000; stroke: #ff0000"/>
     <use xlink:href="#m7a1e340e57" x="57.572591" y="171.39327" style="fill: #ff0000; stroke: #ff0000"/>
     <use xlink:href="#m7a1e340e57" x="60.70844" y="50.698106" style="fill: #ff0000; stroke: #ff0000"/>
     <use xlink:href="#m7a1e340e57" x="102.085714" y="43.375611" style="fill: #ff0000; stroke: #ff0000"/>
     <use xlink:href="#m7a1e340e57" x="78.93889" y="26.071214" style="fill: #ff0000; stroke: #ff0000"/>
     <use xlink:href="#m7a1e340e57" x="64.64154" y="32.433465" style="fill: #ff0000; stroke: #ff0000"/>
     <use xlink:href="#m7a1e340e57" x="68.654365" y="95.827485" style="fill: #ff0000; stroke: #ff0000"/>
     <use xlink:href="#m7a1e340e57" x="51.008566" y="119.869675" style="fill: #ff0000; stroke: #ff0000"/>
     <use xlink:href="#m7a1e340e57" x="60.76159" y="54.777976" style="fill: #ff0000; stroke: #ff0000"/>
     <use xlink:href="#m7a1e340e57" x="173.226986" y="107.145327" style="fill: #ff0000; stroke: #ff0000"/>
     <use xlink:href="#m7a1e340e57" x="53.294016" y="146.081333" style="fill: #ff0000; stroke: #ff0000"/>
     <use xlink:href="#m7a1e340e57" x="55.951516" y="98.848359" style="fill: #ff0000; stroke: #ff0000"/>
     <use xlink:href="#m7a1e340e57" x="74.63374" y="149.966111" style="fill: #ff0000; stroke: #ff0000"/>
     <use xlink:href="#m7a1e340e57" x="74.47429" y="128.271107" style="fill: #ff0000; stroke: #ff0000"/>
     <use xlink:href="#m7a1e340e57" x="56.376716" y="75.149311" style="fill: #ff0000; stroke: #ff0000"/>
     <use xlink:href="#m7a1e340e57" x="64.827565" y="17.892727" style="fill: #ff0000; stroke: #ff0000"/>
     <use xlink:href="#m7a1e340e57" x="57.120816" y="77.08111" style="fill: #ff0000; stroke: #ff0000"/>
     <use xlink:href="#m7a1e340e57" x="60.097216" y="59.914643" style="fill: #ff0000; stroke: #ff0000"/>
     <use xlink:href="#m7a1e340e57" x="70.64749" y="86.508488" style="fill: #ff0000; stroke: #ff0000"/>
     <use xlink:href="#m7a1e340e57" x="52.496766" y="177.859813" style="fill: #ff0000; stroke: #ff0000"/>
     <use xlink:href="#m7a1e340e57" x="75.351265" y="47.916036" style="fill: #ff0000; stroke: #ff0000"/>
     <use xlink:href="#m7a1e340e57" x="75.989065" y="61.179843" style="fill: #ff0000; stroke: #ff0000"/>
     <use xlink:href="#m7a1e340e57" x="65.040165" y="100.579951" style="fill: #ff0000; stroke: #ff0000"/>
     <use xlink:href="#m7a1e340e57" x="88.585614" y="67.03525" style="fill: #ff0000; stroke: #ff0000"/>
     <use xlink:href="#m7a1e340e57" x="65.70454" y="149.46816" style="fill: #ff0000; stroke: #ff0000"/>
     <use xlink:href="#m7a1e340e57" x="57.625741" y="60.987671" style="fill: #ff0000; stroke: #ff0000"/>
     <use xlink:href="#m7a1e340e57" x="76.22824" y="62.535719" style="fill: #ff0000; stroke: #ff0000"/>
     <use xlink:href="#m7a1e340e57" x="62.83444" y="82.961994" style="fill: #ff0000; stroke: #ff0000"/>
     <use xlink:href="#m7a1e340e57" x="61.744865" y="134.993572" style="fill: #ff0000; stroke: #ff0000"/>
     <use xlink:href="#m7a1e340e57" x="147.342937" y="111.183041" style="fill: #ff0000; stroke: #ff0000"/>
     <use xlink:href="#m7a1e340e57" x="62.329515" y="55.467551" style="fill: #ff0000; stroke: #ff0000"/>
     <use xlink:href="#m7a1e340e57" x="63.073615" y="67.975112" style="fill: #ff0000; stroke: #ff0000"/>
     <use xlink:href="#m7a1e340e57" x="65.731115" y="71.745016" style="fill: #ff0000; stroke: #ff0000"/>
     <use xlink:href="#m7a1e340e57" x="141.018087" y="33.109994" style="fill: #ff0000; stroke: #ff0000"/>
     <use xlink:href="#m7a1e340e57" x="56.164116" y="117.100338" style="fill: #ff0000; stroke: #ff0000"/>
     <use xlink:href="#m7a1e340e57" x="56.722191" y="192.396903" style="fill: #ff0000; stroke: #ff0000"/>
     <use xlink:href="#m7a1e340e57" x="58.768466" y="73.254119" style="fill: #ff0000; stroke: #ff0000"/>
     <use xlink:href="#m7a1e340e57" x="69.557915" y="83.805022" style="fill: #ff0000; stroke: #ff0000"/>
     <use xlink:href="#m7a1e340e57" x="83.66924" y="73.657427" style="fill: #ff0000; stroke: #ff0000"/>
     <use xlink:href="#m7a1e340e57" x="79.15149" y="66.392661" style="fill: #ff0000; stroke: #ff0000"/>
     <use xlink:href="#m7a1e340e57" x="54.994816" y="34.519404" style="fill: #ff0000; stroke: #ff0000"/>
     <use xlink:href="#m7a1e340e57" x="63.445665" y="145.595137" style="fill: #ff0000; stroke: #ff0000"/>
     <use xlink:href="#m7a1e340e57" x="56.429866" y="71.716803" style="fill: #ff0000; stroke: #ff0000"/>
     <use xlink:href="#m7a1e340e57" x="70.96639" y="107.217889" style="fill: #ff0000; stroke: #ff0000"/>
     <use xlink:href="#m7a1e340e57" x="49.467216" y="157.914694" style="fill: #ff0000; stroke: #ff0000"/>
     <use xlink:href="#m7a1e340e57" x="58.396416" y="137.267187" style="fill: #ff0000; stroke: #ff0000"/>
     <use xlink:href="#m7a1e340e57" x="66.28919" y="84.291657" style="fill: #ff0000; stroke: #ff0000"/>
     <use xlink:href="#m7a1e340e57" x="69.47819" y="101.706466" style="fill: #ff0000; stroke: #ff0000"/>
     <use xlink:href="#m7a1e340e57" x="56.483016" y="145.81623" style="fill: #ff0000; stroke: #ff0000"/>
     <use xlink:href="#m7a1e340e57" x="66.900415" y="55.203387" style="fill: #ff0000; stroke: #ff0000"/>
     <use xlink:href="#m7a1e340e57" x="74.607165" y="51.125114" style="fill: #ff0000; stroke: #ff0000"/>
     <use xlink:href="#m7a1e340e57" x="49.626666" y="100.440146" style="fill: #ff0000; stroke: #ff0000"/>
     <use xlink:href="#m7a1e340e57" x="61.585415" y="23.091536" style="fill: #ff0000; stroke: #ff0000"/>
     <use xlink:href="#m7a1e340e57" x="71.76364" y="89.132683" style="fill: #ff0000; stroke: #ff0000"/>
     <use xlink:href="#m7a1e340e57" x="53.533191" y="221.066266" style="fill: #ff0000; stroke: #ff0000"/>
     <use xlink:href="#m7a1e340e57" x="66.103165" y="126.809307" style="fill: #ff0000; stroke: #ff0000"/>
     <use xlink:href="#m7a1e340e57" x="101.208739" y="88.799631" style="fill: #ff0000; stroke: #ff0000"/>
     <use xlink:href="#m7a1e340e57" x="85.58264" y="79.419292" style="fill: #ff0000; stroke: #ff0000"/>
     <use xlink:href="#m7a1e340e57" x="60.38954" y="215.94259" style="fill: #ff0000; stroke: #ff0000"/>
     <use xlink:href="#m7a1e340e57" x="61.000765" y="122.14576" style="fill: #ff0000; stroke: #ff0000"/>
     <use xlink:href="#m7a1e340e57" x="226.749034" y="133.386166" style="fill: #ff0000; stroke: #ff0000"/>
     <use xlink:href="#m7a1e340e57" x="61.55884" y="139.52553" style="fill: #ff0000; stroke: #ff0000"/>
     <use xlink:href="#m7a1e340e57" x="68.25574" y="109.935215" style="fill: #ff0000; stroke: #ff0000"/>
     <use xlink:href="#m7a1e340e57" x="52.044991" y="117.192967" style="fill: #ff0000; stroke: #ff0000"/>
     <use xlink:href="#m7a1e340e57" x="58.476141" y="31.592824" style="fill: #ff0000; stroke: #ff0000"/>
     <use xlink:href="#m7a1e340e57" x="56.562741" y="58.811995" style="fill: #ff0000; stroke: #ff0000"/>
     <use xlink:href="#m7a1e340e57" x="78.327665" y="116.522065" style="fill: #ff0000; stroke: #ff0000"/>
    </g>
   </g>
   <g id="PathCollection_2">
    <defs>
     <path id="m02999b3a39" d="M 0 2.236068 
C 0.593012 2.236068 1.161816 2.000462 1.581139 1.581139 
C 2.000462 1.161816 2.236068 0.593012 2.236068 0 
C 2.236068 -0.593012 2.000462 -1.161816 1.581139 -1.581139 
C 1.161816 -2.000462 0.593012 -2.236068 0 -2.236068 
C -0.593012 -2.236068 -1.161816 -2.000462 -1.581139 -1.581139 
C -2.000462 -1.161816 -2.236068 -0.593012 -2.236068 0 
C -2.236068 0.593012 -2.000462 1.161816 -1.581139 1.581139 
C -1.161816 2.000462 -0.593012 2.236068 0 2.236068 
z
" style="stroke: #0000ff"/>
    </defs>
    <g clip-path="url(#p7991aec6f5)">
     <use xlink:href="#m02999b3a39" x="94.378964" y="231.417081" style="fill: #0000ff; stroke: #0000ff"/>
     <use xlink:href="#m02999b3a39" x="66.209465" y="186.413954" style="fill: #0000ff; stroke: #0000ff"/>
     <use xlink:href="#m02999b3a39" x="74.660315" y="208.881355" style="fill: #0000ff; stroke: #0000ff"/>
     <use xlink:href="#m02999b3a39" x="55.074541" y="207.913478" style="fill: #0000ff; stroke: #0000ff"/>
     <use xlink:href="#m02999b3a39" x="89.675189" y="212.210475" style="fill: #0000ff; stroke: #0000ff"/>
     <use xlink:href="#m02999b3a39" x="51.327466" y="185.811577" style="fill: #0000ff; stroke: #0000ff"/>
     <use xlink:href="#m02999b3a39" x="59.618866" y="135.122981" style="fill: #0000ff; stroke: #0000ff"/>
     <use xlink:href="#m02999b3a39" x="60.894465" y="209.733844" style="fill: #0000ff; stroke: #0000ff"/>
     <use xlink:href="#m02999b3a39" x="60.70844" y="100.599586" style="fill: #0000ff; stroke: #0000ff"/>
     <use xlink:href="#m02999b3a39" x="60.628715" y="213.631703" style="fill: #0000ff; stroke: #0000ff"/>
     <use xlink:href="#m02999b3a39" x="75.74989" y="205.927711" style="fill: #0000ff; stroke: #0000ff"/>
     <use xlink:href="#m02999b3a39" x="61.18679" y="213.937747" style="fill: #0000ff; stroke: #0000ff"/>
     <use xlink:href="#m02999b3a39" x="67.13959" y="147.318124" style="fill: #0000ff; stroke: #0000ff"/>
     <use xlink:href="#m02999b3a39" x="58.555866" y="175.186868" style="fill: #0000ff; stroke: #0000ff"/>
     <use xlink:href="#m02999b3a39" x="70.48804" y="203.41384" style="fill: #0000ff; stroke: #0000ff"/>
     <use xlink:href="#m02999b3a39" x="59.725166" y="215.102045" style="fill: #0000ff; stroke: #0000ff"/>
     <use xlink:href="#m02999b3a39" x="62.116915" y="121.131278" style="fill: #0000ff; stroke: #0000ff"/>
     <use xlink:href="#m02999b3a39" x="50.689666" y="175.604602" style="fill: #0000ff; stroke: #0000ff"/>
     <use xlink:href="#m02999b3a39" x="54.436741" y="218.656203" style="fill: #0000ff; stroke: #0000ff"/>
     <use xlink:href="#m02999b3a39" x="55.951516" y="217.087179" style="fill: #0000ff; stroke: #0000ff"/>
     <use xlink:href="#m02999b3a39" x="56.695616" y="46.811715" style="fill: #0000ff; stroke: #0000ff"/>
     <use xlink:href="#m02999b3a39" x="72.82664" y="220.722865" style="fill: #0000ff; stroke: #0000ff"/>
     <use xlink:href="#m02999b3a39" x="55.845216" y="229.69279" style="fill: #0000ff; stroke: #0000ff"/>
     <use xlink:href="#m02999b3a39" x="59.698591" y="160.148091" style="fill: #0000ff; stroke: #0000ff"/>
     <use xlink:href="#m02999b3a39" x="63.764565" y="197.837366" style="fill: #0000ff; stroke: #0000ff"/>
     <use xlink:href="#m02999b3a39" x="71.28529" y="186.502803" style="fill: #0000ff; stroke: #0000ff"/>
     <use xlink:href="#m02999b3a39" x="52.921966" y="213.677059" style="fill: #0000ff; stroke: #0000ff"/>
     <use xlink:href="#m02999b3a39" x="64.80099" y="210.583593" style="fill: #0000ff; stroke: #0000ff"/>
     <use xlink:href="#m02999b3a39" x="52.629641" y="138.482767" style="fill: #0000ff; stroke: #0000ff"/>
     <use xlink:href="#m02999b3a39" x="82.048165" y="222.215109" style="fill: #0000ff; stroke: #0000ff"/>
     <use xlink:href="#m02999b3a39" x="67.56479" y="141.936278" style="fill: #0000ff; stroke: #0000ff"/>
     <use xlink:href="#m02999b3a39" x="61.45254" y="183.543382" style="fill: #0000ff; stroke: #0000ff"/>
     <use xlink:href="#m02999b3a39" x="55.978091" y="171.093646" style="fill: #0000ff; stroke: #0000ff"/>
     <use xlink:href="#m02999b3a39" x="59.220241" y="216.797378" style="fill: #0000ff; stroke: #0000ff"/>
     <use xlink:href="#m02999b3a39" x="57.572591" y="195.374633" style="fill: #0000ff; stroke: #0000ff"/>
     <use xlink:href="#m02999b3a39" x="60.70844" y="211.587358" style="fill: #0000ff; stroke: #0000ff"/>
     <use xlink:href="#m02999b3a39" x="102.085714" y="218.050702" style="fill: #0000ff; stroke: #0000ff"/>
     <use xlink:href="#m02999b3a39" x="78.93889" y="223.859719" style="fill: #0000ff; stroke: #0000ff"/>
     <use xlink:href="#m02999b3a39" x="64.64154" y="223.999537" style="fill: #0000ff; stroke: #0000ff"/>
     <use xlink:href="#m02999b3a39" x="68.654365" y="195.105607" style="fill: #0000ff; stroke: #0000ff"/>
     <use xlink:href="#m02999b3a39" x="51.008566" y="205.11252" style="fill: #0000ff; stroke: #0000ff"/>
     <use xlink:href="#m02999b3a39" x="60.76159" y="206.521583" style="fill: #0000ff; stroke: #0000ff"/>
     <use xlink:href="#m02999b3a39" x="173.226986" y="195.034472" style="fill: #0000ff; stroke: #0000ff"/>
     <use xlink:href="#m02999b3a39" x="53.294016" y="131.507088" style="fill: #0000ff; stroke: #0000ff"/>
     <use xlink:href="#m02999b3a39" x="55.951516" y="221.513231" style="fill: #0000ff; stroke: #0000ff"/>
     <use xlink:href="#m02999b3a39" x="74.63374" y="169.96734" style="fill: #0000ff; stroke: #0000ff"/>
     <use xlink:href="#m02999b3a39" x="74.47429" y="127.824161" style="fill: #0000ff; stroke: #0000ff"/>
     <use xlink:href="#m02999b3a39" x="56.376716" y="195.297752" style="fill: #0000ff; stroke: #0000ff"/>
     <use xlink:href="#m02999b3a39" x="64.827565" y="225.103595" style="fill: #0000ff; stroke: #0000ff"/>
     <use xlink:href="#m02999b3a39" x="57.120816" y="189.313888" style="fill: #0000ff; stroke: #0000ff"/>
     <use xlink:href="#m02999b3a39" x="60.097216" y="207.956018" style="fill: #0000ff; stroke: #0000ff"/>
     <use xlink:href="#m02999b3a39" x="70.64749" y="180.909721" style="fill: #0000ff; stroke: #0000ff"/>
     <use xlink:href="#m02999b3a39" x="52.496766" y="136.589459" style="fill: #0000ff; stroke: #0000ff"/>
     <use xlink:href="#m02999b3a39" x="75.351265" y="222.468216" style="fill: #0000ff; stroke: #0000ff"/>
     <use xlink:href="#m02999b3a39" x="75.989065" y="213.999806" style="fill: #0000ff; stroke: #0000ff"/>
     <use xlink:href="#m02999b3a39" x="65.040165" y="189.211184" style="fill: #0000ff; stroke: #0000ff"/>
     <use xlink:href="#m02999b3a39" x="88.585614" y="209.42146" style="fill: #0000ff; stroke: #0000ff"/>
     <use xlink:href="#m02999b3a39" x="65.70454" y="186.827556" style="fill: #0000ff; stroke: #0000ff"/>
     <use xlink:href="#m02999b3a39" x="57.625741" y="194.461338" style="fill: #0000ff; stroke: #0000ff"/>
     <use xlink:href="#m02999b3a39" x="76.22824" y="209.099504" style="fill: #0000ff; stroke: #0000ff"/>
     <use xlink:href="#m02999b3a39" x="62.83444" y="201.155368" style="fill: #0000ff; stroke: #0000ff"/>
     <use xlink:href="#m02999b3a39" x="61.744865" y="160.330688" style="fill: #0000ff; stroke: #0000ff"/>
     <use xlink:href="#m02999b3a39" x="147.342937" y="182.445128" style="fill: #0000ff; stroke: #0000ff"/>
     <use xlink:href="#m02999b3a39" x="62.329515" y="207.92351" style="fill: #0000ff; stroke: #0000ff"/>
     <use xlink:href="#m02999b3a39" x="63.073615" y="204.202623" style="fill: #0000ff; stroke: #0000ff"/>
     <use xlink:href="#m02999b3a39" x="65.731115" y="202.006692" style="fill: #0000ff; stroke: #0000ff"/>
     <use xlink:href="#m02999b3a39" x="141.018087" y="220.143263" style="fill: #0000ff; stroke: #0000ff"/>
     <use xlink:href="#m02999b3a39" x="56.164116" y="206.278055" style="fill: #0000ff; stroke: #0000ff"/>
     <use xlink:href="#m02999b3a39" x="56.722191" y="166.543824" style="fill: #0000ff; stroke: #0000ff"/>
     <use xlink:href="#m02999b3a39" x="58.768466" y="210.772038" style="fill: #0000ff; stroke: #0000ff"/>
     <use xlink:href="#m02999b3a39" x="69.557915" y="211.405746" style="fill: #0000ff; stroke: #0000ff"/>
     <use xlink:href="#m02999b3a39" x="83.66924" y="221.177104" style="fill: #0000ff; stroke: #0000ff"/>
     <use xlink:href="#m02999b3a39" x="79.15149" y="203.173705" style="fill: #0000ff; stroke: #0000ff"/>
     <use xlink:href="#m02999b3a39" x="54.994816" y="220.259642" style="fill: #0000ff; stroke: #0000ff"/>
     <use xlink:href="#m02999b3a39" x="63.445665" y="159.765942" style="fill: #0000ff; stroke: #0000ff"/>
     <use xlink:href="#m02999b3a39" x="56.429866" y="216.621279" style="fill: #0000ff; stroke: #0000ff"/>
     <use xlink:href="#m02999b3a39" x="70.96639" y="198.639057" style="fill: #0000ff; stroke: #0000ff"/>
     <use xlink:href="#m02999b3a39" x="49.467216" y="177.257326" style="fill: #0000ff; stroke: #0000ff"/>
     <use xlink:href="#m02999b3a39" x="58.396416" y="200.930953" style="fill: #0000ff; stroke: #0000ff"/>
     <use xlink:href="#m02999b3a39" x="66.28919" y="196.921955" style="fill: #0000ff; stroke: #0000ff"/>
     <use xlink:href="#m02999b3a39" x="69.47819" y="169.9174" style="fill: #0000ff; stroke: #0000ff"/>
     <use xlink:href="#m02999b3a39" x="56.483016" y="190.87303" style="fill: #0000ff; stroke: #0000ff"/>
     <use xlink:href="#m02999b3a39" x="66.900415" y="212.869234" style="fill: #0000ff; stroke: #0000ff"/>
     <use xlink:href="#m02999b3a39" x="74.607165" y="231.747273" style="fill: #0000ff; stroke: #0000ff"/>
     <use xlink:href="#m02999b3a39" x="49.626666" y="167.825794" style="fill: #0000ff; stroke: #0000ff"/>
     <use xlink:href="#m02999b3a39" x="61.585415" y="230.276836" style="fill: #0000ff; stroke: #0000ff"/>
     <use xlink:href="#m02999b3a39" x="71.76364" y="189.344669" style="fill: #0000ff; stroke: #0000ff"/>
     <use xlink:href="#m02999b3a39" x="53.533191" y="128.858301" style="fill: #0000ff; stroke: #0000ff"/>
     <use xlink:href="#m02999b3a39" x="66.103165" y="176.379268" style="fill: #0000ff; stroke: #0000ff"/>
     <use xlink:href="#m02999b3a39" x="101.208739" y="201.853283" style="fill: #0000ff; stroke: #0000ff"/>
     <use xlink:href="#m02999b3a39" x="85.58264" y="216.940518" style="fill: #0000ff; stroke: #0000ff"/>
     <use xlink:href="#m02999b3a39" x="60.38954" y="90.655086" style="fill: #0000ff; stroke: #0000ff"/>
     <use xlink:href="#m02999b3a39" x="61.000765" y="174.0392" style="fill: #0000ff; stroke: #0000ff"/>
     <use xlink:href="#m02999b3a39" x="226.749034" y="201.255331" style="fill: #0000ff; stroke: #0000ff"/>
     <use xlink:href="#m02999b3a39" x="61.55884" y="155.802806" style="fill: #0000ff; stroke: #0000ff"/>
     <use xlink:href="#m02999b3a39" x="68.25574" y="195.279059" style="fill: #0000ff; stroke: #0000ff"/>
     <use xlink:href="#m02999b3a39" x="52.044991" y="197.494198" style="fill: #0000ff; stroke: #0000ff"/>
     <use xlink:href="#m02999b3a39" x="58.476141" y="229.478" style="fill: #0000ff; stroke: #0000ff"/>
     <use xlink:href="#m02999b3a39" x="56.562741" y="199.537914" style="fill: #0000ff; stroke: #0000ff"/>
     <use xlink:href="#m02999b3a39" x="78.327665" y="189.797758" style="fill: #0000ff; stroke: #0000ff"/>
    </g>
   </g>
   <g id="matplotlib.axis_1">
    <g id="xtick_1">
     <g id="line2d_1">
      <path d="M 45.826441 242.44 
L 45.826441 7.2 
" clip-path="url(#p7991aec6f5)" style="fill: none; stroke-dasharray: 0.8,1.32; stroke-dashoffset: 0; stroke: #b0b0b0; stroke-width: 0.8"/>
     </g>
     <g id="line2d_2">
      <defs>
       <path id="m1c7e65055d" d="M 0 0 
L 0 3.5 
" style="stroke: #000000; stroke-width: 0.8"/>
      </defs>
      <g>
       <use xlink:href="#m1c7e65055d" x="45.826441" y="242.44" style="stroke: #000000; stroke-width: 0.8"/>
      </g>
     </g>
     <g id="text_1">
      <!-- 0 -->
      <g transform="translate(42.645191 257.038437) scale(0.1 -0.1)">
       <defs>
        <path id="DejaVuSans-30" d="M 2034 4250 
Q 1547 4250 1301 3770 
Q 1056 3291 1056 2328 
Q 1056 1369 1301 889 
Q 1547 409 2034 409 
Q 2525 409 2770 889 
Q 3016 1369 3016 2328 
Q 3016 3291 2770 3770 
Q 2525 4250 2034 4250 
z
M 2034 4750 
Q 2819 4750 3233 4129 
Q 3647 3509 3647 2328 
Q 3647 1150 3233 529 
Q 2819 -91 2034 -91 
Q 1250 -91 836 529 
Q 422 1150 422 2328 
Q 422 3509 836 4129 
Q 1250 4750 2034 4750 
z
" transform="scale(0.015625)"/>
       </defs>
       <use xlink:href="#DejaVuSans-30"/>
      </g>
     </g>
    </g>
    <g id="xtick_2">
     <g id="line2d_3">
      <path d="M 98.976439 242.44 
L 98.976439 7.2 
" clip-path="url(#p7991aec6f5)" style="fill: none; stroke-dasharray: 0.8,1.32; stroke-dashoffset: 0; stroke: #b0b0b0; stroke-width: 0.8"/>
     </g>
     <g id="line2d_4">
      <g>
       <use xlink:href="#m1c7e65055d" x="98.976439" y="242.44" style="stroke: #000000; stroke-width: 0.8"/>
      </g>
     </g>
     <g id="text_2">
      <!-- 2000 -->
      <g transform="translate(86.251439 257.038437) scale(0.1 -0.1)">
       <defs>
        <path id="DejaVuSans-32" d="M 1228 531 
L 3431 531 
L 3431 0 
L 469 0 
L 469 531 
Q 828 903 1448 1529 
Q 2069 2156 2228 2338 
Q 2531 2678 2651 2914 
Q 2772 3150 2772 3378 
Q 2772 3750 2511 3984 
Q 2250 4219 1831 4219 
Q 1534 4219 1204 4116 
Q 875 4013 500 3803 
L 500 4441 
Q 881 4594 1212 4672 
Q 1544 4750 1819 4750 
Q 2544 4750 2975 4387 
Q 3406 4025 3406 3419 
Q 3406 3131 3298 2873 
Q 3191 2616 2906 2266 
Q 2828 2175 2409 1742 
Q 1991 1309 1228 531 
z
" transform="scale(0.015625)"/>
       </defs>
       <use xlink:href="#DejaVuSans-32"/>
       <use xlink:href="#DejaVuSans-30" x="63.623047"/>
       <use xlink:href="#DejaVuSans-30" x="127.246094"/>
       <use xlink:href="#DejaVuSans-30" x="190.869141"/>
      </g>
     </g>
    </g>
    <g id="xtick_3">
     <g id="line2d_5">
      <path d="M 152.126437 242.44 
L 152.126437 7.2 
" clip-path="url(#p7991aec6f5)" style="fill: none; stroke-dasharray: 0.8,1.32; stroke-dashoffset: 0; stroke: #b0b0b0; stroke-width: 0.8"/>
     </g>
     <g id="line2d_6">
      <g>
       <use xlink:href="#m1c7e65055d" x="152.126437" y="242.44" style="stroke: #000000; stroke-width: 0.8"/>
      </g>
     </g>
     <g id="text_3">
      <!-- 4000 -->
      <g transform="translate(139.401437 257.038437) scale(0.1 -0.1)">
       <defs>
        <path id="DejaVuSans-34" d="M 2419 4116 
L 825 1625 
L 2419 1625 
L 2419 4116 
z
M 2253 4666 
L 3047 4666 
L 3047 1625 
L 3713 1625 
L 3713 1100 
L 3047 1100 
L 3047 0 
L 2419 0 
L 2419 1100 
L 313 1100 
L 313 1709 
L 2253 4666 
z
" transform="scale(0.015625)"/>
       </defs>
       <use xlink:href="#DejaVuSans-34"/>
       <use xlink:href="#DejaVuSans-30" x="63.623047"/>
       <use xlink:href="#DejaVuSans-30" x="127.246094"/>
       <use xlink:href="#DejaVuSans-30" x="190.869141"/>
      </g>
     </g>
    </g>
    <g id="xtick_4">
     <g id="line2d_7">
      <path d="M 205.276435 242.44 
L 205.276435 7.2 
" clip-path="url(#p7991aec6f5)" style="fill: none; stroke-dasharray: 0.8,1.32; stroke-dashoffset: 0; stroke: #b0b0b0; stroke-width: 0.8"/>
     </g>
     <g id="line2d_8">
      <g>
       <use xlink:href="#m1c7e65055d" x="205.276435" y="242.44" style="stroke: #000000; stroke-width: 0.8"/>
      </g>
     </g>
     <g id="text_4">
      <!-- 6000 -->
      <g transform="translate(192.551435 257.038437) scale(0.1 -0.1)">
       <defs>
        <path id="DejaVuSans-36" d="M 2113 2584 
Q 1688 2584 1439 2293 
Q 1191 2003 1191 1497 
Q 1191 994 1439 701 
Q 1688 409 2113 409 
Q 2538 409 2786 701 
Q 3034 994 3034 1497 
Q 3034 2003 2786 2293 
Q 2538 2584 2113 2584 
z
M 3366 4563 
L 3366 3988 
Q 3128 4100 2886 4159 
Q 2644 4219 2406 4219 
Q 1781 4219 1451 3797 
Q 1122 3375 1075 2522 
Q 1259 2794 1537 2939 
Q 1816 3084 2150 3084 
Q 2853 3084 3261 2657 
Q 3669 2231 3669 1497 
Q 3669 778 3244 343 
Q 2819 -91 2113 -91 
Q 1303 -91 875 529 
Q 447 1150 447 2328 
Q 447 3434 972 4092 
Q 1497 4750 2381 4750 
Q 2619 4750 2861 4703 
Q 3103 4656 3366 4563 
z
" transform="scale(0.015625)"/>
       </defs>
       <use xlink:href="#DejaVuSans-36"/>
       <use xlink:href="#DejaVuSans-30" x="63.623047"/>
       <use xlink:href="#DejaVuSans-30" x="127.246094"/>
       <use xlink:href="#DejaVuSans-30" x="190.869141"/>
      </g>
     </g>
    </g>
    <g id="text_5">
     <!-- MSA length -->
     <g transform="translate(109.579219 270.716562) scale(0.1 -0.1)">
      <defs>
       <path id="DejaVuSans-4d" d="M 628 4666 
L 1569 4666 
L 2759 1491 
L 3956 4666 
L 4897 4666 
L 4897 0 
L 4281 0 
L 4281 4097 
L 3078 897 
L 2444 897 
L 1241 4097 
L 1241 0 
L 628 0 
L 628 4666 
z
" transform="scale(0.015625)"/>
       <path id="DejaVuSans-53" d="M 3425 4513 
L 3425 3897 
Q 3066 4069 2747 4153 
Q 2428 4238 2131 4238 
Q 1616 4238 1336 4038 
Q 1056 3838 1056 3469 
Q 1056 3159 1242 3001 
Q 1428 2844 1947 2747 
L 2328 2669 
Q 3034 2534 3370 2195 
Q 3706 1856 3706 1288 
Q 3706 609 3251 259 
Q 2797 -91 1919 -91 
Q 1588 -91 1214 -16 
Q 841 59 441 206 
L 441 856 
Q 825 641 1194 531 
Q 1563 422 1919 422 
Q 2459 422 2753 634 
Q 3047 847 3047 1241 
Q 3047 1584 2836 1778 
Q 2625 1972 2144 2069 
L 1759 2144 
Q 1053 2284 737 2584 
Q 422 2884 422 3419 
Q 422 4038 858 4394 
Q 1294 4750 2059 4750 
Q 2388 4750 2728 4690 
Q 3069 4631 3425 4513 
z
" transform="scale(0.015625)"/>
       <path id="DejaVuSans-41" d="M 2188 4044 
L 1331 1722 
L 3047 1722 
L 2188 4044 
z
M 1831 4666 
L 2547 4666 
L 4325 0 
L 3669 0 
L 3244 1197 
L 1141 1197 
L 716 0 
L 50 0 
L 1831 4666 
z
" transform="scale(0.015625)"/>
       <path id="DejaVuSans-20" transform="scale(0.015625)"/>
       <path id="DejaVuSans-6c" d="M 603 4863 
L 1178 4863 
L 1178 0 
L 603 0 
L 603 4863 
z
" transform="scale(0.015625)"/>
       <path id="DejaVuSans-65" d="M 3597 1894 
L 3597 1613 
L 953 1613 
Q 991 1019 1311 708 
Q 1631 397 2203 397 
Q 2534 397 2845 478 
Q 3156 559 3463 722 
L 3463 178 
Q 3153 47 2828 -22 
Q 2503 -91 2169 -91 
Q 1331 -91 842 396 
Q 353 884 353 1716 
Q 353 2575 817 3079 
Q 1281 3584 2069 3584 
Q 2775 3584 3186 3129 
Q 3597 2675 3597 1894 
z
M 3022 2063 
Q 3016 2534 2758 2815 
Q 2500 3097 2075 3097 
Q 1594 3097 1305 2825 
Q 1016 2553 972 2059 
L 3022 2063 
z
" transform="scale(0.015625)"/>
       <path id="DejaVuSans-6e" d="M 3513 2113 
L 3513 0 
L 2938 0 
L 2938 2094 
Q 2938 2591 2744 2837 
Q 2550 3084 2163 3084 
Q 1697 3084 1428 2787 
Q 1159 2491 1159 1978 
L 1159 0 
L 581 0 
L 581 3500 
L 1159 3500 
L 1159 2956 
Q 1366 3272 1645 3428 
Q 1925 3584 2291 3584 
Q 2894 3584 3203 3211 
Q 3513 2838 3513 2113 
z
" transform="scale(0.015625)"/>
       <path id="DejaVuSans-67" d="M 2906 1791 
Q 2906 2416 2648 2759 
Q 2391 3103 1925 3103 
Q 1463 3103 1205 2759 
Q 947 2416 947 1791 
Q 947 1169 1205 825 
Q 1463 481 1925 481 
Q 2391 481 2648 825 
Q 2906 1169 2906 1791 
z
M 3481 434 
Q 3481 -459 3084 -895 
Q 2688 -1331 1869 -1331 
Q 1566 -1331 1297 -1286 
Q 1028 -1241 775 -1147 
L 775 -588 
Q 1028 -725 1275 -790 
Q 1522 -856 1778 -856 
Q 2344 -856 2625 -561 
Q 2906 -266 2906 331 
L 2906 616 
Q 2728 306 2450 153 
Q 2172 0 1784 0 
Q 1141 0 747 490 
Q 353 981 353 1791 
Q 353 2603 747 3093 
Q 1141 3584 1784 3584 
Q 2172 3584 2450 3431 
Q 2728 3278 2906 2969 
L 2906 3500 
L 3481 3500 
L 3481 434 
z
" transform="scale(0.015625)"/>
       <path id="DejaVuSans-74" d="M 1172 4494 
L 1172 3500 
L 2356 3500 
L 2356 3053 
L 1172 3053 
L 1172 1153 
Q 1172 725 1289 603 
Q 1406 481 1766 481 
L 2356 481 
L 2356 0 
L 1766 0 
Q 1100 0 847 248 
Q 594 497 594 1153 
L 594 3053 
L 172 3053 
L 172 3500 
L 594 3500 
L 594 4494 
L 1172 4494 
z
" transform="scale(0.015625)"/>
       <path id="DejaVuSans-68" d="M 3513 2113 
L 3513 0 
L 2938 0 
L 2938 2094 
Q 2938 2591 2744 2837 
Q 2550 3084 2163 3084 
Q 1697 3084 1428 2787 
Q 1159 2491 1159 1978 
L 1159 0 
L 581 0 
L 581 4863 
L 1159 4863 
L 1159 2956 
Q 1366 3272 1645 3428 
Q 1925 3584 2291 3584 
Q 2894 3584 3203 3211 
Q 3513 2838 3513 2113 
z
" transform="scale(0.015625)"/>
      </defs>
      <use xlink:href="#DejaVuSans-4d"/>
      <use xlink:href="#DejaVuSans-53" x="86.279297"/>
      <use xlink:href="#DejaVuSans-41" x="151.630859"/>
      <use xlink:href="#DejaVuSans-20" x="220.039062"/>
      <use xlink:href="#DejaVuSans-6c" x="251.826172"/>
      <use xlink:href="#DejaVuSans-65" x="279.609375"/>
      <use xlink:href="#DejaVuSans-6e" x="341.132812"/>
      <use xlink:href="#DejaVuSans-67" x="404.511719"/>
      <use xlink:href="#DejaVuSans-74" x="467.988281"/>
      <use xlink:href="#DejaVuSans-68" x="507.197266"/>
     </g>
    </g>
   </g>
   <g id="matplotlib.axis_2">
    <g id="ytick_1">
     <g id="line2d_9">
      <path d="M 40.603125 233.526801 
L 235.613125 233.526801 
" clip-path="url(#p7991aec6f5)" style="fill: none; stroke-dasharray: 0.8,1.32; stroke-dashoffset: 0; stroke: #b0b0b0; stroke-width: 0.8"/>
     </g>
     <g id="line2d_10">
      <defs>
       <path id="mf6a0362962" d="M 0 0 
L -3.5 0 
" style="stroke: #000000; stroke-width: 0.8"/>
      </defs>
      <g>
       <use xlink:href="#mf6a0362962" x="40.603125" y="233.526801" style="stroke: #000000; stroke-width: 0.8"/>
      </g>
     </g>
     <g id="text_6">
      <!-- 0 -->
      <g transform="translate(27.240625 237.32602) scale(0.1 -0.1)">
       <use xlink:href="#DejaVuSans-30"/>
      </g>
     </g>
    </g>
    <g id="ytick_2">
     <g id="line2d_11">
      <path d="M 40.603125 185.346063 
L 235.613125 185.346063 
" clip-path="url(#p7991aec6f5)" style="fill: none; stroke-dasharray: 0.8,1.32; stroke-dashoffset: 0; stroke: #b0b0b0; stroke-width: 0.8"/>
     </g>
     <g id="line2d_12">
      <g>
       <use xlink:href="#mf6a0362962" x="40.603125" y="185.346063" style="stroke: #000000; stroke-width: 0.8"/>
      </g>
     </g>
     <g id="text_7">
      <!-- 20 -->
      <g transform="translate(20.878125 189.145282) scale(0.1 -0.1)">
       <use xlink:href="#DejaVuSans-32"/>
       <use xlink:href="#DejaVuSans-30" x="63.623047"/>
      </g>
     </g>
    </g>
    <g id="ytick_3">
     <g id="line2d_13">
      <path d="M 40.603125 137.165325 
L 235.613125 137.165325 
" clip-path="url(#p7991aec6f5)" style="fill: none; stroke-dasharray: 0.8,1.32; stroke-dashoffset: 0; stroke: #b0b0b0; stroke-width: 0.8"/>
     </g>
     <g id="line2d_14">
      <g>
       <use xlink:href="#mf6a0362962" x="40.603125" y="137.165325" style="stroke: #000000; stroke-width: 0.8"/>
      </g>
     </g>
     <g id="text_8">
      <!-- 40 -->
      <g transform="translate(20.878125 140.964543) scale(0.1 -0.1)">
       <use xlink:href="#DejaVuSans-34"/>
       <use xlink:href="#DejaVuSans-30" x="63.623047"/>
      </g>
     </g>
    </g>
    <g id="ytick_4">
     <g id="line2d_15">
      <path d="M 40.603125 88.984586 
L 235.613125 88.984586 
" clip-path="url(#p7991aec6f5)" style="fill: none; stroke-dasharray: 0.8,1.32; stroke-dashoffset: 0; stroke: #b0b0b0; stroke-width: 0.8"/>
     </g>
     <g id="line2d_16">
      <g>
       <use xlink:href="#mf6a0362962" x="40.603125" y="88.984586" style="stroke: #000000; stroke-width: 0.8"/>
      </g>
     </g>
     <g id="text_9">
      <!-- 60 -->
      <g transform="translate(20.878125 92.783805) scale(0.1 -0.1)">
       <use xlink:href="#DejaVuSans-36"/>
       <use xlink:href="#DejaVuSans-30" x="63.623047"/>
      </g>
     </g>
    </g>
    <g id="ytick_5">
     <g id="line2d_17">
      <path d="M 40.603125 40.803848 
L 235.613125 40.803848 
" clip-path="url(#p7991aec6f5)" style="fill: none; stroke-dasharray: 0.8,1.32; stroke-dashoffset: 0; stroke: #b0b0b0; stroke-width: 0.8"/>
     </g>
     <g id="line2d_18">
      <g>
       <use xlink:href="#mf6a0362962" x="40.603125" y="40.803848" style="stroke: #000000; stroke-width: 0.8"/>
      </g>
     </g>
     <g id="text_10">
      <!-- 80 -->
      <g transform="translate(20.878125 44.603066) scale(0.1 -0.1)">
       <defs>
        <path id="DejaVuSans-38" d="M 2034 2216 
Q 1584 2216 1326 1975 
Q 1069 1734 1069 1313 
Q 1069 891 1326 650 
Q 1584 409 2034 409 
Q 2484 409 2743 651 
Q 3003 894 3003 1313 
Q 3003 1734 2745 1975 
Q 2488 2216 2034 2216 
z
M 1403 2484 
Q 997 2584 770 2862 
Q 544 3141 544 3541 
Q 544 4100 942 4425 
Q 1341 4750 2034 4750 
Q 2731 4750 3128 4425 
Q 3525 4100 3525 3541 
Q 3525 3141 3298 2862 
Q 3072 2584 2669 2484 
Q 3125 2378 3379 2068 
Q 3634 1759 3634 1313 
Q 3634 634 3220 271 
Q 2806 -91 2034 -91 
Q 1263 -91 848 271 
Q 434 634 434 1313 
Q 434 1759 690 2068 
Q 947 2378 1403 2484 
z
M 1172 3481 
Q 1172 3119 1398 2916 
Q 1625 2713 2034 2713 
Q 2441 2713 2670 2916 
Q 2900 3119 2900 3481 
Q 2900 3844 2670 4047 
Q 2441 4250 2034 4250 
Q 1625 4250 1398 4047 
Q 1172 3844 1172 3481 
z
" transform="scale(0.015625)"/>
       </defs>
       <use xlink:href="#DejaVuSans-38"/>
       <use xlink:href="#DejaVuSans-30" x="63.623047"/>
      </g>
     </g>
    </g>
    <g id="text_11">
     <!-- Gap/Identity percentage -->
     <g transform="translate(14.798438 185.8325) rotate(-90) scale(0.1 -0.1)">
      <defs>
       <path id="DejaVuSans-47" d="M 3809 666 
L 3809 1919 
L 2778 1919 
L 2778 2438 
L 4434 2438 
L 4434 434 
Q 4069 175 3628 42 
Q 3188 -91 2688 -91 
Q 1594 -91 976 548 
Q 359 1188 359 2328 
Q 359 3472 976 4111 
Q 1594 4750 2688 4750 
Q 3144 4750 3555 4637 
Q 3966 4525 4313 4306 
L 4313 3634 
Q 3963 3931 3569 4081 
Q 3175 4231 2741 4231 
Q 1884 4231 1454 3753 
Q 1025 3275 1025 2328 
Q 1025 1384 1454 906 
Q 1884 428 2741 428 
Q 3075 428 3337 486 
Q 3600 544 3809 666 
z
" transform="scale(0.015625)"/>
       <path id="DejaVuSans-61" d="M 2194 1759 
Q 1497 1759 1228 1600 
Q 959 1441 959 1056 
Q 959 750 1161 570 
Q 1363 391 1709 391 
Q 2188 391 2477 730 
Q 2766 1069 2766 1631 
L 2766 1759 
L 2194 1759 
z
M 3341 1997 
L 3341 0 
L 2766 0 
L 2766 531 
Q 2569 213 2275 61 
Q 1981 -91 1556 -91 
Q 1019 -91 701 211 
Q 384 513 384 1019 
Q 384 1609 779 1909 
Q 1175 2209 1959 2209 
L 2766 2209 
L 2766 2266 
Q 2766 2663 2505 2880 
Q 2244 3097 1772 3097 
Q 1472 3097 1187 3025 
Q 903 2953 641 2809 
L 641 3341 
Q 956 3463 1253 3523 
Q 1550 3584 1831 3584 
Q 2591 3584 2966 3190 
Q 3341 2797 3341 1997 
z
" transform="scale(0.015625)"/>
       <path id="DejaVuSans-70" d="M 1159 525 
L 1159 -1331 
L 581 -1331 
L 581 3500 
L 1159 3500 
L 1159 2969 
Q 1341 3281 1617 3432 
Q 1894 3584 2278 3584 
Q 2916 3584 3314 3078 
Q 3713 2572 3713 1747 
Q 3713 922 3314 415 
Q 2916 -91 2278 -91 
Q 1894 -91 1617 61 
Q 1341 213 1159 525 
z
M 3116 1747 
Q 3116 2381 2855 2742 
Q 2594 3103 2138 3103 
Q 1681 3103 1420 2742 
Q 1159 2381 1159 1747 
Q 1159 1113 1420 752 
Q 1681 391 2138 391 
Q 2594 391 2855 752 
Q 3116 1113 3116 1747 
z
" transform="scale(0.015625)"/>
       <path id="DejaVuSans-2f" d="M 1625 4666 
L 2156 4666 
L 531 -594 
L 0 -594 
L 1625 4666 
z
" transform="scale(0.015625)"/>
       <path id="DejaVuSans-49" d="M 628 4666 
L 1259 4666 
L 1259 0 
L 628 0 
L 628 4666 
z
" transform="scale(0.015625)"/>
       <path id="DejaVuSans-64" d="M 2906 2969 
L 2906 4863 
L 3481 4863 
L 3481 0 
L 2906 0 
L 2906 525 
Q 2725 213 2448 61 
Q 2172 -91 1784 -91 
Q 1150 -91 751 415 
Q 353 922 353 1747 
Q 353 2572 751 3078 
Q 1150 3584 1784 3584 
Q 2172 3584 2448 3432 
Q 2725 3281 2906 2969 
z
M 947 1747 
Q 947 1113 1208 752 
Q 1469 391 1925 391 
Q 2381 391 2643 752 
Q 2906 1113 2906 1747 
Q 2906 2381 2643 2742 
Q 2381 3103 1925 3103 
Q 1469 3103 1208 2742 
Q 947 2381 947 1747 
z
" transform="scale(0.015625)"/>
       <path id="DejaVuSans-69" d="M 603 3500 
L 1178 3500 
L 1178 0 
L 603 0 
L 603 3500 
z
M 603 4863 
L 1178 4863 
L 1178 4134 
L 603 4134 
L 603 4863 
z
" transform="scale(0.015625)"/>
       <path id="DejaVuSans-79" d="M 2059 -325 
Q 1816 -950 1584 -1140 
Q 1353 -1331 966 -1331 
L 506 -1331 
L 506 -850 
L 844 -850 
Q 1081 -850 1212 -737 
Q 1344 -625 1503 -206 
L 1606 56 
L 191 3500 
L 800 3500 
L 1894 763 
L 2988 3500 
L 3597 3500 
L 2059 -325 
z
" transform="scale(0.015625)"/>
       <path id="DejaVuSans-72" d="M 2631 2963 
Q 2534 3019 2420 3045 
Q 2306 3072 2169 3072 
Q 1681 3072 1420 2755 
Q 1159 2438 1159 1844 
L 1159 0 
L 581 0 
L 581 3500 
L 1159 3500 
L 1159 2956 
Q 1341 3275 1631 3429 
Q 1922 3584 2338 3584 
Q 2397 3584 2469 3576 
Q 2541 3569 2628 3553 
L 2631 2963 
z
" transform="scale(0.015625)"/>
       <path id="DejaVuSans-63" d="M 3122 3366 
L 3122 2828 
Q 2878 2963 2633 3030 
Q 2388 3097 2138 3097 
Q 1578 3097 1268 2742 
Q 959 2388 959 1747 
Q 959 1106 1268 751 
Q 1578 397 2138 397 
Q 2388 397 2633 464 
Q 2878 531 3122 666 
L 3122 134 
Q 2881 22 2623 -34 
Q 2366 -91 2075 -91 
Q 1284 -91 818 406 
Q 353 903 353 1747 
Q 353 2603 823 3093 
Q 1294 3584 2113 3584 
Q 2378 3584 2631 3529 
Q 2884 3475 3122 3366 
z
" transform="scale(0.015625)"/>
      </defs>
      <use xlink:href="#DejaVuSans-47"/>
      <use xlink:href="#DejaVuSans-61" x="77.490234"/>
      <use xlink:href="#DejaVuSans-70" x="138.769531"/>
      <use xlink:href="#DejaVuSans-2f" x="202.246094"/>
      <use xlink:href="#DejaVuSans-49" x="235.9375"/>
      <use xlink:href="#DejaVuSans-64" x="265.429688"/>
      <use xlink:href="#DejaVuSans-65" x="328.90625"/>
      <use xlink:href="#DejaVuSans-6e" x="390.429688"/>
      <use xlink:href="#DejaVuSans-74" x="453.808594"/>
      <use xlink:href="#DejaVuSans-69" x="493.017578"/>
      <use xlink:href="#DejaVuSans-74" x="520.800781"/>
      <use xlink:href="#DejaVuSans-79" x="560.009766"/>
      <use xlink:href="#DejaVuSans-20" x="619.189453"/>
      <use xlink:href="#DejaVuSans-70" x="650.976562"/>
      <use xlink:href="#DejaVuSans-65" x="714.453125"/>
      <use xlink:href="#DejaVuSans-72" x="775.976562"/>
      <use xlink:href="#DejaVuSans-63" x="814.839844"/>
      <use xlink:href="#DejaVuSans-65" x="869.820312"/>
      <use xlink:href="#DejaVuSans-6e" x="931.34375"/>
      <use xlink:href="#DejaVuSans-74" x="994.722656"/>
      <use xlink:href="#DejaVuSans-61" x="1033.931641"/>
      <use xlink:href="#DejaVuSans-67" x="1095.210938"/>
      <use xlink:href="#DejaVuSans-65" x="1158.6875"/>
     </g>
    </g>
   </g>
   <g id="LineCollection_1">
    <path d="M 49.467216 98.326602 
L 226.749034 98.326602 
" clip-path="url(#p7991aec6f5)" style="fill: none; stroke-dasharray: 7.4,3.2; stroke-dashoffset: 0; stroke: #ff0000; stroke-width: 2"/>
   </g>
   <g id="LineCollection_2">
    <path d="M 49.467216 191.294428 
L 226.749034 191.294428 
" clip-path="url(#p7991aec6f5)" style="fill: none; stroke-dasharray: 7.4,3.2; stroke-dashoffset: 0; stroke: #0000ff; stroke-width: 2"/>
   </g>
   <g id="patch_3">
    <path d="M 40.603125 242.44 
L 40.603125 7.2 
" style="fill: none; stroke: #000000; stroke-width: 0.8; stroke-linejoin: miter; stroke-linecap: square"/>
   </g>
   <g id="patch_4">
    <path d="M 235.613125 242.44 
L 235.613125 7.2 
" style="fill: none; stroke: #000000; stroke-width: 0.8; stroke-linejoin: miter; stroke-linecap: square"/>
   </g>
   <g id="patch_5">
    <path d="M 40.603125 242.44 
L 235.613125 242.44 
" style="fill: none; stroke: #000000; stroke-width: 0.8; stroke-linejoin: miter; stroke-linecap: square"/>
   </g>
   <g id="patch_6">
    <path d="M 40.603125 7.2 
L 235.613125 7.2 
" style="fill: none; stroke: #000000; stroke-width: 0.8; stroke-linejoin: miter; stroke-linecap: square"/>
   </g>
   <g id="legend_1">
    <g id="PathCollection_3">
     <g>
      <use xlink:href="#m7a1e340e57" x="259.363625" y="16.173437" style="fill: #ff0000; stroke: #ff0000"/>
     </g>
    </g>
    <g id="text_12">
     <!-- Gap percentage -->
     <g transform="translate(277.363625 18.798437) scale(0.1 -0.1)">
      <use xlink:href="#DejaVuSans-47"/>
      <use xlink:href="#DejaVuSans-61" x="77.490234"/>
      <use xlink:href="#DejaVuSans-70" x="138.769531"/>
      <use xlink:href="#DejaVuSans-20" x="202.246094"/>
      <use xlink:href="#DejaVuSans-70" x="234.033203"/>
      <use xlink:href="#DejaVuSans-65" x="297.509766"/>
      <use xlink:href="#DejaVuSans-72" x="359.033203"/>
      <use xlink:href="#DejaVuSans-63" x="397.896484"/>
      <use xlink:href="#DejaVuSans-65" x="452.876953"/>
      <use xlink:href="#DejaVuSans-6e" x="514.400391"/>
      <use xlink:href="#DejaVuSans-74" x="577.779297"/>
      <use xlink:href="#DejaVuSans-61" x="616.988281"/>
      <use xlink:href="#DejaVuSans-67" x="678.267578"/>
      <use xlink:href="#DejaVuSans-65" x="741.744141"/>
     </g>
    </g>
    <g id="line2d_19">
     <path d="M 249.363625 29.976562 
L 269.363625 29.976562 
" style="fill: none; stroke-dasharray: 7.4,3.2; stroke-dashoffset: 0; stroke: #ff0000; stroke-width: 2"/>
    </g>
    <g id="text_13">
     <!-- Mean gap percentage -->
     <g transform="translate(277.363625 33.476562) scale(0.1 -0.1)">
      <use xlink:href="#DejaVuSans-4d"/>
      <use xlink:href="#DejaVuSans-65" x="86.279297"/>
      <use xlink:href="#DejaVuSans-61" x="147.802734"/>
      <use xlink:href="#DejaVuSans-6e" x="209.082031"/>
      <use xlink:href="#DejaVuSans-20" x="272.460938"/>
      <use xlink:href="#DejaVuSans-67" x="304.248047"/>
      <use xlink:href="#DejaVuSans-61" x="367.724609"/>
      <use xlink:href="#DejaVuSans-70" x="429.003906"/>
      <use xlink:href="#DejaVuSans-20" x="492.480469"/>
      <use xlink:href="#DejaVuSans-70" x="524.267578"/>
      <use xlink:href="#DejaVuSans-65" x="587.744141"/>
      <use xlink:href="#DejaVuSans-72" x="649.267578"/>
      <use xlink:href="#DejaVuSans-63" x="688.130859"/>
      <use xlink:href="#DejaVuSans-65" x="743.111328"/>
      <use xlink:href="#DejaVuSans-6e" x="804.634766"/>
      <use xlink:href="#DejaVuSans-74" x="868.013672"/>
      <use xlink:href="#DejaVuSans-61" x="907.222656"/>
      <use xlink:href="#DejaVuSans-67" x="968.501953"/>
      <use xlink:href="#DejaVuSans-65" x="1031.978516"/>
     </g>
    </g>
    <g id="PathCollection_4">
     <g>
      <use xlink:href="#m02999b3a39" x="259.363625" y="45.529687" style="fill: #0000ff; stroke: #0000ff"/>
     </g>
    </g>
    <g id="text_14">
     <!-- Identity percentage -->
     <g transform="translate(277.363625 48.154687) scale(0.1 -0.1)">
      <use xlink:href="#DejaVuSans-49"/>
      <use xlink:href="#DejaVuSans-64" x="29.492188"/>
      <use xlink:href="#DejaVuSans-65" x="92.96875"/>
      <use xlink:href="#DejaVuSans-6e" x="154.492188"/>
      <use xlink:href="#DejaVuSans-74" x="217.871094"/>
      <use xlink:href="#DejaVuSans-69" x="257.080078"/>
      <use xlink:href="#DejaVuSans-74" x="284.863281"/>
      <use xlink:href="#DejaVuSans-79" x="324.072266"/>
      <use xlink:href="#DejaVuSans-20" x="383.251953"/>
      <use xlink:href="#DejaVuSans-70" x="415.039062"/>
      <use xlink:href="#DejaVuSans-65" x="478.515625"/>
      <use xlink:href="#DejaVuSans-72" x="540.039062"/>
      <use xlink:href="#DejaVuSans-63" x="578.902344"/>
      <use xlink:href="#DejaVuSans-65" x="633.882812"/>
      <use xlink:href="#DejaVuSans-6e" x="695.40625"/>
      <use xlink:href="#DejaVuSans-74" x="758.785156"/>
      <use xlink:href="#DejaVuSans-61" x="797.994141"/>
      <use xlink:href="#DejaVuSans-67" x="859.273438"/>
      <use xlink:href="#DejaVuSans-65" x="922.75"/>
     </g>
    </g>
    <g id="line2d_20">
     <path d="M 249.363625 59.332812 
L 269.363625 59.332812 
" style="fill: none; stroke-dasharray: 7.4,3.2; stroke-dashoffset: 0; stroke: #0000ff; stroke-width: 2"/>
    </g>
    <g id="text_15">
     <!-- Mean identity percentage -->
     <g transform="translate(277.363625 62.832812) scale(0.1 -0.1)">
      <use xlink:href="#DejaVuSans-4d"/>
      <use xlink:href="#DejaVuSans-65" x="86.279297"/>
      <use xlink:href="#DejaVuSans-61" x="147.802734"/>
      <use xlink:href="#DejaVuSans-6e" x="209.082031"/>
      <use xlink:href="#DejaVuSans-20" x="272.460938"/>
      <use xlink:href="#DejaVuSans-69" x="304.248047"/>
      <use xlink:href="#DejaVuSans-64" x="332.03125"/>
      <use xlink:href="#DejaVuSans-65" x="395.507812"/>
      <use xlink:href="#DejaVuSans-6e" x="457.03125"/>
      <use xlink:href="#DejaVuSans-74" x="520.410156"/>
      <use xlink:href="#DejaVuSans-69" x="559.619141"/>
      <use xlink:href="#DejaVuSans-74" x="587.402344"/>
      <use xlink:href="#DejaVuSans-79" x="626.611328"/>
      <use xlink:href="#DejaVuSans-20" x="685.791016"/>
      <use xlink:href="#DejaVuSans-70" x="717.578125"/>
      <use xlink:href="#DejaVuSans-65" x="781.054688"/>
      <use xlink:href="#DejaVuSans-72" x="842.578125"/>
      <use xlink:href="#DejaVuSans-63" x="881.441406"/>
      <use xlink:href="#DejaVuSans-65" x="936.421875"/>
      <use xlink:href="#DejaVuSans-6e" x="997.945312"/>
      <use xlink:href="#DejaVuSans-74" x="1061.324219"/>
      <use xlink:href="#DejaVuSans-61" x="1100.533203"/>
      <use xlink:href="#DejaVuSans-67" x="1161.8125"/>
      <use xlink:href="#DejaVuSans-65" x="1225.289062"/>
     </g>
    </g>
   </g>
  </g>
 </g>
 <defs>
  <clipPath id="p7991aec6f5">
   <rect x="40.603125" y="7.2" width="195.01" height="235.24"/>
  </clipPath>
 </defs>
</svg>
