<?xml version="1.0" encoding="utf-8" standalone="no"?>
<!DOCTYPE svg PUBLIC "-//W3C//DTD SVG 1.1//EN"
  "http://www.w3.org/Graphics/SVG/1.1/DTD/svg11.dtd">
<!-- Created with matplotlib (https://matplotlib.org/) -->
<svg height="279.99625pt" version="1.1" viewBox="0 0 280.433125 279.99625" width="280.433125pt" xmlns="http://www.w3.org/2000/svg" xmlns:xlink="http://www.w3.org/1999/xlink">
 <defs>
  <style type="text/css">
*{stroke-linecap:butt;stroke-linejoin:round;}
  </style>
 </defs>
 <g id="figure_1">
  <g id="patch_1">
   <path d="M 0 279.99625 
L 280.433125 279.99625 
L 280.433125 0 
L 0 0 
z
" style="fill:#ffffff;"/>
  </g>
  <g id="axes_1">
   <g id="patch_2">
    <path d="M 40.603125 242.44 
L 273.233125 242.44 
L 273.233125 7.2 
L 40.603125 7.2 
z
" style="fill:#ffffff;"/>
   </g>
   <g id="PathCollection_1">
    <defs>
     <path d="M 0 2.236068 
C 0.593012 2.236068 1.161816 2.000462 1.581139 1.581139 
C 2.000462 1.161816 2.236068 0.593012 2.236068 0 
C 2.236068 -0.593012 2.000462 -1.161816 1.581139 -1.581139 
C 1.161816 -2.000462 0.593012 -2.236068 0 -2.236068 
C -0.593012 -2.236068 -1.161816 -2.000462 -1.581139 -1.581139 
C -2.000462 -1.161816 -2.236068 -0.593012 -2.236068 0 
C -2.236068 0.593012 -2.000462 1.161816 -1.581139 1.581139 
C -1.161816 2.000462 -0.593012 2.236068 0 2.236068 
z
" id="mb1434200cb" style="stroke:#ff0000;"/>
    </defs>
    <g clip-path="url(#p4fe87d0b5b)">
     <use style="fill:#ff0000;stroke:#ff0000;" x="104.753033" xlink:href="#mb1434200cb" y="55.123575"/>
     <use style="fill:#ff0000;stroke:#ff0000;" x="71.149266" xlink:href="#mb1434200cb" y="117.629197"/>
     <use style="fill:#ff0000;stroke:#ff0000;" x="81.230396" xlink:href="#mb1434200cb" y="77.661002"/>
     <use style="fill:#ff0000;stroke:#ff0000;" x="57.866268" xlink:href="#mb1434200cb" y="46.618764"/>
     <use style="fill:#ff0000;stroke:#ff0000;" x="99.141838" xlink:href="#mb1434200cb" y="56.134083"/>
     <use style="fill:#ff0000;stroke:#ff0000;" x="53.396333" xlink:href="#mb1434200cb" y="81.070842"/>
     <use style="fill:#ff0000;stroke:#ff0000;" x="63.287253" xlink:href="#mb1434200cb" y="138.836333"/>
     <use style="fill:#ff0000;stroke:#ff0000;" x="64.808933" xlink:href="#mb1434200cb" y="95.867549"/>
     <use style="fill:#ff0000;stroke:#ff0000;" x="64.587021" xlink:href="#mb1434200cb" y="212.447728"/>
     <use style="fill:#ff0000;stroke:#ff0000;" x="64.491916" xlink:href="#mb1434200cb" y="82.151052"/>
     <use style="fill:#ff0000;stroke:#ff0000;" x="82.530164" xlink:href="#mb1434200cb" y="85.903757"/>
     <use style="fill:#ff0000;stroke:#ff0000;" x="65.157651" xlink:href="#mb1434200cb" y="56.391734"/>
     <use style="fill:#ff0000;stroke:#ff0000;" x="72.258824" xlink:href="#mb1434200cb" y="176.154476"/>
     <use style="fill:#ff0000;stroke:#ff0000;" x="62.019186" xlink:href="#mb1434200cb" y="152.052066"/>
     <use style="fill:#ff0000;stroke:#ff0000;" x="76.253234" xlink:href="#mb1434200cb" y="78.548887"/>
     <use style="fill:#ff0000;stroke:#ff0000;" x="63.414059" xlink:href="#mb1434200cb" y="63.558422"/>
     <use style="fill:#ff0000;stroke:#ff0000;" x="66.267209" xlink:href="#mb1434200cb" y="212.305269"/>
     <use style="fill:#ff0000;stroke:#ff0000;" x="52.635493" xlink:href="#mb1434200cb" y="132.162953"/>
     <use style="fill:#ff0000;stroke:#ff0000;" x="57.105428" xlink:href="#mb1434200cb" y="51.361972"/>
     <use style="fill:#ff0000;stroke:#ff0000;" x="58.912423" xlink:href="#mb1434200cb" y="85.570203"/>
     <use style="fill:#ff0000;stroke:#ff0000;" x="59.800069" xlink:href="#mb1434200cb" y="224.102696"/>
     <use style="fill:#ff0000;stroke:#ff0000;" x="79.042981" xlink:href="#mb1434200cb" y="42.179085"/>
     <use style="fill:#ff0000;stroke:#ff0000;" x="58.785616" xlink:href="#mb1434200cb" y="45.02126"/>
     <use style="fill:#ff0000;stroke:#ff0000;" x="63.382358" xlink:href="#mb1434200cb" y="111.690451"/>
     <use style="fill:#ff0000;stroke:#ff0000;" x="68.232713" xlink:href="#mb1434200cb" y="93.624213"/>
     <use style="fill:#ff0000;stroke:#ff0000;" x="77.204284" xlink:href="#mb1434200cb" y="102.764881"/>
     <use style="fill:#ff0000;stroke:#ff0000;" x="55.298433" xlink:href="#mb1434200cb" y="93.676343"/>
     <use style="fill:#ff0000;stroke:#ff0000;" x="69.469078" xlink:href="#mb1434200cb" y="56.391734"/>
     <use style="fill:#ff0000;stroke:#ff0000;" x="54.949714" xlink:href="#mb1434200cb" y="175.182938"/>
     <use style="fill:#ff0000;stroke:#ff0000;" x="90.043459" xlink:href="#mb1434200cb" y="38.753603"/>
     <use style="fill:#ff0000;stroke:#ff0000;" x="72.766051" xlink:href="#mb1434200cb" y="145.470317"/>
     <use style="fill:#ff0000;stroke:#ff0000;" x="65.474668" xlink:href="#mb1434200cb" y="115.123456"/>
     <use style="fill:#ff0000;stroke:#ff0000;" x="58.944124" xlink:href="#mb1434200cb" y="129.471542"/>
     <use style="fill:#ff0000;stroke:#ff0000;" x="62.811728" xlink:href="#mb1434200cb" y="102.559318"/>
     <use style="fill:#ff0000;stroke:#ff0000;" x="60.846224" xlink:href="#mb1434200cb" y="171.39327"/>
     <use style="fill:#ff0000;stroke:#ff0000;" x="64.587021" xlink:href="#mb1434200cb" y="50.698106"/>
     <use style="fill:#ff0000;stroke:#ff0000;" x="113.946516" xlink:href="#mb1434200cb" y="43.375611"/>
     <use style="fill:#ff0000;stroke:#ff0000;" x="86.334364" xlink:href="#mb1434200cb" y="26.071214"/>
     <use style="fill:#ff0000;stroke:#ff0000;" x="69.278868" xlink:href="#mb1434200cb" y="32.433465"/>
     <use style="fill:#ff0000;stroke:#ff0000;" x="74.065819" xlink:href="#mb1434200cb" y="95.827485"/>
     <use style="fill:#ff0000;stroke:#ff0000;" x="53.015913" xlink:href="#mb1434200cb" y="119.869675"/>
     <use style="fill:#ff0000;stroke:#ff0000;" x="64.650424" xlink:href="#mb1434200cb" y="54.777976"/>
     <use style="fill:#ff0000;stroke:#ff0000;" x="198.811877" xlink:href="#mb1434200cb" y="107.145327"/>
     <use style="fill:#ff0000;stroke:#ff0000;" x="55.742256" xlink:href="#mb1434200cb" y="146.081333"/>
     <use style="fill:#ff0000;stroke:#ff0000;" x="58.912423" xlink:href="#mb1434200cb" y="98.848359"/>
     <use style="fill:#ff0000;stroke:#ff0000;" x="81.198694" xlink:href="#mb1434200cb" y="149.966111"/>
     <use style="fill:#ff0000;stroke:#ff0000;" x="81.008484" xlink:href="#mb1434200cb" y="128.271107"/>
     <use style="fill:#ff0000;stroke:#ff0000;" x="59.419649" xlink:href="#mb1434200cb" y="75.149311"/>
     <use style="fill:#ff0000;stroke:#ff0000;" x="69.500779" xlink:href="#mb1434200cb" y="17.892727"/>
     <use style="fill:#ff0000;stroke:#ff0000;" x="60.307296" xlink:href="#mb1434200cb" y="77.08111"/>
     <use style="fill:#ff0000;stroke:#ff0000;" x="63.857883" xlink:href="#mb1434200cb" y="59.914643"/>
     <use style="fill:#ff0000;stroke:#ff0000;" x="76.443444" xlink:href="#mb1434200cb" y="86.508488"/>
     <use style="fill:#ff0000;stroke:#ff0000;" x="54.791206" xlink:href="#mb1434200cb" y="177.859813"/>
     <use style="fill:#ff0000;stroke:#ff0000;" x="82.054639" xlink:href="#mb1434200cb" y="47.916036"/>
     <use style="fill:#ff0000;stroke:#ff0000;" x="82.815479" xlink:href="#mb1434200cb" y="61.179843"/>
     <use style="fill:#ff0000;stroke:#ff0000;" x="69.754393" xlink:href="#mb1434200cb" y="100.579951"/>
     <use style="fill:#ff0000;stroke:#ff0000;" x="97.842069" xlink:href="#mb1434200cb" y="67.03525"/>
     <use style="fill:#ff0000;stroke:#ff0000;" x="70.546934" xlink:href="#mb1434200cb" y="149.46816"/>
     <use style="fill:#ff0000;stroke:#ff0000;" x="60.909628" xlink:href="#mb1434200cb" y="60.987671"/>
     <use style="fill:#ff0000;stroke:#ff0000;" x="83.100794" xlink:href="#mb1434200cb" y="62.535719"/>
     <use style="fill:#ff0000;stroke:#ff0000;" x="67.123154" xlink:href="#mb1434200cb" y="82.961994"/>
     <use style="fill:#ff0000;stroke:#ff0000;" x="65.823386" xlink:href="#mb1434200cb" y="134.993572"/>
     <use style="fill:#ff0000;stroke:#ff0000;" x="167.934454" xlink:href="#mb1434200cb" y="111.183041"/>
     <use style="fill:#ff0000;stroke:#ff0000;" x="66.520823" xlink:href="#mb1434200cb" y="55.467551"/>
     <use style="fill:#ff0000;stroke:#ff0000;" x="67.408469" xlink:href="#mb1434200cb" y="67.975112"/>
     <use style="fill:#ff0000;stroke:#ff0000;" x="70.578636" xlink:href="#mb1434200cb" y="71.745016"/>
     <use style="fill:#ff0000;stroke:#ff0000;" x="160.389457" xlink:href="#mb1434200cb" y="33.109994"/>
     <use style="fill:#ff0000;stroke:#ff0000;" x="59.166036" xlink:href="#mb1434200cb" y="117.100338"/>
     <use style="fill:#ff0000;stroke:#ff0000;" x="59.831771" xlink:href="#mb1434200cb" y="192.396903"/>
     <use style="fill:#ff0000;stroke:#ff0000;" x="62.272799" xlink:href="#mb1434200cb" y="73.254119"/>
     <use style="fill:#ff0000;stroke:#ff0000;" x="75.143676" xlink:href="#mb1434200cb" y="83.805022"/>
     <use style="fill:#ff0000;stroke:#ff0000;" x="91.977261" xlink:href="#mb1434200cb" y="73.657427"/>
     <use style="fill:#ff0000;stroke:#ff0000;" x="86.587978" xlink:href="#mb1434200cb" y="66.392661"/>
     <use style="fill:#ff0000;stroke:#ff0000;" x="57.771163" xlink:href="#mb1434200cb" y="34.519404"/>
     <use style="fill:#ff0000;stroke:#ff0000;" x="67.852293" xlink:href="#mb1434200cb" y="145.595137"/>
     <use style="fill:#ff0000;stroke:#ff0000;" x="59.483053" xlink:href="#mb1434200cb" y="71.716803"/>
     <use style="fill:#ff0000;stroke:#ff0000;" x="76.823864" xlink:href="#mb1434200cb" y="107.217889"/>
     <use style="fill:#ff0000;stroke:#ff0000;" x="51.177216" xlink:href="#mb1434200cb" y="157.914694"/>
     <use style="fill:#ff0000;stroke:#ff0000;" x="61.828976" xlink:href="#mb1434200cb" y="137.267187"/>
     <use style="fill:#ff0000;stroke:#ff0000;" x="71.244371" xlink:href="#mb1434200cb" y="84.291657"/>
     <use style="fill:#ff0000;stroke:#ff0000;" x="75.048571" xlink:href="#mb1434200cb" y="101.706466"/>
     <use style="fill:#ff0000;stroke:#ff0000;" x="59.546456" xlink:href="#mb1434200cb" y="145.81623"/>
     <use style="fill:#ff0000;stroke:#ff0000;" x="71.973509" xlink:href="#mb1434200cb" y="55.203387"/>
     <use style="fill:#ff0000;stroke:#ff0000;" x="81.166993" xlink:href="#mb1434200cb" y="51.125114"/>
     <use style="fill:#ff0000;stroke:#ff0000;" x="51.367426" xlink:href="#mb1434200cb" y="100.440146"/>
     <use style="fill:#ff0000;stroke:#ff0000;" x="65.633176" xlink:href="#mb1434200cb" y="23.091536"/>
     <use style="fill:#ff0000;stroke:#ff0000;" x="77.774914" xlink:href="#mb1434200cb" y="89.132683"/>
     <use style="fill:#ff0000;stroke:#ff0000;" x="56.027571" xlink:href="#mb1434200cb" y="221.066266"/>
     <use style="fill:#ff0000;stroke:#ff0000;" x="71.022459" xlink:href="#mb1434200cb" y="126.809307"/>
     <use style="fill:#ff0000;stroke:#ff0000;" x="112.900361" xlink:href="#mb1434200cb" y="88.799631"/>
     <use style="fill:#ff0000;stroke:#ff0000;" x="94.259781" xlink:href="#mb1434200cb" y="79.419292"/>
     <use style="fill:#ff0000;stroke:#ff0000;" x="64.206601" xlink:href="#mb1434200cb" y="215.94259"/>
     <use style="fill:#ff0000;stroke:#ff0000;" x="64.935739" xlink:href="#mb1434200cb" y="122.14576"/>
     <use style="fill:#ff0000;stroke:#ff0000;" x="262.659034" xlink:href="#mb1434200cb" y="133.386166"/>
     <use style="fill:#ff0000;stroke:#ff0000;" x="65.601474" xlink:href="#mb1434200cb" y="139.52553"/>
     <use style="fill:#ff0000;stroke:#ff0000;" x="73.590294" xlink:href="#mb1434200cb" y="109.935215"/>
     <use style="fill:#ff0000;stroke:#ff0000;" x="54.252278" xlink:href="#mb1434200cb" y="117.192967"/>
     <use style="fill:#ff0000;stroke:#ff0000;" x="61.924081" xlink:href="#mb1434200cb" y="31.592824"/>
     <use style="fill:#ff0000;stroke:#ff0000;" x="59.641561" xlink:href="#mb1434200cb" y="58.811995"/>
     <use style="fill:#ff0000;stroke:#ff0000;" x="85.605226" xlink:href="#mb1434200cb" y="116.522065"/>
    </g>
   </g>
   <g id="PathCollection_2">
    <defs>
     <path d="M 0 2.236068 
C 0.593012 2.236068 1.161816 2.000462 1.581139 1.581139 
C 2.000462 1.161816 2.236068 0.593012 2.236068 0 
C 2.236068 -0.593012 2.000462 -1.161816 1.581139 -1.581139 
C 1.161816 -2.000462 0.593012 -2.236068 0 -2.236068 
C -0.593012 -2.236068 -1.161816 -2.000462 -1.581139 -1.581139 
C -2.000462 -1.161816 -2.236068 -0.593012 -2.236068 0 
C -2.236068 0.593012 -2.000462 1.161816 -1.581139 1.581139 
C -1.161816 2.000462 -0.593012 2.236068 0 2.236068 
z
" id="m655faecab0" style="stroke:#0000ff;"/>
    </defs>
    <g clip-path="url(#p4fe87d0b5b)">
     <use style="fill:#0000ff;stroke:#0000ff;" x="104.753033" xlink:href="#m655faecab0" y="231.417081"/>
     <use style="fill:#0000ff;stroke:#0000ff;" x="71.149266" xlink:href="#m655faecab0" y="186.413954"/>
     <use style="fill:#0000ff;stroke:#0000ff;" x="81.230396" xlink:href="#m655faecab0" y="208.881355"/>
     <use style="fill:#0000ff;stroke:#0000ff;" x="57.866268" xlink:href="#m655faecab0" y="207.913478"/>
     <use style="fill:#0000ff;stroke:#0000ff;" x="99.141838" xlink:href="#m655faecab0" y="212.210475"/>
     <use style="fill:#0000ff;stroke:#0000ff;" x="53.396333" xlink:href="#m655faecab0" y="185.811577"/>
     <use style="fill:#0000ff;stroke:#0000ff;" x="63.287253" xlink:href="#m655faecab0" y="135.122981"/>
     <use style="fill:#0000ff;stroke:#0000ff;" x="64.808933" xlink:href="#m655faecab0" y="209.733844"/>
     <use style="fill:#0000ff;stroke:#0000ff;" x="64.587021" xlink:href="#m655faecab0" y="100.599586"/>
     <use style="fill:#0000ff;stroke:#0000ff;" x="64.491916" xlink:href="#m655faecab0" y="213.631703"/>
     <use style="fill:#0000ff;stroke:#0000ff;" x="82.530164" xlink:href="#m655faecab0" y="205.927711"/>
     <use style="fill:#0000ff;stroke:#0000ff;" x="65.157651" xlink:href="#m655faecab0" y="213.937747"/>
     <use style="fill:#0000ff;stroke:#0000ff;" x="72.258824" xlink:href="#m655faecab0" y="147.318124"/>
     <use style="fill:#0000ff;stroke:#0000ff;" x="62.019186" xlink:href="#m655faecab0" y="175.186868"/>
     <use style="fill:#0000ff;stroke:#0000ff;" x="76.253234" xlink:href="#m655faecab0" y="203.41384"/>
     <use style="fill:#0000ff;stroke:#0000ff;" x="63.414059" xlink:href="#m655faecab0" y="215.102045"/>
     <use style="fill:#0000ff;stroke:#0000ff;" x="66.267209" xlink:href="#m655faecab0" y="121.131278"/>
     <use style="fill:#0000ff;stroke:#0000ff;" x="52.635493" xlink:href="#m655faecab0" y="175.604602"/>
     <use style="fill:#0000ff;stroke:#0000ff;" x="57.105428" xlink:href="#m655faecab0" y="218.656203"/>
     <use style="fill:#0000ff;stroke:#0000ff;" x="58.912423" xlink:href="#m655faecab0" y="217.087179"/>
     <use style="fill:#0000ff;stroke:#0000ff;" x="59.800069" xlink:href="#m655faecab0" y="46.811715"/>
     <use style="fill:#0000ff;stroke:#0000ff;" x="79.042981" xlink:href="#m655faecab0" y="220.722865"/>
     <use style="fill:#0000ff;stroke:#0000ff;" x="58.785616" xlink:href="#m655faecab0" y="229.69279"/>
     <use style="fill:#0000ff;stroke:#0000ff;" x="63.382358" xlink:href="#m655faecab0" y="160.148091"/>
     <use style="fill:#0000ff;stroke:#0000ff;" x="68.232713" xlink:href="#m655faecab0" y="197.837366"/>
     <use style="fill:#0000ff;stroke:#0000ff;" x="77.204284" xlink:href="#m655faecab0" y="186.502803"/>
     <use style="fill:#0000ff;stroke:#0000ff;" x="55.298433" xlink:href="#m655faecab0" y="213.677059"/>
     <use style="fill:#0000ff;stroke:#0000ff;" x="69.469078" xlink:href="#m655faecab0" y="210.583593"/>
     <use style="fill:#0000ff;stroke:#0000ff;" x="54.949714" xlink:href="#m655faecab0" y="138.482767"/>
     <use style="fill:#0000ff;stroke:#0000ff;" x="90.043459" xlink:href="#m655faecab0" y="222.215109"/>
     <use style="fill:#0000ff;stroke:#0000ff;" x="72.766051" xlink:href="#m655faecab0" y="141.936278"/>
     <use style="fill:#0000ff;stroke:#0000ff;" x="65.474668" xlink:href="#m655faecab0" y="183.543382"/>
     <use style="fill:#0000ff;stroke:#0000ff;" x="58.944124" xlink:href="#m655faecab0" y="171.093646"/>
     <use style="fill:#0000ff;stroke:#0000ff;" x="62.811728" xlink:href="#m655faecab0" y="216.797378"/>
     <use style="fill:#0000ff;stroke:#0000ff;" x="60.846224" xlink:href="#m655faecab0" y="195.374633"/>
     <use style="fill:#0000ff;stroke:#0000ff;" x="64.587021" xlink:href="#m655faecab0" y="211.587358"/>
     <use style="fill:#0000ff;stroke:#0000ff;" x="113.946516" xlink:href="#m655faecab0" y="218.050702"/>
     <use style="fill:#0000ff;stroke:#0000ff;" x="86.334364" xlink:href="#m655faecab0" y="223.859719"/>
     <use style="fill:#0000ff;stroke:#0000ff;" x="69.278868" xlink:href="#m655faecab0" y="223.999537"/>
     <use style="fill:#0000ff;stroke:#0000ff;" x="74.065819" xlink:href="#m655faecab0" y="195.105607"/>
     <use style="fill:#0000ff;stroke:#0000ff;" x="53.015913" xlink:href="#m655faecab0" y="205.11252"/>
     <use style="fill:#0000ff;stroke:#0000ff;" x="64.650424" xlink:href="#m655faecab0" y="206.521583"/>
     <use style="fill:#0000ff;stroke:#0000ff;" x="198.811877" xlink:href="#m655faecab0" y="195.034472"/>
     <use style="fill:#0000ff;stroke:#0000ff;" x="55.742256" xlink:href="#m655faecab0" y="131.507088"/>
     <use style="fill:#0000ff;stroke:#0000ff;" x="58.912423" xlink:href="#m655faecab0" y="221.513231"/>
     <use style="fill:#0000ff;stroke:#0000ff;" x="81.198694" xlink:href="#m655faecab0" y="169.96734"/>
     <use style="fill:#0000ff;stroke:#0000ff;" x="81.008484" xlink:href="#m655faecab0" y="127.824161"/>
     <use style="fill:#0000ff;stroke:#0000ff;" x="59.419649" xlink:href="#m655faecab0" y="195.297752"/>
     <use style="fill:#0000ff;stroke:#0000ff;" x="69.500779" xlink:href="#m655faecab0" y="225.103595"/>
     <use style="fill:#0000ff;stroke:#0000ff;" x="60.307296" xlink:href="#m655faecab0" y="189.313888"/>
     <use style="fill:#0000ff;stroke:#0000ff;" x="63.857883" xlink:href="#m655faecab0" y="207.956018"/>
     <use style="fill:#0000ff;stroke:#0000ff;" x="76.443444" xlink:href="#m655faecab0" y="180.909721"/>
     <use style="fill:#0000ff;stroke:#0000ff;" x="54.791206" xlink:href="#m655faecab0" y="136.589459"/>
     <use style="fill:#0000ff;stroke:#0000ff;" x="82.054639" xlink:href="#m655faecab0" y="222.468216"/>
     <use style="fill:#0000ff;stroke:#0000ff;" x="82.815479" xlink:href="#m655faecab0" y="213.999806"/>
     <use style="fill:#0000ff;stroke:#0000ff;" x="69.754393" xlink:href="#m655faecab0" y="189.211184"/>
     <use style="fill:#0000ff;stroke:#0000ff;" x="97.842069" xlink:href="#m655faecab0" y="209.42146"/>
     <use style="fill:#0000ff;stroke:#0000ff;" x="70.546934" xlink:href="#m655faecab0" y="186.827556"/>
     <use style="fill:#0000ff;stroke:#0000ff;" x="60.909628" xlink:href="#m655faecab0" y="194.461338"/>
     <use style="fill:#0000ff;stroke:#0000ff;" x="83.100794" xlink:href="#m655faecab0" y="209.099504"/>
     <use style="fill:#0000ff;stroke:#0000ff;" x="67.123154" xlink:href="#m655faecab0" y="201.155368"/>
     <use style="fill:#0000ff;stroke:#0000ff;" x="65.823386" xlink:href="#m655faecab0" y="160.330688"/>
     <use style="fill:#0000ff;stroke:#0000ff;" x="167.934454" xlink:href="#m655faecab0" y="182.445128"/>
     <use style="fill:#0000ff;stroke:#0000ff;" x="66.520823" xlink:href="#m655faecab0" y="207.92351"/>
     <use style="fill:#0000ff;stroke:#0000ff;" x="67.408469" xlink:href="#m655faecab0" y="204.202623"/>
     <use style="fill:#0000ff;stroke:#0000ff;" x="70.578636" xlink:href="#m655faecab0" y="202.006692"/>
     <use style="fill:#0000ff;stroke:#0000ff;" x="160.389457" xlink:href="#m655faecab0" y="220.143263"/>
     <use style="fill:#0000ff;stroke:#0000ff;" x="59.166036" xlink:href="#m655faecab0" y="206.278055"/>
     <use style="fill:#0000ff;stroke:#0000ff;" x="59.831771" xlink:href="#m655faecab0" y="166.543824"/>
     <use style="fill:#0000ff;stroke:#0000ff;" x="62.272799" xlink:href="#m655faecab0" y="210.772038"/>
     <use style="fill:#0000ff;stroke:#0000ff;" x="75.143676" xlink:href="#m655faecab0" y="211.405746"/>
     <use style="fill:#0000ff;stroke:#0000ff;" x="91.977261" xlink:href="#m655faecab0" y="221.177104"/>
     <use style="fill:#0000ff;stroke:#0000ff;" x="86.587978" xlink:href="#m655faecab0" y="203.173705"/>
     <use style="fill:#0000ff;stroke:#0000ff;" x="57.771163" xlink:href="#m655faecab0" y="220.259642"/>
     <use style="fill:#0000ff;stroke:#0000ff;" x="67.852293" xlink:href="#m655faecab0" y="159.765942"/>
     <use style="fill:#0000ff;stroke:#0000ff;" x="59.483053" xlink:href="#m655faecab0" y="216.621279"/>
     <use style="fill:#0000ff;stroke:#0000ff;" x="76.823864" xlink:href="#m655faecab0" y="198.639057"/>
     <use style="fill:#0000ff;stroke:#0000ff;" x="51.177216" xlink:href="#m655faecab0" y="177.257326"/>
     <use style="fill:#0000ff;stroke:#0000ff;" x="61.828976" xlink:href="#m655faecab0" y="200.930953"/>
     <use style="fill:#0000ff;stroke:#0000ff;" x="71.244371" xlink:href="#m655faecab0" y="196.921955"/>
     <use style="fill:#0000ff;stroke:#0000ff;" x="75.048571" xlink:href="#m655faecab0" y="169.9174"/>
     <use style="fill:#0000ff;stroke:#0000ff;" x="59.546456" xlink:href="#m655faecab0" y="190.87303"/>
     <use style="fill:#0000ff;stroke:#0000ff;" x="71.973509" xlink:href="#m655faecab0" y="212.869234"/>
     <use style="fill:#0000ff;stroke:#0000ff;" x="81.166993" xlink:href="#m655faecab0" y="231.747273"/>
     <use style="fill:#0000ff;stroke:#0000ff;" x="51.367426" xlink:href="#m655faecab0" y="167.825794"/>
     <use style="fill:#0000ff;stroke:#0000ff;" x="65.633176" xlink:href="#m655faecab0" y="230.276836"/>
     <use style="fill:#0000ff;stroke:#0000ff;" x="77.774914" xlink:href="#m655faecab0" y="189.344669"/>
     <use style="fill:#0000ff;stroke:#0000ff;" x="56.027571" xlink:href="#m655faecab0" y="128.858301"/>
     <use style="fill:#0000ff;stroke:#0000ff;" x="71.022459" xlink:href="#m655faecab0" y="176.379268"/>
     <use style="fill:#0000ff;stroke:#0000ff;" x="112.900361" xlink:href="#m655faecab0" y="201.853283"/>
     <use style="fill:#0000ff;stroke:#0000ff;" x="94.259781" xlink:href="#m655faecab0" y="216.940518"/>
     <use style="fill:#0000ff;stroke:#0000ff;" x="64.206601" xlink:href="#m655faecab0" y="90.655086"/>
     <use style="fill:#0000ff;stroke:#0000ff;" x="64.935739" xlink:href="#m655faecab0" y="174.0392"/>
     <use style="fill:#0000ff;stroke:#0000ff;" x="262.659034" xlink:href="#m655faecab0" y="201.255331"/>
     <use style="fill:#0000ff;stroke:#0000ff;" x="65.601474" xlink:href="#m655faecab0" y="155.802806"/>
     <use style="fill:#0000ff;stroke:#0000ff;" x="73.590294" xlink:href="#m655faecab0" y="195.279059"/>
     <use style="fill:#0000ff;stroke:#0000ff;" x="54.252278" xlink:href="#m655faecab0" y="197.494198"/>
     <use style="fill:#0000ff;stroke:#0000ff;" x="61.924081" xlink:href="#m655faecab0" y="229.478"/>
     <use style="fill:#0000ff;stroke:#0000ff;" x="59.641561" xlink:href="#m655faecab0" y="199.537914"/>
     <use style="fill:#0000ff;stroke:#0000ff;" x="85.605226" xlink:href="#m655faecab0" y="189.797758"/>
    </g>
   </g>
   <g id="matplotlib.axis_1">
    <g id="xtick_1">
     <g id="line2d_1">
      <path clip-path="url(#p4fe87d0b5b)" d="M 46.834088 242.44 
L 46.834088 7.2 
" style="fill:none;stroke:#b0b0b0;stroke-dasharray:0.8,1.32;stroke-dashoffset:0;stroke-width:0.8;"/>
     </g>
     <g id="line2d_2">
      <defs>
       <path d="M 0 0 
L 0 3.5 
" id="md1af36c1ac" style="stroke:#000000;stroke-width:0.8;"/>
      </defs>
      <g>
       <use style="stroke:#000000;stroke-width:0.8;" x="46.834088" xlink:href="#md1af36c1ac" y="242.44"/>
      </g>
     </g>
     <g id="text_1">
      <!-- 0 -->
      <defs>
       <path d="M 31.78125 66.40625 
Q 24.171875 66.40625 20.328125 58.90625 
Q 16.5 51.421875 16.5 36.375 
Q 16.5 21.390625 20.328125 13.890625 
Q 24.171875 6.390625 31.78125 6.390625 
Q 39.453125 6.390625 43.28125 13.890625 
Q 47.125 21.390625 47.125 36.375 
Q 47.125 51.421875 43.28125 58.90625 
Q 39.453125 66.40625 31.78125 66.40625 
z
M 31.78125 74.21875 
Q 44.046875 74.21875 50.515625 64.515625 
Q 56.984375 54.828125 56.984375 36.375 
Q 56.984375 17.96875 50.515625 8.265625 
Q 44.046875 -1.421875 31.78125 -1.421875 
Q 19.53125 -1.421875 13.0625 8.265625 
Q 6.59375 17.96875 6.59375 36.375 
Q 6.59375 54.828125 13.0625 64.515625 
Q 19.53125 74.21875 31.78125 74.21875 
z
" id="DejaVuSans-48"/>
      </defs>
      <g transform="translate(43.652838 257.038437)scale(0.1 -0.1)">
       <use xlink:href="#DejaVuSans-48"/>
      </g>
     </g>
    </g>
    <g id="xtick_2">
     <g id="line2d_3">
      <path clip-path="url(#p4fe87d0b5b)" d="M 110.237421 242.44 
L 110.237421 7.2 
" style="fill:none;stroke:#b0b0b0;stroke-dasharray:0.8,1.32;stroke-dashoffset:0;stroke-width:0.8;"/>
     </g>
     <g id="line2d_4">
      <g>
       <use style="stroke:#000000;stroke-width:0.8;" x="110.237421" xlink:href="#md1af36c1ac" y="242.44"/>
      </g>
     </g>
     <g id="text_2">
      <!-- 2000 -->
      <defs>
       <path d="M 19.1875 8.296875 
L 53.609375 8.296875 
L 53.609375 0 
L 7.328125 0 
L 7.328125 8.296875 
Q 12.9375 14.109375 22.625 23.890625 
Q 32.328125 33.6875 34.8125 36.53125 
Q 39.546875 41.84375 41.421875 45.53125 
Q 43.3125 49.21875 43.3125 52.78125 
Q 43.3125 58.59375 39.234375 62.25 
Q 35.15625 65.921875 28.609375 65.921875 
Q 23.96875 65.921875 18.8125 64.3125 
Q 13.671875 62.703125 7.8125 59.421875 
L 7.8125 69.390625 
Q 13.765625 71.78125 18.9375 73 
Q 24.125 74.21875 28.421875 74.21875 
Q 39.75 74.21875 46.484375 68.546875 
Q 53.21875 62.890625 53.21875 53.421875 
Q 53.21875 48.921875 51.53125 44.890625 
Q 49.859375 40.875 45.40625 35.40625 
Q 44.1875 33.984375 37.640625 27.21875 
Q 31.109375 20.453125 19.1875 8.296875 
z
" id="DejaVuSans-50"/>
      </defs>
      <g transform="translate(97.512421 257.038437)scale(0.1 -0.1)">
       <use xlink:href="#DejaVuSans-50"/>
       <use x="63.623047" xlink:href="#DejaVuSans-48"/>
       <use x="127.246094" xlink:href="#DejaVuSans-48"/>
       <use x="190.869141" xlink:href="#DejaVuSans-48"/>
      </g>
     </g>
    </g>
    <g id="xtick_3">
     <g id="line2d_5">
      <path clip-path="url(#p4fe87d0b5b)" d="M 173.640754 242.44 
L 173.640754 7.2 
" style="fill:none;stroke:#b0b0b0;stroke-dasharray:0.8,1.32;stroke-dashoffset:0;stroke-width:0.8;"/>
     </g>
     <g id="line2d_6">
      <g>
       <use style="stroke:#000000;stroke-width:0.8;" x="173.640754" xlink:href="#md1af36c1ac" y="242.44"/>
      </g>
     </g>
     <g id="text_3">
      <!-- 4000 -->
      <defs>
       <path d="M 37.796875 64.3125 
L 12.890625 25.390625 
L 37.796875 25.390625 
z
M 35.203125 72.90625 
L 47.609375 72.90625 
L 47.609375 25.390625 
L 58.015625 25.390625 
L 58.015625 17.1875 
L 47.609375 17.1875 
L 47.609375 0 
L 37.796875 0 
L 37.796875 17.1875 
L 4.890625 17.1875 
L 4.890625 26.703125 
z
" id="DejaVuSans-52"/>
      </defs>
      <g transform="translate(160.915754 257.038437)scale(0.1 -0.1)">
       <use xlink:href="#DejaVuSans-52"/>
       <use x="63.623047" xlink:href="#DejaVuSans-48"/>
       <use x="127.246094" xlink:href="#DejaVuSans-48"/>
       <use x="190.869141" xlink:href="#DejaVuSans-48"/>
      </g>
     </g>
    </g>
    <g id="xtick_4">
     <g id="line2d_7">
      <path clip-path="url(#p4fe87d0b5b)" d="M 237.044087 242.44 
L 237.044087 7.2 
" style="fill:none;stroke:#b0b0b0;stroke-dasharray:0.8,1.32;stroke-dashoffset:0;stroke-width:0.8;"/>
     </g>
     <g id="line2d_8">
      <g>
       <use style="stroke:#000000;stroke-width:0.8;" x="237.044087" xlink:href="#md1af36c1ac" y="242.44"/>
      </g>
     </g>
     <g id="text_4">
      <!-- 6000 -->
      <defs>
       <path d="M 33.015625 40.375 
Q 26.375 40.375 22.484375 35.828125 
Q 18.609375 31.296875 18.609375 23.390625 
Q 18.609375 15.53125 22.484375 10.953125 
Q 26.375 6.390625 33.015625 6.390625 
Q 39.65625 6.390625 43.53125 10.953125 
Q 47.40625 15.53125 47.40625 23.390625 
Q 47.40625 31.296875 43.53125 35.828125 
Q 39.65625 40.375 33.015625 40.375 
z
M 52.59375 71.296875 
L 52.59375 62.3125 
Q 48.875 64.0625 45.09375 64.984375 
Q 41.3125 65.921875 37.59375 65.921875 
Q 27.828125 65.921875 22.671875 59.328125 
Q 17.53125 52.734375 16.796875 39.40625 
Q 19.671875 43.65625 24.015625 45.921875 
Q 28.375 48.1875 33.59375 48.1875 
Q 44.578125 48.1875 50.953125 41.515625 
Q 57.328125 34.859375 57.328125 23.390625 
Q 57.328125 12.15625 50.6875 5.359375 
Q 44.046875 -1.421875 33.015625 -1.421875 
Q 20.359375 -1.421875 13.671875 8.265625 
Q 6.984375 17.96875 6.984375 36.375 
Q 6.984375 53.65625 15.1875 63.9375 
Q 23.390625 74.21875 37.203125 74.21875 
Q 40.921875 74.21875 44.703125 73.484375 
Q 48.484375 72.75 52.59375 71.296875 
z
" id="DejaVuSans-54"/>
      </defs>
      <g transform="translate(224.319087 257.038437)scale(0.1 -0.1)">
       <use xlink:href="#DejaVuSans-54"/>
       <use x="63.623047" xlink:href="#DejaVuSans-48"/>
       <use x="127.246094" xlink:href="#DejaVuSans-48"/>
       <use x="190.869141" xlink:href="#DejaVuSans-48"/>
      </g>
     </g>
    </g>
    <g id="text_5">
     <!-- MSA length -->
     <defs>
      <path d="M 9.8125 72.90625 
L 24.515625 72.90625 
L 43.109375 23.296875 
L 61.8125 72.90625 
L 76.515625 72.90625 
L 76.515625 0 
L 66.890625 0 
L 66.890625 64.015625 
L 48.09375 14.015625 
L 38.1875 14.015625 
L 19.390625 64.015625 
L 19.390625 0 
L 9.8125 0 
z
" id="DejaVuSans-77"/>
      <path d="M 53.515625 70.515625 
L 53.515625 60.890625 
Q 47.90625 63.578125 42.921875 64.890625 
Q 37.9375 66.21875 33.296875 66.21875 
Q 25.25 66.21875 20.875 63.09375 
Q 16.5 59.96875 16.5 54.203125 
Q 16.5 49.359375 19.40625 46.890625 
Q 22.3125 44.4375 30.421875 42.921875 
L 36.375 41.703125 
Q 47.40625 39.59375 52.65625 34.296875 
Q 57.90625 29 57.90625 20.125 
Q 57.90625 9.515625 50.796875 4.046875 
Q 43.703125 -1.421875 29.984375 -1.421875 
Q 24.8125 -1.421875 18.96875 -0.25 
Q 13.140625 0.921875 6.890625 3.21875 
L 6.890625 13.375 
Q 12.890625 10.015625 18.65625 8.296875 
Q 24.421875 6.59375 29.984375 6.59375 
Q 38.421875 6.59375 43.015625 9.90625 
Q 47.609375 13.234375 47.609375 19.390625 
Q 47.609375 24.75 44.3125 27.78125 
Q 41.015625 30.8125 33.5 32.328125 
L 27.484375 33.5 
Q 16.453125 35.6875 11.515625 40.375 
Q 6.59375 45.0625 6.59375 53.421875 
Q 6.59375 63.09375 13.40625 68.65625 
Q 20.21875 74.21875 32.171875 74.21875 
Q 37.3125 74.21875 42.625 73.28125 
Q 47.953125 72.359375 53.515625 70.515625 
z
" id="DejaVuSans-83"/>
      <path d="M 34.1875 63.1875 
L 20.796875 26.90625 
L 47.609375 26.90625 
z
M 28.609375 72.90625 
L 39.796875 72.90625 
L 67.578125 0 
L 57.328125 0 
L 50.6875 18.703125 
L 17.828125 18.703125 
L 11.1875 0 
L 0.78125 0 
z
" id="DejaVuSans-65"/>
      <path id="DejaVuSans-32"/>
      <path d="M 9.421875 75.984375 
L 18.40625 75.984375 
L 18.40625 0 
L 9.421875 0 
z
" id="DejaVuSans-108"/>
      <path d="M 56.203125 29.59375 
L 56.203125 25.203125 
L 14.890625 25.203125 
Q 15.484375 15.921875 20.484375 11.0625 
Q 25.484375 6.203125 34.421875 6.203125 
Q 39.59375 6.203125 44.453125 7.46875 
Q 49.3125 8.734375 54.109375 11.28125 
L 54.109375 2.78125 
Q 49.265625 0.734375 44.1875 -0.34375 
Q 39.109375 -1.421875 33.890625 -1.421875 
Q 20.796875 -1.421875 13.15625 6.1875 
Q 5.515625 13.8125 5.515625 26.8125 
Q 5.515625 40.234375 12.765625 48.109375 
Q 20.015625 56 32.328125 56 
Q 43.359375 56 49.78125 48.890625 
Q 56.203125 41.796875 56.203125 29.59375 
z
M 47.21875 32.234375 
Q 47.125 39.59375 43.09375 43.984375 
Q 39.0625 48.390625 32.421875 48.390625 
Q 24.90625 48.390625 20.390625 44.140625 
Q 15.875 39.890625 15.1875 32.171875 
z
" id="DejaVuSans-101"/>
      <path d="M 54.890625 33.015625 
L 54.890625 0 
L 45.90625 0 
L 45.90625 32.71875 
Q 45.90625 40.484375 42.875 44.328125 
Q 39.84375 48.1875 33.796875 48.1875 
Q 26.515625 48.1875 22.3125 43.546875 
Q 18.109375 38.921875 18.109375 30.90625 
L 18.109375 0 
L 9.078125 0 
L 9.078125 54.6875 
L 18.109375 54.6875 
L 18.109375 46.1875 
Q 21.34375 51.125 25.703125 53.5625 
Q 30.078125 56 35.796875 56 
Q 45.21875 56 50.046875 50.171875 
Q 54.890625 44.34375 54.890625 33.015625 
z
" id="DejaVuSans-110"/>
      <path d="M 45.40625 27.984375 
Q 45.40625 37.75 41.375 43.109375 
Q 37.359375 48.484375 30.078125 48.484375 
Q 22.859375 48.484375 18.828125 43.109375 
Q 14.796875 37.75 14.796875 27.984375 
Q 14.796875 18.265625 18.828125 12.890625 
Q 22.859375 7.515625 30.078125 7.515625 
Q 37.359375 7.515625 41.375 12.890625 
Q 45.40625 18.265625 45.40625 27.984375 
z
M 54.390625 6.78125 
Q 54.390625 -7.171875 48.1875 -13.984375 
Q 42 -20.796875 29.203125 -20.796875 
Q 24.46875 -20.796875 20.265625 -20.09375 
Q 16.0625 -19.390625 12.109375 -17.921875 
L 12.109375 -9.1875 
Q 16.0625 -11.328125 19.921875 -12.34375 
Q 23.78125 -13.375 27.78125 -13.375 
Q 36.625 -13.375 41.015625 -8.765625 
Q 45.40625 -4.15625 45.40625 5.171875 
L 45.40625 9.625 
Q 42.625 4.78125 38.28125 2.390625 
Q 33.9375 0 27.875 0 
Q 17.828125 0 11.671875 7.65625 
Q 5.515625 15.328125 5.515625 27.984375 
Q 5.515625 40.671875 11.671875 48.328125 
Q 17.828125 56 27.875 56 
Q 33.9375 56 38.28125 53.609375 
Q 42.625 51.21875 45.40625 46.390625 
L 45.40625 54.6875 
L 54.390625 54.6875 
z
" id="DejaVuSans-103"/>
      <path d="M 18.3125 70.21875 
L 18.3125 54.6875 
L 36.8125 54.6875 
L 36.8125 47.703125 
L 18.3125 47.703125 
L 18.3125 18.015625 
Q 18.3125 11.328125 20.140625 9.421875 
Q 21.96875 7.515625 27.59375 7.515625 
L 36.8125 7.515625 
L 36.8125 0 
L 27.59375 0 
Q 17.1875 0 13.234375 3.875 
Q 9.28125 7.765625 9.28125 18.015625 
L 9.28125 47.703125 
L 2.6875 47.703125 
L 2.6875 54.6875 
L 9.28125 54.6875 
L 9.28125 70.21875 
z
" id="DejaVuSans-116"/>
      <path d="M 54.890625 33.015625 
L 54.890625 0 
L 45.90625 0 
L 45.90625 32.71875 
Q 45.90625 40.484375 42.875 44.328125 
Q 39.84375 48.1875 33.796875 48.1875 
Q 26.515625 48.1875 22.3125 43.546875 
Q 18.109375 38.921875 18.109375 30.90625 
L 18.109375 0 
L 9.078125 0 
L 9.078125 75.984375 
L 18.109375 75.984375 
L 18.109375 46.1875 
Q 21.34375 51.125 25.703125 53.5625 
Q 30.078125 56 35.796875 56 
Q 45.21875 56 50.046875 50.171875 
Q 54.890625 44.34375 54.890625 33.015625 
z
" id="DejaVuSans-104"/>
     </defs>
     <g transform="translate(128.389219 270.716562)scale(0.1 -0.1)">
      <use xlink:href="#DejaVuSans-77"/>
      <use x="86.279297" xlink:href="#DejaVuSans-83"/>
      <use x="151.630859" xlink:href="#DejaVuSans-65"/>
      <use x="220.039062" xlink:href="#DejaVuSans-32"/>
      <use x="251.826172" xlink:href="#DejaVuSans-108"/>
      <use x="279.609375" xlink:href="#DejaVuSans-101"/>
      <use x="341.132812" xlink:href="#DejaVuSans-110"/>
      <use x="404.511719" xlink:href="#DejaVuSans-103"/>
      <use x="467.988281" xlink:href="#DejaVuSans-116"/>
      <use x="507.197266" xlink:href="#DejaVuSans-104"/>
     </g>
    </g>
   </g>
   <g id="matplotlib.axis_2">
    <g id="ytick_1">
     <g id="line2d_9">
      <path clip-path="url(#p4fe87d0b5b)" d="M 40.603125 233.526801 
L 273.233125 233.526801 
" style="fill:none;stroke:#b0b0b0;stroke-dasharray:0.8,1.32;stroke-dashoffset:0;stroke-width:0.8;"/>
     </g>
     <g id="line2d_10">
      <defs>
       <path d="M 0 0 
L -3.5 0 
" id="m3599f72247" style="stroke:#000000;stroke-width:0.8;"/>
      </defs>
      <g>
       <use style="stroke:#000000;stroke-width:0.8;" x="40.603125" xlink:href="#m3599f72247" y="233.526801"/>
      </g>
     </g>
     <g id="text_6">
      <!-- 0 -->
      <g transform="translate(27.240625 237.32602)scale(0.1 -0.1)">
       <use xlink:href="#DejaVuSans-48"/>
      </g>
     </g>
    </g>
    <g id="ytick_2">
     <g id="line2d_11">
      <path clip-path="url(#p4fe87d0b5b)" d="M 40.603125 185.346063 
L 273.233125 185.346063 
" style="fill:none;stroke:#b0b0b0;stroke-dasharray:0.8,1.32;stroke-dashoffset:0;stroke-width:0.8;"/>
     </g>
     <g id="line2d_12">
      <g>
       <use style="stroke:#000000;stroke-width:0.8;" x="40.603125" xlink:href="#m3599f72247" y="185.346063"/>
      </g>
     </g>
     <g id="text_7">
      <!-- 20 -->
      <g transform="translate(20.878125 189.145282)scale(0.1 -0.1)">
       <use xlink:href="#DejaVuSans-50"/>
       <use x="63.623047" xlink:href="#DejaVuSans-48"/>
      </g>
     </g>
    </g>
    <g id="ytick_3">
     <g id="line2d_13">
      <path clip-path="url(#p4fe87d0b5b)" d="M 40.603125 137.165325 
L 273.233125 137.165325 
" style="fill:none;stroke:#b0b0b0;stroke-dasharray:0.8,1.32;stroke-dashoffset:0;stroke-width:0.8;"/>
     </g>
     <g id="line2d_14">
      <g>
       <use style="stroke:#000000;stroke-width:0.8;" x="40.603125" xlink:href="#m3599f72247" y="137.165325"/>
      </g>
     </g>
     <g id="text_8">
      <!-- 40 -->
      <g transform="translate(20.878125 140.964543)scale(0.1 -0.1)">
       <use xlink:href="#DejaVuSans-52"/>
       <use x="63.623047" xlink:href="#DejaVuSans-48"/>
      </g>
     </g>
    </g>
    <g id="ytick_4">
     <g id="line2d_15">
      <path clip-path="url(#p4fe87d0b5b)" d="M 40.603125 88.984586 
L 273.233125 88.984586 
" style="fill:none;stroke:#b0b0b0;stroke-dasharray:0.8,1.32;stroke-dashoffset:0;stroke-width:0.8;"/>
     </g>
     <g id="line2d_16">
      <g>
       <use style="stroke:#000000;stroke-width:0.8;" x="40.603125" xlink:href="#m3599f72247" y="88.984586"/>
      </g>
     </g>
     <g id="text_9">
      <!-- 60 -->
      <g transform="translate(20.878125 92.783805)scale(0.1 -0.1)">
       <use xlink:href="#DejaVuSans-54"/>
       <use x="63.623047" xlink:href="#DejaVuSans-48"/>
      </g>
     </g>
    </g>
    <g id="ytick_5">
     <g id="line2d_17">
      <path clip-path="url(#p4fe87d0b5b)" d="M 40.603125 40.803848 
L 273.233125 40.803848 
" style="fill:none;stroke:#b0b0b0;stroke-dasharray:0.8,1.32;stroke-dashoffset:0;stroke-width:0.8;"/>
     </g>
     <g id="line2d_18">
      <g>
       <use style="stroke:#000000;stroke-width:0.8;" x="40.603125" xlink:href="#m3599f72247" y="40.803848"/>
      </g>
     </g>
     <g id="text_10">
      <!-- 80 -->
      <defs>
       <path d="M 31.78125 34.625 
Q 24.75 34.625 20.71875 30.859375 
Q 16.703125 27.09375 16.703125 20.515625 
Q 16.703125 13.921875 20.71875 10.15625 
Q 24.75 6.390625 31.78125 6.390625 
Q 38.8125 6.390625 42.859375 10.171875 
Q 46.921875 13.96875 46.921875 20.515625 
Q 46.921875 27.09375 42.890625 30.859375 
Q 38.875 34.625 31.78125 34.625 
z
M 21.921875 38.8125 
Q 15.578125 40.375 12.03125 44.71875 
Q 8.5 49.078125 8.5 55.328125 
Q 8.5 64.0625 14.71875 69.140625 
Q 20.953125 74.21875 31.78125 74.21875 
Q 42.671875 74.21875 48.875 69.140625 
Q 55.078125 64.0625 55.078125 55.328125 
Q 55.078125 49.078125 51.53125 44.71875 
Q 48 40.375 41.703125 38.8125 
Q 48.828125 37.15625 52.796875 32.3125 
Q 56.78125 27.484375 56.78125 20.515625 
Q 56.78125 9.90625 50.3125 4.234375 
Q 43.84375 -1.421875 31.78125 -1.421875 
Q 19.734375 -1.421875 13.25 4.234375 
Q 6.78125 9.90625 6.78125 20.515625 
Q 6.78125 27.484375 10.78125 32.3125 
Q 14.796875 37.15625 21.921875 38.8125 
z
M 18.3125 54.390625 
Q 18.3125 48.734375 21.84375 45.5625 
Q 25.390625 42.390625 31.78125 42.390625 
Q 38.140625 42.390625 41.71875 45.5625 
Q 45.3125 48.734375 45.3125 54.390625 
Q 45.3125 60.0625 41.71875 63.234375 
Q 38.140625 66.40625 31.78125 66.40625 
Q 25.390625 66.40625 21.84375 63.234375 
Q 18.3125 60.0625 18.3125 54.390625 
z
" id="DejaVuSans-56"/>
      </defs>
      <g transform="translate(20.878125 44.603066)scale(0.1 -0.1)">
       <use xlink:href="#DejaVuSans-56"/>
       <use x="63.623047" xlink:href="#DejaVuSans-48"/>
      </g>
     </g>
    </g>
    <g id="text_11">
     <!-- Gap/Identity percentage -->
     <defs>
      <path d="M 59.515625 10.40625 
L 59.515625 29.984375 
L 43.40625 29.984375 
L 43.40625 38.09375 
L 69.28125 38.09375 
L 69.28125 6.78125 
Q 63.578125 2.734375 56.6875 0.65625 
Q 49.8125 -1.421875 42 -1.421875 
Q 24.90625 -1.421875 15.25 8.5625 
Q 5.609375 18.5625 5.609375 36.375 
Q 5.609375 54.25 15.25 64.234375 
Q 24.90625 74.21875 42 74.21875 
Q 49.125 74.21875 55.546875 72.453125 
Q 61.96875 70.703125 67.390625 67.28125 
L 67.390625 56.78125 
Q 61.921875 61.421875 55.765625 63.765625 
Q 49.609375 66.109375 42.828125 66.109375 
Q 29.4375 66.109375 22.71875 58.640625 
Q 16.015625 51.171875 16.015625 36.375 
Q 16.015625 21.625 22.71875 14.15625 
Q 29.4375 6.6875 42.828125 6.6875 
Q 48.046875 6.6875 52.140625 7.59375 
Q 56.25 8.5 59.515625 10.40625 
z
" id="DejaVuSans-71"/>
      <path d="M 34.28125 27.484375 
Q 23.390625 27.484375 19.1875 25 
Q 14.984375 22.515625 14.984375 16.5 
Q 14.984375 11.71875 18.140625 8.90625 
Q 21.296875 6.109375 26.703125 6.109375 
Q 34.1875 6.109375 38.703125 11.40625 
Q 43.21875 16.703125 43.21875 25.484375 
L 43.21875 27.484375 
z
M 52.203125 31.203125 
L 52.203125 0 
L 43.21875 0 
L 43.21875 8.296875 
Q 40.140625 3.328125 35.546875 0.953125 
Q 30.953125 -1.421875 24.3125 -1.421875 
Q 15.921875 -1.421875 10.953125 3.296875 
Q 6 8.015625 6 15.921875 
Q 6 25.140625 12.171875 29.828125 
Q 18.359375 34.515625 30.609375 34.515625 
L 43.21875 34.515625 
L 43.21875 35.40625 
Q 43.21875 41.609375 39.140625 45 
Q 35.0625 48.390625 27.6875 48.390625 
Q 23 48.390625 18.546875 47.265625 
Q 14.109375 46.140625 10.015625 43.890625 
L 10.015625 52.203125 
Q 14.9375 54.109375 19.578125 55.046875 
Q 24.21875 56 28.609375 56 
Q 40.484375 56 46.34375 49.84375 
Q 52.203125 43.703125 52.203125 31.203125 
z
" id="DejaVuSans-97"/>
      <path d="M 18.109375 8.203125 
L 18.109375 -20.796875 
L 9.078125 -20.796875 
L 9.078125 54.6875 
L 18.109375 54.6875 
L 18.109375 46.390625 
Q 20.953125 51.265625 25.265625 53.625 
Q 29.59375 56 35.59375 56 
Q 45.5625 56 51.78125 48.09375 
Q 58.015625 40.1875 58.015625 27.296875 
Q 58.015625 14.40625 51.78125 6.484375 
Q 45.5625 -1.421875 35.59375 -1.421875 
Q 29.59375 -1.421875 25.265625 0.953125 
Q 20.953125 3.328125 18.109375 8.203125 
z
M 48.6875 27.296875 
Q 48.6875 37.203125 44.609375 42.84375 
Q 40.53125 48.484375 33.40625 48.484375 
Q 26.265625 48.484375 22.1875 42.84375 
Q 18.109375 37.203125 18.109375 27.296875 
Q 18.109375 17.390625 22.1875 11.75 
Q 26.265625 6.109375 33.40625 6.109375 
Q 40.53125 6.109375 44.609375 11.75 
Q 48.6875 17.390625 48.6875 27.296875 
z
" id="DejaVuSans-112"/>
      <path d="M 25.390625 72.90625 
L 33.6875 72.90625 
L 8.296875 -9.28125 
L 0 -9.28125 
z
" id="DejaVuSans-47"/>
      <path d="M 9.8125 72.90625 
L 19.671875 72.90625 
L 19.671875 0 
L 9.8125 0 
z
" id="DejaVuSans-73"/>
      <path d="M 45.40625 46.390625 
L 45.40625 75.984375 
L 54.390625 75.984375 
L 54.390625 0 
L 45.40625 0 
L 45.40625 8.203125 
Q 42.578125 3.328125 38.25 0.953125 
Q 33.9375 -1.421875 27.875 -1.421875 
Q 17.96875 -1.421875 11.734375 6.484375 
Q 5.515625 14.40625 5.515625 27.296875 
Q 5.515625 40.1875 11.734375 48.09375 
Q 17.96875 56 27.875 56 
Q 33.9375 56 38.25 53.625 
Q 42.578125 51.265625 45.40625 46.390625 
z
M 14.796875 27.296875 
Q 14.796875 17.390625 18.875 11.75 
Q 22.953125 6.109375 30.078125 6.109375 
Q 37.203125 6.109375 41.296875 11.75 
Q 45.40625 17.390625 45.40625 27.296875 
Q 45.40625 37.203125 41.296875 42.84375 
Q 37.203125 48.484375 30.078125 48.484375 
Q 22.953125 48.484375 18.875 42.84375 
Q 14.796875 37.203125 14.796875 27.296875 
z
" id="DejaVuSans-100"/>
      <path d="M 9.421875 54.6875 
L 18.40625 54.6875 
L 18.40625 0 
L 9.421875 0 
z
M 9.421875 75.984375 
L 18.40625 75.984375 
L 18.40625 64.59375 
L 9.421875 64.59375 
z
" id="DejaVuSans-105"/>
      <path d="M 32.171875 -5.078125 
Q 28.375 -14.84375 24.75 -17.8125 
Q 21.140625 -20.796875 15.09375 -20.796875 
L 7.90625 -20.796875 
L 7.90625 -13.28125 
L 13.1875 -13.28125 
Q 16.890625 -13.28125 18.9375 -11.515625 
Q 21 -9.765625 23.484375 -3.21875 
L 25.09375 0.875 
L 2.984375 54.6875 
L 12.5 54.6875 
L 29.59375 11.921875 
L 46.6875 54.6875 
L 56.203125 54.6875 
z
" id="DejaVuSans-121"/>
      <path d="M 41.109375 46.296875 
Q 39.59375 47.171875 37.8125 47.578125 
Q 36.03125 48 33.890625 48 
Q 26.265625 48 22.1875 43.046875 
Q 18.109375 38.09375 18.109375 28.8125 
L 18.109375 0 
L 9.078125 0 
L 9.078125 54.6875 
L 18.109375 54.6875 
L 18.109375 46.1875 
Q 20.953125 51.171875 25.484375 53.578125 
Q 30.03125 56 36.53125 56 
Q 37.453125 56 38.578125 55.875 
Q 39.703125 55.765625 41.0625 55.515625 
z
" id="DejaVuSans-114"/>
      <path d="M 48.78125 52.59375 
L 48.78125 44.1875 
Q 44.96875 46.296875 41.140625 47.34375 
Q 37.3125 48.390625 33.40625 48.390625 
Q 24.65625 48.390625 19.8125 42.84375 
Q 14.984375 37.3125 14.984375 27.296875 
Q 14.984375 17.28125 19.8125 11.734375 
Q 24.65625 6.203125 33.40625 6.203125 
Q 37.3125 6.203125 41.140625 7.25 
Q 44.96875 8.296875 48.78125 10.40625 
L 48.78125 2.09375 
Q 45.015625 0.34375 40.984375 -0.53125 
Q 36.96875 -1.421875 32.421875 -1.421875 
Q 20.0625 -1.421875 12.78125 6.34375 
Q 5.515625 14.109375 5.515625 27.296875 
Q 5.515625 40.671875 12.859375 48.328125 
Q 20.21875 56 33.015625 56 
Q 37.15625 56 41.109375 55.140625 
Q 45.0625 54.296875 48.78125 52.59375 
z
" id="DejaVuSans-99"/>
     </defs>
     <g transform="translate(14.798438 185.8325)rotate(-90)scale(0.1 -0.1)">
      <use xlink:href="#DejaVuSans-71"/>
      <use x="77.490234" xlink:href="#DejaVuSans-97"/>
      <use x="138.769531" xlink:href="#DejaVuSans-112"/>
      <use x="202.246094" xlink:href="#DejaVuSans-47"/>
      <use x="235.9375" xlink:href="#DejaVuSans-73"/>
      <use x="265.429688" xlink:href="#DejaVuSans-100"/>
      <use x="328.90625" xlink:href="#DejaVuSans-101"/>
      <use x="390.429688" xlink:href="#DejaVuSans-110"/>
      <use x="453.808594" xlink:href="#DejaVuSans-116"/>
      <use x="493.017578" xlink:href="#DejaVuSans-105"/>
      <use x="520.800781" xlink:href="#DejaVuSans-116"/>
      <use x="560.009766" xlink:href="#DejaVuSans-121"/>
      <use x="619.189453" xlink:href="#DejaVuSans-32"/>
      <use x="650.976562" xlink:href="#DejaVuSans-112"/>
      <use x="714.453125" xlink:href="#DejaVuSans-101"/>
      <use x="775.976562" xlink:href="#DejaVuSans-114"/>
      <use x="814.839844" xlink:href="#DejaVuSans-99"/>
      <use x="869.820312" xlink:href="#DejaVuSans-101"/>
      <use x="931.34375" xlink:href="#DejaVuSans-110"/>
      <use x="994.722656" xlink:href="#DejaVuSans-116"/>
      <use x="1033.931641" xlink:href="#DejaVuSans-97"/>
      <use x="1095.210938" xlink:href="#DejaVuSans-103"/>
      <use x="1158.6875" xlink:href="#DejaVuSans-101"/>
     </g>
    </g>
   </g>
   <g id="LineCollection_1">
    <path clip-path="url(#p4fe87d0b5b)" d="M 51.177216 98.326602 
L 262.659034 98.326602 
" style="fill:none;stroke:#ff0000;stroke-dasharray:7.4,3.2;stroke-dashoffset:0;stroke-width:2;"/>
   </g>
   <g id="LineCollection_2">
    <path clip-path="url(#p4fe87d0b5b)" d="M 51.177216 191.294428 
L 262.659034 191.294428 
" style="fill:none;stroke:#0000ff;stroke-dasharray:7.4,3.2;stroke-dashoffset:0;stroke-width:2;"/>
   </g>
   <g id="patch_3">
    <path d="M 40.603125 242.44 
L 40.603125 7.2 
" style="fill:none;stroke:#000000;stroke-linecap:square;stroke-linejoin:miter;stroke-width:0.8;"/>
   </g>
   <g id="patch_4">
    <path d="M 273.233125 242.44 
L 273.233125 7.2 
" style="fill:none;stroke:#000000;stroke-linecap:square;stroke-linejoin:miter;stroke-width:0.8;"/>
   </g>
   <g id="patch_5">
    <path d="M 40.603125 242.44 
L 273.233125 242.44 
" style="fill:none;stroke:#000000;stroke-linecap:square;stroke-linejoin:miter;stroke-width:0.8;"/>
   </g>
   <g id="patch_6">
    <path d="M 40.603125 7.2 
L 273.233125 7.2 
" style="fill:none;stroke:#000000;stroke-linecap:square;stroke-linejoin:miter;stroke-width:0.8;"/>
   </g>
   <g id="legend_1">
    <g id="PathCollection_3">
     <g>
      <use style="fill:#ff0000;stroke:#ff0000;" x="117.54875" xlink:href="#mb1434200cb" y="21.173437"/>
     </g>
    </g>
    <g id="text_12">
     <!-- Gap percentage -->
     <g transform="translate(135.54875 23.798437)scale(0.1 -0.1)">
      <use xlink:href="#DejaVuSans-71"/>
      <use x="77.490234" xlink:href="#DejaVuSans-97"/>
      <use x="138.769531" xlink:href="#DejaVuSans-112"/>
      <use x="202.246094" xlink:href="#DejaVuSans-32"/>
      <use x="234.033203" xlink:href="#DejaVuSans-112"/>
      <use x="297.509766" xlink:href="#DejaVuSans-101"/>
      <use x="359.033203" xlink:href="#DejaVuSans-114"/>
      <use x="397.896484" xlink:href="#DejaVuSans-99"/>
      <use x="452.876953" xlink:href="#DejaVuSans-101"/>
      <use x="514.400391" xlink:href="#DejaVuSans-110"/>
      <use x="577.779297" xlink:href="#DejaVuSans-116"/>
      <use x="616.988281" xlink:href="#DejaVuSans-97"/>
      <use x="678.267578" xlink:href="#DejaVuSans-103"/>
      <use x="741.744141" xlink:href="#DejaVuSans-101"/>
     </g>
    </g>
    <g id="line2d_19">
     <path d="M 107.54875 34.976562 
L 127.54875 34.976562 
" style="fill:none;stroke:#ff0000;stroke-dasharray:7.4,3.2;stroke-dashoffset:0;stroke-width:2;"/>
    </g>
    <g id="text_13">
     <!-- Mean gap percentage -->
     <g transform="translate(135.54875 38.476562)scale(0.1 -0.1)">
      <use xlink:href="#DejaVuSans-77"/>
      <use x="86.279297" xlink:href="#DejaVuSans-101"/>
      <use x="147.802734" xlink:href="#DejaVuSans-97"/>
      <use x="209.082031" xlink:href="#DejaVuSans-110"/>
      <use x="272.460938" xlink:href="#DejaVuSans-32"/>
      <use x="304.248047" xlink:href="#DejaVuSans-103"/>
      <use x="367.724609" xlink:href="#DejaVuSans-97"/>
      <use x="429.003906" xlink:href="#DejaVuSans-112"/>
      <use x="492.480469" xlink:href="#DejaVuSans-32"/>
      <use x="524.267578" xlink:href="#DejaVuSans-112"/>
      <use x="587.744141" xlink:href="#DejaVuSans-101"/>
      <use x="649.267578" xlink:href="#DejaVuSans-114"/>
      <use x="688.130859" xlink:href="#DejaVuSans-99"/>
      <use x="743.111328" xlink:href="#DejaVuSans-101"/>
      <use x="804.634766" xlink:href="#DejaVuSans-110"/>
      <use x="868.013672" xlink:href="#DejaVuSans-116"/>
      <use x="907.222656" xlink:href="#DejaVuSans-97"/>
      <use x="968.501953" xlink:href="#DejaVuSans-103"/>
      <use x="1031.978516" xlink:href="#DejaVuSans-101"/>
     </g>
    </g>
    <g id="PathCollection_4">
     <g>
      <use style="fill:#0000ff;stroke:#0000ff;" x="117.54875" xlink:href="#m655faecab0" y="50.529687"/>
     </g>
    </g>
    <g id="text_14">
     <!-- Identity percentage -->
     <g transform="translate(135.54875 53.154687)scale(0.1 -0.1)">
      <use xlink:href="#DejaVuSans-73"/>
      <use x="29.492188" xlink:href="#DejaVuSans-100"/>
      <use x="92.96875" xlink:href="#DejaVuSans-101"/>
      <use x="154.492188" xlink:href="#DejaVuSans-110"/>
      <use x="217.871094" xlink:href="#DejaVuSans-116"/>
      <use x="257.080078" xlink:href="#DejaVuSans-105"/>
      <use x="284.863281" xlink:href="#DejaVuSans-116"/>
      <use x="324.072266" xlink:href="#DejaVuSans-121"/>
      <use x="383.251953" xlink:href="#DejaVuSans-32"/>
      <use x="415.039062" xlink:href="#DejaVuSans-112"/>
      <use x="478.515625" xlink:href="#DejaVuSans-101"/>
      <use x="540.039062" xlink:href="#DejaVuSans-114"/>
      <use x="578.902344" xlink:href="#DejaVuSans-99"/>
      <use x="633.882812" xlink:href="#DejaVuSans-101"/>
      <use x="695.40625" xlink:href="#DejaVuSans-110"/>
      <use x="758.785156" xlink:href="#DejaVuSans-116"/>
      <use x="797.994141" xlink:href="#DejaVuSans-97"/>
      <use x="859.273438" xlink:href="#DejaVuSans-103"/>
      <use x="922.75" xlink:href="#DejaVuSans-101"/>
     </g>
    </g>
    <g id="line2d_20">
     <path d="M 107.54875 64.332812 
L 127.54875 64.332812 
" style="fill:none;stroke:#0000ff;stroke-dasharray:7.4,3.2;stroke-dashoffset:0;stroke-width:2;"/>
    </g>
    <g id="text_15">
     <!-- Mean identity percentage -->
     <g transform="translate(135.54875 67.832812)scale(0.1 -0.1)">
      <use xlink:href="#DejaVuSans-77"/>
      <use x="86.279297" xlink:href="#DejaVuSans-101"/>
      <use x="147.802734" xlink:href="#DejaVuSans-97"/>
      <use x="209.082031" xlink:href="#DejaVuSans-110"/>
      <use x="272.460938" xlink:href="#DejaVuSans-32"/>
      <use x="304.248047" xlink:href="#DejaVuSans-105"/>
      <use x="332.03125" xlink:href="#DejaVuSans-100"/>
      <use x="395.507812" xlink:href="#DejaVuSans-101"/>
      <use x="457.03125" xlink:href="#DejaVuSans-110"/>
      <use x="520.410156" xlink:href="#DejaVuSans-116"/>
      <use x="559.619141" xlink:href="#DejaVuSans-105"/>
      <use x="587.402344" xlink:href="#DejaVuSans-116"/>
      <use x="626.611328" xlink:href="#DejaVuSans-121"/>
      <use x="685.791016" xlink:href="#DejaVuSans-32"/>
      <use x="717.578125" xlink:href="#DejaVuSans-112"/>
      <use x="781.054688" xlink:href="#DejaVuSans-101"/>
      <use x="842.578125" xlink:href="#DejaVuSans-114"/>
      <use x="881.441406" xlink:href="#DejaVuSans-99"/>
      <use x="936.421875" xlink:href="#DejaVuSans-101"/>
      <use x="997.945312" xlink:href="#DejaVuSans-110"/>
      <use x="1061.324219" xlink:href="#DejaVuSans-116"/>
      <use x="1100.533203" xlink:href="#DejaVuSans-97"/>
      <use x="1161.8125" xlink:href="#DejaVuSans-103"/>
      <use x="1225.289062" xlink:href="#DejaVuSans-101"/>
     </g>
    </g>
   </g>
  </g>
 </g>
 <defs>
  <clipPath id="p4fe87d0b5b">
   <rect height="235.24" width="232.63" x="40.603125" y="7.2"/>
  </clipPath>
 </defs>
</svg>
