<?xml version="1.0" encoding="utf-8" standalone="no"?>
<!DOCTYPE svg PUBLIC "-//W3C//DTD SVG 1.1//EN"
  "http://www.w3.org/Graphics/SVG/1.1/DTD/svg11.dtd">
<!-- Created with matplotlib (https://matplotlib.org/) -->
<svg height="337.59625pt" version="1.1" viewBox="0 0 453.295625 337.59625" width="453.295625pt" xmlns="http://www.w3.org/2000/svg" xmlns:xlink="http://www.w3.org/1999/xlink">
 <defs>
  <style type="text/css">
*{stroke-linecap:butt;stroke-linejoin:round;}
  </style>
 </defs>
 <g id="figure_1">
  <g id="patch_1">
   <path d="M 0 337.59625 
L 453.295625 337.59625 
L 453.295625 0 
L 0 0 
z
" style="fill:#ffffff;"/>
  </g>
  <g id="axes_1">
   <g id="patch_2">
    <path d="M 46.965625 300.04 
L 446.095625 300.04 
L 446.095625 7.2 
L 46.965625 7.2 
z
" style="fill:#ffffff;"/>
   </g>
   <g id="patch_3">
    <path clip-path="url(#p8a48ffcc0c)" d="M 65.438415 300.04 
L 68.082551 300.04 
L 68.082551 21.144762 
L 65.438415 21.144762 
z
" style="fill:#808080;"/>
   </g>
   <g id="patch_4">
    <path clip-path="url(#p8a48ffcc0c)" d="M 68.743586 300.04 
L 71.387722 300.04 
L 71.387722 275.575505 
L 68.743586 275.575505 
z
" style="fill:#808080;"/>
   </g>
   <g id="patch_5">
    <path clip-path="url(#p8a48ffcc0c)" d="M 72.048756 300.04 
L 74.692893 300.04 
L 74.692893 296.778067 
L 72.048756 296.778067 
z
" style="fill:#808080;"/>
   </g>
   <g id="patch_6">
    <path clip-path="url(#p8a48ffcc0c)" d="M 75.353927 300.04 
L 77.998064 300.04 
L 77.998064 296.778067 
L 75.353927 296.778067 
z
" style="fill:#808080;"/>
   </g>
   <g id="patch_7">
    <path clip-path="url(#p8a48ffcc0c)" d="M 78.659098 300.04 
L 81.303235 300.04 
L 81.303235 298.409034 
L 78.659098 298.409034 
z
" style="fill:#808080;"/>
   </g>
   <g id="patch_8">
    <path clip-path="url(#p8a48ffcc0c)" d="M 81.964269 300.04 
L 84.608406 300.04 
L 84.608406 300.04 
L 81.964269 300.04 
z
" style="fill:#808080;"/>
   </g>
   <g id="patch_9">
    <path clip-path="url(#p8a48ffcc0c)" d="M 85.26944 300.04 
L 87.913576 300.04 
L 87.913576 300.04 
L 85.26944 300.04 
z
" style="fill:#808080;"/>
   </g>
   <g id="patch_10">
    <path clip-path="url(#p8a48ffcc0c)" d="M 88.574611 300.04 
L 91.218747 300.04 
L 91.218747 300.04 
L 88.574611 300.04 
z
" style="fill:#808080;"/>
   </g>
   <g id="patch_11">
    <path clip-path="url(#p8a48ffcc0c)" d="M 91.879781 300.04 
L 94.523918 300.04 
L 94.523918 300.04 
L 91.879781 300.04 
z
" style="fill:#808080;"/>
   </g>
   <g id="patch_12">
    <path clip-path="url(#p8a48ffcc0c)" d="M 95.184952 300.04 
L 97.829089 300.04 
L 97.829089 300.04 
L 95.184952 300.04 
z
" style="fill:#808080;"/>
   </g>
   <g id="patch_13">
    <path clip-path="url(#p8a48ffcc0c)" d="M 98.490123 300.04 
L 101.13426 300.04 
L 101.13426 300.04 
L 98.490123 300.04 
z
" style="fill:#808080;"/>
   </g>
   <g id="patch_14">
    <path clip-path="url(#p8a48ffcc0c)" d="M 101.795294 300.04 
L 104.439431 300.04 
L 104.439431 300.04 
L 101.795294 300.04 
z
" style="fill:#808080;"/>
   </g>
   <g id="patch_15">
    <path clip-path="url(#p8a48ffcc0c)" d="M 105.100465 300.04 
L 107.744601 300.04 
L 107.744601 300.04 
L 105.100465 300.04 
z
" style="fill:#808080;"/>
   </g>
   <g id="patch_16">
    <path clip-path="url(#p8a48ffcc0c)" d="M 108.405636 300.04 
L 111.049772 300.04 
L 111.049772 300.04 
L 108.405636 300.04 
z
" style="fill:#808080;"/>
   </g>
   <g id="patch_17">
    <path clip-path="url(#p8a48ffcc0c)" d="M 111.710806 300.04 
L 114.354943 300.04 
L 114.354943 300.04 
L 111.710806 300.04 
z
" style="fill:#808080;"/>
   </g>
   <g id="patch_18">
    <path clip-path="url(#p8a48ffcc0c)" d="M 115.015977 300.04 
L 117.660114 300.04 
L 117.660114 300.04 
L 115.015977 300.04 
z
" style="fill:#808080;"/>
   </g>
   <g id="patch_19">
    <path clip-path="url(#p8a48ffcc0c)" d="M 118.321148 300.04 
L 120.965285 300.04 
L 120.965285 300.04 
L 118.321148 300.04 
z
" style="fill:#808080;"/>
   </g>
   <g id="patch_20">
    <path clip-path="url(#p8a48ffcc0c)" d="M 121.626319 300.04 
L 124.270456 300.04 
L 124.270456 300.04 
L 121.626319 300.04 
z
" style="fill:#808080;"/>
   </g>
   <g id="patch_21">
    <path clip-path="url(#p8a48ffcc0c)" d="M 124.93149 300.04 
L 127.575626 300.04 
L 127.575626 300.04 
L 124.93149 300.04 
z
" style="fill:#808080;"/>
   </g>
   <g id="patch_22">
    <path clip-path="url(#p8a48ffcc0c)" d="M 128.236661 300.04 
L 130.880797 300.04 
L 130.880797 300.04 
L 128.236661 300.04 
z
" style="fill:#808080;"/>
   </g>
   <g id="patch_23">
    <path clip-path="url(#p8a48ffcc0c)" d="M 131.541831 300.04 
L 134.185968 300.04 
L 134.185968 300.04 
L 131.541831 300.04 
z
" style="fill:#808080;"/>
   </g>
   <g id="patch_24">
    <path clip-path="url(#p8a48ffcc0c)" d="M 134.847002 300.04 
L 137.491139 300.04 
L 137.491139 300.04 
L 134.847002 300.04 
z
" style="fill:#808080;"/>
   </g>
   <g id="patch_25">
    <path clip-path="url(#p8a48ffcc0c)" d="M 138.152173 300.04 
L 140.79631 300.04 
L 140.79631 300.04 
L 138.152173 300.04 
z
" style="fill:#808080;"/>
   </g>
   <g id="patch_26">
    <path clip-path="url(#p8a48ffcc0c)" d="M 141.457344 300.04 
L 144.101481 300.04 
L 144.101481 300.04 
L 141.457344 300.04 
z
" style="fill:#808080;"/>
   </g>
   <g id="patch_27">
    <path clip-path="url(#p8a48ffcc0c)" d="M 144.762515 300.04 
L 147.406651 300.04 
L 147.406651 300.04 
L 144.762515 300.04 
z
" style="fill:#808080;"/>
   </g>
   <g id="patch_28">
    <path clip-path="url(#p8a48ffcc0c)" d="M 148.067686 300.04 
L 150.711822 300.04 
L 150.711822 300.04 
L 148.067686 300.04 
z
" style="fill:#808080;"/>
   </g>
   <g id="patch_29">
    <path clip-path="url(#p8a48ffcc0c)" d="M 151.372856 300.04 
L 154.016993 300.04 
L 154.016993 300.04 
L 151.372856 300.04 
z
" style="fill:#808080;"/>
   </g>
   <g id="patch_30">
    <path clip-path="url(#p8a48ffcc0c)" d="M 154.678027 300.04 
L 157.322164 300.04 
L 157.322164 300.04 
L 154.678027 300.04 
z
" style="fill:#808080;"/>
   </g>
   <g id="patch_31">
    <path clip-path="url(#p8a48ffcc0c)" d="M 157.983198 300.04 
L 160.627335 300.04 
L 160.627335 299.224517 
L 157.983198 299.224517 
z
" style="fill:#808080;"/>
   </g>
   <g id="patch_32">
    <path clip-path="url(#p8a48ffcc0c)" d="M 161.288369 300.04 
L 163.932506 300.04 
L 163.932506 299.224517 
L 161.288369 299.224517 
z
" style="fill:#808080;"/>
   </g>
   <g id="patch_33">
    <path clip-path="url(#p8a48ffcc0c)" d="M 164.59354 300.04 
L 167.237676 300.04 
L 167.237676 296.778067 
L 164.59354 296.778067 
z
" style="fill:#808080;"/>
   </g>
   <g id="patch_34">
    <path clip-path="url(#p8a48ffcc0c)" d="M 167.898711 300.04 
L 170.542847 300.04 
L 170.542847 298.409034 
L 167.898711 298.409034 
z
" style="fill:#808080;"/>
   </g>
   <g id="patch_35">
    <path clip-path="url(#p8a48ffcc0c)" d="M 171.203881 300.04 
L 173.848018 300.04 
L 173.848018 300.04 
L 171.203881 300.04 
z
" style="fill:#808080;"/>
   </g>
   <g id="patch_36">
    <path clip-path="url(#p8a48ffcc0c)" d="M 174.509052 300.04 
L 177.153189 300.04 
L 177.153189 300.04 
L 174.509052 300.04 
z
" style="fill:#808080;"/>
   </g>
   <g id="patch_37">
    <path clip-path="url(#p8a48ffcc0c)" d="M 177.814223 300.04 
L 180.45836 300.04 
L 180.45836 299.224517 
L 177.814223 299.224517 
z
" style="fill:#808080;"/>
   </g>
   <g id="patch_38">
    <path clip-path="url(#p8a48ffcc0c)" d="M 181.119394 300.04 
L 183.76353 300.04 
L 183.76353 299.224517 
L 181.119394 299.224517 
z
" style="fill:#808080;"/>
   </g>
   <g id="patch_39">
    <path clip-path="url(#p8a48ffcc0c)" d="M 184.424565 300.04 
L 187.068701 300.04 
L 187.068701 296.778067 
L 184.424565 296.778067 
z
" style="fill:#808080;"/>
   </g>
   <g id="patch_40">
    <path clip-path="url(#p8a48ffcc0c)" d="M 187.729735 300.04 
L 190.373872 300.04 
L 190.373872 300.04 
L 187.729735 300.04 
z
" style="fill:#808080;"/>
   </g>
   <g id="patch_41">
    <path clip-path="url(#p8a48ffcc0c)" d="M 191.034906 300.04 
L 193.679043 300.04 
L 193.679043 300.04 
L 191.034906 300.04 
z
" style="fill:#808080;"/>
   </g>
   <g id="patch_42">
    <path clip-path="url(#p8a48ffcc0c)" d="M 194.340077 300.04 
L 196.984214 300.04 
L 196.984214 300.04 
L 194.340077 300.04 
z
" style="fill:#808080;"/>
   </g>
   <g id="patch_43">
    <path clip-path="url(#p8a48ffcc0c)" d="M 197.645248 300.04 
L 200.289385 300.04 
L 200.289385 300.04 
L 197.645248 300.04 
z
" style="fill:#808080;"/>
   </g>
   <g id="patch_44">
    <path clip-path="url(#p8a48ffcc0c)" d="M 200.950419 300.04 
L 203.594555 300.04 
L 203.594555 300.04 
L 200.950419 300.04 
z
" style="fill:#808080;"/>
   </g>
   <g id="patch_45">
    <path clip-path="url(#p8a48ffcc0c)" d="M 204.25559 300.04 
L 206.899726 300.04 
L 206.899726 300.04 
L 204.25559 300.04 
z
" style="fill:#808080;"/>
   </g>
   <g id="patch_46">
    <path clip-path="url(#p8a48ffcc0c)" d="M 207.56076 300.04 
L 210.204897 300.04 
L 210.204897 298.409034 
L 207.56076 298.409034 
z
" style="fill:#808080;"/>
   </g>
   <g id="patch_47">
    <path clip-path="url(#p8a48ffcc0c)" d="M 210.865931 300.04 
L 213.510068 300.04 
L 213.510068 300.04 
L 210.865931 300.04 
z
" style="fill:#808080;"/>
   </g>
   <g id="patch_48">
    <path clip-path="url(#p8a48ffcc0c)" d="M 214.171102 300.04 
L 216.815239 300.04 
L 216.815239 300.04 
L 214.171102 300.04 
z
" style="fill:#808080;"/>
   </g>
   <g id="patch_49">
    <path clip-path="url(#p8a48ffcc0c)" d="M 217.476273 300.04 
L 220.12041 300.04 
L 220.12041 300.04 
L 217.476273 300.04 
z
" style="fill:#808080;"/>
   </g>
   <g id="patch_50">
    <path clip-path="url(#p8a48ffcc0c)" d="M 220.781444 300.04 
L 223.42558 300.04 
L 223.42558 300.04 
L 220.781444 300.04 
z
" style="fill:#808080;"/>
   </g>
   <g id="patch_51">
    <path clip-path="url(#p8a48ffcc0c)" d="M 224.086615 300.04 
L 226.730751 300.04 
L 226.730751 299.224517 
L 224.086615 299.224517 
z
" style="fill:#808080;"/>
   </g>
   <g id="patch_52">
    <path clip-path="url(#p8a48ffcc0c)" d="M 227.391785 300.04 
L 230.035922 300.04 
L 230.035922 299.224517 
L 227.391785 299.224517 
z
" style="fill:#808080;"/>
   </g>
   <g id="patch_53">
    <path clip-path="url(#p8a48ffcc0c)" d="M 230.696956 300.04 
L 233.341093 300.04 
L 233.341093 300.04 
L 230.696956 300.04 
z
" style="fill:#808080;"/>
   </g>
   <g id="patch_54">
    <path clip-path="url(#p8a48ffcc0c)" d="M 234.002127 300.04 
L 236.646264 300.04 
L 236.646264 299.224517 
L 234.002127 299.224517 
z
" style="fill:#808080;"/>
   </g>
   <g id="patch_55">
    <path clip-path="url(#p8a48ffcc0c)" d="M 237.307298 300.04 
L 239.951435 300.04 
L 239.951435 298.409034 
L 237.307298 298.409034 
z
" style="fill:#808080;"/>
   </g>
   <g id="patch_56">
    <path clip-path="url(#p8a48ffcc0c)" d="M 240.612469 300.04 
L 243.256605 300.04 
L 243.256605 299.224517 
L 240.612469 299.224517 
z
" style="fill:#808080;"/>
   </g>
   <g id="patch_57">
    <path clip-path="url(#p8a48ffcc0c)" d="M 243.91764 300.04 
L 246.561776 300.04 
L 246.561776 300.04 
L 243.91764 300.04 
z
" style="fill:#808080;"/>
   </g>
   <g id="patch_58">
    <path clip-path="url(#p8a48ffcc0c)" d="M 247.22281 300.04 
L 249.866947 300.04 
L 249.866947 300.04 
L 247.22281 300.04 
z
" style="fill:#808080;"/>
   </g>
   <g id="patch_59">
    <path clip-path="url(#p8a48ffcc0c)" d="M 250.527981 300.04 
L 253.172118 300.04 
L 253.172118 300.04 
L 250.527981 300.04 
z
" style="fill:#808080;"/>
   </g>
   <g id="patch_60">
    <path clip-path="url(#p8a48ffcc0c)" d="M 253.833152 300.04 
L 256.477289 300.04 
L 256.477289 300.04 
L 253.833152 300.04 
z
" style="fill:#808080;"/>
   </g>
   <g id="patch_61">
    <path clip-path="url(#p8a48ffcc0c)" d="M 257.138323 300.04 
L 259.78246 300.04 
L 259.78246 300.04 
L 257.138323 300.04 
z
" style="fill:#808080;"/>
   </g>
   <g id="patch_62">
    <path clip-path="url(#p8a48ffcc0c)" d="M 260.443494 300.04 
L 263.08763 300.04 
L 263.08763 300.04 
L 260.443494 300.04 
z
" style="fill:#808080;"/>
   </g>
   <g id="patch_63">
    <path clip-path="url(#p8a48ffcc0c)" d="M 263.748665 300.04 
L 266.392801 300.04 
L 266.392801 300.04 
L 263.748665 300.04 
z
" style="fill:#808080;"/>
   </g>
   <g id="patch_64">
    <path clip-path="url(#p8a48ffcc0c)" d="M 267.053835 300.04 
L 269.697972 300.04 
L 269.697972 300.04 
L 267.053835 300.04 
z
" style="fill:#808080;"/>
   </g>
   <g id="patch_65">
    <path clip-path="url(#p8a48ffcc0c)" d="M 270.359006 300.04 
L 273.003143 300.04 
L 273.003143 300.04 
L 270.359006 300.04 
z
" style="fill:#808080;"/>
   </g>
   <g id="patch_66">
    <path clip-path="url(#p8a48ffcc0c)" d="M 273.664177 300.04 
L 276.308314 300.04 
L 276.308314 299.224517 
L 273.664177 299.224517 
z
" style="fill:#808080;"/>
   </g>
   <g id="patch_67">
    <path clip-path="url(#p8a48ffcc0c)" d="M 276.969348 300.04 
L 279.613485 300.04 
L 279.613485 300.04 
L 276.969348 300.04 
z
" style="fill:#808080;"/>
   </g>
   <g id="patch_68">
    <path clip-path="url(#p8a48ffcc0c)" d="M 280.274519 300.04 
L 282.918655 300.04 
L 282.918655 300.04 
L 280.274519 300.04 
z
" style="fill:#808080;"/>
   </g>
   <g id="patch_69">
    <path clip-path="url(#p8a48ffcc0c)" d="M 283.57969 300.04 
L 286.223826 300.04 
L 286.223826 300.04 
L 283.57969 300.04 
z
" style="fill:#808080;"/>
   </g>
   <g id="patch_70">
    <path clip-path="url(#p8a48ffcc0c)" d="M 286.88486 300.04 
L 289.528997 300.04 
L 289.528997 300.04 
L 286.88486 300.04 
z
" style="fill:#808080;"/>
   </g>
   <g id="patch_71">
    <path clip-path="url(#p8a48ffcc0c)" d="M 290.190031 300.04 
L 292.834168 300.04 
L 292.834168 300.04 
L 290.190031 300.04 
z
" style="fill:#808080;"/>
   </g>
   <g id="patch_72">
    <path clip-path="url(#p8a48ffcc0c)" d="M 293.495202 300.04 
L 296.139339 300.04 
L 296.139339 300.04 
L 293.495202 300.04 
z
" style="fill:#808080;"/>
   </g>
   <g id="patch_73">
    <path clip-path="url(#p8a48ffcc0c)" d="M 296.800373 300.04 
L 299.444509 300.04 
L 299.444509 300.04 
L 296.800373 300.04 
z
" style="fill:#808080;"/>
   </g>
   <g id="patch_74">
    <path clip-path="url(#p8a48ffcc0c)" d="M 300.105544 300.04 
L 302.74968 300.04 
L 302.74968 300.04 
L 300.105544 300.04 
z
" style="fill:#808080;"/>
   </g>
   <g id="patch_75">
    <path clip-path="url(#p8a48ffcc0c)" d="M 303.410714 300.04 
L 306.054851 300.04 
L 306.054851 300.04 
L 303.410714 300.04 
z
" style="fill:#808080;"/>
   </g>
   <g id="patch_76">
    <path clip-path="url(#p8a48ffcc0c)" d="M 306.715885 300.04 
L 309.360022 300.04 
L 309.360022 300.04 
L 306.715885 300.04 
z
" style="fill:#808080;"/>
   </g>
   <g id="patch_77">
    <path clip-path="url(#p8a48ffcc0c)" d="M 310.021056 300.04 
L 312.665193 300.04 
L 312.665193 300.04 
L 310.021056 300.04 
z
" style="fill:#808080;"/>
   </g>
   <g id="patch_78">
    <path clip-path="url(#p8a48ffcc0c)" d="M 313.326227 300.04 
L 315.970364 300.04 
L 315.970364 300.04 
L 313.326227 300.04 
z
" style="fill:#808080;"/>
   </g>
   <g id="patch_79">
    <path clip-path="url(#p8a48ffcc0c)" d="M 316.631398 300.04 
L 319.275534 300.04 
L 319.275534 300.04 
L 316.631398 300.04 
z
" style="fill:#808080;"/>
   </g>
   <g id="patch_80">
    <path clip-path="url(#p8a48ffcc0c)" d="M 319.936569 300.04 
L 322.580705 300.04 
L 322.580705 300.04 
L 319.936569 300.04 
z
" style="fill:#808080;"/>
   </g>
   <g id="patch_81">
    <path clip-path="url(#p8a48ffcc0c)" d="M 323.241739 300.04 
L 325.885876 300.04 
L 325.885876 300.04 
L 323.241739 300.04 
z
" style="fill:#808080;"/>
   </g>
   <g id="patch_82">
    <path clip-path="url(#p8a48ffcc0c)" d="M 326.54691 300.04 
L 329.191047 300.04 
L 329.191047 300.04 
L 326.54691 300.04 
z
" style="fill:#808080;"/>
   </g>
   <g id="patch_83">
    <path clip-path="url(#p8a48ffcc0c)" d="M 329.852081 300.04 
L 332.496218 300.04 
L 332.496218 300.04 
L 329.852081 300.04 
z
" style="fill:#808080;"/>
   </g>
   <g id="patch_84">
    <path clip-path="url(#p8a48ffcc0c)" d="M 333.157252 300.04 
L 335.801389 300.04 
L 335.801389 300.04 
L 333.157252 300.04 
z
" style="fill:#808080;"/>
   </g>
   <g id="patch_85">
    <path clip-path="url(#p8a48ffcc0c)" d="M 336.462423 300.04 
L 339.106559 300.04 
L 339.106559 300.04 
L 336.462423 300.04 
z
" style="fill:#808080;"/>
   </g>
   <g id="patch_86">
    <path clip-path="url(#p8a48ffcc0c)" d="M 339.767594 300.04 
L 342.41173 300.04 
L 342.41173 300.04 
L 339.767594 300.04 
z
" style="fill:#808080;"/>
   </g>
   <g id="patch_87">
    <path clip-path="url(#p8a48ffcc0c)" d="M 343.072764 300.04 
L 345.716901 300.04 
L 345.716901 300.04 
L 343.072764 300.04 
z
" style="fill:#808080;"/>
   </g>
   <g id="patch_88">
    <path clip-path="url(#p8a48ffcc0c)" d="M 346.377935 300.04 
L 349.022072 300.04 
L 349.022072 300.04 
L 346.377935 300.04 
z
" style="fill:#808080;"/>
   </g>
   <g id="patch_89">
    <path clip-path="url(#p8a48ffcc0c)" d="M 349.683106 300.04 
L 352.327243 300.04 
L 352.327243 300.04 
L 349.683106 300.04 
z
" style="fill:#808080;"/>
   </g>
   <g id="patch_90">
    <path clip-path="url(#p8a48ffcc0c)" d="M 352.988277 300.04 
L 355.632414 300.04 
L 355.632414 300.04 
L 352.988277 300.04 
z
" style="fill:#808080;"/>
   </g>
   <g id="patch_91">
    <path clip-path="url(#p8a48ffcc0c)" d="M 356.293448 300.04 
L 358.937584 300.04 
L 358.937584 300.04 
L 356.293448 300.04 
z
" style="fill:#808080;"/>
   </g>
   <g id="patch_92">
    <path clip-path="url(#p8a48ffcc0c)" d="M 359.598619 300.04 
L 362.242755 300.04 
L 362.242755 300.04 
L 359.598619 300.04 
z
" style="fill:#808080;"/>
   </g>
   <g id="patch_93">
    <path clip-path="url(#p8a48ffcc0c)" d="M 362.903789 300.04 
L 365.547926 300.04 
L 365.547926 300.04 
L 362.903789 300.04 
z
" style="fill:#808080;"/>
   </g>
   <g id="patch_94">
    <path clip-path="url(#p8a48ffcc0c)" d="M 366.20896 300.04 
L 368.853097 300.04 
L 368.853097 300.04 
L 366.20896 300.04 
z
" style="fill:#808080;"/>
   </g>
   <g id="patch_95">
    <path clip-path="url(#p8a48ffcc0c)" d="M 369.514131 300.04 
L 372.158268 300.04 
L 372.158268 300.04 
L 369.514131 300.04 
z
" style="fill:#808080;"/>
   </g>
   <g id="patch_96">
    <path clip-path="url(#p8a48ffcc0c)" d="M 372.819302 300.04 
L 375.463439 300.04 
L 375.463439 300.04 
L 372.819302 300.04 
z
" style="fill:#808080;"/>
   </g>
   <g id="patch_97">
    <path clip-path="url(#p8a48ffcc0c)" d="M 376.124473 300.04 
L 378.768609 300.04 
L 378.768609 300.04 
L 376.124473 300.04 
z
" style="fill:#808080;"/>
   </g>
   <g id="patch_98">
    <path clip-path="url(#p8a48ffcc0c)" d="M 379.429644 300.04 
L 382.07378 300.04 
L 382.07378 300.04 
L 379.429644 300.04 
z
" style="fill:#808080;"/>
   </g>
   <g id="patch_99">
    <path clip-path="url(#p8a48ffcc0c)" d="M 382.734814 300.04 
L 385.378951 300.04 
L 385.378951 300.04 
L 382.734814 300.04 
z
" style="fill:#808080;"/>
   </g>
   <g id="patch_100">
    <path clip-path="url(#p8a48ffcc0c)" d="M 386.039985 300.04 
L 388.684122 300.04 
L 388.684122 300.04 
L 386.039985 300.04 
z
" style="fill:#808080;"/>
   </g>
   <g id="patch_101">
    <path clip-path="url(#p8a48ffcc0c)" d="M 389.345156 300.04 
L 391.989293 300.04 
L 391.989293 300.04 
L 389.345156 300.04 
z
" style="fill:#808080;"/>
   </g>
   <g id="patch_102">
    <path clip-path="url(#p8a48ffcc0c)" d="M 392.650327 300.04 
L 395.294464 300.04 
L 395.294464 296.778067 
L 392.650327 296.778067 
z
" style="fill:#808080;"/>
   </g>
   <g id="patch_103">
    <path clip-path="url(#p8a48ffcc0c)" d="M 395.955498 300.04 
L 398.599634 300.04 
L 398.599634 300.04 
L 395.955498 300.04 
z
" style="fill:#808080;"/>
   </g>
   <g id="patch_104">
    <path clip-path="url(#p8a48ffcc0c)" d="M 399.260669 300.04 
L 401.904805 300.04 
L 401.904805 300.04 
L 399.260669 300.04 
z
" style="fill:#808080;"/>
   </g>
   <g id="patch_105">
    <path clip-path="url(#p8a48ffcc0c)" d="M 402.565839 300.04 
L 405.209976 300.04 
L 405.209976 300.04 
L 402.565839 300.04 
z
" style="fill:#808080;"/>
   </g>
   <g id="patch_106">
    <path clip-path="url(#p8a48ffcc0c)" d="M 405.87101 300.04 
L 408.515147 300.04 
L 408.515147 300.04 
L 405.87101 300.04 
z
" style="fill:#808080;"/>
   </g>
   <g id="patch_107">
    <path clip-path="url(#p8a48ffcc0c)" d="M 409.176181 300.04 
L 411.820318 300.04 
L 411.820318 300.04 
L 409.176181 300.04 
z
" style="fill:#808080;"/>
   </g>
   <g id="patch_108">
    <path clip-path="url(#p8a48ffcc0c)" d="M 412.481352 300.04 
L 415.125489 300.04 
L 415.125489 300.04 
L 412.481352 300.04 
z
" style="fill:#808080;"/>
   </g>
   <g id="patch_109">
    <path clip-path="url(#p8a48ffcc0c)" d="M 415.786523 300.04 
L 418.430659 300.04 
L 418.430659 300.04 
L 415.786523 300.04 
z
" style="fill:#808080;"/>
   </g>
   <g id="patch_110">
    <path clip-path="url(#p8a48ffcc0c)" d="M 419.091694 300.04 
L 421.73583 300.04 
L 421.73583 300.04 
L 419.091694 300.04 
z
" style="fill:#808080;"/>
   </g>
   <g id="patch_111">
    <path clip-path="url(#p8a48ffcc0c)" d="M 422.396864 300.04 
L 425.041001 300.04 
L 425.041001 300.04 
L 422.396864 300.04 
z
" style="fill:#808080;"/>
   </g>
   <g id="matplotlib.axis_1">
    <g id="xtick_1">
     <g id="line2d_1">
      <defs>
       <path d="M 0 0 
L 0 3.5 
" id="m8c1d70b87f" style="stroke:#000000;stroke-width:0.8;"/>
      </defs>
      <g>
       <use style="stroke:#000000;stroke-width:0.8;" x="64.961545" xlink:href="#m8c1d70b87f" y="300.04"/>
      </g>
     </g>
     <g id="text_1">
      <!-- 0 -->
      <defs>
       <path d="M 31.78125 66.40625 
Q 24.171875 66.40625 20.328125 58.90625 
Q 16.5 51.421875 16.5 36.375 
Q 16.5 21.390625 20.328125 13.890625 
Q 24.171875 6.390625 31.78125 6.390625 
Q 39.453125 6.390625 43.28125 13.890625 
Q 47.125 21.390625 47.125 36.375 
Q 47.125 51.421875 43.28125 58.90625 
Q 39.453125 66.40625 31.78125 66.40625 
z
M 31.78125 74.21875 
Q 44.046875 74.21875 50.515625 64.515625 
Q 56.984375 54.828125 56.984375 36.375 
Q 56.984375 17.96875 50.515625 8.265625 
Q 44.046875 -1.421875 31.78125 -1.421875 
Q 19.53125 -1.421875 13.0625 8.265625 
Q 6.59375 17.96875 6.59375 36.375 
Q 6.59375 54.828125 13.0625 64.515625 
Q 19.53125 74.21875 31.78125 74.21875 
z
" id="DejaVuSans-48"/>
      </defs>
      <g transform="translate(61.780295 314.638437)scale(0.1 -0.1)">
       <use xlink:href="#DejaVuSans-48"/>
      </g>
     </g>
    </g>
    <g id="xtick_2">
     <g id="line2d_2">
      <g>
       <use style="stroke:#000000;stroke-width:0.8;" x="131.064961" xlink:href="#m8c1d70b87f" y="300.04"/>
      </g>
     </g>
     <g id="text_2">
      <!-- 20 -->
      <defs>
       <path d="M 19.1875 8.296875 
L 53.609375 8.296875 
L 53.609375 0 
L 7.328125 0 
L 7.328125 8.296875 
Q 12.9375 14.109375 22.625 23.890625 
Q 32.328125 33.6875 34.8125 36.53125 
Q 39.546875 41.84375 41.421875 45.53125 
Q 43.3125 49.21875 43.3125 52.78125 
Q 43.3125 58.59375 39.234375 62.25 
Q 35.15625 65.921875 28.609375 65.921875 
Q 23.96875 65.921875 18.8125 64.3125 
Q 13.671875 62.703125 7.8125 59.421875 
L 7.8125 69.390625 
Q 13.765625 71.78125 18.9375 73 
Q 24.125 74.21875 28.421875 74.21875 
Q 39.75 74.21875 46.484375 68.546875 
Q 53.21875 62.890625 53.21875 53.421875 
Q 53.21875 48.921875 51.53125 44.890625 
Q 49.859375 40.875 45.40625 35.40625 
Q 44.1875 33.984375 37.640625 27.21875 
Q 31.109375 20.453125 19.1875 8.296875 
z
" id="DejaVuSans-50"/>
      </defs>
      <g transform="translate(124.702461 314.638437)scale(0.1 -0.1)">
       <use xlink:href="#DejaVuSans-50"/>
       <use x="63.623047" xlink:href="#DejaVuSans-48"/>
      </g>
     </g>
    </g>
    <g id="xtick_3">
     <g id="line2d_3">
      <g>
       <use style="stroke:#000000;stroke-width:0.8;" x="197.168378" xlink:href="#m8c1d70b87f" y="300.04"/>
      </g>
     </g>
     <g id="text_3">
      <!-- 40 -->
      <defs>
       <path d="M 37.796875 64.3125 
L 12.890625 25.390625 
L 37.796875 25.390625 
z
M 35.203125 72.90625 
L 47.609375 72.90625 
L 47.609375 25.390625 
L 58.015625 25.390625 
L 58.015625 17.1875 
L 47.609375 17.1875 
L 47.609375 0 
L 37.796875 0 
L 37.796875 17.1875 
L 4.890625 17.1875 
L 4.890625 26.703125 
z
" id="DejaVuSans-52"/>
      </defs>
      <g transform="translate(190.805878 314.638437)scale(0.1 -0.1)">
       <use xlink:href="#DejaVuSans-52"/>
       <use x="63.623047" xlink:href="#DejaVuSans-48"/>
      </g>
     </g>
    </g>
    <g id="xtick_4">
     <g id="line2d_4">
      <g>
       <use style="stroke:#000000;stroke-width:0.8;" x="263.271794" xlink:href="#m8c1d70b87f" y="300.04"/>
      </g>
     </g>
     <g id="text_4">
      <!-- 60 -->
      <defs>
       <path d="M 33.015625 40.375 
Q 26.375 40.375 22.484375 35.828125 
Q 18.609375 31.296875 18.609375 23.390625 
Q 18.609375 15.53125 22.484375 10.953125 
Q 26.375 6.390625 33.015625 6.390625 
Q 39.65625 6.390625 43.53125 10.953125 
Q 47.40625 15.53125 47.40625 23.390625 
Q 47.40625 31.296875 43.53125 35.828125 
Q 39.65625 40.375 33.015625 40.375 
z
M 52.59375 71.296875 
L 52.59375 62.3125 
Q 48.875 64.0625 45.09375 64.984375 
Q 41.3125 65.921875 37.59375 65.921875 
Q 27.828125 65.921875 22.671875 59.328125 
Q 17.53125 52.734375 16.796875 39.40625 
Q 19.671875 43.65625 24.015625 45.921875 
Q 28.375 48.1875 33.59375 48.1875 
Q 44.578125 48.1875 50.953125 41.515625 
Q 57.328125 34.859375 57.328125 23.390625 
Q 57.328125 12.15625 50.6875 5.359375 
Q 44.046875 -1.421875 33.015625 -1.421875 
Q 20.359375 -1.421875 13.671875 8.265625 
Q 6.984375 17.96875 6.984375 36.375 
Q 6.984375 53.65625 15.1875 63.9375 
Q 23.390625 74.21875 37.203125 74.21875 
Q 40.921875 74.21875 44.703125 73.484375 
Q 48.484375 72.75 52.59375 71.296875 
z
" id="DejaVuSans-54"/>
      </defs>
      <g transform="translate(256.909294 314.638437)scale(0.1 -0.1)">
       <use xlink:href="#DejaVuSans-54"/>
       <use x="63.623047" xlink:href="#DejaVuSans-48"/>
      </g>
     </g>
    </g>
    <g id="xtick_5">
     <g id="line2d_5">
      <g>
       <use style="stroke:#000000;stroke-width:0.8;" x="329.375211" xlink:href="#m8c1d70b87f" y="300.04"/>
      </g>
     </g>
     <g id="text_5">
      <!-- 80 -->
      <defs>
       <path d="M 31.78125 34.625 
Q 24.75 34.625 20.71875 30.859375 
Q 16.703125 27.09375 16.703125 20.515625 
Q 16.703125 13.921875 20.71875 10.15625 
Q 24.75 6.390625 31.78125 6.390625 
Q 38.8125 6.390625 42.859375 10.171875 
Q 46.921875 13.96875 46.921875 20.515625 
Q 46.921875 27.09375 42.890625 30.859375 
Q 38.875 34.625 31.78125 34.625 
z
M 21.921875 38.8125 
Q 15.578125 40.375 12.03125 44.71875 
Q 8.5 49.078125 8.5 55.328125 
Q 8.5 64.0625 14.71875 69.140625 
Q 20.953125 74.21875 31.78125 74.21875 
Q 42.671875 74.21875 48.875 69.140625 
Q 55.078125 64.0625 55.078125 55.328125 
Q 55.078125 49.078125 51.53125 44.71875 
Q 48 40.375 41.703125 38.8125 
Q 48.828125 37.15625 52.796875 32.3125 
Q 56.78125 27.484375 56.78125 20.515625 
Q 56.78125 9.90625 50.3125 4.234375 
Q 43.84375 -1.421875 31.78125 -1.421875 
Q 19.734375 -1.421875 13.25 4.234375 
Q 6.78125 9.90625 6.78125 20.515625 
Q 6.78125 27.484375 10.78125 32.3125 
Q 14.796875 37.15625 21.921875 38.8125 
z
M 18.3125 54.390625 
Q 18.3125 48.734375 21.84375 45.5625 
Q 25.390625 42.390625 31.78125 42.390625 
Q 38.140625 42.390625 41.71875 45.5625 
Q 45.3125 48.734375 45.3125 54.390625 
Q 45.3125 60.0625 41.71875 63.234375 
Q 38.140625 66.40625 31.78125 66.40625 
Q 25.390625 66.40625 21.84375 63.234375 
Q 18.3125 60.0625 18.3125 54.390625 
z
" id="DejaVuSans-56"/>
      </defs>
      <g transform="translate(323.012711 314.638437)scale(0.1 -0.1)">
       <use xlink:href="#DejaVuSans-56"/>
       <use x="63.623047" xlink:href="#DejaVuSans-48"/>
      </g>
     </g>
    </g>
    <g id="xtick_6">
     <g id="line2d_6">
      <g>
       <use style="stroke:#000000;stroke-width:0.8;" x="395.478628" xlink:href="#m8c1d70b87f" y="300.04"/>
      </g>
     </g>
     <g id="text_6">
      <!-- 100 -->
      <defs>
       <path d="M 12.40625 8.296875 
L 28.515625 8.296875 
L 28.515625 63.921875 
L 10.984375 60.40625 
L 10.984375 69.390625 
L 28.421875 72.90625 
L 38.28125 72.90625 
L 38.28125 8.296875 
L 54.390625 8.296875 
L 54.390625 0 
L 12.40625 0 
z
" id="DejaVuSans-49"/>
      </defs>
      <g transform="translate(385.934878 314.638437)scale(0.1 -0.1)">
       <use xlink:href="#DejaVuSans-49"/>
       <use x="63.623047" xlink:href="#DejaVuSans-48"/>
       <use x="127.246094" xlink:href="#DejaVuSans-48"/>
      </g>
     </g>
    </g>
    <g id="text_7">
     <!-- MLE site rate -->
     <defs>
      <path d="M 9.8125 72.90625 
L 24.515625 72.90625 
L 43.109375 23.296875 
L 61.8125 72.90625 
L 76.515625 72.90625 
L 76.515625 0 
L 66.890625 0 
L 66.890625 64.015625 
L 48.09375 14.015625 
L 38.1875 14.015625 
L 19.390625 64.015625 
L 19.390625 0 
L 9.8125 0 
z
" id="DejaVuSans-77"/>
      <path d="M 9.8125 72.90625 
L 19.671875 72.90625 
L 19.671875 8.296875 
L 55.171875 8.296875 
L 55.171875 0 
L 9.8125 0 
z
" id="DejaVuSans-76"/>
      <path d="M 9.8125 72.90625 
L 55.90625 72.90625 
L 55.90625 64.59375 
L 19.671875 64.59375 
L 19.671875 43.015625 
L 54.390625 43.015625 
L 54.390625 34.71875 
L 19.671875 34.71875 
L 19.671875 8.296875 
L 56.78125 8.296875 
L 56.78125 0 
L 9.8125 0 
z
" id="DejaVuSans-69"/>
      <path id="DejaVuSans-32"/>
      <path d="M 44.28125 53.078125 
L 44.28125 44.578125 
Q 40.484375 46.53125 36.375 47.5 
Q 32.28125 48.484375 27.875 48.484375 
Q 21.1875 48.484375 17.84375 46.4375 
Q 14.5 44.390625 14.5 40.28125 
Q 14.5 37.15625 16.890625 35.375 
Q 19.28125 33.59375 26.515625 31.984375 
L 29.59375 31.296875 
Q 39.15625 29.25 43.1875 25.515625 
Q 47.21875 21.78125 47.21875 15.09375 
Q 47.21875 7.46875 41.1875 3.015625 
Q 35.15625 -1.421875 24.609375 -1.421875 
Q 20.21875 -1.421875 15.453125 -0.5625 
Q 10.6875 0.296875 5.421875 2 
L 5.421875 11.28125 
Q 10.40625 8.6875 15.234375 7.390625 
Q 20.0625 6.109375 24.8125 6.109375 
Q 31.15625 6.109375 34.5625 8.28125 
Q 37.984375 10.453125 37.984375 14.40625 
Q 37.984375 18.0625 35.515625 20.015625 
Q 33.0625 21.96875 24.703125 23.78125 
L 21.578125 24.515625 
Q 13.234375 26.265625 9.515625 29.90625 
Q 5.8125 33.546875 5.8125 39.890625 
Q 5.8125 47.609375 11.28125 51.796875 
Q 16.75 56 26.8125 56 
Q 31.78125 56 36.171875 55.265625 
Q 40.578125 54.546875 44.28125 53.078125 
z
" id="DejaVuSans-115"/>
      <path d="M 9.421875 54.6875 
L 18.40625 54.6875 
L 18.40625 0 
L 9.421875 0 
z
M 9.421875 75.984375 
L 18.40625 75.984375 
L 18.40625 64.59375 
L 9.421875 64.59375 
z
" id="DejaVuSans-105"/>
      <path d="M 18.3125 70.21875 
L 18.3125 54.6875 
L 36.8125 54.6875 
L 36.8125 47.703125 
L 18.3125 47.703125 
L 18.3125 18.015625 
Q 18.3125 11.328125 20.140625 9.421875 
Q 21.96875 7.515625 27.59375 7.515625 
L 36.8125 7.515625 
L 36.8125 0 
L 27.59375 0 
Q 17.1875 0 13.234375 3.875 
Q 9.28125 7.765625 9.28125 18.015625 
L 9.28125 47.703125 
L 2.6875 47.703125 
L 2.6875 54.6875 
L 9.28125 54.6875 
L 9.28125 70.21875 
z
" id="DejaVuSans-116"/>
      <path d="M 56.203125 29.59375 
L 56.203125 25.203125 
L 14.890625 25.203125 
Q 15.484375 15.921875 20.484375 11.0625 
Q 25.484375 6.203125 34.421875 6.203125 
Q 39.59375 6.203125 44.453125 7.46875 
Q 49.3125 8.734375 54.109375 11.28125 
L 54.109375 2.78125 
Q 49.265625 0.734375 44.1875 -0.34375 
Q 39.109375 -1.421875 33.890625 -1.421875 
Q 20.796875 -1.421875 13.15625 6.1875 
Q 5.515625 13.8125 5.515625 26.8125 
Q 5.515625 40.234375 12.765625 48.109375 
Q 20.015625 56 32.328125 56 
Q 43.359375 56 49.78125 48.890625 
Q 56.203125 41.796875 56.203125 29.59375 
z
M 47.21875 32.234375 
Q 47.125 39.59375 43.09375 43.984375 
Q 39.0625 48.390625 32.421875 48.390625 
Q 24.90625 48.390625 20.390625 44.140625 
Q 15.875 39.890625 15.1875 32.171875 
z
" id="DejaVuSans-101"/>
      <path d="M 41.109375 46.296875 
Q 39.59375 47.171875 37.8125 47.578125 
Q 36.03125 48 33.890625 48 
Q 26.265625 48 22.1875 43.046875 
Q 18.109375 38.09375 18.109375 28.8125 
L 18.109375 0 
L 9.078125 0 
L 9.078125 54.6875 
L 18.109375 54.6875 
L 18.109375 46.1875 
Q 20.953125 51.171875 25.484375 53.578125 
Q 30.03125 56 36.53125 56 
Q 37.453125 56 38.578125 55.875 
Q 39.703125 55.765625 41.0625 55.515625 
z
" id="DejaVuSans-114"/>
      <path d="M 34.28125 27.484375 
Q 23.390625 27.484375 19.1875 25 
Q 14.984375 22.515625 14.984375 16.5 
Q 14.984375 11.71875 18.140625 8.90625 
Q 21.296875 6.109375 26.703125 6.109375 
Q 34.1875 6.109375 38.703125 11.40625 
Q 43.21875 16.703125 43.21875 25.484375 
L 43.21875 27.484375 
z
M 52.203125 31.203125 
L 52.203125 0 
L 43.21875 0 
L 43.21875 8.296875 
Q 40.140625 3.328125 35.546875 0.953125 
Q 30.953125 -1.421875 24.3125 -1.421875 
Q 15.921875 -1.421875 10.953125 3.296875 
Q 6 8.015625 6 15.921875 
Q 6 25.140625 12.171875 29.828125 
Q 18.359375 34.515625 30.609375 34.515625 
L 43.21875 34.515625 
L 43.21875 35.40625 
Q 43.21875 41.609375 39.140625 45 
Q 35.0625 48.390625 27.6875 48.390625 
Q 23 48.390625 18.546875 47.265625 
Q 14.109375 46.140625 10.015625 43.890625 
L 10.015625 52.203125 
Q 14.9375 54.109375 19.578125 55.046875 
Q 24.21875 56 28.609375 56 
Q 40.484375 56 46.34375 49.84375 
Q 52.203125 43.703125 52.203125 31.203125 
z
" id="DejaVuSans-97"/>
     </defs>
     <g transform="translate(213.906406 328.316562)scale(0.1 -0.1)">
      <use xlink:href="#DejaVuSans-77"/>
      <use x="86.279297" xlink:href="#DejaVuSans-76"/>
      <use x="141.992188" xlink:href="#DejaVuSans-69"/>
      <use x="205.175781" xlink:href="#DejaVuSans-32"/>
      <use x="236.962891" xlink:href="#DejaVuSans-115"/>
      <use x="289.0625" xlink:href="#DejaVuSans-105"/>
      <use x="316.845703" xlink:href="#DejaVuSans-116"/>
      <use x="356.054688" xlink:href="#DejaVuSans-101"/>
      <use x="417.578125" xlink:href="#DejaVuSans-32"/>
      <use x="449.365234" xlink:href="#DejaVuSans-114"/>
      <use x="490.478516" xlink:href="#DejaVuSans-97"/>
      <use x="551.757812" xlink:href="#DejaVuSans-116"/>
      <use x="590.966797" xlink:href="#DejaVuSans-101"/>
     </g>
    </g>
   </g>
   <g id="matplotlib.axis_2">
    <g id="ytick_1">
     <g id="line2d_7">
      <defs>
       <path d="M 0 0 
L -3.5 0 
" id="m121f6792a4" style="stroke:#000000;stroke-width:0.8;"/>
      </defs>
      <g>
       <use style="stroke:#000000;stroke-width:0.8;" x="46.965625" xlink:href="#m121f6792a4" y="300.04"/>
      </g>
     </g>
     <g id="text_8">
      <!-- 0 -->
      <g transform="translate(33.603125 303.839219)scale(0.1 -0.1)">
       <use xlink:href="#DejaVuSans-48"/>
      </g>
     </g>
    </g>
    <g id="ytick_2">
     <g id="line2d_8">
      <g>
       <use style="stroke:#000000;stroke-width:0.8;" x="46.965625" xlink:href="#m121f6792a4" y="259.265842"/>
      </g>
     </g>
     <g id="text_9">
      <!-- 50 -->
      <defs>
       <path d="M 10.796875 72.90625 
L 49.515625 72.90625 
L 49.515625 64.59375 
L 19.828125 64.59375 
L 19.828125 46.734375 
Q 21.96875 47.46875 24.109375 47.828125 
Q 26.265625 48.1875 28.421875 48.1875 
Q 40.625 48.1875 47.75 41.5 
Q 54.890625 34.8125 54.890625 23.390625 
Q 54.890625 11.625 47.5625 5.09375 
Q 40.234375 -1.421875 26.90625 -1.421875 
Q 22.3125 -1.421875 17.546875 -0.640625 
Q 12.796875 0.140625 7.71875 1.703125 
L 7.71875 11.625 
Q 12.109375 9.234375 16.796875 8.0625 
Q 21.484375 6.890625 26.703125 6.890625 
Q 35.15625 6.890625 40.078125 11.328125 
Q 45.015625 15.765625 45.015625 23.390625 
Q 45.015625 31 40.078125 35.4375 
Q 35.15625 39.890625 26.703125 39.890625 
Q 22.75 39.890625 18.8125 39.015625 
Q 14.890625 38.140625 10.796875 36.28125 
z
" id="DejaVuSans-53"/>
      </defs>
      <g transform="translate(27.240625 263.065061)scale(0.1 -0.1)">
       <use xlink:href="#DejaVuSans-53"/>
       <use x="63.623047" xlink:href="#DejaVuSans-48"/>
      </g>
     </g>
    </g>
    <g id="ytick_3">
     <g id="line2d_9">
      <g>
       <use style="stroke:#000000;stroke-width:0.8;" x="46.965625" xlink:href="#m121f6792a4" y="218.491685"/>
      </g>
     </g>
     <g id="text_10">
      <!-- 100 -->
      <g transform="translate(20.878125 222.290904)scale(0.1 -0.1)">
       <use xlink:href="#DejaVuSans-49"/>
       <use x="63.623047" xlink:href="#DejaVuSans-48"/>
       <use x="127.246094" xlink:href="#DejaVuSans-48"/>
      </g>
     </g>
    </g>
    <g id="ytick_4">
     <g id="line2d_10">
      <g>
       <use style="stroke:#000000;stroke-width:0.8;" x="46.965625" xlink:href="#m121f6792a4" y="177.717527"/>
      </g>
     </g>
     <g id="text_11">
      <!-- 150 -->
      <g transform="translate(20.878125 181.516746)scale(0.1 -0.1)">
       <use xlink:href="#DejaVuSans-49"/>
       <use x="63.623047" xlink:href="#DejaVuSans-53"/>
       <use x="127.246094" xlink:href="#DejaVuSans-48"/>
      </g>
     </g>
    </g>
    <g id="ytick_5">
     <g id="line2d_11">
      <g>
       <use style="stroke:#000000;stroke-width:0.8;" x="46.965625" xlink:href="#m121f6792a4" y="136.94337"/>
      </g>
     </g>
     <g id="text_12">
      <!-- 200 -->
      <g transform="translate(20.878125 140.742588)scale(0.1 -0.1)">
       <use xlink:href="#DejaVuSans-50"/>
       <use x="63.623047" xlink:href="#DejaVuSans-48"/>
       <use x="127.246094" xlink:href="#DejaVuSans-48"/>
      </g>
     </g>
    </g>
    <g id="ytick_6">
     <g id="line2d_12">
      <g>
       <use style="stroke:#000000;stroke-width:0.8;" x="46.965625" xlink:href="#m121f6792a4" y="96.169212"/>
      </g>
     </g>
     <g id="text_13">
      <!-- 250 -->
      <g transform="translate(20.878125 99.968431)scale(0.1 -0.1)">
       <use xlink:href="#DejaVuSans-50"/>
       <use x="63.623047" xlink:href="#DejaVuSans-53"/>
       <use x="127.246094" xlink:href="#DejaVuSans-48"/>
      </g>
     </g>
    </g>
    <g id="ytick_7">
     <g id="line2d_13">
      <g>
       <use style="stroke:#000000;stroke-width:0.8;" x="46.965625" xlink:href="#m121f6792a4" y="55.395054"/>
      </g>
     </g>
     <g id="text_14">
      <!-- 300 -->
      <defs>
       <path d="M 40.578125 39.3125 
Q 47.65625 37.796875 51.625 33 
Q 55.609375 28.21875 55.609375 21.1875 
Q 55.609375 10.40625 48.1875 4.484375 
Q 40.765625 -1.421875 27.09375 -1.421875 
Q 22.515625 -1.421875 17.65625 -0.515625 
Q 12.796875 0.390625 7.625 2.203125 
L 7.625 11.71875 
Q 11.71875 9.328125 16.59375 8.109375 
Q 21.484375 6.890625 26.8125 6.890625 
Q 36.078125 6.890625 40.9375 10.546875 
Q 45.796875 14.203125 45.796875 21.1875 
Q 45.796875 27.640625 41.28125 31.265625 
Q 36.765625 34.90625 28.71875 34.90625 
L 20.21875 34.90625 
L 20.21875 43.015625 
L 29.109375 43.015625 
Q 36.375 43.015625 40.234375 45.921875 
Q 44.09375 48.828125 44.09375 54.296875 
Q 44.09375 59.90625 40.109375 62.90625 
Q 36.140625 65.921875 28.71875 65.921875 
Q 24.65625 65.921875 20.015625 65.03125 
Q 15.375 64.15625 9.8125 62.3125 
L 9.8125 71.09375 
Q 15.4375 72.65625 20.34375 73.4375 
Q 25.25 74.21875 29.59375 74.21875 
Q 40.828125 74.21875 47.359375 69.109375 
Q 53.90625 64.015625 53.90625 55.328125 
Q 53.90625 49.265625 50.4375 45.09375 
Q 46.96875 40.921875 40.578125 39.3125 
z
" id="DejaVuSans-51"/>
      </defs>
      <g transform="translate(20.878125 59.194273)scale(0.1 -0.1)">
       <use xlink:href="#DejaVuSans-51"/>
       <use x="63.623047" xlink:href="#DejaVuSans-48"/>
       <use x="127.246094" xlink:href="#DejaVuSans-48"/>
      </g>
     </g>
    </g>
    <g id="ytick_8">
     <g id="line2d_14">
      <g>
       <use style="stroke:#000000;stroke-width:0.8;" x="46.965625" xlink:href="#m121f6792a4" y="14.620897"/>
      </g>
     </g>
     <g id="text_15">
      <!-- 350 -->
      <g transform="translate(20.878125 18.420115)scale(0.1 -0.1)">
       <use xlink:href="#DejaVuSans-51"/>
       <use x="63.623047" xlink:href="#DejaVuSans-53"/>
       <use x="127.246094" xlink:href="#DejaVuSans-48"/>
      </g>
     </g>
    </g>
    <g id="text_16">
     <!-- Number of sites -->
     <defs>
      <path d="M 9.8125 72.90625 
L 23.09375 72.90625 
L 55.421875 11.921875 
L 55.421875 72.90625 
L 64.984375 72.90625 
L 64.984375 0 
L 51.703125 0 
L 19.390625 60.984375 
L 19.390625 0 
L 9.8125 0 
z
" id="DejaVuSans-78"/>
      <path d="M 8.5 21.578125 
L 8.5 54.6875 
L 17.484375 54.6875 
L 17.484375 21.921875 
Q 17.484375 14.15625 20.5 10.265625 
Q 23.53125 6.390625 29.59375 6.390625 
Q 36.859375 6.390625 41.078125 11.03125 
Q 45.3125 15.671875 45.3125 23.6875 
L 45.3125 54.6875 
L 54.296875 54.6875 
L 54.296875 0 
L 45.3125 0 
L 45.3125 8.40625 
Q 42.046875 3.421875 37.71875 1 
Q 33.40625 -1.421875 27.6875 -1.421875 
Q 18.265625 -1.421875 13.375 4.4375 
Q 8.5 10.296875 8.5 21.578125 
z
M 31.109375 56 
z
" id="DejaVuSans-117"/>
      <path d="M 52 44.1875 
Q 55.375 50.25 60.0625 53.125 
Q 64.75 56 71.09375 56 
Q 79.640625 56 84.28125 50.015625 
Q 88.921875 44.046875 88.921875 33.015625 
L 88.921875 0 
L 79.890625 0 
L 79.890625 32.71875 
Q 79.890625 40.578125 77.09375 44.375 
Q 74.3125 48.1875 68.609375 48.1875 
Q 61.625 48.1875 57.5625 43.546875 
Q 53.515625 38.921875 53.515625 30.90625 
L 53.515625 0 
L 44.484375 0 
L 44.484375 32.71875 
Q 44.484375 40.625 41.703125 44.40625 
Q 38.921875 48.1875 33.109375 48.1875 
Q 26.21875 48.1875 22.15625 43.53125 
Q 18.109375 38.875 18.109375 30.90625 
L 18.109375 0 
L 9.078125 0 
L 9.078125 54.6875 
L 18.109375 54.6875 
L 18.109375 46.1875 
Q 21.1875 51.21875 25.484375 53.609375 
Q 29.78125 56 35.6875 56 
Q 41.65625 56 45.828125 52.96875 
Q 50 49.953125 52 44.1875 
z
" id="DejaVuSans-109"/>
      <path d="M 48.6875 27.296875 
Q 48.6875 37.203125 44.609375 42.84375 
Q 40.53125 48.484375 33.40625 48.484375 
Q 26.265625 48.484375 22.1875 42.84375 
Q 18.109375 37.203125 18.109375 27.296875 
Q 18.109375 17.390625 22.1875 11.75 
Q 26.265625 6.109375 33.40625 6.109375 
Q 40.53125 6.109375 44.609375 11.75 
Q 48.6875 17.390625 48.6875 27.296875 
z
M 18.109375 46.390625 
Q 20.953125 51.265625 25.265625 53.625 
Q 29.59375 56 35.59375 56 
Q 45.5625 56 51.78125 48.09375 
Q 58.015625 40.1875 58.015625 27.296875 
Q 58.015625 14.40625 51.78125 6.484375 
Q 45.5625 -1.421875 35.59375 -1.421875 
Q 29.59375 -1.421875 25.265625 0.953125 
Q 20.953125 3.328125 18.109375 8.203125 
L 18.109375 0 
L 9.078125 0 
L 9.078125 75.984375 
L 18.109375 75.984375 
z
" id="DejaVuSans-98"/>
      <path d="M 30.609375 48.390625 
Q 23.390625 48.390625 19.1875 42.75 
Q 14.984375 37.109375 14.984375 27.296875 
Q 14.984375 17.484375 19.15625 11.84375 
Q 23.34375 6.203125 30.609375 6.203125 
Q 37.796875 6.203125 41.984375 11.859375 
Q 46.1875 17.53125 46.1875 27.296875 
Q 46.1875 37.015625 41.984375 42.703125 
Q 37.796875 48.390625 30.609375 48.390625 
z
M 30.609375 56 
Q 42.328125 56 49.015625 48.375 
Q 55.71875 40.765625 55.71875 27.296875 
Q 55.71875 13.875 49.015625 6.21875 
Q 42.328125 -1.421875 30.609375 -1.421875 
Q 18.84375 -1.421875 12.171875 6.21875 
Q 5.515625 13.875 5.515625 27.296875 
Q 5.515625 40.765625 12.171875 48.375 
Q 18.84375 56 30.609375 56 
z
" id="DejaVuSans-111"/>
      <path d="M 37.109375 75.984375 
L 37.109375 68.5 
L 28.515625 68.5 
Q 23.6875 68.5 21.796875 66.546875 
Q 19.921875 64.59375 19.921875 59.515625 
L 19.921875 54.6875 
L 34.71875 54.6875 
L 34.71875 47.703125 
L 19.921875 47.703125 
L 19.921875 0 
L 10.890625 0 
L 10.890625 47.703125 
L 2.296875 47.703125 
L 2.296875 54.6875 
L 10.890625 54.6875 
L 10.890625 58.5 
Q 10.890625 67.625 15.140625 71.796875 
Q 19.390625 75.984375 28.609375 75.984375 
z
" id="DejaVuSans-102"/>
     </defs>
     <g transform="translate(14.798437 193.33875)rotate(-90)scale(0.1 -0.1)">
      <use xlink:href="#DejaVuSans-78"/>
      <use x="74.804688" xlink:href="#DejaVuSans-117"/>
      <use x="138.183594" xlink:href="#DejaVuSans-109"/>
      <use x="235.595703" xlink:href="#DejaVuSans-98"/>
      <use x="299.072266" xlink:href="#DejaVuSans-101"/>
      <use x="360.595703" xlink:href="#DejaVuSans-114"/>
      <use x="401.708984" xlink:href="#DejaVuSans-32"/>
      <use x="433.496094" xlink:href="#DejaVuSans-111"/>
      <use x="494.677734" xlink:href="#DejaVuSans-102"/>
      <use x="529.882812" xlink:href="#DejaVuSans-32"/>
      <use x="561.669922" xlink:href="#DejaVuSans-115"/>
      <use x="613.769531" xlink:href="#DejaVuSans-105"/>
      <use x="641.552734" xlink:href="#DejaVuSans-116"/>
      <use x="680.761719" xlink:href="#DejaVuSans-101"/>
      <use x="742.285156" xlink:href="#DejaVuSans-115"/>
     </g>
    </g>
   </g>
   <g id="line2d_15">
    <path clip-path="url(#p8a48ffcc0c)" d="M 65.107898 269.684366 
L 66.562188 269.68109 
L 68.016479 270.028021 
L 69.470769 270.712762 
L 70.925059 271.711554 
L 72.37935 272.990649 
L 74.560785 275.341658 
L 76.742221 278.064595 
L 84.740818 288.550267 
L 86.922254 290.969951 
L 89.103689 293.059198 
L 91.285125 294.800925 
L 93.466561 296.205392 
L 95.647996 297.302375 
L 97.829432 298.13327 
L 100.010867 298.744165 
L 102.919448 299.294441 
L 106.555174 299.688125 
L 110.918045 299.908731 
L 118.189497 300.017622 
L 134.913837 299.986044 
L 147.275305 299.769077 
L 173.452532 299.145701 
L 183.632565 299.27101 
L 208.355502 299.691191 
L 224.352696 299.615676 
L 238.8956 299.602582 
L 291.250055 300.003951 
L 334.151622 300.039986 
L 374.871753 299.935135 
L 399.594689 299.737387 
L 427.953352 300.025018 
L 427.953352 300.025018 
" style="fill:none;stroke:#000000;stroke-dasharray:3.7,1.6;stroke-dashoffset:0;stroke-opacity:0.8;"/>
   </g>
   <g id="patch_112">
    <path d="M 46.965625 300.04 
L 46.965625 7.2 
" style="fill:none;stroke:#000000;stroke-linecap:square;stroke-linejoin:miter;stroke-width:0.8;"/>
   </g>
   <g id="patch_113">
    <path d="M 446.095625 300.04 
L 446.095625 7.2 
" style="fill:none;stroke:#000000;stroke-linecap:square;stroke-linejoin:miter;stroke-width:0.8;"/>
   </g>
   <g id="patch_114">
    <path d="M 46.965625 300.04 
L 446.095625 300.04 
" style="fill:none;stroke:#000000;stroke-linecap:square;stroke-linejoin:miter;stroke-width:0.8;"/>
   </g>
   <g id="patch_115">
    <path d="M 46.965625 7.2 
L 446.095625 7.2 
" style="fill:none;stroke:#000000;stroke-linecap:square;stroke-linejoin:miter;stroke-width:0.8;"/>
   </g>
   <g id="legend_1">
    <g id="line2d_16">
     <path d="M 357.322187 20.298438 
L 377.322187 20.298438 
" style="fill:none;stroke:#000000;stroke-dasharray:3.7,1.6;stroke-dashoffset:0;stroke-opacity:0.8;"/>
    </g>
    <g id="line2d_17"/>
    <g id="text_17">
     <!-- KDE curve -->
     <defs>
      <path d="M 9.8125 72.90625 
L 19.671875 72.90625 
L 19.671875 42.09375 
L 52.390625 72.90625 
L 65.09375 72.90625 
L 28.90625 38.921875 
L 67.671875 0 
L 54.6875 0 
L 19.671875 35.109375 
L 19.671875 0 
L 9.8125 0 
z
" id="DejaVuSans-75"/>
      <path d="M 19.671875 64.796875 
L 19.671875 8.109375 
L 31.59375 8.109375 
Q 46.6875 8.109375 53.6875 14.9375 
Q 60.6875 21.78125 60.6875 36.53125 
Q 60.6875 51.171875 53.6875 57.984375 
Q 46.6875 64.796875 31.59375 64.796875 
z
M 9.8125 72.90625 
L 30.078125 72.90625 
Q 51.265625 72.90625 61.171875 64.09375 
Q 71.09375 55.28125 71.09375 36.53125 
Q 71.09375 17.671875 61.125 8.828125 
Q 51.171875 0 30.078125 0 
L 9.8125 0 
z
" id="DejaVuSans-68"/>
      <path d="M 48.78125 52.59375 
L 48.78125 44.1875 
Q 44.96875 46.296875 41.140625 47.34375 
Q 37.3125 48.390625 33.40625 48.390625 
Q 24.65625 48.390625 19.8125 42.84375 
Q 14.984375 37.3125 14.984375 27.296875 
Q 14.984375 17.28125 19.8125 11.734375 
Q 24.65625 6.203125 33.40625 6.203125 
Q 37.3125 6.203125 41.140625 7.25 
Q 44.96875 8.296875 48.78125 10.40625 
L 48.78125 2.09375 
Q 45.015625 0.34375 40.984375 -0.53125 
Q 36.96875 -1.421875 32.421875 -1.421875 
Q 20.0625 -1.421875 12.78125 6.34375 
Q 5.515625 14.109375 5.515625 27.296875 
Q 5.515625 40.671875 12.859375 48.328125 
Q 20.21875 56 33.015625 56 
Q 37.15625 56 41.109375 55.140625 
Q 45.0625 54.296875 48.78125 52.59375 
z
" id="DejaVuSans-99"/>
      <path d="M 2.984375 54.6875 
L 12.5 54.6875 
L 29.59375 8.796875 
L 46.6875 54.6875 
L 56.203125 54.6875 
L 35.6875 0 
L 23.484375 0 
z
" id="DejaVuSans-118"/>
     </defs>
     <g transform="translate(385.322187 23.798438)scale(0.1 -0.1)">
      <use xlink:href="#DejaVuSans-75"/>
      <use x="65.576172" xlink:href="#DejaVuSans-68"/>
      <use x="142.578125" xlink:href="#DejaVuSans-69"/>
      <use x="205.761719" xlink:href="#DejaVuSans-32"/>
      <use x="237.548828" xlink:href="#DejaVuSans-99"/>
      <use x="292.529297" xlink:href="#DejaVuSans-117"/>
      <use x="355.908203" xlink:href="#DejaVuSans-114"/>
      <use x="397.021484" xlink:href="#DejaVuSans-118"/>
      <use x="456.201172" xlink:href="#DejaVuSans-101"/>
     </g>
    </g>
   </g>
  </g>
  <g id="axes_2">
   <g id="patch_116">
    <path d="M 180.415625 203.76 
L 410.815625 203.76 
L 410.815625 30.96 
L 180.415625 30.96 
z
" style="fill:#ffffff;"/>
   </g>
   <g id="patch_117">
    <path clip-path="url(#pe776c71df4)" d="M 190.888352 203.76 
L 194.253084 203.76 
L 194.253084 39.188571 
L 190.888352 39.188571 
z
" style="fill:#808080;"/>
   </g>
   <g id="patch_118">
    <path clip-path="url(#pe776c71df4)" d="M 195.094267 203.76 
L 198.458998 203.76 
L 198.458998 203.76 
L 195.094267 203.76 
z
" style="fill:#808080;"/>
   </g>
   <g id="patch_119">
    <path clip-path="url(#pe776c71df4)" d="M 199.300181 203.76 
L 202.664913 203.76 
L 202.664913 203.76 
L 199.300181 203.76 
z
" style="fill:#808080;"/>
   </g>
   <g id="patch_120">
    <path clip-path="url(#pe776c71df4)" d="M 203.506096 203.76 
L 206.870828 203.76 
L 206.870828 203.76 
L 203.506096 203.76 
z
" style="fill:#808080;"/>
   </g>
   <g id="patch_121">
    <path clip-path="url(#pe776c71df4)" d="M 207.712011 203.76 
L 211.076742 203.76 
L 211.076742 203.76 
L 207.712011 203.76 
z
" style="fill:#808080;"/>
   </g>
   <g id="patch_122">
    <path clip-path="url(#pe776c71df4)" d="M 211.917925 203.76 
L 215.282657 203.76 
L 215.282657 203.76 
L 211.917925 203.76 
z
" style="fill:#808080;"/>
   </g>
   <g id="patch_123">
    <path clip-path="url(#pe776c71df4)" d="M 216.12384 203.76 
L 219.488571 203.76 
L 219.488571 201.696408 
L 216.12384 201.696408 
z
" style="fill:#808080;"/>
   </g>
   <g id="patch_124">
    <path clip-path="url(#pe776c71df4)" d="M 220.329754 203.76 
L 223.694486 203.76 
L 223.694486 203.76 
L 220.329754 203.76 
z
" style="fill:#808080;"/>
   </g>
   <g id="patch_125">
    <path clip-path="url(#pe776c71df4)" d="M 224.535669 203.76 
L 227.9004 203.76 
L 227.9004 201.180511 
L 224.535669 201.180511 
z
" style="fill:#808080;"/>
   </g>
   <g id="patch_126">
    <path clip-path="url(#pe776c71df4)" d="M 228.741583 203.76 
L 232.106315 203.76 
L 232.106315 196.537429 
L 228.741583 196.537429 
z
" style="fill:#808080;"/>
   </g>
   <g id="patch_127">
    <path clip-path="url(#pe776c71df4)" d="M 232.947498 203.76 
L 236.31223 203.76 
L 236.31223 201.180511 
L 232.947498 201.180511 
z
" style="fill:#808080;"/>
   </g>
   <g id="patch_128">
    <path clip-path="url(#pe776c71df4)" d="M 237.153413 203.76 
L 240.518144 203.76 
L 240.518144 203.244102 
L 237.153413 203.244102 
z
" style="fill:#808080;"/>
   </g>
   <g id="patch_129">
    <path clip-path="url(#pe776c71df4)" d="M 241.359327 203.76 
L 244.724059 203.76 
L 244.724059 201.696408 
L 241.359327 201.696408 
z
" style="fill:#808080;"/>
   </g>
   <g id="patch_130">
    <path clip-path="url(#pe776c71df4)" d="M 245.565242 203.76 
L 248.929973 203.76 
L 248.929973 199.116919 
L 245.565242 199.116919 
z
" style="fill:#808080;"/>
   </g>
   <g id="patch_131">
    <path clip-path="url(#pe776c71df4)" d="M 249.771156 203.76 
L 253.135888 203.76 
L 253.135888 203.244102 
L 249.771156 203.244102 
z
" style="fill:#808080;"/>
   </g>
   <g id="patch_132">
    <path clip-path="url(#pe776c71df4)" d="M 253.977071 203.76 
L 257.341802 203.76 
L 257.341802 201.696408 
L 253.977071 201.696408 
z
" style="fill:#808080;"/>
   </g>
   <g id="patch_133">
    <path clip-path="url(#pe776c71df4)" d="M 258.182985 203.76 
L 261.547717 203.76 
L 261.547717 202.212306 
L 258.182985 202.212306 
z
" style="fill:#808080;"/>
   </g>
   <g id="patch_134">
    <path clip-path="url(#pe776c71df4)" d="M 262.3889 203.76 
L 265.753632 203.76 
L 265.753632 203.76 
L 262.3889 203.76 
z
" style="fill:#808080;"/>
   </g>
   <g id="patch_135">
    <path clip-path="url(#pe776c71df4)" d="M 266.594814 203.76 
L 269.959546 203.76 
L 269.959546 203.244102 
L 266.594814 203.244102 
z
" style="fill:#808080;"/>
   </g>
   <g id="patch_136">
    <path clip-path="url(#pe776c71df4)" d="M 270.800729 203.76 
L 274.165461 203.76 
L 274.165461 202.728204 
L 270.800729 202.728204 
z
" style="fill:#808080;"/>
   </g>
   <g id="patch_137">
    <path clip-path="url(#pe776c71df4)" d="M 275.006644 203.76 
L 278.371375 203.76 
L 278.371375 202.728204 
L 275.006644 202.728204 
z
" style="fill:#808080;"/>
   </g>
   <g id="patch_138">
    <path clip-path="url(#pe776c71df4)" d="M 279.212558 203.76 
L 282.57729 203.76 
L 282.57729 203.76 
L 279.212558 203.76 
z
" style="fill:#808080;"/>
   </g>
   <g id="patch_139">
    <path clip-path="url(#pe776c71df4)" d="M 283.418473 203.76 
L 286.783204 203.76 
L 286.783204 203.76 
L 283.418473 203.76 
z
" style="fill:#808080;"/>
   </g>
   <g id="patch_140">
    <path clip-path="url(#pe776c71df4)" d="M 287.624387 203.76 
L 290.989119 203.76 
L 290.989119 203.76 
L 287.624387 203.76 
z
" style="fill:#808080;"/>
   </g>
   <g id="patch_141">
    <path clip-path="url(#pe776c71df4)" d="M 291.830302 203.76 
L 295.195034 203.76 
L 295.195034 203.76 
L 291.830302 203.76 
z
" style="fill:#808080;"/>
   </g>
   <g id="patch_142">
    <path clip-path="url(#pe776c71df4)" d="M 296.036216 203.76 
L 299.400948 203.76 
L 299.400948 203.76 
L 296.036216 203.76 
z
" style="fill:#808080;"/>
   </g>
   <g id="patch_143">
    <path clip-path="url(#pe776c71df4)" d="M 300.242131 203.76 
L 303.606863 203.76 
L 303.606863 203.244102 
L 300.242131 203.244102 
z
" style="fill:#808080;"/>
   </g>
   <g id="patch_144">
    <path clip-path="url(#pe776c71df4)" d="M 304.448046 203.76 
L 307.812777 203.76 
L 307.812777 203.76 
L 304.448046 203.76 
z
" style="fill:#808080;"/>
   </g>
   <g id="patch_145">
    <path clip-path="url(#pe776c71df4)" d="M 308.65396 203.76 
L 312.018692 203.76 
L 312.018692 203.244102 
L 308.65396 203.244102 
z
" style="fill:#808080;"/>
   </g>
   <g id="patch_146">
    <path clip-path="url(#pe776c71df4)" d="M 312.859875 203.76 
L 316.224606 203.76 
L 316.224606 203.76 
L 312.859875 203.76 
z
" style="fill:#808080;"/>
   </g>
   <g id="patch_147">
    <path clip-path="url(#pe776c71df4)" d="M 317.065789 203.76 
L 320.430521 203.76 
L 320.430521 203.76 
L 317.065789 203.76 
z
" style="fill:#808080;"/>
   </g>
   <g id="patch_148">
    <path clip-path="url(#pe776c71df4)" d="M 321.271704 203.76 
L 324.636436 203.76 
L 324.636436 203.244102 
L 321.271704 203.244102 
z
" style="fill:#808080;"/>
   </g>
   <g id="patch_149">
    <path clip-path="url(#pe776c71df4)" d="M 325.477618 203.76 
L 328.84235 203.76 
L 328.84235 203.244102 
L 325.477618 203.244102 
z
" style="fill:#808080;"/>
   </g>
   <g id="patch_150">
    <path clip-path="url(#pe776c71df4)" d="M 329.683533 203.76 
L 333.048265 203.76 
L 333.048265 202.728204 
L 329.683533 202.728204 
z
" style="fill:#808080;"/>
   </g>
   <g id="patch_151">
    <path clip-path="url(#pe776c71df4)" d="M 333.889448 203.76 
L 337.254179 203.76 
L 337.254179 203.76 
L 333.889448 203.76 
z
" style="fill:#808080;"/>
   </g>
   <g id="patch_152">
    <path clip-path="url(#pe776c71df4)" d="M 338.095362 203.76 
L 341.460094 203.76 
L 341.460094 203.76 
L 338.095362 203.76 
z
" style="fill:#808080;"/>
   </g>
   <g id="patch_153">
    <path clip-path="url(#pe776c71df4)" d="M 342.301277 203.76 
L 345.666008 203.76 
L 345.666008 203.76 
L 342.301277 203.76 
z
" style="fill:#808080;"/>
   </g>
   <g id="patch_154">
    <path clip-path="url(#pe776c71df4)" d="M 346.507191 203.76 
L 349.871923 203.76 
L 349.871923 203.76 
L 346.507191 203.76 
z
" style="fill:#808080;"/>
   </g>
   <g id="patch_155">
    <path clip-path="url(#pe776c71df4)" d="M 350.713106 203.76 
L 354.077837 203.76 
L 354.077837 203.76 
L 350.713106 203.76 
z
" style="fill:#808080;"/>
   </g>
   <g id="patch_156">
    <path clip-path="url(#pe776c71df4)" d="M 354.91902 203.76 
L 358.283752 203.76 
L 358.283752 203.76 
L 354.91902 203.76 
z
" style="fill:#808080;"/>
   </g>
   <g id="patch_157">
    <path clip-path="url(#pe776c71df4)" d="M 359.124935 203.76 
L 362.489667 203.76 
L 362.489667 203.76 
L 359.124935 203.76 
z
" style="fill:#808080;"/>
   </g>
   <g id="patch_158">
    <path clip-path="url(#pe776c71df4)" d="M 363.33085 203.76 
L 366.695581 203.76 
L 366.695581 203.76 
L 363.33085 203.76 
z
" style="fill:#808080;"/>
   </g>
   <g id="patch_159">
    <path clip-path="url(#pe776c71df4)" d="M 367.536764 203.76 
L 370.901496 203.76 
L 370.901496 203.76 
L 367.536764 203.76 
z
" style="fill:#808080;"/>
   </g>
   <g id="patch_160">
    <path clip-path="url(#pe776c71df4)" d="M 371.742679 203.76 
L 375.10741 203.76 
L 375.10741 203.76 
L 371.742679 203.76 
z
" style="fill:#808080;"/>
   </g>
   <g id="patch_161">
    <path clip-path="url(#pe776c71df4)" d="M 375.948593 203.76 
L 379.313325 203.76 
L 379.313325 203.244102 
L 375.948593 203.244102 
z
" style="fill:#808080;"/>
   </g>
   <g id="patch_162">
    <path clip-path="url(#pe776c71df4)" d="M 380.154508 203.76 
L 383.519239 203.76 
L 383.519239 203.244102 
L 380.154508 203.244102 
z
" style="fill:#808080;"/>
   </g>
   <g id="patch_163">
    <path clip-path="url(#pe776c71df4)" d="M 384.360422 203.76 
L 387.725154 203.76 
L 387.725154 203.76 
L 384.360422 203.76 
z
" style="fill:#808080;"/>
   </g>
   <g id="patch_164">
    <path clip-path="url(#pe776c71df4)" d="M 388.566337 203.76 
L 391.931069 203.76 
L 391.931069 203.76 
L 388.566337 203.76 
z
" style="fill:#808080;"/>
   </g>
   <g id="patch_165">
    <path clip-path="url(#pe776c71df4)" d="M 392.772252 203.76 
L 396.136983 203.76 
L 396.136983 203.76 
L 392.772252 203.76 
z
" style="fill:#808080;"/>
   </g>
   <g id="patch_166">
    <path clip-path="url(#pe776c71df4)" d="M 396.978166 203.76 
L 400.342898 203.76 
L 400.342898 203.76 
L 396.978166 203.76 
z
" style="fill:#808080;"/>
   </g>
   <g id="matplotlib.axis_3">
    <g id="xtick_7">
     <g id="line2d_18">
      <g>
       <use style="stroke:#000000;stroke-width:0.8;" x="188.605382" xlink:href="#m8c1d70b87f" y="203.76"/>
      </g>
     </g>
     <g id="text_18">
      <!-- 0 -->
      <g transform="translate(185.424132 218.358437)scale(0.1 -0.1)">
       <use xlink:href="#DejaVuSans-48"/>
      </g>
     </g>
    </g>
    <g id="xtick_8">
     <g id="line2d_19">
      <g>
       <use style="stroke:#000000;stroke-width:0.8;" x="230.664528" xlink:href="#m8c1d70b87f" y="203.76"/>
      </g>
     </g>
     <g id="text_19">
      <!-- 1 -->
      <g transform="translate(227.483278 218.358437)scale(0.1 -0.1)">
       <use xlink:href="#DejaVuSans-49"/>
      </g>
     </g>
    </g>
    <g id="xtick_9">
     <g id="line2d_20">
      <g>
       <use style="stroke:#000000;stroke-width:0.8;" x="272.723673" xlink:href="#m8c1d70b87f" y="203.76"/>
      </g>
     </g>
     <g id="text_20">
      <!-- 2 -->
      <g transform="translate(269.542423 218.358437)scale(0.1 -0.1)">
       <use xlink:href="#DejaVuSans-50"/>
      </g>
     </g>
    </g>
    <g id="xtick_10">
     <g id="line2d_21">
      <g>
       <use style="stroke:#000000;stroke-width:0.8;" x="314.782819" xlink:href="#m8c1d70b87f" y="203.76"/>
      </g>
     </g>
     <g id="text_21">
      <!-- 3 -->
      <g transform="translate(311.601569 218.358437)scale(0.1 -0.1)">
       <use xlink:href="#DejaVuSans-51"/>
      </g>
     </g>
    </g>
    <g id="xtick_11">
     <g id="line2d_22">
      <g>
       <use style="stroke:#000000;stroke-width:0.8;" x="356.841965" xlink:href="#m8c1d70b87f" y="203.76"/>
      </g>
     </g>
     <g id="text_22">
      <!-- 4 -->
      <g transform="translate(353.660715 218.358437)scale(0.1 -0.1)">
       <use xlink:href="#DejaVuSans-52"/>
      </g>
     </g>
    </g>
    <g id="xtick_12">
     <g id="line2d_23">
      <g>
       <use style="stroke:#000000;stroke-width:0.8;" x="398.90111" xlink:href="#m8c1d70b87f" y="203.76"/>
      </g>
     </g>
     <g id="text_23">
      <!-- 5 -->
      <g transform="translate(395.71986 218.358437)scale(0.1 -0.1)">
       <use xlink:href="#DejaVuSans-53"/>
      </g>
     </g>
    </g>
    <g id="text_24">
     <!-- MLE site rate -->
     <g transform="translate(262.991406 232.036562)scale(0.1 -0.1)">
      <use xlink:href="#DejaVuSans-77"/>
      <use x="86.279297" xlink:href="#DejaVuSans-76"/>
      <use x="141.992188" xlink:href="#DejaVuSans-69"/>
      <use x="205.175781" xlink:href="#DejaVuSans-32"/>
      <use x="236.962891" xlink:href="#DejaVuSans-115"/>
      <use x="289.0625" xlink:href="#DejaVuSans-105"/>
      <use x="316.845703" xlink:href="#DejaVuSans-116"/>
      <use x="356.054688" xlink:href="#DejaVuSans-101"/>
      <use x="417.578125" xlink:href="#DejaVuSans-32"/>
      <use x="449.365234" xlink:href="#DejaVuSans-114"/>
      <use x="490.478516" xlink:href="#DejaVuSans-97"/>
      <use x="551.757812" xlink:href="#DejaVuSans-116"/>
      <use x="590.966797" xlink:href="#DejaVuSans-101"/>
     </g>
    </g>
   </g>
   <g id="matplotlib.axis_4">
    <g id="ytick_9">
     <g id="line2d_24">
      <g>
       <use style="stroke:#000000;stroke-width:0.8;" x="180.415625" xlink:href="#m121f6792a4" y="203.76"/>
      </g>
     </g>
     <g id="text_25">
      <!-- 0 -->
      <g transform="translate(167.053125 207.559219)scale(0.1 -0.1)">
       <use xlink:href="#DejaVuSans-48"/>
      </g>
     </g>
    </g>
    <g id="ytick_10">
     <g id="line2d_25">
      <g>
       <use style="stroke:#000000;stroke-width:0.8;" x="180.415625" xlink:href="#m121f6792a4" y="177.965105"/>
      </g>
     </g>
     <g id="text_26">
      <!-- 50 -->
      <g transform="translate(160.690625 181.764324)scale(0.1 -0.1)">
       <use xlink:href="#DejaVuSans-53"/>
       <use x="63.623047" xlink:href="#DejaVuSans-48"/>
      </g>
     </g>
    </g>
    <g id="ytick_11">
     <g id="line2d_26">
      <g>
       <use style="stroke:#000000;stroke-width:0.8;" x="180.415625" xlink:href="#m121f6792a4" y="152.17021"/>
      </g>
     </g>
     <g id="text_27">
      <!-- 100 -->
      <g transform="translate(154.328125 155.969429)scale(0.1 -0.1)">
       <use xlink:href="#DejaVuSans-49"/>
       <use x="63.623047" xlink:href="#DejaVuSans-48"/>
       <use x="127.246094" xlink:href="#DejaVuSans-48"/>
      </g>
     </g>
    </g>
    <g id="ytick_12">
     <g id="line2d_27">
      <g>
       <use style="stroke:#000000;stroke-width:0.8;" x="180.415625" xlink:href="#m121f6792a4" y="126.375316"/>
      </g>
     </g>
     <g id="text_28">
      <!-- 150 -->
      <g transform="translate(154.328125 130.174534)scale(0.1 -0.1)">
       <use xlink:href="#DejaVuSans-49"/>
       <use x="63.623047" xlink:href="#DejaVuSans-53"/>
       <use x="127.246094" xlink:href="#DejaVuSans-48"/>
      </g>
     </g>
    </g>
    <g id="ytick_13">
     <g id="line2d_28">
      <g>
       <use style="stroke:#000000;stroke-width:0.8;" x="180.415625" xlink:href="#m121f6792a4" y="100.580421"/>
      </g>
     </g>
     <g id="text_29">
      <!-- 200 -->
      <g transform="translate(154.328125 104.37964)scale(0.1 -0.1)">
       <use xlink:href="#DejaVuSans-50"/>
       <use x="63.623047" xlink:href="#DejaVuSans-48"/>
       <use x="127.246094" xlink:href="#DejaVuSans-48"/>
      </g>
     </g>
    </g>
    <g id="ytick_14">
     <g id="line2d_29">
      <g>
       <use style="stroke:#000000;stroke-width:0.8;" x="180.415625" xlink:href="#m121f6792a4" y="74.785526"/>
      </g>
     </g>
     <g id="text_30">
      <!-- 250 -->
      <g transform="translate(154.328125 78.584745)scale(0.1 -0.1)">
       <use xlink:href="#DejaVuSans-50"/>
       <use x="63.623047" xlink:href="#DejaVuSans-53"/>
       <use x="127.246094" xlink:href="#DejaVuSans-48"/>
      </g>
     </g>
    </g>
    <g id="ytick_15">
     <g id="line2d_30">
      <g>
       <use style="stroke:#000000;stroke-width:0.8;" x="180.415625" xlink:href="#m121f6792a4" y="48.990631"/>
      </g>
     </g>
     <g id="text_31">
      <!-- 300 -->
      <g transform="translate(154.328125 52.78985)scale(0.1 -0.1)">
       <use xlink:href="#DejaVuSans-51"/>
       <use x="63.623047" xlink:href="#DejaVuSans-48"/>
       <use x="127.246094" xlink:href="#DejaVuSans-48"/>
      </g>
     </g>
    </g>
    <g id="text_32">
     <!-- Number of sites -->
     <g transform="translate(148.248438 157.07875)rotate(-90)scale(0.1 -0.1)">
      <use xlink:href="#DejaVuSans-78"/>
      <use x="74.804688" xlink:href="#DejaVuSans-117"/>
      <use x="138.183594" xlink:href="#DejaVuSans-109"/>
      <use x="235.595703" xlink:href="#DejaVuSans-98"/>
      <use x="299.072266" xlink:href="#DejaVuSans-101"/>
      <use x="360.595703" xlink:href="#DejaVuSans-114"/>
      <use x="401.708984" xlink:href="#DejaVuSans-32"/>
      <use x="433.496094" xlink:href="#DejaVuSans-111"/>
      <use x="494.677734" xlink:href="#DejaVuSans-102"/>
      <use x="529.882812" xlink:href="#DejaVuSans-32"/>
      <use x="561.669922" xlink:href="#DejaVuSans-115"/>
      <use x="613.769531" xlink:href="#DejaVuSans-105"/>
      <use x="641.552734" xlink:href="#DejaVuSans-116"/>
      <use x="680.761719" xlink:href="#DejaVuSans-101"/>
      <use x="742.285156" xlink:href="#DejaVuSans-115"/>
     </g>
    </g>
   </g>
   <g id="patch_167">
    <path d="M 180.415625 203.76 
L 180.415625 30.96 
" style="fill:none;stroke:#000000;stroke-linecap:square;stroke-linejoin:miter;stroke-width:0.8;"/>
   </g>
   <g id="patch_168">
    <path d="M 410.815625 203.76 
L 410.815625 30.96 
" style="fill:none;stroke:#000000;stroke-linecap:square;stroke-linejoin:miter;stroke-width:0.8;"/>
   </g>
   <g id="patch_169">
    <path d="M 180.415625 203.76 
L 410.815625 203.76 
" style="fill:none;stroke:#000000;stroke-linecap:square;stroke-linejoin:miter;stroke-width:0.8;"/>
   </g>
   <g id="patch_170">
    <path d="M 180.415625 30.96 
L 410.815625 30.96 
" style="fill:none;stroke:#000000;stroke-linecap:square;stroke-linejoin:miter;stroke-width:0.8;"/>
   </g>
  </g>
 </g>
 <defs>
  <clipPath id="p8a48ffcc0c">
   <rect height="292.84" width="399.13" x="46.965625" y="7.2"/>
  </clipPath>
  <clipPath id="pe776c71df4">
   <rect height="172.8" width="230.4" x="180.415625" y="30.96"/>
  </clipPath>
 </defs>
</svg>
